0
SECTION
2
HEADER
0
ENDSEC
999
Created using Ray Dream Designer(R) 3
0
SECTION
2
ENTITIES
0
3DFACE
8
Cil_droite0
62
0
10
7.03875
20
5.42913
30
11.38012
11
7.11572
21
7.09533
31
11.37817
12
6.24035
22
5.46575
32
11.33154
13
6.24035
23
5.46575
33
11.33154
0
3DFACE
8
Cil_droite0
62
0
10
6.31732
20
7.13195
30
11.32958
11
6.24035
21
5.46575
31
11.33154
12
7.11572
22
7.09533
32
11.37817
13
7.11572
23
7.09533
33
11.37817
0
3DFACE
8
Cil_droite0
62
0
10
6.24035
20
5.46575
30
11.33154
11
6.31732
21
7.13195
31
11.32958
12
5.45245
22
5.50152
32
11.00292
13
5.45245
23
5.50152
33
11.00292
0
3DFACE
8
Cil_droite0
62
0
10
5.52947
20
7.16772
30
11.00097
11
5.45245
21
5.50152
31
11.00292
12
6.31732
22
7.13195
32
11.32958
13
6.31732
23
7.13195
33
11.32958
0
3DFACE
8
Cil_droite0
62
0
10
5.45245
20
5.50152
30
11.00292
11
5.52947
21
7.16772
31
11.00097
12
4.69305
22
5.53570
32
10.40191
13
4.69305
23
5.53570
33
10.40191
0
3DFACE
8
Cil_droite0
62
0
10
4.77008
20
7.20184
30
10.39990
11
4.69305
21
5.53570
31
10.40191
12
5.52947
22
7.16772
32
11.00097
13
5.52947
23
7.16772
33
11.00097
0
3DFACE
8
Cil_droite0
62
0
10
4.69305
20
5.53570
30
10.40191
11
4.77008
21
7.20184
31
10.39990
12
3.98040
22
5.56738
32
9.53643
13
3.98040
23
5.56738
33
9.53643
0
3DFACE
8
Cil_droite0
62
0
10
4.05743
20
7.23358
30
9.53448
11
3.98040
21
5.56738
31
9.53643
12
4.77008
22
7.20184
32
10.39990
13
4.77008
23
7.20184
33
10.39990
0
3DFACE
8
Cil_droite0
62
0
10
3.98040
20
5.56738
30
9.53643
11
4.05743
21
7.23358
31
9.53448
12
3.33245
22
5.59582
32
8.41430
13
3.33245
23
5.59582
33
8.41430
0
3DFACE
8
Cil_droite0
62
0
10
3.40942
20
7.26202
30
8.41235
11
3.33245
21
5.59582
31
8.41430
12
4.05743
22
7.23358
32
9.53448
13
4.05743
23
7.23358
33
9.53448
0
3DFACE
8
Cil_droite0
62
0
10
3.33245
20
5.59582
30
8.41430
11
3.40942
21
7.26202
31
8.41235
12
2.76751
22
5.62017
32
7.04345
13
2.76751
23
5.62017
33
7.04345
0
3DFACE
8
Cil_droite0
62
0
10
2.84448
20
7.28631
30
7.04144
11
2.76751
21
5.62017
31
7.04345
12
3.40942
22
7.26202
32
8.41235
13
3.40942
23
7.26202
33
8.41235
0
3DFACE
8
Cil_droite0
62
0
10
2.76751
20
5.62017
30
7.04345
11
2.84448
21
7.28631
31
7.04144
12
2.30358
22
5.63958
32
5.43151
13
2.30358
23
5.63958
33
5.43151
0
3DFACE
8
Cil_droite0
62
0
10
2.38055
20
7.30578
30
5.42956
11
2.30358
21
5.63958
31
5.43151
12
2.84448
22
7.28631
32
7.04144
13
2.84448
23
7.28631
33
7.04144
0
3DFACE
8
Cil_droite0
62
0
10
2.30358
20
5.63958
30
5.43151
11
2.38055
21
7.30578
31
5.42956
12
1.95892
22
5.65332
32
3.58660
13
1.95892
23
5.65332
33
3.58660
0
3DFACE
8
Cil_droite0
62
0
10
2.03588
20
7.31945
30
3.58459
11
1.95892
21
5.65332
31
3.58660
12
2.38055
22
7.30578
32
5.42956
13
2.38055
23
7.30578
33
5.42956
0
3DFACE
8
Cil_droite0
62
0
10
1.95892
20
5.65332
30
3.58660
11
2.03588
21
7.31945
31
3.58459
12
2.36273
22
5.63580
32
4.45983
13
2.36273
23
5.63580
33
4.45983
0
3DFACE
8
Cil_droite0
62
0
10
2.43969
20
7.30194
30
4.45782
11
2.36273
21
5.63580
31
4.45983
12
2.03588
22
7.31945
32
3.58459
13
2.03588
23
7.31945
33
3.58459
0
3DFACE
8
Cil_droite0
62
0
10
2.36273
20
5.63580
30
4.45983
11
2.43969
21
7.30194
31
4.45782
12
2.82940
22
5.61523
32
5.21130
13
2.82940
23
5.61523
33
5.21130
0
3DFACE
8
Cil_droite0
62
0
10
2.90637
20
7.28137
30
5.20928
11
2.82940
21
5.61523
31
5.21130
12
2.43969
22
7.30194
32
4.45782
13
2.43969
23
7.30194
33
4.45782
0
3DFACE
8
Cil_droite0
62
0
10
2.82940
20
5.61523
30
5.21130
11
2.90637
21
7.28137
31
5.20928
12
3.35064
22
5.59204
32
5.84143
13
3.35064
23
5.59204
33
5.84143
0
3DFACE
8
Cil_droite0
62
0
10
3.42761
20
7.25823
30
5.83947
11
3.35064
21
5.59204
31
5.84143
12
2.90637
22
7.28137
32
5.20928
13
2.90637
23
7.28137
33
5.20928
0
3DFACE
8
Cil_droite0
62
0
10
3.35064
20
5.59204
30
5.84143
11
3.42761
21
7.25823
31
5.83947
12
3.91851
22
5.56652
32
6.35113
13
3.91851
23
5.56652
33
6.35113
0
3DFACE
8
Cil_droite0
62
0
10
3.99548
20
7.23272
30
6.34918
11
3.91851
21
5.56652
31
6.35113
12
3.42761
22
7.25823
32
5.83947
13
3.42761
23
7.25823
33
5.83947
0
3DFACE
8
Cil_droite0
62
0
10
3.91851
20
5.56652
30
6.35113
11
3.99548
21
7.23272
31
6.34918
12
4.52453
22
5.53918
32
6.74066
13
4.52453
23
5.53918
33
6.74066
0
3DFACE
8
Cil_droite0
62
0
10
4.60150
20
7.20538
30
6.73870
11
4.52453
21
5.53918
31
6.74066
12
3.99548
22
7.23272
32
6.34918
13
3.99548
23
7.23272
33
6.34918
0
3DFACE
8
Cil_droite0
62
0
10
4.52453
20
5.53918
30
6.74066
11
4.60150
21
7.20538
31
6.73870
12
5.16082
22
5.51025
32
7.01080
13
5.16082
23
5.51025
33
7.01080
0
3DFACE
8
Cil_droite0
62
0
10
5.23779
20
7.17645
30
7.00885
11
5.16082
21
5.51025
31
7.01080
12
4.60150
22
7.20538
32
6.73870
13
4.60150
23
7.20538
33
6.73870
0
3DFACE
8
Cil_droite0
62
0
10
5.16082
20
5.51025
30
7.01080
11
5.23779
21
7.17645
31
7.00885
12
5.81909
22
5.48022
32
7.16204
13
5.81909
23
5.48022
33
7.16204
0
3DFACE
8
Cil_droite0
62
0
10
5.89611
20
7.14642
30
7.16009
11
5.81909
21
5.48022
31
7.16204
12
5.23779
22
7.17645
32
7.00885
13
5.23779
23
7.17645
33
7.00885
0
3DFACE
8
Cil_droite0
62
0
10
5.81909
20
5.48022
30
7.16204
11
5.89611
21
7.14642
31
7.16009
12
6.49127
22
5.44940
32
7.19519
13
6.49127
23
5.44940
33
7.19519
0
3DFACE
8
Cil_droite0
62
0
10
6.56829
20
7.11560
30
7.19323
11
6.49127
21
5.44940
31
7.19519
12
5.89611
22
7.14642
32
7.16009
13
5.89611
23
7.14642
33
7.16009
0
3DFACE
8
Cil_droite0
62
0
10
6.49127
20
5.44940
30
7.19519
11
6.56829
21
7.11560
31
7.19323
12
7.16894
22
5.41821
32
7.11041
13
7.16894
23
5.41821
33
7.11041
0
3DFACE
8
Cil_droite0
62
0
10
7.24597
20
7.08441
30
7.10845
11
7.16894
21
5.41821
31
7.11041
12
6.56829
22
7.11560
32
7.19323
13
6.56829
23
7.11560
33
7.19323
0
3DFACE
8
Cil_droite0
62
0
10
7.16894
20
5.41821
30
7.11041
11
7.24597
21
7.08441
31
7.10845
12
7.84429
22
5.38702
32
6.90875
13
7.84429
23
5.38702
33
6.90875
0
3DFACE
8
Cil_droite0
62
0
10
7.92132
20
7.05322
30
6.90679
11
7.84429
21
5.38702
31
6.90875
12
7.24597
22
7.08441
32
7.10845
13
7.24597
23
7.08441
33
7.10845
0
3DFACE
8
Cil_droite0
62
0
10
7.84429
20
5.38702
30
6.90875
11
7.92132
21
7.05322
31
6.90679
12
8.50885
22
5.35614
32
6.59057
13
8.50885
23
5.35614
33
6.59057
0
3DFACE
8
Cil_droite0
62
0
10
8.58587
20
7.02227
30
6.58856
11
8.50885
21
5.35614
31
6.59057
12
7.92132
22
7.05322
32
6.90679
13
7.92132
23
7.05322
33
6.90679
0
3DFACE
8
Cil_droite0
62
0
10
8.50885
20
5.35614
30
6.59057
11
8.58587
21
7.02227
31
6.58856
12
9.15472
22
5.32604
32
6.15661
13
9.15472
23
5.32604
33
6.15661
0
3DFACE
8
Cil_droite0
62
0
10
9.23175
20
6.99218
30
6.15460
11
9.15472
21
5.32604
31
6.15661
12
8.58587
22
7.02227
32
6.58856
13
8.58587
23
7.02227
33
6.58856
0
3DFACE
8
Cil_droite0
62
0
10
9.15472
20
5.32604
30
6.15661
11
9.23175
21
6.99218
31
6.15460
12
9.77349
22
5.29699
32
5.60717
13
9.77349
23
5.29699
33
5.60717
0
3DFACE
8
Cil_droite0
62
0
10
9.85052
20
6.96313
30
5.60516
11
9.77349
21
5.29699
31
5.60717
12
9.23175
22
6.99218
32
6.15460
13
9.23175
23
6.99218
33
6.15460
0
3DFACE
8
Cil_droite0
62
0
10
9.77349
20
5.29699
30
5.60717
11
9.85052
21
6.96313
31
5.60516
12
10.35723
22
5.26940
32
4.94311
13
10.35723
23
5.26940
33
4.94311
0
3DFACE
8
Cil_droite0
62
0
10
10.43426
20
6.93560
30
4.94116
11
10.35723
21
5.26940
31
4.94311
12
9.85052
22
6.96313
32
5.60516
13
9.85052
23
6.96313
33
5.60516
0
3DFACE
8
Cil_droite0
62
0
10
10.35723
20
5.26940
30
4.94311
11
10.43426
21
6.93560
31
4.94116
12
10.89746
22
5.24371
32
4.16497
13
10.89746
23
5.24371
33
4.16497
0
3DFACE
8
Cil_droite0
62
0
10
10.97448
20
6.90985
30
4.16296
11
10.89746
21
5.24371
31
4.16497
12
10.43426
22
6.93560
32
4.94116
13
10.43426
23
6.93560
33
4.94116
0
3DFACE
8
Cil_droite0
62
0
10
10.89746
20
5.24371
30
4.16497
11
10.97448
21
6.90985
31
4.16296
12
11.38647
22
5.22027
32
3.27337
13
11.38647
23
5.22027
33
3.27337
0
3DFACE
8
Cil_droite0
62
0
10
11.46350
20
6.88641
30
3.27136
11
11.38647
21
5.22027
31
3.27337
12
10.97448
22
6.90985
32
4.16296
13
10.97448
23
6.90985
33
4.16296
0
3DFACE
8
Cil_droite0
62
0
10
11.38647
20
5.22027
30
3.27337
11
11.46350
21
6.88641
31
3.27136
12
11.07385
22
5.23675
32
5.14392
13
11.07385
23
5.23675
33
5.14392
0
3DFACE
8
Cil_droite0
62
0
10
11.15087
20
6.90289
30
5.14190
11
11.07385
21
5.23675
31
5.14392
12
11.46350
22
6.88641
32
3.27136
13
11.46350
23
6.88641
33
3.27136
0
3DFACE
8
Cil_droite0
62
0
10
11.07385
20
5.23675
30
5.14392
11
11.15087
21
6.90289
31
5.14190
12
10.67138
22
5.25708
32
6.75921
13
10.67138
23
5.25708
33
6.75921
0
3DFACE
8
Cil_droite0
62
0
10
10.74841
20
6.92321
30
6.75720
11
10.67138
21
5.25708
31
6.75921
12
11.15087
22
6.90289
32
5.14190
13
11.15087
23
6.90289
33
5.14190
0
3DFACE
8
Cil_droite0
62
0
10
10.67138
20
5.25708
30
6.75921
11
10.74841
21
6.92321
31
6.75720
12
10.19085
22
5.28070
32
8.12438
13
10.19085
23
5.28070
33
8.12438
0
3DFACE
8
Cil_droite0
62
0
10
10.26788
20
6.94689
30
8.12243
11
10.19085
21
5.28070
31
8.12438
12
10.74841
22
6.92321
32
6.75720
13
10.74841
23
6.92321
33
6.75720
0
3DFACE
8
Cil_droite0
62
0
10
10.19085
20
5.28070
30
8.12438
11
10.26788
21
6.94689
31
8.12243
12
9.64434
22
5.30706
32
9.24462
13
9.64434
23
5.30706
33
9.24462
0
3DFACE
8
Cil_droite0
62
0
10
9.72137
20
6.97326
30
9.24267
11
9.64434
21
5.30706
31
9.24462
12
10.26788
22
6.94689
32
8.12243
13
10.26788
23
6.94689
33
8.12243
0
3DFACE
8
Cil_droite0
62
0
10
9.64434
20
5.30706
30
9.24462
11
9.72137
21
6.97326
31
9.24267
12
9.04370
22
5.33569
32
10.12506
13
9.04370
23
5.33569
33
10.12506
0
3DFACE
8
Cil_droite0
62
0
10
9.12072
20
7.00183
30
10.12304
11
9.04370
21
5.33569
31
10.12506
12
9.72137
22
6.97326
32
9.24267
13
9.72137
23
6.97326
33
9.24267
0
3DFACE
8
Cil_droite0
62
0
10
9.04370
20
5.33569
30
10.12506
11
9.12072
21
7.00183
31
10.12304
12
8.40136
22
5.36596
32
10.77099
13
8.40136
23
5.36596
33
10.77099
0
3DFACE
8
Cil_droite0
62
0
10
8.47839
20
7.03210
30
10.76898
11
8.40136
21
5.36596
31
10.77099
12
9.12072
22
7.00183
32
10.12304
13
9.12072
23
7.00183
33
10.12304
0
3DFACE
8
Cil_droite0
62
0
10
8.40136
20
5.36596
30
10.77099
11
8.47839
21
7.03210
31
10.76898
12
7.72894
22
5.39727
32
11.18762
13
7.72894
23
5.39727
33
11.18762
0
3DFACE
8
Cil_droite0
62
0
10
7.80590
20
7.06347
30
11.18566
11
7.72894
21
5.39727
31
11.18762
12
8.47839
22
7.03210
32
10.76898
13
8.47839
23
7.03210
33
10.76898
0
3DFACE
8
Cil_droite0
62
0
10
7.72894
20
5.39727
30
11.18762
11
7.80590
21
7.06347
31
11.18566
12
7.03875
22
5.42913
32
11.38012
13
7.03875
23
5.42913
33
11.38012
0
3DFACE
8
Cil_droite0
62
0
10
7.11572
20
7.09533
30
11.37817
11
7.03875
21
5.42913
31
11.38012
12
7.80590
22
7.06347
32
11.18566
13
7.80590
23
7.06347
33
11.18566
0
3DFACE
8
Cil_droite0
62
0
10
11.38647
20
5.22027
30
3.27337
11
11.14196
21
5.23199
31
3.71917
12
11.38647
22
5.22027
32
3.27337
13
11.38647
23
5.22027
33
3.27337
0
3DFACE
8
Cil_droite0
62
0
10
11.23059
20
5.22857
30
4.30932
11
11.38647
21
5.22027
31
3.27337
12
11.14196
22
5.23199
32
3.71917
13
11.14196
23
5.23199
33
3.71917
0
3DFACE
8
Cil_droite0
62
0
10
11.14196
20
5.23199
30
3.71917
11
10.89746
21
5.24371
31
4.16497
12
11.23059
22
5.22857
32
4.30932
13
11.23059
23
5.22857
33
4.30932
0
3DFACE
8
Cil_droite0
62
0
10
11.04724
20
5.23809
30
5.27111
11
11.23059
21
5.22857
31
4.30932
12
10.89746
22
5.24371
32
4.16497
13
10.89746
23
5.24371
33
4.16497
0
3DFACE
8
Cil_droite0
62
0
10
10.89746
20
5.24371
30
4.16497
11
10.62731
21
5.25653
31
4.55407
12
11.04724
22
5.23809
32
5.27111
13
11.04724
23
5.23809
33
5.27111
0
3DFACE
8
Cil_droite0
62
0
10
10.83819
20
5.24871
30
6.15948
11
11.04724
21
5.23809
31
5.27111
12
10.62731
22
5.25653
32
4.55407
13
10.62731
23
5.25653
33
4.55407
0
3DFACE
8
Cil_droite0
62
0
10
10.62731
20
5.25653
30
4.55407
11
10.35723
21
5.26940
31
4.94311
12
10.83819
22
5.24871
32
6.15948
13
10.83819
23
5.24871
33
6.15948
0
3DFACE
8
Cil_droite0
62
0
10
10.60534
20
5.26037
30
6.97528
11
10.83819
21
5.24871
31
6.15948
12
10.35723
22
5.26940
32
4.94311
13
10.35723
23
5.26940
33
4.94311
0
3DFACE
8
Cil_droite0
62
0
10
10.35723
20
5.26940
30
4.94311
11
9.77349
21
5.29699
31
5.60717
12
10.60534
22
5.26037
32
6.97528
13
10.60534
23
5.26037
33
6.97528
0
3DFACE
8
Cil_droite0
62
0
10
10.07550
20
5.28631
30
8.39202
11
10.60534
21
5.26037
31
6.97528
12
9.77349
22
5.29699
32
5.60717
13
9.77349
23
5.29699
33
5.60717
0
3DFACE
8
Cil_droite0
62
0
10
9.77349
20
5.29699
30
5.60717
11
9.15472
21
5.32604
31
6.15661
12
10.07550
22
5.28631
32
8.39202
13
10.07550
23
5.28631
33
8.39202
0
3DFACE
8
Cil_droite0
62
0
10
9.47290
20
5.31530
30
9.52801
11
10.07550
21
5.28631
31
8.39202
12
9.15472
22
5.32604
32
6.15661
13
9.15472
23
5.32604
33
6.15661
0
3DFACE
8
Cil_droite0
62
0
10
9.15472
20
5.32604
30
6.15661
11
8.50885
21
5.35614
31
6.59057
12
9.47290
22
5.31530
32
9.52801
13
9.47290
23
5.31530
33
9.52801
0
3DFACE
8
Cil_droite0
62
0
10
8.81195
20
5.34661
30
10.38934
11
9.47290
21
5.31530
31
9.52801
12
8.50885
22
5.35614
32
6.59057
13
8.50885
23
5.35614
33
6.59057
0
3DFACE
8
Cil_droite0
62
0
10
8.50885
20
5.35614
30
6.59057
11
7.84429
21
5.38702
31
6.90875
12
8.81195
22
5.34661
32
10.38934
13
8.81195
23
5.34661
33
10.38934
0
3DFACE
8
Cil_droite0
62
0
10
8.10784
20
5.37963
30
10.98260
11
8.81195
21
5.34661
31
10.38934
12
7.84429
22
5.38702
32
6.90875
13
7.84429
23
5.38702
33
6.90875
0
3DFACE
8
Cil_droite0
62
0
10
7.84429
20
5.38702
30
6.90875
11
7.16894
21
5.41821
31
7.11041
12
8.10784
22
5.37963
32
10.98260
13
8.10784
23
5.37963
33
10.98260
0
3DFACE
8
Cil_droite0
62
0
10
7.37536
20
5.41363
30
11.31427
11
8.10784
21
5.37963
31
10.98260
12
7.16894
22
5.41821
32
7.11041
13
7.16894
23
5.41821
33
7.11041
0
3DFACE
8
Cil_droite0
62
0
10
7.16894
20
5.41821
30
7.11041
11
6.49127
21
5.44940
31
7.19519
12
7.37536
22
5.41363
32
11.31427
13
7.37536
23
5.41363
33
11.31427
0
3DFACE
8
Cil_droite0
62
0
10
6.62945
20
5.44793
30
11.39080
11
7.37536
21
5.41363
31
11.31427
12
6.49127
22
5.44940
32
7.19519
13
6.49127
23
5.44940
33
7.19519
0
3DFACE
8
Cil_droite0
62
0
10
6.49127
20
5.44940
30
7.19519
11
5.81909
21
5.48022
31
7.16204
12
6.62945
22
5.44793
32
11.39080
13
6.62945
23
5.44793
33
11.39080
0
3DFACE
8
Cil_droite0
62
0
10
5.88464
20
5.48199
30
11.21850
11
6.62945
21
5.44793
31
11.39080
12
5.81909
22
5.48022
32
7.16204
13
5.81909
23
5.48022
33
7.16204
0
3DFACE
8
Cil_droite0
62
0
10
5.81909
20
5.48022
30
7.16204
11
5.16082
21
5.51025
31
7.01080
12
5.88464
22
5.48199
32
11.21850
13
5.88464
23
5.48199
33
11.21850
0
3DFACE
8
Cil_droite0
62
0
10
5.15618
20
5.51495
30
10.80383
11
5.88464
21
5.48199
31
11.21850
12
5.16082
22
5.51025
32
7.01080
13
5.16082
23
5.51025
33
7.01080
0
3DFACE
8
Cil_droite0
62
0
10
5.16082
20
5.51025
30
7.01080
11
4.52453
21
5.53918
31
6.74066
12
5.15618
22
5.51495
32
10.80383
13
5.15618
23
5.51495
33
10.80383
0
3DFACE
8
Cil_droite0
62
0
10
4.45886
20
5.54614
30
10.15319
11
5.15618
21
5.51495
31
10.80383
12
4.52453
22
5.53918
32
6.74066
13
4.52453
23
5.53918
33
6.74066
0
3DFACE
8
Cil_droite0
62
0
10
4.52453
20
5.53918
30
6.74066
11
3.91851
21
5.56652
31
6.35113
12
4.45886
22
5.54614
32
10.15319
13
4.45886
23
5.54614
33
10.15319
0
3DFACE
8
Cil_droite0
62
0
10
3.80749
20
5.57501
30
9.27319
11
4.45886
21
5.54614
31
10.15319
12
3.91851
22
5.56652
32
6.35113
13
3.91851
23
5.56652
33
6.35113
0
3DFACE
8
Cil_droite0
62
0
10
3.91851
20
5.56652
30
6.35113
11
3.35064
21
5.59204
31
5.84143
12
3.80749
22
5.57501
32
9.27319
13
3.80749
23
5.57501
33
9.27319
0
3DFACE
8
Cil_droite0
62
0
10
3.21685
20
5.60089
30
8.16998
11
3.80749
21
5.57501
31
9.27319
12
3.35064
22
5.59204
32
5.84143
13
3.35064
23
5.59204
33
5.84143
0
3DFACE
8
Cil_droite0
62
0
10
3.35064
20
5.59204
30
5.84143
11
2.82940
21
5.61523
31
5.21130
12
3.21685
22
5.60089
32
8.16998
13
3.21685
23
5.60089
33
8.16998
0
3DFACE
8
Cil_droite0
62
0
10
2.70202
20
5.62292
30
6.85028
11
3.21685
21
5.60089
31
8.16998
12
2.82940
22
5.61523
32
5.21130
13
2.82940
23
5.61523
33
5.21130
0
3DFACE
8
Cil_droite0
62
0
10
2.82940
20
5.61523
30
5.21130
11
2.36273
21
5.63580
31
4.45983
12
2.70202
22
5.62292
32
6.85028
13
2.70202
23
5.62292
33
6.85028
0
3DFACE
8
Cil_droite0
62
0
10
2.27770
20
5.64062
30
5.32025
11
2.70202
21
5.62292
31
6.85028
12
2.36273
22
5.63580
32
4.45983
13
2.36273
23
5.63580
33
4.45983
0
3DFACE
8
Cil_droite0
62
0
10
2.36273
20
5.63580
30
4.45983
11
1.95892
21
5.65332
31
3.58660
12
2.27770
22
5.64062
32
5.32025
13
2.27770
23
5.64062
33
5.32025
0
3DFACE
8
Cil_droite0
62
0
10
1.95892
20
5.65332
30
3.58660
11
2.27770
21
5.64062
31
5.32025
12
1.95892
22
5.65332
32
3.58660
13
1.95892
23
5.65332
33
3.58660
0
3DFACE
8
Cil_droite0
62
0
10
11.46350
20
6.88641
30
3.27136
11
11.21899
21
6.89813
31
3.71716
12
11.46350
22
6.88641
32
3.27136
13
11.46350
23
6.88641
33
3.27136
0
3DFACE
8
Cil_droite0
62
0
10
11.30761
20
6.89477
30
4.30737
11
11.46350
21
6.88641
31
3.27136
12
11.21899
22
6.89813
32
3.71716
13
11.21899
23
6.89813
33
3.71716
0
3DFACE
8
Cil_droite0
62
0
10
11.21899
20
6.89813
30
3.71716
11
10.97448
21
6.90985
31
4.16296
12
11.30761
22
6.89477
32
4.30737
13
11.30761
23
6.89477
33
4.30737
0
3DFACE
8
Cil_droite0
62
0
10
11.12426
20
6.90429
30
5.26916
11
11.30761
21
6.89477
31
4.30737
12
10.97448
22
6.90985
32
4.16296
13
10.97448
23
6.90985
33
4.16296
0
3DFACE
8
Cil_droite0
62
0
10
10.97448
20
6.90985
30
4.16296
11
10.70434
21
6.92272
31
4.55212
12
11.12426
22
6.90429
32
5.26916
13
11.12426
23
6.90429
33
5.26916
0
3DFACE
8
Cil_droite0
62
0
10
10.91522
20
6.91485
30
6.15747
11
11.12426
21
6.90429
31
5.26916
12
10.70434
22
6.92272
32
4.55212
13
10.70434
23
6.92272
33
4.55212
0
3DFACE
8
Cil_droite0
62
0
10
10.70434
20
6.92272
30
4.55212
11
10.43426
21
6.93560
31
4.94116
12
10.91522
22
6.91485
32
6.15747
13
10.91522
23
6.91485
33
6.15747
0
3DFACE
8
Cil_droite0
62
0
10
10.68237
20
6.92657
30
6.97332
11
10.91522
21
6.91485
31
6.15747
12
10.43426
22
6.93560
32
4.94116
13
10.43426
23
6.93560
33
4.94116
0
3DFACE
8
Cil_droite0
62
0
10
10.43426
20
6.93560
30
4.94116
11
9.85052
21
6.96313
31
5.60516
12
10.68237
22
6.92657
32
6.97332
13
10.68237
23
6.92657
33
6.97332
0
3DFACE
8
Cil_droite0
62
0
10
10.15252
20
6.95245
30
8.39001
11
10.68237
21
6.92657
31
6.97332
12
9.85052
22
6.96313
32
5.60516
13
9.85052
23
6.96313
33
5.60516
0
3DFACE
8
Cil_droite0
62
0
10
9.85052
20
6.96313
30
5.60516
11
9.23175
21
6.99218
31
6.15460
12
10.15252
22
6.95245
32
8.39001
13
10.15252
23
6.95245
33
8.39001
0
3DFACE
8
Cil_droite0
62
0
10
9.54992
20
6.98144
30
9.52600
11
10.15252
21
6.95245
31
8.39001
12
9.23175
22
6.99218
32
6.15460
13
9.23175
23
6.99218
33
6.15460
0
3DFACE
8
Cil_droite0
62
0
10
9.23175
20
6.99218
30
6.15460
11
8.58587
21
7.02227
31
6.58856
12
9.54992
22
6.98144
32
9.52600
13
9.54992
23
6.98144
33
9.52600
0
3DFACE
8
Cil_droite0
62
0
10
8.88897
20
7.01281
30
10.38739
11
9.54992
21
6.98144
31
9.52600
12
8.58587
22
7.02227
32
6.58856
13
8.58587
23
7.02227
33
6.58856
0
3DFACE
8
Cil_droite0
62
0
10
8.58587
20
7.02227
30
6.58856
11
7.92132
21
7.05322
31
6.90679
12
8.88897
22
7.01281
32
10.38739
13
8.88897
23
7.01281
33
10.38739
0
3DFACE
8
Cil_droite0
62
0
10
8.18487
20
7.04583
30
10.98065
11
8.88897
21
7.01281
31
10.38739
12
7.92132
22
7.05322
32
6.90679
13
7.92132
23
7.05322
33
6.90679
0
3DFACE
8
Cil_droite0
62
0
10
7.92132
20
7.05322
30
6.90679
11
7.24597
21
7.08441
31
7.10845
12
8.18487
22
7.04583
32
10.98065
13
8.18487
23
7.04583
33
10.98065
0
3DFACE
8
Cil_droite0
62
0
10
7.45239
20
7.07983
30
11.31231
11
8.18487
21
7.04583
31
10.98065
12
7.24597
22
7.08441
32
7.10845
13
7.24597
23
7.08441
33
7.10845
0
3DFACE
8
Cil_droite0
62
0
10
7.24597
20
7.08441
30
7.10845
11
6.56829
21
7.11560
31
7.19323
12
7.45239
22
7.07983
32
11.31231
13
7.45239
23
7.07983
33
11.31231
0
3DFACE
8
Cil_droite0
62
0
10
6.70642
20
7.11413
30
11.38885
11
7.45239
21
7.07983
31
11.31231
12
6.56829
22
7.11560
32
7.19323
13
6.56829
23
7.11560
33
7.19323
0
3DFACE
8
Cil_droite0
62
0
10
6.56829
20
7.11560
30
7.19323
11
5.89611
21
7.14642
31
7.16009
12
6.70642
22
7.11413
32
11.38885
13
6.70642
23
7.11413
33
11.38885
0
3DFACE
8
Cil_droite0
62
0
10
5.96160
20
7.14813
30
11.21649
11
6.70642
21
7.11413
31
11.38885
12
5.89611
22
7.14642
32
7.16009
13
5.89611
23
7.14642
33
7.16009
0
3DFACE
8
Cil_droite0
62
0
10
5.89611
20
7.14642
30
7.16009
11
5.23779
21
7.17645
31
7.00885
12
5.96160
22
7.14813
32
11.21649
13
5.96160
23
7.14813
33
11.21649
0
3DFACE
8
Cil_droite0
62
0
10
5.23315
20
7.18109
30
10.80181
11
5.96160
21
7.14813
31
11.21649
12
5.23779
22
7.17645
32
7.00885
13
5.23779
23
7.17645
33
7.00885
0
3DFACE
8
Cil_droite0
62
0
10
5.23779
20
7.17645
30
7.00885
11
4.60150
21
7.20538
31
6.73870
12
5.23315
22
7.18109
32
10.80181
13
5.23315
23
7.18109
33
10.80181
0
3DFACE
8
Cil_droite0
62
0
10
4.53582
20
7.21234
30
10.15124
11
5.23315
21
7.18109
31
10.80181
12
4.60150
22
7.20538
32
6.73870
13
4.60150
23
7.20538
33
6.73870
0
3DFACE
8
Cil_droite0
62
0
10
4.60150
20
7.20538
30
6.73870
11
3.99548
21
7.23272
31
6.34918
12
4.53582
22
7.21234
32
10.15124
13
4.53582
23
7.21234
33
10.15124
0
3DFACE
8
Cil_droite0
62
0
10
3.88446
20
7.24121
30
9.27124
11
4.53582
21
7.21234
31
10.15124
12
3.99548
22
7.23272
32
6.34918
13
3.99548
23
7.23272
33
6.34918
0
3DFACE
8
Cil_droite0
62
0
10
3.99548
20
7.23272
30
6.34918
11
3.42761
21
7.25823
31
5.83947
12
3.88446
22
7.24121
32
9.27124
13
3.88446
23
7.24121
33
9.27124
0
3DFACE
8
Cil_droite0
62
0
10
3.29382
20
7.26702
30
8.16796
11
3.88446
21
7.24121
31
9.27124
12
3.42761
22
7.25823
32
5.83947
13
3.42761
23
7.25823
33
5.83947
0
3DFACE
8
Cil_droite0
62
0
10
3.42761
20
7.25823
30
5.83947
11
2.90637
21
7.28137
31
5.20928
12
3.29382
22
7.26702
32
8.16796
13
3.29382
23
7.26702
33
8.16796
0
3DFACE
8
Cil_droite0
62
0
10
2.77899
20
7.28912
30
6.84832
11
3.29382
21
7.26702
31
8.16796
12
2.90637
22
7.28137
32
5.20928
13
2.90637
23
7.28137
33
5.20928
0
3DFACE
8
Cil_droite0
62
0
10
2.90637
20
7.28137
30
5.20928
11
2.43969
21
7.30194
31
4.45782
12
2.77899
22
7.28912
32
6.84832
13
2.77899
23
7.28912
33
6.84832
0
3DFACE
8
Cil_droite0
62
0
10
2.35467
20
7.30682
30
5.31829
11
2.77899
21
7.28912
31
6.84832
12
2.43969
22
7.30194
32
4.45782
13
2.43969
23
7.30194
33
4.45782
0
3DFACE
8
Cil_droite0
62
0
10
2.43969
20
7.30194
30
4.45782
11
2.03588
21
7.31945
31
3.58459
12
2.35467
22
7.30682
32
5.31829
13
2.35467
23
7.30682
33
5.31829
0
3DFACE
8
Cil_droite0
62
0
10
2.03588
20
7.31945
30
3.58459
11
2.35467
21
7.30682
31
5.31829
12
2.03588
22
7.31945
32
3.58459
13
2.03588
23
7.31945
33
3.58459
0
ENDSEC
0
EOF
