0
SECTION
2
HEADER
0
ENDSEC
999
Created using Ray Dream Designer(R) 3
0
SECTION
2
ENTITIES
0
3DFACE
8
Corps0
62
7
10
0.92468
20
-4.25201
30
6.64788
11
0.87353
21
-6.95672
31
6.07305
12
2.41918
22
-3.98034
32
6.62609
13
2.41918
23
-3.98034
33
6.62609
0
3DFACE
8
Corps0
62
7
10
3.45324
20
-6.48779
30
6.03546
11
2.41918
21
-3.98034
31
6.62609
12
0.87353
22
-6.95672
32
6.07305
13
0.87353
23
-6.95672
33
6.07305
0
3DFACE
8
Corps0
62
7
10
0.87353
20
-6.95672
30
6.07305
11
0.80462
21
-9.43469
31
4.46624
12
3.45324
22
-6.48779
32
6.03546
13
3.45324
23
-6.48779
33
6.03546
0
3DFACE
8
Corps0
62
7
10
4.37854
20
-8.78503
30
4.41430
11
3.45324
21
-6.48779
31
6.03546
12
0.80462
22
-9.43469
32
4.46624
13
0.80462
23
-9.43469
33
4.46624
0
3DFACE
8
Corps0
62
7
10
0.80462
20
-9.43469
30
4.46624
11
0.72161
21
-11.65551
31
1.97668
12
4.37854
22
-8.78503
32
4.41430
13
4.37854
23
-8.78503
33
4.41430
0
3DFACE
8
Corps0
62
7
10
5.18670
20
-10.84399
30
1.91168
11
4.37854
21
-8.78503
31
4.41430
12
0.72161
22
-11.65551
32
1.97668
13
0.72161
23
-11.65551
33
1.97668
0
3DFACE
8
Corps0
62
7
10
0.72161
20
-11.65551
30
1.97668
11
0.62780
21
-13.58935
31
-1.24682
12
2.95422
22
-11.24975
32
1.94427
13
2.95422
23
-11.24975
33
1.94427
0
3DFACE
8
Corps0
62
7
10
3.33648
20
-13.36273
30
-1.28613
11
2.95422
21
-11.24975
31
1.94427
12
0.62780
22
-13.58935
32
-1.24682
13
0.62780
23
-13.58935
33
-1.24682
0
3DFACE
8
Corps0
62
7
10
2.95422
20
-11.24975
30
1.94427
11
3.33648
21
-13.36273
31
-1.28613
12
5.18670
22
-10.84399
32
1.91168
13
5.18670
23
-10.84399
33
1.91168
0
3DFACE
8
Corps0
62
7
10
5.86889
20
-12.63671
30
-1.32305
11
5.18670
21
-10.84399
31
1.91168
12
3.33648
22
-13.36273
32
-1.28613
13
3.33648
23
-13.36273
33
-1.28613
0
3DFACE
8
Corps0
62
7
10
2.41918
20
-3.98034
30
6.62609
11
3.45324
21
-6.48779
31
6.03546
12
3.64923
22
-3.19885
32
6.60815
13
3.64923
23
-3.19885
33
6.60815
0
3DFACE
8
Corps0
62
7
10
5.57678
20
-5.13885
30
6.00457
11
3.64923
21
-3.19885
31
6.60815
12
3.45324
22
-6.48779
32
6.03546
13
3.45324
23
-6.48779
33
6.03546
0
3DFACE
8
Corps0
62
7
10
3.45324
20
-6.48779
30
6.03546
11
4.37854
21
-8.78503
31
4.41430
12
5.57678
22
-5.13885
32
6.00457
13
5.57678
23
-5.13885
33
6.00457
0
3DFACE
8
Corps0
62
7
10
7.32067
20
-6.91595
30
4.37139
11
5.57678
21
-5.13885
31
6.00457
12
4.37854
22
-8.78503
32
4.41430
13
4.37854
23
-8.78503
33
4.41430
0
3DFACE
8
Corps0
62
7
10
4.37854
20
-8.78503
30
4.41430
11
5.18670
21
-10.84399
31
1.91168
12
7.32067
22
-6.91595
32
4.37139
13
7.32067
23
-6.91595
33
4.37139
0
3DFACE
8
Corps0
62
7
10
8.86254
20
-8.50885
30
1.85809
11
7.32067
21
-6.91595
31
4.37139
12
5.18670
22
-10.84399
32
1.91168
13
5.18670
23
-10.84399
33
1.91168
0
3DFACE
8
Corps0
62
7
10
5.18670
20
-10.84399
30
1.91168
11
5.86889
21
-12.63671
31
-1.32305
12
7.02465
22
-9.67633
32
1.88488
13
7.02465
23
-9.67633
33
1.88488
0
3DFACE
8
Corps0
62
7
10
8.16973
20
-11.46362
30
-1.35662
11
7.02465
21
-9.67633
31
1.88488
12
5.86889
22
-12.63671
32
-1.32305
13
5.86889
23
-12.63671
33
-1.32305
0
3DFACE
8
Corps0
62
7
10
7.02465
20
-9.67633
30
1.88488
11
8.16973
21
-11.46362
31
-1.35662
12
8.86254
22
-8.50885
32
1.85809
13
8.86254
23
-8.50885
33
1.85809
0
3DFACE
8
Corps0
62
7
10
10.18353
20
-9.89562
30
-1.38598
11
8.86254
21
-8.50885
31
1.85809
12
8.16973
22
-11.46362
32
-1.35662
13
8.16973
23
-11.46362
33
-1.35662
0
3DFACE
8
Corps0
62
7
10
3.64923
20
-3.19885
30
6.60815
11
5.57678
21
-5.13885
31
6.00457
12
4.48907
22
-2.02673
32
6.59594
13
4.48907
23
-2.02673
33
6.59594
0
3DFACE
8
Corps0
62
7
10
7.02630
20
-3.11541
30
5.98345
11
4.48907
21
-2.02673
31
6.59594
12
5.57678
22
-5.13885
32
6.00457
13
5.57678
23
-5.13885
33
6.00457
0
3DFACE
8
Corps0
62
7
10
5.57678
20
-5.13885
30
6.00457
11
7.32067
21
-6.91595
31
4.37139
12
7.02630
22
-3.11541
32
5.98345
13
7.02630
23
-3.11541
33
5.98345
0
3DFACE
8
Corps0
62
7
10
9.32891
20
-4.11273
30
4.34222
11
7.02630
21
-3.11541
31
5.98345
12
7.32067
22
-6.91595
32
4.37139
13
7.32067
23
-6.91595
33
4.37139
0
3DFACE
8
Corps0
62
7
10
4.48907
20
-2.02673
30
6.59594
11
7.02630
21
-3.11541
31
5.98345
12
4.81188
22
-0.58343
32
6.59130
13
4.81188
23
-0.58343
33
6.59130
0
3DFACE
8
Corps0
62
7
10
7.58380
20
-0.62390
30
5.97534
11
4.81188
21
-0.58343
31
6.59130
12
7.02630
22
-3.11541
32
5.98345
13
7.02630
23
-3.11541
33
5.98345
0
3DFACE
8
Corps0
62
7
10
7.02630
20
-3.11541
30
5.98345
11
9.32891
21
-4.11273
31
4.34222
12
7.58380
22
-0.62390
32
5.97534
13
7.58380
23
-0.62390
33
5.97534
0
3DFACE
8
Corps0
62
7
10
10.10137
20
-0.66082
30
4.33087
11
7.58380
21
-0.62390
31
5.97534
12
9.32891
22
-4.11273
32
4.34222
13
9.32891
23
-4.11273
33
4.34222
0
3DFACE
8
Corps0
62
7
10
7.32067
20
-6.91595
30
4.37139
11
8.86254
21
-8.50885
31
1.85809
12
9.32891
22
-4.11273
32
4.34222
13
9.32891
23
-4.11273
33
4.34222
0
3DFACE
8
Corps0
62
7
10
11.37158
20
-5.00653
30
1.82159
11
9.32891
21
-4.11273
31
4.34222
12
8.86254
22
-8.50885
32
1.85809
13
8.86254
23
-8.50885
33
1.85809
0
3DFACE
8
Corps0
62
7
10
8.86254
20
-8.50885
30
1.85809
11
10.18353
21
-9.89562
31
-1.38598
12
10.11712
22
-6.75762
32
1.83984
13
10.11712
23
-6.75762
33
1.83984
0
3DFACE
8
Corps0
62
7
10
11.85498
20
-7.98522
30
-1.41027
11
10.11712
21
-6.75762
31
1.83984
12
10.18353
22
-9.89562
32
-1.38598
13
10.18353
23
-9.89562
33
-1.38598
0
3DFACE
8
Corps0
62
7
10
10.11712
20
-6.75762
30
1.83984
11
11.85498
21
-7.98522
31
-1.41027
12
11.37158
22
-5.00653
32
1.82159
13
11.37158
23
-5.00653
33
1.82159
0
3DFACE
8
Corps0
62
7
10
13.12866
20
-5.78472
30
-1.42877
11
11.37158
21
-5.00653
31
1.82159
12
11.85498
22
-7.98522
32
-1.41027
13
11.85498
23
-7.98522
33
-1.41027
0
3DFACE
8
Corps0
62
7
10
9.32891
20
-4.11273
30
4.34222
11
11.37158
21
-5.00653
31
1.82159
12
9.71520
22
-2.38671
32
4.33660
13
9.71520
23
-2.38671
33
4.33660
0
3DFACE
8
Corps0
62
7
10
12.04901
20
-2.92132
30
1.81176
11
9.71520
21
-2.38671
31
4.33660
12
11.37158
22
-5.00653
32
1.82159
13
11.37158
23
-5.00653
33
1.82159
0
3DFACE
8
Corps0
62
7
10
9.71520
20
-2.38671
30
4.33660
11
12.04901
21
-2.92132
31
1.81176
12
10.10137
22
-0.66082
32
4.33087
13
10.10137
23
-0.66082
33
4.33087
0
3DFACE
8
Corps0
62
7
10
12.33660
20
-0.69390
30
1.80749
11
10.10137
21
-0.66082
31
4.33087
12
12.04901
22
-2.92132
32
1.81176
13
12.04901
23
-2.92132
33
1.81176
0
3DFACE
8
Corps0
62
7
10
11.37158
20
-5.00653
30
1.82159
11
13.12866
21
-5.78472
31
-1.42877
12
12.04901
22
-2.92132
32
1.81176
13
12.04901
23
-2.92132
33
1.81176
0
3DFACE
8
Corps0
62
7
10
13.94934
20
-3.34631
30
-1.44073
11
12.04901
21
-2.92132
31
1.81176
12
13.12866
22
-5.78472
32
-1.42877
13
13.12866
23
-5.78472
33
-1.42877
0
3DFACE
8
Corps0
62
7
10
12.04901
20
-2.92132
30
1.81176
11
13.94934
21
-3.34631
31
-1.44073
12
12.33660
22
-0.69390
32
1.80749
13
12.33660
23
-0.69390
33
1.80749
0
3DFACE
8
Corps0
62
7
10
14.26141
20
-0.72259
30
-1.44537
11
12.33660
21
-0.69390
31
1.80749
12
13.94934
22
-3.34631
32
-1.44073
13
13.94934
23
-3.34631
33
-1.44073
0
3DFACE
8
Corps0
62
7
10
0.62780
20
-13.58935
30
-1.24682
11
0.52685
21
-15.20562
31
-5.05511
12
3.33648
22
-13.36273
32
-1.28613
13
3.33648
23
-13.36273
33
-1.28613
0
3DFACE
8
Corps0
62
7
10
3.57080
20
-14.95092
30
-5.09930
11
3.33648
21
-13.36273
31
-1.28613
12
0.52685
22
-15.20562
32
-5.05511
13
0.52685
23
-15.20562
33
-5.05511
0
3DFACE
8
Corps0
62
7
10
3.33648
20
-13.36273
30
-1.28613
11
3.57080
21
-14.95092
31
-5.09930
12
5.86889
22
-12.63671
32
-1.32305
13
5.86889
23
-12.63671
33
-1.32305
0
3DFACE
8
Corps0
62
7
10
6.41668
20
-14.13507
30
-5.14080
11
5.86889
21
-12.63671
31
-1.32305
12
3.57080
22
-14.95092
32
-5.09930
13
3.57080
23
-14.95092
33
-5.09930
0
3DFACE
8
Corps0
62
7
10
0.52685
20
-15.20562
30
-5.05511
11
0.42199
21
-16.47448
31
-9.29931
12
3.57080
22
-14.95092
32
-5.09930
13
3.57080
23
-14.95092
33
-5.09930
0
3DFACE
8
Corps0
62
7
10
3.72918
20
-16.19775
30
-9.34735
11
3.57080
21
-14.95092
31
-5.09930
12
0.42199
22
-16.47448
32
-9.29931
13
0.42199
23
-16.47448
33
-9.29931
0
3DFACE
8
Corps0
62
7
10
3.57080
20
-14.95092
30
-5.09930
11
3.72918
21
-16.19775
31
-9.34735
12
6.41668
22
-14.13507
32
-5.14080
13
6.41668
23
-14.13507
33
-5.14080
0
3DFACE
8
Corps0
62
7
10
6.82104
20
-15.31134
30
-9.39239
11
6.41668
21
-14.13507
31
-5.14080
12
3.72918
22
-16.19775
32
-9.34735
13
3.72918
23
-16.19775
33
-9.34735
0
3DFACE
8
Corps0
62
7
10
5.86889
20
-12.63671
30
-1.32305
11
6.41668
21
-14.13507
31
-5.14080
12
8.16973
22
-11.46362
32
-1.35662
13
8.16973
23
-11.46362
33
-1.35662
0
3DFACE
8
Corps0
62
7
10
9.00225
20
-12.81671
30
-5.17846
11
8.16973
21
-11.46362
31
-1.35662
12
6.41668
22
-14.13507
32
-5.14080
13
6.41668
23
-14.13507
33
-5.14080
0
3DFACE
8
Corps0
62
7
10
8.16973
20
-11.46362
30
-1.35662
11
9.00225
21
-12.81671
31
-5.17846
12
10.18353
22
-9.89562
32
-1.38598
13
10.18353
23
-9.89562
33
-1.38598
0
3DFACE
8
Corps0
62
7
10
11.26525
20
-11.05480
30
-5.21136
11
10.18353
21
-9.89562
31
-1.38598
12
9.00225
22
-12.81671
32
-5.17846
13
9.00225
23
-12.81671
33
-5.17846
0
3DFACE
8
Corps0
62
7
10
6.41668
20
-14.13507
30
-5.14080
11
6.82104
21
-15.31134
31
-9.39239
12
9.00225
22
-12.81671
32
-5.17846
13
9.00225
23
-12.81671
33
-5.17846
0
3DFACE
8
Corps0
62
7
10
9.63018
20
-13.87896
30
-9.43328
11
9.00225
21
-12.81671
31
-5.17846
12
6.82104
22
-15.31134
32
-9.39239
13
6.82104
23
-15.31134
33
-9.39239
0
3DFACE
8
Corps0
62
7
10
9.00225
20
-12.81671
30
-5.17846
11
9.63018
21
-13.87896
31
-9.43328
12
11.26525
22
-11.05480
32
-5.21136
13
11.26525
23
-11.05480
33
-5.21136
0
3DFACE
8
Corps0
62
7
10
12.08886
20
-11.96472
30
-9.46911
11
11.26525
21
-11.05480
31
-5.21136
12
9.63018
22
-13.87896
32
-9.43328
13
9.63018
23
-13.87896
33
-9.43328
0
3DFACE
8
Corps0
62
7
10
0.42199
20
-16.47448
30
-9.29931
11
0.31695
21
-17.36560
31
-13.83020
12
3.72918
22
-16.19775
32
-9.34735
13
3.72918
23
-16.19775
33
-9.34735
0
3DFACE
8
Corps0
62
7
10
3.79895
20
-17.04980
30
-13.88940
11
3.72918
21
-16.19775
31
-9.34735
12
0.31695
22
-17.36560
32
-13.83020
13
0.31695
23
-17.36560
33
-13.83020
0
3DFACE
8
Corps0
62
7
10
3.72918
20
-16.19775
30
-9.34735
11
3.79895
21
-17.04980
31
-13.88940
12
6.82104
22
-15.31134
32
-9.39239
13
6.82104
23
-15.31134
33
-9.39239
0
3DFACE
8
Corps0
62
7
10
6.99353
20
-15.94842
30
-13.99615
11
6.82104
21
-15.31134
31
-9.39239
12
3.79895
22
-17.04980
32
-13.88940
13
3.79895
23
-17.04980
33
-13.88940
0
3DFACE
8
Corps0
62
7
10
0.31695
20
-17.36560
30
-13.83020
11
0.21490
21
-17.84893
31
-18.49890
12
3.79895
22
-17.04980
32
-13.88940
13
3.79895
23
-17.04980
33
-13.88940
0
3DFACE
8
Corps0
62
7
10
3.80718
20
-17.54840
30
-18.55114
11
3.79895
21
-17.04980
31
-13.88940
12
0.21490
22
-17.84893
32
-18.49890
13
0.21490
23
-17.84893
33
-18.49890
0
3DFACE
8
Corps0
62
7
10
3.79895
20
-17.04980
30
-13.88940
11
3.80718
21
-17.54840
31
-18.55114
12
6.99353
22
-15.94842
32
-13.99615
13
6.99353
23
-15.94842
33
-13.99615
0
3DFACE
8
Corps0
62
7
10
7.16571
20
-16.58557
30
-18.60009
11
6.99353
21
-15.94842
31
-13.99615
12
3.80718
22
-17.54840
32
-18.55114
13
3.80718
23
-17.54840
33
-18.55114
0
3DFACE
8
Corps0
62
7
10
6.82104
20
-15.31134
30
-9.39239
11
7.16571
21
-16.58557
31
-18.60009
12
9.63018
22
-13.87896
32
-9.43328
13
9.63018
23
-13.87896
33
-9.43328
0
3DFACE
8
Corps0
62
7
10
10.21710
20
-15.02966
30
-18.64447
11
9.63018
21
-13.87896
31
-9.43328
12
7.16571
22
-16.58557
32
-18.60009
13
7.16571
23
-16.58557
33
-18.60009
0
3DFACE
8
Corps0
62
7
10
9.63018
20
-13.87896
30
-9.43328
11
10.21710
21
-15.02966
31
-18.64447
12
12.08886
22
-11.96472
32
-9.46911
13
12.08886
23
-11.96472
33
-9.46911
0
3DFACE
8
Corps0
62
7
10
12.88781
20
-12.95025
30
-18.68341
11
12.08886
21
-11.96472
31
-9.46911
12
10.21710
22
-15.02966
32
-18.64447
13
10.21710
23
-15.02966
33
-18.64447
0
3DFACE
8
Corps0
62
7
10
10.18353
20
-9.89562
30
-1.38598
11
11.26525
21
-11.05480
31
-5.21136
12
11.85498
22
-7.98522
32
-1.41027
13
11.85498
23
-7.98522
33
-1.41027
0
3DFACE
8
Corps0
62
7
10
13.14361
20
-8.90789
30
-5.23876
11
11.85498
21
-7.98522
31
-1.41027
12
11.26525
22
-11.05480
32
-5.21136
13
11.26525
23
-11.05480
33
-5.21136
0
3DFACE
8
Corps0
62
7
10
11.85498
20
-7.98522
30
-1.41027
11
13.14361
21
-8.90789
31
-5.23876
12
13.12866
22
-5.78472
32
-1.42877
13
13.12866
23
-5.78472
33
-1.42877
0
3DFACE
8
Corps0
62
7
10
14.57495
20
-6.43505
30
-5.25952
11
13.12866
21
-5.78472
31
-1.42877
12
13.14361
22
-8.90789
32
-5.23876
13
13.14361
23
-8.90789
33
-5.23876
0
3DFACE
8
Corps0
62
7
10
11.26525
20
-11.05480
30
-5.21136
11
12.08886
21
-11.96472
31
-9.46911
12
13.14361
22
-8.90789
32
-5.23876
13
13.14361
23
-8.90789
33
-5.23876
0
3DFACE
8
Corps0
62
7
10
14.12969
20
-9.63226
30
-9.49884
11
13.14361
21
-8.90789
31
-5.23876
12
12.08886
22
-11.96472
32
-9.46911
13
12.08886
23
-11.96472
33
-9.46911
0
3DFACE
8
Corps0
62
7
10
13.14361
20
-8.90789
30
-5.23876
11
14.12969
21
-9.63226
31
-9.49884
12
14.57495
22
-6.43505
32
-5.25952
13
14.57495
23
-6.43505
33
-5.25952
0
3DFACE
8
Corps0
62
7
10
15.68481
20
-6.94555
30
-9.52142
11
14.57495
21
-6.43505
31
-5.25952
12
14.12969
22
-9.63226
32
-9.49884
13
14.12969
23
-9.63226
33
-9.49884
0
3DFACE
8
Corps0
62
7
10
13.12866
20
-5.78472
30
-1.42877
11
14.57495
21
-6.43505
31
-5.25952
12
13.94934
22
-3.34631
32
-1.44073
13
13.94934
23
-3.34631
33
-1.44073
0
3DFACE
8
Corps0
62
7
10
15.49713
20
-3.69488
30
-5.27294
11
13.94934
21
-3.34631
31
-1.44073
12
14.57495
22
-6.43505
32
-5.25952
13
14.57495
23
-6.43505
33
-5.25952
0
3DFACE
8
Corps0
62
7
10
13.94934
20
-3.34631
30
-1.44073
11
15.49713
21
-3.69488
31
-5.27294
12
14.26141
22
-0.72259
32
-1.44537
13
14.26141
23
-0.72259
33
-1.44537
0
3DFACE
8
Corps0
62
7
10
15.84790
20
-0.74645
30
-5.27819
11
14.26141
21
-0.72259
31
-1.44537
12
15.49713
22
-3.69488
32
-5.27294
13
15.49713
23
-3.69488
33
-5.27294
0
3DFACE
8
Corps0
62
7
10
14.57495
20
-6.43505
30
-5.25952
11
15.68481
21
-6.94555
31
-9.52142
12
15.49713
22
-3.69488
32
-5.27294
13
15.49713
23
-3.69488
33
-5.27294
0
3DFACE
8
Corps0
62
7
10
16.68676
20
-3.96844
30
-9.53594
11
15.49713
21
-3.69488
31
-5.27294
12
15.68481
22
-6.94555
32
-9.52142
13
15.68481
23
-6.94555
33
-9.52142
0
3DFACE
8
Corps0
62
7
10
15.49713
20
-3.69488
30
-5.27294
11
16.68676
21
-3.96844
31
-9.53594
12
15.84790
22
-0.74645
32
-5.27819
13
15.84790
23
-0.74645
33
-5.27819
0
3DFACE
8
Corps0
62
7
10
17.06787
20
-0.76507
30
-9.54162
11
15.84790
21
-0.74645
31
-5.27819
12
16.68676
22
-3.96844
32
-9.53594
13
16.68676
23
-3.96844
33
-9.53594
0
3DFACE
8
Corps0
62
7
10
12.08886
20
-11.96472
30
-9.46911
11
12.88781
21
-12.95025
31
-18.68341
12
14.12969
22
-9.63226
32
-9.49884
13
14.12969
23
-9.63226
33
-9.49884
0
3DFACE
8
Corps0
62
7
10
15.10473
20
-10.41662
30
-18.71563
11
14.12969
21
-9.63226
31
-9.49884
12
12.88781
22
-12.95025
32
-18.68341
13
12.88781
23
-12.95025
33
-18.68341
0
3DFACE
8
Corps0
62
7
10
14.12969
20
-9.63226
30
-9.49884
11
15.10473
21
-10.41662
31
-18.71563
12
15.68481
22
-6.94555
32
-9.52142
13
15.68481
23
-6.94555
33
-9.52142
0
3DFACE
8
Corps0
62
7
10
16.79400
20
-7.49829
30
-18.74017
11
15.68481
21
-6.94555
31
-9.52142
12
15.10473
22
-10.41662
32
-18.71563
13
15.10473
23
-10.41662
33
-18.71563
0
3DFACE
8
Corps0
62
7
10
15.68481
20
-6.94555
30
-9.52142
11
16.23950
21
-7.22186
31
-14.13073
12
16.68676
22
-3.96844
32
-9.53594
13
16.68676
23
-3.96844
33
-9.53594
0
3DFACE
8
Corps0
62
7
10
17.46679
20
-4.15026
30
-14.08831
11
16.68676
21
-3.96844
31
-9.53594
12
16.23950
22
-7.22186
32
-14.13073
13
16.23950
23
-7.22186
33
-14.13073
0
3DFACE
8
Corps0
62
7
10
16.68676
20
-3.96844
30
-9.53594
11
17.46679
21
-4.15026
31
-14.08831
12
17.06787
22
-0.76507
32
-9.54162
13
17.06787
23
-0.76507
33
-9.54162
0
3DFACE
8
Corps0
62
7
10
17.89337
20
-0.77801
30
-14.08605
11
17.06787
21
-0.76507
31
-9.54162
12
17.46679
22
-4.15026
32
-14.08831
13
17.46679
23
-4.15026
33
-14.08831
0
3DFACE
8
Corps0
62
7
10
16.23950
20
-7.22186
30
-14.13073
11
16.79400
21
-7.49829
31
-18.74017
12
17.46679
22
-4.15026
32
-14.08831
13
17.46679
23
-4.15026
33
-14.08831
0
3DFACE
8
Corps0
62
7
10
17.88232
20
-4.26446
30
-18.75598
11
17.46679
21
-4.15026
31
-14.08831
12
16.79400
22
-7.49829
32
-18.74017
13
16.79400
23
-7.49829
33
-18.74017
0
3DFACE
8
Corps0
62
7
10
17.46679
20
-4.15026
30
-14.08831
11
17.88232
21
-4.26446
31
-18.75598
12
17.89337
22
-0.77801
32
-14.08605
13
17.89337
23
-0.77801
33
-14.08605
0
3DFACE
8
Corps0
62
7
10
18.29632
20
-0.78491
30
-18.76208
11
17.89337
21
-0.77801
31
-14.08605
12
17.88232
22
-4.26446
32
-18.75598
13
17.88232
23
-4.26446
33
-18.75598
0
3DFACE
8
Corps0
62
7
10
0.21490
20
-17.84893
30
-18.49890
11
0.11962
21
-17.89410
31
-23.15625
12
3.80718
22
-17.54840
32
-18.55114
13
3.80718
23
-17.54840
33
-18.55114
0
3DFACE
8
Corps0
62
7
10
3.71875
20
-17.59020
30
-23.20733
11
3.80718
21
-17.54840
31
-18.55114
12
0.11962
22
-17.89410
32
-23.15625
13
0.11962
23
-17.89410
33
-23.15625
0
3DFACE
8
Corps0
62
7
10
3.80718
20
-17.54840
30
-18.55114
11
3.71875
21
-17.59020
31
-23.20733
12
7.16571
22
-16.58557
32
-18.60009
13
7.16571
23
-16.58557
33
-18.60009
0
3DFACE
8
Corps0
62
7
10
7.06793
20
-16.60638
30
-23.24737
11
7.16571
21
-16.58557
31
-18.60009
12
3.71875
22
-17.59020
32
-23.20733
13
3.71875
23
-17.59020
33
-23.20733
0
3DFACE
8
Corps0
62
7
10
0.11962
20
-17.89410
30
-23.15625
11
0.03430
21
-17.47125
31
-27.65338
12
3.71875
22
-17.59020
32
-23.20733
13
3.71875
23
-17.59020
33
-23.20733
0
3DFACE
8
Corps0
62
7
10
3.54840
20
-17.17718
30
-27.70440
11
3.71875
21
-17.59020
31
-23.20733
12
0.03430
22
-17.47125
32
-27.65338
13
0.03430
23
-17.47125
33
-27.65338
0
3DFACE
8
Corps0
62
7
10
3.71875
20
-17.59020
30
-23.20733
11
3.54840
21
-17.17718
31
-27.70440
12
7.06793
22
-16.60638
32
-23.24737
13
7.06793
23
-16.60638
33
-23.24737
0
3DFACE
8
Corps0
62
7
10
6.83392
20
-16.23529
30
-27.75231
11
7.06793
21
-16.60638
31
-23.24737
12
3.54840
22
-17.17718
32
-27.70440
13
3.54840
23
-17.17718
33
-27.70440
0
3DFACE
8
Corps0
62
7
10
7.16571
20
-16.58557
30
-18.60009
11
7.06793
21
-16.60638
31
-23.24737
12
10.21710
22
-15.02966
32
-18.64447
13
10.21710
23
-15.02966
33
-18.64447
0
3DFACE
8
Corps0
62
7
10
10.07812
20
-14.99652
30
-23.26733
11
10.21710
21
-15.02966
31
-18.64447
12
7.06793
22
-16.60638
32
-23.24737
13
7.06793
23
-16.60638
33
-23.24737
0
3DFACE
8
Corps0
62
7
10
10.21710
20
-15.02966
30
-18.64447
11
10.07812
21
-14.99652
31
-23.26733
12
12.88781
22
-12.95025
32
-18.68341
13
12.88781
23
-12.95025
33
-18.68341
0
3DFACE
8
Corps0
62
7
10
12.65985
20
-12.81457
30
-23.25854
11
12.88781
21
-12.95025
31
-18.68341
12
10.07812
22
-14.99652
32
-23.26733
13
10.07812
23
-14.99652
33
-23.26733
0
3DFACE
8
Corps0
62
7
10
7.06793
20
-16.60638
30
-23.24737
11
6.83392
21
-16.23529
31
-27.75231
12
10.07812
22
-14.99652
32
-23.26733
13
10.07812
23
-14.99652
33
-23.26733
0
3DFACE
8
Corps0
62
7
10
9.81903
20
-14.71319
30
-27.79571
11
10.07812
21
-14.99652
31
-23.26733
12
6.83392
22
-16.23529
32
-27.75231
13
6.83392
23
-16.23529
33
-27.75231
0
3DFACE
8
Corps0
62
7
10
10.07812
20
-14.99652
30
-23.26733
11
9.81903
21
-14.71319
31
-27.79571
12
12.65985
22
-12.81457
32
-23.25854
13
12.65985
23
-12.81457
33
-23.25854
0
3DFACE
8
Corps0
62
7
10
12.43170
20
-12.67901
30
-27.83386
11
12.65985
21
-12.81457
31
-23.25854
12
9.81903
22
-14.71319
32
-27.79571
13
9.81903
23
-14.71319
33
-27.79571
0
3DFACE
8
Corps0
62
7
10
0.03430
20
-17.47125
30
-27.65338
11
-0.03747
21
-16.54992
31
-31.84106
12
3.54840
22
-17.17718
32
-27.70440
13
3.54840
23
-17.17718
33
-27.70440
0
3DFACE
8
Corps0
62
7
10
3.28576
20
-16.27191
30
-31.88934
11
3.54840
21
-17.17718
31
-27.70440
12
-0.03747
22
-16.54992
32
-31.84106
13
-0.03747
23
-16.54992
33
-31.84106
0
3DFACE
8
Corps0
62
7
10
3.54840
20
-17.17718
30
-27.70440
11
3.28576
21
-16.27191
31
-31.88934
12
6.83392
22
-16.23529
32
-27.75231
13
6.83392
23
-16.23529
33
-27.75231
0
3DFACE
8
Corps0
62
7
10
6.39270
20
-15.38116
30
-31.93463
11
6.83392
21
-16.23529
31
-27.75231
12
3.28576
22
-16.27191
32
-31.88934
13
3.28576
23
-16.27191
33
-31.88934
0
3DFACE
8
Corps0
62
7
10
-0.03747
20
-16.54992
30
-31.84106
11
-0.09240
21
-15.10021
31
-35.57067
12
3.28576
22
-16.27191
32
-31.88934
13
3.28576
23
-16.27191
33
-31.88934
0
3DFACE
8
Corps0
62
7
10
2.93023
20
-14.84735
30
-35.61456
11
3.28576
21
-16.27191
31
-31.88934
12
-0.09240
22
-15.10021
32
-35.57067
13
-0.09240
23
-15.10021
33
-35.57067
0
3DFACE
8
Corps0
62
7
10
3.28576
20
-16.27191
30
-31.88934
11
2.93023
21
-14.84735
31
-35.61456
12
6.39270
22
-15.38116
32
-31.93463
13
6.39270
23
-15.38116
33
-31.93463
0
3DFACE
8
Corps0
62
7
10
5.75628
20
-14.03710
30
-35.65576
11
6.39270
21
-15.38116
31
-31.93463
12
2.93023
22
-14.84735
32
-35.61456
13
2.93023
23
-14.84735
33
-35.61456
0
3DFACE
8
Corps0
62
7
10
6.83392
20
-16.23529
30
-27.75231
11
6.39270
21
-15.38116
31
-31.93463
12
9.81903
22
-14.71319
32
-27.79571
13
9.81903
23
-14.71319
33
-27.79571
0
3DFACE
8
Corps0
62
7
10
9.21557
20
-13.94177
30
-31.97576
11
9.81903
21
-14.71319
31
-27.79571
12
6.39270
22
-15.38116
32
-31.93463
13
6.39270
23
-15.38116
33
-31.93463
0
3DFACE
8
Corps0
62
7
10
9.81903
20
-14.71319
30
-27.79571
11
9.21557
21
-13.94177
31
-31.97576
12
12.43170
22
-12.67901
32
-27.83386
13
12.43170
23
-12.67901
33
-27.83386
0
3DFACE
8
Corps0
62
7
10
11.68640
20
-12.01806
30
-32.01177
11
12.43170
21
-12.67901
31
-27.83386
12
9.21557
22
-13.94177
32
-31.97576
13
9.21557
23
-13.94177
33
-31.97576
0
3DFACE
8
Corps0
62
7
10
6.39270
20
-15.38116
30
-31.93463
11
5.75628
21
-14.03710
31
-35.65576
12
9.21557
22
-13.94177
32
-31.97576
13
9.21557
23
-13.94177
33
-31.97576
0
3DFACE
8
Corps0
62
7
10
8.32391
20
-12.72778
30
-35.69317
11
9.21557
21
-13.94177
31
-31.97576
12
5.75628
22
-14.03710
32
-35.65576
13
5.75628
23
-14.03710
33
-35.65576
0
3DFACE
8
Corps0
62
7
10
9.21557
20
-13.94177
30
-31.97576
11
8.32391
21
-12.72778
31
-35.69317
12
11.68640
22
-12.01806
32
-32.01177
13
11.68640
23
-12.01806
33
-32.01177
0
3DFACE
8
Corps0
62
7
10
10.57128
20
-10.97808
30
-35.72595
11
11.68640
21
-12.01806
31
-32.01177
12
8.32391
22
-12.72778
32
-35.69317
13
8.32391
23
-12.72778
33
-35.69317
0
3DFACE
8
Corps0
62
7
10
12.88781
20
-12.95025
30
-18.68341
11
12.65985
21
-12.81457
31
-23.25854
12
15.10473
22
-10.41662
32
-18.71563
13
15.10473
23
-10.41662
33
-18.71563
0
3DFACE
8
Corps0
62
7
10
14.97863
20
-10.37127
30
-23.33868
11
15.10473
21
-10.41662
31
-18.71563
12
12.65985
22
-12.81457
32
-23.25854
13
12.65985
23
-12.81457
33
-23.25854
0
3DFACE
8
Corps0
62
7
10
15.10473
20
-10.41662
30
-18.71563
11
14.97863
21
-10.37127
31
-23.33868
12
16.79400
22
-7.49829
32
-18.74017
13
16.79400
23
-7.49829
33
-18.74017
0
3DFACE
8
Corps0
62
7
10
16.72167
20
-7.49505
30
-23.38781
11
16.79400
21
-7.49829
31
-18.74017
12
14.97863
22
-10.37127
32
-23.33868
13
14.97863
23
-10.37127
33
-23.33868
0
3DFACE
8
Corps0
62
7
10
12.65985
20
-12.81457
30
-23.25854
11
12.43170
21
-12.67901
31
-27.83386
12
14.97863
22
-10.37127
32
-23.33868
13
14.97863
23
-10.37127
33
-23.33868
0
3DFACE
8
Corps0
62
7
10
14.60034
20
-10.20043
30
-27.86535
11
14.97863
21
-10.37127
31
-23.33868
12
12.43170
22
-12.67901
32
-27.83386
13
12.43170
23
-12.67901
33
-27.83386
0
3DFACE
8
Corps0
62
7
10
14.97863
20
-10.37127
30
-23.33868
11
14.60034
21
-10.20043
31
-27.86535
12
16.72167
22
-7.49505
32
-23.38781
13
16.72167
23
-7.49505
33
-23.38781
0
3DFACE
8
Corps0
62
7
10
16.25292
20
-7.34545
30
-27.88940
11
16.72167
21
-7.49505
31
-23.38781
12
14.60034
22
-10.20043
32
-27.86535
13
14.60034
23
-10.20043
33
-27.86535
0
3DFACE
8
Corps0
62
7
10
16.79400
20
-7.49829
30
-18.74017
11
16.72167
21
-7.49505
31
-23.38781
12
17.88232
22
-4.26446
32
-18.75598
13
17.88232
23
-4.26446
33
-18.75598
0
3DFACE
8
Corps0
62
7
10
17.83111
20
-4.27111
30
-23.41271
11
17.88232
21
-4.26446
31
-18.75598
12
16.72167
22
-7.49505
32
-23.38781
13
16.72167
23
-7.49505
33
-23.38781
0
3DFACE
8
Corps0
62
7
10
17.88232
20
-4.26446
30
-18.75598
11
17.83111
21
-4.27111
31
-23.41271
12
18.29632
22
-0.78491
32
-18.76208
13
18.29632
23
-0.78491
33
-18.76208
0
3DFACE
8
Corps0
62
7
10
18.24884
20
-0.78503
30
-23.42016
11
18.29632
21
-0.78491
31
-18.76208
12
17.83111
22
-4.27111
32
-23.41271
13
17.83111
23
-4.27111
33
-23.41271
0
3DFACE
8
Corps0
62
7
10
16.72167
20
-7.49505
30
-23.38781
11
16.25292
21
-7.34545
31
-27.88940
12
17.83111
22
-4.27111
32
-23.41271
13
17.83111
23
-4.27111
33
-23.41271
0
3DFACE
8
Corps0
62
7
10
17.31774
20
-4.18206
30
-27.90484
11
17.83111
21
-4.27111
31
-23.41271
12
16.25292
22
-7.34545
32
-27.88940
13
16.25292
23
-7.34545
33
-27.88940
0
3DFACE
8
Corps0
62
7
10
17.83111
20
-4.27111
30
-23.41271
11
17.31774
21
-4.18206
31
-27.90484
12
18.24884
22
-0.78503
32
-23.42016
13
18.24884
23
-0.78503
33
-23.42016
0
3DFACE
8
Corps0
62
7
10
17.72271
20
-0.77813
30
-27.91082
11
18.24884
21
-0.78503
31
-23.42016
12
17.31774
22
-4.18206
32
-27.90484
13
17.31774
23
-4.18206
33
-27.90484
0
3DFACE
8
Corps0
62
7
10
12.43170
20
-12.67901
30
-27.83386
11
11.68640
21
-12.01806
31
-32.01177
12
14.60034
22
-10.20043
32
-27.86535
13
14.60034
23
-10.20043
33
-27.86535
0
3DFACE
8
Corps0
62
7
10
13.73724
20
-9.67413
30
-32.04162
11
14.60034
21
-10.20043
31
-27.86535
12
11.68640
22
-12.01806
32
-32.01177
13
11.68640
23
-12.01806
33
-32.01177
0
3DFACE
8
Corps0
62
7
10
14.60034
20
-10.20043
30
-27.86535
11
13.73724
21
-9.67413
31
-32.04162
12
16.25292
22
-7.34545
32
-27.88940
13
16.25292
23
-7.34545
33
-27.88940
0
3DFACE
8
Corps0
62
7
10
15.29998
20
-6.97436
30
-32.06433
11
16.25292
21
-7.34545
31
-27.88940
12
13.73724
22
-9.67413
32
-32.04162
13
13.73724
23
-9.67413
33
-32.04162
0
3DFACE
8
Corps0
62
7
10
11.68640
20
-12.01806
30
-32.01177
11
10.57128
21
-10.97808
31
-35.72595
12
13.73724
22
-9.67413
32
-32.04162
13
13.73724
23
-9.67413
33
-32.04162
0
3DFACE
8
Corps0
62
7
10
12.43664
20
-8.84606
30
-35.75305
11
13.73724
21
-9.67413
31
-32.04162
12
10.57128
22
-10.97808
32
-35.72595
13
10.57128
23
-10.97808
33
-35.72595
0
3DFACE
8
Corps0
62
7
10
13.73724
20
-9.67413
30
-32.04162
11
12.43664
21
-8.84606
31
-35.75305
12
15.29998
22
-6.97436
32
-32.06433
13
15.29998
23
-6.97436
33
-32.06433
0
3DFACE
8
Corps0
62
7
10
13.85815
20
-6.39050
30
-35.77374
11
15.29998
21
-6.97436
31
-32.06433
12
12.43664
22
-8.84606
32
-35.75305
13
12.43664
23
-8.84606
33
-35.75305
0
3DFACE
8
Corps0
62
7
10
16.25292
20
-7.34545
30
-27.88940
11
15.29998
21
-6.97436
31
-32.06433
12
17.31774
22
-4.18206
32
-27.90484
13
17.31774
23
-4.18206
33
-27.90484
0
3DFACE
8
Corps0
62
7
10
16.30694
20
-3.98272
30
-32.07891
11
17.31774
21
-4.18206
31
-27.90484
12
15.29998
22
-6.97436
32
-32.06433
13
15.29998
23
-6.97436
33
-32.06433
0
3DFACE
8
Corps0
62
7
10
17.31774
20
-4.18206
30
-27.90484
11
16.30694
21
-3.98272
31
-32.07891
12
17.72271
22
-0.77813
32
-27.91082
13
17.72271
23
-0.77813
33
-27.91082
0
3DFACE
8
Corps0
62
7
10
16.68994
20
-0.76385
30
-32.08453
11
17.72271
21
-0.77813
31
-27.91082
12
16.30694
22
-3.98272
32
-32.07891
13
16.30694
23
-3.98272
33
-32.07891
0
3DFACE
8
Corps0
62
7
10
15.29998
20
-6.97436
30
-32.06433
11
13.85815
21
-6.39050
31
-35.77374
12
16.30694
22
-3.98272
32
-32.07891
13
16.30694
23
-3.98272
33
-32.07891
0
3DFACE
8
Corps0
62
7
10
14.77398
20
-3.66943
30
-35.78704
11
16.30694
21
-3.98272
31
-32.07891
12
13.85815
22
-6.39050
32
-35.77374
13
13.85815
23
-6.39050
33
-35.77374
0
3DFACE
8
Corps0
62
7
10
16.30694
20
-3.98272
30
-32.07891
11
14.77398
21
-3.66943
31
-35.78704
12
16.68994
22
-0.76385
32
-32.08453
13
16.68994
23
-0.76385
33
-32.08453
0
3DFACE
8
Corps0
62
7
10
15.12237
20
-0.74157
30
-35.79205
11
16.68994
21
-0.76385
31
-32.08453
12
14.77398
22
-3.66943
32
-35.78704
13
14.77398
23
-3.66943
33
-35.78704
0
3DFACE
8
Corps0
62
7
10
-0.09240
20
-15.10021
30
-35.57067
11
-0.12677
21
-13.09167
31
-38.69268
12
2.93023
22
-14.84735
32
-35.61456
13
2.93023
23
-14.84735
33
-35.61456
0
3DFACE
8
Corps0
62
7
10
2.47119
20
-12.84985
30
-38.73046
11
2.93023
21
-14.84735
31
-35.61456
12
-0.12677
22
-13.09167
32
-38.69268
13
-0.12677
23
-13.09167
33
-38.69268
0
3DFACE
8
Corps0
62
7
10
-0.12677
20
-13.09167
30
-38.69268
11
-0.13739
21
-10.49432
31
-41.05853
12
2.47119
22
-12.84985
32
-38.73046
13
2.47119
23
-12.84985
33
-38.73046
0
3DFACE
8
Corps0
62
7
10
1.86322
20
-10.13061
30
-41.08758
11
2.47119
21
-12.84985
31
-38.73046
12
-0.13739
22
-10.49432
32
-41.05853
13
-0.13739
23
-10.49432
33
-41.05853
0
3DFACE
8
Corps0
62
7
10
2.93023
20
-14.84735
30
-35.61456
11
2.47119
21
-12.84985
31
-38.73046
12
5.75628
22
-14.03710
32
-35.65576
13
5.75628
23
-14.03710
33
-35.65576
0
3DFACE
8
Corps0
62
7
10
4.91632
20
-12.17498
30
-38.76611
11
5.75628
21
-14.03710
31
-35.65576
12
2.47119
22
-12.84985
32
-38.73046
13
2.47119
23
-12.84985
33
-38.73046
0
3DFACE
8
Corps0
62
7
10
2.47119
20
-12.84985
30
-38.73046
11
1.86322
21
-10.13061
31
-41.08758
12
4.91632
22
-12.17498
32
-38.76611
13
4.91632
23
-12.17498
33
-38.76611
0
3DFACE
8
Corps0
62
7
10
3.86383
20
-9.76702
30
-41.11676
11
4.91632
21
-12.17498
31
-38.76611
12
1.86322
22
-10.13061
32
-41.08758
13
1.86322
23
-10.13061
33
-41.08758
0
3DFACE
8
Corps0
62
7
10
5.75628
20
-14.03710
30
-35.65576
11
4.91632
21
-12.17498
31
-38.76611
12
8.32391
22
-12.72778
32
-35.69317
13
8.32391
23
-12.72778
33
-35.69317
0
3DFACE
8
Corps0
62
7
10
6.99224
20
-10.85607
30
-38.79638
11
8.32391
21
-12.72778
31
-35.69317
12
4.91632
22
-12.17498
32
-38.76611
13
4.91632
23
-12.17498
33
-38.76611
0
3DFACE
8
Corps0
62
7
10
8.32391
20
-12.72778
30
-35.69317
11
6.99224
21
-10.85607
31
-38.79638
12
10.57128
22
-10.97808
32
-35.72595
13
10.57128
23
-10.97808
33
-35.72595
0
3DFACE
8
Corps0
62
7
10
9.06811
20
-9.53735
30
-38.82659
11
10.57128
21
-10.97808
31
-35.72595
12
6.99224
22
-10.85607
32
-38.79638
13
6.99224
23
-10.85607
33
-38.79638
0
3DFACE
8
Corps0
62
7
10
4.91632
20
-12.17498
30
-38.76611
11
3.86383
21
-9.76702
31
-41.11676
12
9.06811
22
-9.53735
32
-38.82659
13
9.06811
23
-9.53735
33
-38.82659
0
3DFACE
8
Corps0
62
7
10
7.15789
20
-7.67431
30
-41.16473
11
9.06811
21
-9.53735
31
-38.82659
12
3.86383
22
-9.76702
32
-41.11676
13
3.86383
23
-9.76702
33
-41.11676
0
3DFACE
8
Corps0
62
7
10
-0.13739
20
-10.49432
30
-41.05853
11
-0.12048
21
-7.27807
31
-42.51885
12
3.86383
22
-9.76702
32
-41.11676
13
3.86383
23
-9.76702
33
-41.11676
0
3DFACE
8
Corps0
62
7
10
2.59051
20
-6.78521
30
-42.55841
11
3.86383
21
-9.76702
31
-41.11676
12
-0.12048
22
-7.27807
32
-42.51885
13
-0.12048
23
-7.27807
33
-42.51885
0
3DFACE
8
Corps0
62
7
10
-0.12048
20
-7.27807
30
-42.51885
11
-0.07293
21
-3.41259
31
-42.92492
12
2.59051
22
-6.78521
32
-42.55841
13
2.59051
23
-6.78521
33
-42.55841
0
3DFACE
8
Corps0
62
7
10
1.08740
20
-3.20172
30
-42.94189
11
2.59051
21
-6.78521
31
-42.55841
12
-0.07293
22
-3.41259
32
-42.92492
13
-0.07293
23
-3.41259
33
-42.92492
0
3DFACE
8
Corps0
62
7
10
3.86383
20
-9.76702
30
-41.11676
11
2.59051
21
-6.78521
31
-42.55841
12
7.15789
22
-7.67431
32
-41.16473
13
7.15789
23
-7.67431
33
-41.16473
0
3DFACE
8
Corps0
62
7
10
4.82232
20
-5.36737
30
-42.59088
11
7.15789
21
-7.67431
31
-41.16473
12
2.59051
22
-6.78521
32
-42.55841
13
2.59051
23
-6.78521
33
-42.55841
0
3DFACE
8
Corps0
62
7
10
2.59051
20
-6.78521
30
-42.55841
11
1.08740
21
-3.20172
31
-42.94189
12
4.82232
22
-5.36737
32
-42.59088
13
4.82232
23
-5.36737
33
-42.59088
0
3DFACE
8
Corps0
62
7
10
2.04254
20
-2.59490
30
-42.95574
11
4.82232
21
-5.36737
31
-42.59088
12
1.08740
22
-3.20172
32
-42.94189
13
1.08740
23
-3.20172
33
-42.94189
0
3DFACE
8
Corps0
62
7
10
10.57128
20
-10.97808
30
-35.72595
11
9.06811
21
-9.53735
31
-38.82659
12
12.43664
22
-8.84606
32
-35.75305
13
12.43664
23
-8.84606
33
-35.75305
0
3DFACE
8
Corps0
62
7
10
10.48522
20
-7.55938
30
-38.84722
11
12.43664
21
-8.84606
31
-35.75305
12
9.06811
22
-9.53735
32
-38.82659
13
9.06811
23
-9.53735
33
-38.82659
0
3DFACE
8
Corps0
62
7
10
12.43664
20
-8.84606
30
-35.75305
11
10.48522
21
-7.55938
31
-38.84722
12
13.85815
22
-6.39050
32
-35.77374
13
13.85815
23
-6.39050
33
-35.77374
0
3DFACE
8
Corps0
62
7
10
11.90222
20
-5.58166
30
-38.86785
11
13.85815
21
-6.39050
31
-35.77374
12
10.48522
22
-7.55938
32
-38.84722
13
10.48522
23
-7.55938
33
-38.84722
0
3DFACE
8
Corps0
62
7
10
9.06811
20
-9.53735
30
-38.82659
11
7.15789
21
-7.67431
31
-41.16473
12
11.90222
22
-5.58166
32
-38.86785
13
11.90222
23
-5.58166
33
-38.86785
0
3DFACE
8
Corps0
62
7
10
9.40655
20
-4.53588
30
-41.19744
11
11.90222
21
-5.58166
31
-38.86785
12
7.15789
22
-7.67431
32
-41.16473
13
7.15789
23
-7.67431
33
-41.16473
0
3DFACE
8
Corps0
62
7
10
13.85815
20
-6.39050
30
-35.77374
11
11.90222
21
-5.58166
31
-38.86785
12
14.77398
22
-3.66943
32
-35.78704
13
14.77398
23
-3.66943
33
-35.78704
0
3DFACE
8
Corps0
62
7
10
12.69195
20
-3.23547
30
-38.87927
11
14.77398
21
-3.66943
31
-35.78704
12
11.90222
22
-5.58166
32
-38.86785
13
11.90222
23
-5.58166
33
-38.86785
0
3DFACE
8
Corps0
62
7
10
11.90222
20
-5.58166
30
-38.86785
11
9.40655
21
-4.53588
31
-41.19744
12
12.69195
22
-3.23547
32
-38.87927
13
12.69195
23
-3.23547
33
-38.87927
0
3DFACE
8
Corps0
62
7
10
10.03314
20
-2.67437
30
-41.20648
11
12.69195
21
-3.23547
31
-38.87927
12
9.40655
22
-4.53588
32
-41.19744
13
9.40655
23
-4.53588
33
-41.19744
0
3DFACE
8
Corps0
62
7
10
14.77398
20
-3.66943
30
-35.78704
11
12.69195
21
-3.23547
31
-38.87927
12
15.12237
22
-0.74157
32
-35.79205
13
15.12237
23
-0.74157
33
-35.79205
0
3DFACE
8
Corps0
62
7
10
12.99237
20
-0.71087
30
-38.88360
11
15.12237
21
-0.74157
31
-35.79205
12
12.69195
22
-3.23547
32
-38.87927
13
12.69195
23
-3.23547
33
-38.87927
0
3DFACE
8
Corps0
62
7
10
12.69195
20
-3.23547
30
-38.87927
11
10.03314
21
-2.67437
31
-41.20648
12
12.99237
22
-0.71087
32
-38.88360
13
12.99237
23
-0.71087
33
-38.88360
0
3DFACE
8
Corps0
62
7
10
10.27142
20
-0.67144
30
-41.20996
11
12.99237
21
-0.71087
31
-38.88360
12
10.03314
22
-2.67437
32
-41.20648
13
10.03314
23
-2.67437
33
-41.20648
0
3DFACE
8
Corps0
62
7
10
7.15789
20
-7.67431
30
-41.16473
11
4.82232
21
-5.36737
31
-42.59088
12
9.40655
22
-4.53588
32
-41.19744
13
9.40655
23
-4.53588
33
-41.19744
0
3DFACE
8
Corps0
62
7
10
6.34588
20
-3.24096
30
-42.61309
11
9.40655
21
-4.53588
31
-41.19744
12
4.82232
22
-5.36737
32
-42.59088
13
4.82232
23
-5.36737
33
-42.59088
0
3DFACE
8
Corps0
62
7
10
9.40655
20
-4.53588
30
-41.19744
11
6.34588
21
-3.24096
31
-42.61309
12
10.03314
22
-2.67437
32
-41.20648
13
10.03314
23
-2.67437
33
-41.20648
0
3DFACE
8
Corps0
62
7
10
6.63897
20
-1.93182
30
-42.61737
11
10.03314
21
-2.67437
31
-41.20648
12
6.34588
22
-3.24096
32
-42.61309
13
6.34588
23
-3.24096
33
-42.61309
0
3DFACE
8
Corps0
62
7
10
10.03314
20
-2.67437
30
-41.20648
11
6.63897
21
-1.93182
31
-42.61737
12
10.27142
22
-0.67144
32
-41.20996
13
10.27142
23
-0.67144
33
-41.20996
0
3DFACE
8
Corps0
62
7
10
6.93188
20
-0.62274
30
-42.62158
11
10.27142
21
-0.67144
31
-41.20996
12
6.63897
22
-1.93182
32
-42.61737
13
6.63897
23
-1.93182
33
-42.61737
0
3DFACE
8
Corps0
62
7
10
4.82232
20
-5.36737
30
-42.59088
11
2.04254
21
-2.59490
31
-42.95574
12
6.34588
22
-3.24096
32
-42.61309
13
6.34588
23
-3.24096
33
-42.61309
0
3DFACE
8
Corps0
62
7
10
2.69458
20
-1.68493
30
-42.96520
11
6.34588
21
-3.24096
31
-42.61309
12
2.04254
22
-2.59490
32
-42.95574
13
2.04254
23
-2.59490
33
-42.95574
0
3DFACE
8
Corps0
62
7
10
6.34588
20
-3.24096
30
-42.61309
11
2.69458
21
-1.68493
31
-42.96520
12
6.93188
22
-0.62274
32
-42.62158
13
6.93188
23
-0.62274
33
-42.62158
0
3DFACE
8
Corps0
62
7
10
2.94531
20
-0.56445
30
-42.96887
11
6.93188
21
-0.62274
31
-42.62158
12
2.69458
22
-1.68493
32
-42.96520
13
2.69458
23
-1.68493
33
-42.96520
0
3DFACE
8
Corps0
62
7
10
4.81188
20
-0.58343
30
6.59130
11
7.58380
21
-0.62390
31
5.97534
12
4.53143
22
0.87066
32
6.59539
13
4.53143
23
0.87066
33
6.59539
0
3DFACE
8
Corps0
62
7
10
7.09942
20
1.88629
30
5.98254
11
4.53143
21
0.87066
31
6.59539
12
7.58380
22
-0.62390
32
5.97534
13
7.58380
23
-0.62390
33
5.97534
0
3DFACE
8
Corps0
62
7
10
7.58380
20
-0.62390
30
5.97534
11
10.10137
21
-0.66082
31
4.33087
12
7.09942
22
1.88629
32
5.98254
13
7.09942
23
1.88629
33
5.98254
0
3DFACE
8
Corps0
62
7
10
9.43023
20
2.81677
30
4.34094
11
7.09942
21
1.88629
31
5.98254
12
10.10137
22
-0.66082
32
4.33087
13
10.10137
23
-0.66082
33
4.33087
0
3DFACE
8
Corps0
62
7
10
4.53143
20
0.87066
30
6.59539
11
7.09942
21
1.88629
31
5.98254
12
3.72619
22
2.06658
32
6.60723
13
3.72619
23
2.06658
33
6.60723
0
3DFACE
8
Corps0
62
7
10
5.70971
20
3.95086
30
6.00292
11
3.72619
21
2.06658
31
6.60723
12
7.09942
22
1.88629
32
5.98254
13
7.09942
23
1.88629
33
5.98254
0
3DFACE
8
Corps0
62
7
10
7.09942
20
1.88629
30
5.98254
11
9.43023
21
2.81677
31
4.34094
12
5.70971
22
3.95086
32
6.00292
13
5.70971
23
3.95086
33
6.00292
0
3DFACE
8
Corps0
62
7
10
7.50476
20
5.67712
30
4.36914
11
5.70971
21
3.95086
31
6.00292
12
9.43023
22
2.81677
32
4.34094
13
9.43023
23
2.81677
33
4.34094
0
3DFACE
8
Corps0
62
7
10
10.10137
20
-0.66082
30
4.33087
11
12.33660
21
-0.69390
31
1.80749
12
9.76586
22
1.07806
32
4.33593
13
9.76586
23
1.07806
33
4.33593
0
3DFACE
8
Corps0
62
7
10
12.11431
20
1.54486
30
1.81097
11
9.76586
21
1.07806
31
4.33593
12
12.33660
22
-0.69390
32
1.80749
13
12.33660
23
-0.69390
33
1.80749
0
3DFACE
8
Corps0
62
7
10
9.76586
20
1.07806
30
4.33593
11
12.11431
21
1.54486
31
1.81097
12
9.43023
22
2.81677
32
4.34094
13
9.43023
23
2.81677
33
4.34094
0
3DFACE
8
Corps0
62
7
10
11.49816
20
3.65087
30
1.82006
11
9.43023
21
2.81677
31
4.34094
12
12.11431
22
1.54486
32
1.81097
13
12.11431
23
1.54486
33
1.81097
0
3DFACE
8
Corps0
62
7
10
12.33660
20
-0.69390
30
1.80749
11
14.26141
21
-0.72259
31
-1.44537
12
12.11431
22
1.54486
32
1.81097
13
12.11431
23
1.54486
33
1.81097
0
3DFACE
8
Corps0
62
7
10
14.02624
20
1.91387
30
-1.44165
11
12.11431
21
1.54486
31
1.81097
12
14.26141
22
-0.72259
32
-1.44537
13
14.26141
23
-0.72259
33
-1.44537
0
3DFACE
8
Corps0
62
7
10
12.11431
20
1.54486
30
1.81097
11
14.02624
21
1.91387
31
-1.44165
12
11.49816
22
3.65087
32
1.82006
13
11.49816
23
3.65087
33
1.82006
0
3DFACE
8
Corps0
62
7
10
13.27722
20
4.37738
30
-1.43066
11
11.49816
21
3.65087
31
1.82006
12
14.02624
22
1.91387
32
-1.44165
13
14.02624
23
1.91387
33
-1.44165
0
3DFACE
8
Corps0
62
7
10
9.43023
20
2.81677
30
4.34094
11
11.49816
21
3.65087
31
1.82006
12
7.50476
22
5.67712
32
4.36914
13
7.50476
23
5.67712
33
4.36914
0
3DFACE
8
Corps0
62
7
10
9.09259
20
7.22460
30
1.85522
11
7.50476
21
5.67712
31
4.36914
12
11.49816
22
3.65087
32
1.82006
13
11.49816
23
3.65087
33
1.82006
0
3DFACE
8
Corps0
62
7
10
11.49816
20
3.65087
30
1.82006
11
13.27722
21
4.37738
31
-1.43066
12
10.29541
22
5.43786
32
1.83758
13
10.29541
23
5.43786
33
1.83758
0
3DFACE
8
Corps0
62
7
10
12.06842
20
6.61456
30
-1.41290
11
10.29541
21
5.43786
31
1.83758
12
13.27722
22
4.37738
32
-1.43066
13
13.27722
23
4.37738
33
-1.43066
0
3DFACE
8
Corps0
62
7
10
10.29541
20
5.43786
30
1.83758
11
12.06842
21
6.61456
31
-1.41290
12
9.09259
22
7.22460
32
1.85522
13
9.09259
23
7.22460
33
1.85522
0
3DFACE
8
Corps0
62
7
10
10.45349
20
8.57202
30
-1.38934
11
9.09259
21
7.22460
31
1.85522
12
12.06842
22
6.61456
32
-1.41290
13
12.06842
23
6.61456
33
-1.41290
0
3DFACE
8
Corps0
62
7
10
3.72619
20
2.06658
30
6.60723
11
5.70971
21
3.95086
31
6.00292
12
2.51953
22
2.88269
32
6.62481
13
2.51953
23
2.88269
33
6.62481
0
3DFACE
8
Corps0
62
7
10
3.62646
20
5.35980
30
6.03332
11
2.51953
21
2.88269
31
6.62481
12
5.70971
22
3.95086
32
6.00292
13
5.70971
23
3.95086
33
6.00292
0
3DFACE
8
Corps0
62
7
10
5.70971
20
3.95086
30
6.00292
11
7.50476
21
5.67712
31
4.36914
12
3.62646
22
5.35980
32
6.03332
13
3.62646
23
5.35980
33
6.03332
0
3DFACE
8
Corps0
62
7
10
4.61853
20
7.62915
30
4.41131
11
3.62646
21
5.35980
31
6.03332
12
7.50476
22
5.67712
32
4.36914
13
7.50476
23
5.67712
33
4.36914
0
3DFACE
8
Corps0
62
7
10
7.50476
20
5.67712
30
4.36914
11
9.09259
21
7.22460
31
1.85522
12
4.61853
22
7.62915
32
4.41131
13
4.61853
23
7.62915
33
4.41131
0
3DFACE
8
Corps0
62
7
10
5.48651
20
9.66333
30
1.90795
11
4.61853
21
7.62915
31
4.41131
12
9.09259
22
7.22460
32
1.85522
13
9.09259
23
7.22460
33
1.85522
0
3DFACE
8
Corps0
62
7
10
9.09259
20
7.22460
30
1.85522
11
10.45349
21
8.57202
31
-1.38934
12
7.28955
22
8.44403
32
1.88153
13
7.28955
23
8.44403
33
1.88153
0
3DFACE
8
Corps0
62
7
10
8.48638
20
10.19653
30
-1.36059
11
7.28955
21
8.44403
31
1.88153
12
10.45349
22
8.57202
32
-1.38934
13
10.45349
23
8.57202
33
-1.38934
0
3DFACE
8
Corps0
62
7
10
7.28955
20
8.44403
30
1.88153
11
8.48638
21
10.19653
31
-1.36059
12
5.48651
22
9.66333
32
1.90795
13
5.48651
23
9.66333
33
1.90795
0
3DFACE
8
Corps0
62
7
10
6.22082
20
11.43450
30
-1.32751
11
5.48651
21
9.66333
31
1.90795
12
8.48638
22
10.19653
32
-1.36059
13
8.48638
23
10.19653
33
-1.36059
0
3DFACE
8
Corps0
62
7
10
2.51953
20
2.88269
30
6.62481
11
3.62646
21
5.35980
31
6.03332
12
1.03363
22
3.19720
32
6.64648
13
1.03363
23
3.19720
33
6.64648
0
3DFACE
8
Corps0
62
7
10
1.06152
20
5.90264
30
6.07073
11
1.03363
21
3.19720
31
6.64648
12
3.62646
22
5.35980
32
6.03332
13
3.62646
23
5.35980
33
6.03332
0
3DFACE
8
Corps0
62
7
10
3.62646
20
5.35980
30
6.03332
11
4.61853
21
7.62915
31
4.41131
12
1.06152
22
5.90264
32
6.07073
13
1.06152
23
5.90264
33
6.07073
0
3DFACE
8
Corps0
62
7
10
1.06506
20
8.38134
30
4.46313
11
1.06152
21
5.90264
31
6.07073
12
4.61853
22
7.62915
32
4.41131
13
4.61853
23
7.62915
33
4.41131
0
3DFACE
8
Corps0
62
7
10
4.61853
20
7.62915
30
4.41131
11
5.48651
21
9.66333
31
1.90795
12
1.06506
22
8.38134
32
4.46313
13
1.06506
23
8.38134
33
4.46313
0
3DFACE
8
Corps0
62
7
10
1.04699
20
10.60314
30
1.97271
11
1.06506
21
8.38134
31
4.46313
12
5.48651
22
9.66333
32
1.90795
13
5.48651
23
9.66333
33
1.90795
0
3DFACE
8
Corps0
62
7
10
5.48651
20
9.66333
30
1.90795
11
6.22082
21
11.43450
31
-1.32751
12
3.26684
22
10.13323
32
1.94030
13
3.26684
23
10.13323
33
1.94030
0
3DFACE
8
Corps0
62
7
10
3.71069
20
12.23278
30
-1.29083
11
3.26684
21
10.13323
31
1.94030
12
6.22082
22
11.43450
32
-1.32751
13
6.22082
23
11.43450
33
-1.32751
0
3DFACE
8
Corps0
62
7
10
3.26684
20
10.13323
30
1.94030
11
3.71069
21
12.23278
31
-1.29083
12
1.04699
22
10.60314
32
1.97271
13
1.04699
23
10.60314
33
1.97271
0
3DFACE
8
Corps0
62
7
10
1.00976
20
12.53778
30
-1.25146
11
1.04699
21
10.60314
31
1.97271
12
3.71069
22
12.23278
32
-1.29083
13
3.71069
23
12.23278
33
-1.29083
0
3DFACE
8
Corps0
62
7
10
14.26141
20
-0.72259
30
-1.44537
11
15.84790
21
-0.74645
31
-5.27819
12
14.02624
22
1.91387
32
-1.44165
13
14.02624
23
1.91387
33
-1.44165
0
3DFACE
8
Corps0
62
7
10
15.58355
20
2.21630
30
-5.27398
11
14.02624
21
1.91387
31
-1.44165
12
15.84790
22
-0.74645
32
-5.27819
13
15.84790
23
-0.74645
33
-5.27819
0
3DFACE
8
Corps0
62
7
10
14.02624
20
1.91387
30
-1.44165
11
15.58355
21
2.21630
31
-5.27398
12
13.27722
22
4.37738
32
-1.43066
13
13.27722
23
4.37738
33
-1.43066
0
3DFACE
8
Corps0
62
7
10
14.74188
20
4.98468
30
-5.26165
11
13.27722
21
4.37738
31
-1.43066
12
15.58355
22
2.21630
32
-5.27398
13
15.58355
23
2.21630
33
-5.27398
0
3DFACE
8
Corps0
62
7
10
15.84790
20
-0.74645
30
-5.27819
11
17.06787
21
-0.76507
31
-9.54162
12
15.58355
22
2.21630
32
-5.27398
13
15.58355
23
2.21630
33
-5.27398
0
3DFACE
8
Corps0
62
7
10
16.78063
20
2.45385
30
-9.53710
11
15.58355
21
2.21630
31
-5.27398
12
17.06787
22
-0.76507
32
-9.54162
13
17.06787
23
-0.76507
33
-9.54162
0
3DFACE
8
Corps0
62
7
10
15.58355
20
2.21630
30
-5.27398
11
16.78063
21
2.45385
31
-9.53710
12
14.74188
22
4.98468
32
-5.26165
13
14.74188
23
4.98468
33
-5.26165
0
3DFACE
8
Corps0
62
7
10
15.86621
20
5.46160
30
-9.52368
11
14.74188
21
4.98468
31
-5.26165
12
16.78063
22
2.45385
32
-9.53710
13
16.78063
23
2.45385
33
-9.53710
0
3DFACE
8
Corps0
62
7
10
13.27722
20
4.37738
30
-1.43066
11
14.74188
21
4.98468
31
-5.26165
12
12.06842
22
6.61456
32
-1.41290
13
12.06842
23
6.61456
33
-1.41290
0
3DFACE
8
Corps0
62
7
10
13.38348
20
7.49884
30
-5.24176
11
12.06842
21
6.61456
31
-1.41290
12
14.74188
22
4.98468
32
-5.26165
13
14.74188
23
4.98468
33
-5.26165
0
3DFACE
8
Corps0
62
7
10
12.06842
20
6.61456
30
-1.41290
11
13.38348
21
7.49884
31
-5.24176
12
10.45349
22
8.57202
32
-1.38934
13
10.45349
23
8.57202
33
-1.38934
0
3DFACE
8
Corps0
62
7
10
11.56866
20
9.69854
30
-5.21520
11
10.45349
21
8.57202
31
-1.38934
12
13.38348
22
7.49884
32
-5.24176
13
13.38348
23
7.49884
33
-5.24176
0
3DFACE
8
Corps0
62
7
10
14.74188
20
4.98468
30
-5.26165
11
15.86621
21
5.46160
31
-9.52368
12
13.38348
22
7.49884
32
-5.24176
13
13.38348
23
7.49884
33
-5.24176
0
3DFACE
8
Corps0
62
7
10
14.39025
20
8.19311
30
-9.50207
11
13.38348
21
7.49884
31
-5.24176
12
15.86621
22
5.46160
32
-9.52368
13
15.86621
23
5.46160
33
-9.52368
0
3DFACE
8
Corps0
62
7
10
13.38348
20
7.49884
30
-5.24176
11
14.39025
21
8.19311
31
-9.50207
12
11.56866
22
9.69854
32
-5.21520
13
11.56866
23
9.69854
33
-5.21520
0
3DFACE
8
Corps0
62
7
10
12.41851
20
10.58312
30
-9.47320
11
11.56866
21
9.69854
31
-5.21520
12
14.39025
22
8.19311
32
-9.50207
13
14.39025
23
8.19311
33
-9.50207
0
3DFACE
8
Corps0
62
7
10
17.06787
20
-0.76507
30
-9.54162
11
17.89337
21
-0.77801
31
-14.08605
12
16.78063
22
2.45385
32
-9.53710
13
16.78063
23
2.45385
33
-9.53710
0
3DFACE
8
Corps0
62
7
10
17.56561
20
2.61132
30
-14.08959
11
16.78063
21
2.45385
31
-9.53710
12
17.89337
22
-0.77801
32
-14.08605
13
17.89337
23
-0.77801
33
-14.08605
0
3DFACE
8
Corps0
62
7
10
16.78063
20
2.45385
30
-9.53710
11
17.56561
21
2.61132
31
-14.08959
12
15.86621
22
5.46160
32
-9.52368
13
15.86621
23
5.46160
33
-9.52368
0
3DFACE
8
Corps0
62
7
10
16.42871
20
5.72021
30
-14.13311
11
15.86621
21
5.46160
31
-9.52368
12
17.56561
22
2.61132
32
-14.08959
13
17.56561
23
2.61132
33
-14.08959
0
3DFACE
8
Corps0
62
7
10
17.89337
20
-0.77801
30
-14.08605
11
18.29632
21
-0.78491
31
-18.76208
12
17.56561
22
2.61132
32
-14.08959
13
17.56561
23
2.61132
33
-14.08959
0
3DFACE
8
Corps0
62
7
10
17.98431
20
2.71160
30
-18.75726
11
17.56561
21
2.61132
31
-14.08959
12
18.29632
22
-0.78491
32
-18.76208
13
18.29632
23
-0.78491
33
-18.76208
0
3DFACE
8
Corps0
62
7
10
17.56561
20
2.61132
30
-14.08959
11
17.98431
21
2.71160
31
-18.75726
12
16.42871
22
5.72021
32
-14.13311
13
16.42871
23
5.72021
33
-14.13311
0
3DFACE
8
Corps0
62
7
10
16.99102
20
5.97882
30
-18.74267
11
16.42871
21
5.72021
31
-14.13311
12
17.98431
22
2.71160
32
-18.75726
13
17.98431
23
2.71160
33
-18.75726
0
3DFACE
8
Corps0
62
7
10
15.86621
20
5.46160
30
-9.52368
11
16.99102
21
5.97882
31
-18.74267
12
14.39025
22
8.19311
32
-9.50207
13
14.39025
23
8.19311
33
-9.50207
0
3DFACE
8
Corps0
62
7
10
15.38781
20
8.94598
30
-18.71923
11
14.39025
21
8.19311
31
-9.50207
12
16.99102
22
5.97882
32
-18.74267
13
16.99102
23
5.97882
33
-18.74267
0
3DFACE
8
Corps0
62
7
10
14.39025
20
8.19311
30
-9.50207
11
15.38781
21
8.94598
31
-18.71923
12
12.41851
22
10.58312
32
-9.47320
13
12.41851
23
10.58312
33
-9.47320
0
3DFACE
8
Corps0
62
7
10
13.24591
20
11.54205
30
-18.68786
11
12.41851
21
10.58312
31
-9.47320
12
15.38781
22
8.94598
32
-18.71923
13
15.38781
23
8.94598
33
-18.71923
0
3DFACE
8
Corps0
62
7
10
10.45349
20
8.57202
30
-1.38934
11
11.56866
21
9.69854
31
-5.21520
12
8.48638
22
10.19653
32
-1.36059
13
8.48638
23
10.19653
33
-1.36059
0
3DFACE
8
Corps0
62
7
10
9.35809
20
11.52416
30
-5.18292
11
8.48638
21
10.19653
31
-1.36059
12
11.56866
22
9.69854
32
-5.21520
13
11.56866
23
9.69854
33
-5.21520
0
3DFACE
8
Corps0
62
7
10
8.48638
20
10.19653
30
-1.36059
11
9.35809
21
11.52416
31
-5.18292
12
6.22082
22
11.43450
32
-1.32751
13
6.22082
23
11.43450
33
-1.32751
0
3DFACE
8
Corps0
62
7
10
6.81219
20
12.91552
30
-5.14569
11
6.22082
21
11.43450
31
-1.32751
12
9.35809
22
11.52416
32
-5.18292
13
9.35809
23
11.52416
33
-5.18292
0
3DFACE
8
Corps0
62
7
10
11.56866
20
9.69854
30
-5.21520
11
12.41851
21
10.58312
31
-9.47320
12
9.35809
22
11.52416
32
-5.18292
13
9.35809
23
11.52416
33
-5.18292
0
3DFACE
8
Corps0
62
7
10
10.01684
20
12.56652
30
-9.43811
11
9.35809
21
11.52416
31
-5.18292
12
12.41851
22
10.58312
32
-9.47320
13
12.41851
23
10.58312
33
-9.47320
0
3DFACE
8
Corps0
62
7
10
9.35809
20
11.52416
30
-5.18292
11
10.01684
21
12.56652
31
-9.43811
12
6.81219
22
12.91552
32
-5.14569
13
6.81219
23
12.91552
33
-5.14569
0
3DFACE
8
Corps0
62
7
10
7.25073
20
14.07818
30
-9.39776
11
6.81219
21
12.91552
31
-5.14569
12
10.01684
22
12.56652
32
-9.43811
13
10.01684
23
12.56652
33
-9.43811
0
3DFACE
8
Corps0
62
7
10
6.22082
20
11.43450
30
-1.32751
11
6.81219
21
12.91552
31
-5.14569
12
3.71069
22
12.23278
32
-1.29083
13
3.71069
23
12.23278
33
-1.29083
0
3DFACE
8
Corps0
62
7
10
3.99133
20
13.81243
30
-5.10455
11
3.71069
21
12.23278
31
-1.29083
12
6.81219
22
12.91552
32
-5.14569
13
6.81219
23
12.91552
33
-5.14569
0
3DFACE
8
Corps0
62
7
10
3.71069
20
12.23278
30
-1.29083
11
3.99133
21
13.81243
31
-5.10455
12
1.00976
22
12.53778
32
-1.25146
13
1.00976
23
12.53778
33
-1.25146
0
3DFACE
8
Corps0
62
7
10
0.95611
20
14.15521
30
-5.06030
11
1.00976
21
12.53778
31
-1.25146
12
3.99133
22
13.81243
32
-5.10455
13
3.99133
23
13.81243
33
-5.10455
0
3DFACE
8
Corps0
62
7
10
6.81219
20
12.91552
30
-5.14569
11
7.25073
21
14.07818
31
-9.39776
12
3.99133
22
13.81243
32
-5.10455
13
3.99133
23
13.81243
33
-5.10455
0
3DFACE
8
Corps0
62
7
10
4.18603
20
15.05273
30
-9.35296
11
3.99133
21
13.81243
31
-5.10455
12
7.25073
22
14.07818
32
-9.39776
13
7.25073
23
14.07818
33
-9.39776
0
3DFACE
8
Corps0
62
7
10
3.99133
20
13.81243
30
-5.10455
11
4.18603
21
15.05273
31
-9.35296
12
0.95611
22
14.15521
32
-5.06030
13
0.95611
23
14.15521
33
-5.06030
0
3DFACE
8
Corps0
62
7
10
0.88836
20
15.42510
30
-9.30487
11
0.95611
21
14.15521
31
-5.06030
12
4.18603
22
15.05273
32
-9.35296
13
4.18603
23
15.05273
33
-9.35296
0
3DFACE
8
Corps0
62
7
10
12.41851
20
10.58312
30
-9.47320
11
13.24591
21
11.54205
31
-18.68786
12
10.01684
22
12.56652
32
-9.43811
13
10.01684
23
12.56652
33
-9.43811
0
3DFACE
8
Corps0
62
7
10
10.63708
20
13.69653
30
-18.64978
11
10.01684
21
12.56652
31
-9.43811
12
13.24591
22
11.54205
32
-18.68786
13
13.24591
23
11.54205
33
-18.68786
0
3DFACE
8
Corps0
62
7
10
10.01684
20
12.56652
30
-9.43811
11
10.63708
21
13.69653
31
-18.64978
12
7.25073
22
14.07818
32
-9.39776
13
7.25073
23
14.07818
33
-9.39776
0
3DFACE
8
Corps0
62
7
10
7.63238
20
15.33856
30
-18.60583
11
7.25073
21
14.07818
31
-9.39776
12
10.63708
22
13.69653
32
-18.64978
13
10.63708
23
13.69653
33
-18.64978
0
3DFACE
8
Corps0
62
7
10
7.25073
20
14.07818
30
-9.39776
11
7.44171
21
14.70837
31
-14.00164
12
4.18603
22
15.05273
32
-9.35296
13
4.18603
23
15.05273
33
-9.35296
0
3DFACE
8
Corps0
62
7
10
4.28063
20
15.90087
30
-13.89532
11
4.18603
21
15.05273
31
-9.35296
12
7.44171
22
14.70837
32
-14.00164
13
7.44171
23
14.70837
33
-14.00164
0
3DFACE
8
Corps0
62
7
10
4.18603
20
15.05273
30
-9.35296
11
4.28063
21
15.90087
31
-13.89532
12
0.88836
22
15.42510
32
-9.30487
13
0.88836
23
15.42510
33
-9.30487
0
3DFACE
8
Corps0
62
7
10
0.80938
20
16.31726
30
-13.83612
11
0.88836
21
15.42510
31
-9.30487
12
4.28063
22
15.90087
32
-13.89532
13
4.28063
23
15.90087
33
-13.89532
0
3DFACE
8
Corps0
62
7
10
7.44171
20
14.70837
30
-14.00164
11
7.63238
21
15.33856
31
-18.60583
12
4.28063
22
15.90087
32
-13.89532
13
4.28063
23
15.90087
33
-13.89532
0
3DFACE
8
Corps0
62
7
10
4.30346
20
16.39721
30
-18.55725
11
4.28063
21
15.90087
31
-13.89532
12
7.63238
22
15.33856
32
-18.60583
13
7.63238
23
15.33856
33
-18.60583
0
3DFACE
8
Corps0
62
7
10
4.28063
20
15.90087
30
-13.89532
11
4.30346
21
16.39721
31
-18.55725
12
0.80938
22
16.31726
32
-13.83612
13
0.80938
23
16.31726
33
-13.83612
0
3DFACE
8
Corps0
62
7
10
0.72149
20
16.80163
30
-18.50494
11
0.80938
21
16.31726
31
-13.83612
12
4.30346
22
16.39721
32
-18.55725
13
4.30346
23
16.39721
33
-18.55725
0
3DFACE
8
Corps0
62
7
10
18.29632
20
-0.78491
30
-18.76208
11
18.24884
21
-0.78503
31
-23.42016
12
17.98431
22
2.71160
32
-18.75726
13
17.98431
23
2.71160
33
-18.75726
0
3DFACE
8
Corps0
62
7
10
17.93328
20
2.71826
30
-23.41400
11
17.98431
21
2.71160
31
-18.75726
12
18.24884
22
-0.78503
32
-23.42016
13
18.24884
23
-0.78503
33
-23.42016
0
3DFACE
8
Corps0
62
7
10
17.98431
20
2.71160
30
-18.75726
11
17.93328
21
2.71826
31
-23.41400
12
16.99102
22
5.97882
32
-18.74267
13
16.99102
23
5.97882
33
-18.74267
0
3DFACE
8
Corps0
62
7
10
16.91864
20
5.97631
30
-23.39031
11
16.99102
21
5.97882
31
-18.74267
12
17.93328
22
2.71826
32
-23.41400
13
17.93328
23
2.71826
33
-23.41400
0
3DFACE
8
Corps0
62
7
10
18.24884
20
-0.78503
30
-23.42016
11
17.72271
21
-0.77813
31
-27.91082
12
17.93328
22
2.71826
32
-23.41400
13
17.93328
23
2.71826
33
-23.41400
0
3DFACE
8
Corps0
62
7
10
17.41754
20
2.64245
30
-27.90612
11
17.93328
21
2.71826
31
-23.41400
12
17.72271
22
-0.77813
32
-27.91082
13
17.72271
23
-0.77813
33
-27.91082
0
3DFACE
8
Corps0
62
7
10
17.93328
20
2.71826
30
-23.41400
11
17.41754
21
2.64245
31
-27.90612
12
16.91864
22
5.97631
32
-23.39031
13
16.91864
23
5.97631
33
-23.39031
0
3DFACE
8
Corps0
62
7
10
16.44567
20
5.83862
30
-27.89178
11
16.91864
21
5.97631
31
-23.39031
12
17.41754
22
2.64245
32
-27.90612
13
17.41754
23
2.64245
33
-27.90612
0
3DFACE
8
Corps0
62
7
10
16.99102
20
5.97882
30
-18.74267
11
16.91864
21
5.97631
31
-23.39031
12
15.38781
22
8.94598
32
-18.71923
13
15.38781
23
8.94598
33
-18.71923
0
3DFACE
8
Corps0
62
7
10
15.26043
20
8.90283
30
-23.34216
11
15.38781
21
8.94598
31
-18.71923
12
16.91864
22
5.97631
32
-23.39031
13
16.91864
23
5.97631
33
-23.39031
0
3DFACE
8
Corps0
62
7
10
15.38781
20
8.94598
30
-18.71923
11
15.26043
21
8.90283
31
-23.34216
12
13.24591
22
11.54205
32
-18.68786
13
13.24591
23
11.54205
33
-18.68786
0
3DFACE
8
Corps0
62
7
10
13.01403
20
11.41149
30
-23.26300
11
13.24591
21
11.54205
31
-18.68786
12
15.26043
22
8.90283
32
-23.34216
13
15.26043
23
8.90283
33
-23.34216
0
3DFACE
8
Corps0
62
7
10
16.91864
20
5.97631
30
-23.39031
11
16.44567
21
5.83862
31
-27.89178
12
15.26043
22
8.90283
32
-23.34216
13
15.26043
23
8.90283
33
-23.34216
0
3DFACE
8
Corps0
62
7
10
14.87725
20
8.74121
30
-27.86883
11
15.26043
21
8.90283
31
-23.34216
12
16.44567
22
5.83862
32
-27.89178
13
16.44567
23
5.83862
33
-27.89178
0
3DFACE
8
Corps0
62
7
10
15.26043
20
8.90283
30
-23.34216
11
14.87725
21
8.74121
31
-27.86883
12
13.01403
22
11.41149
32
-23.26300
13
13.01403
23
11.41149
33
-23.26300
0
3DFACE
8
Corps0
62
7
10
12.78198
20
11.28094
30
-27.83819
11
13.01403
21
11.41149
31
-23.26300
12
14.87725
22
8.74121
32
-27.86883
13
14.87725
23
8.74121
33
-27.86883
0
3DFACE
8
Corps0
62
7
10
17.72271
20
-0.77813
30
-27.91082
11
16.68994
21
-0.76385
31
-32.08453
12
17.41754
22
2.64245
32
-27.90612
13
17.41754
23
2.64245
33
-27.90612
0
3DFACE
8
Corps0
62
7
10
16.40130
20
2.47100
30
-32.08007
11
17.41754
21
2.64245
31
-27.90612
12
16.68994
22
-0.76385
32
-32.08453
13
16.68994
23
-0.76385
33
-32.08453
0
3DFACE
8
Corps0
62
7
10
17.41754
20
2.64245
30
-27.90612
11
16.40130
21
2.47100
31
-32.08007
12
16.44567
22
5.83862
32
-27.89178
13
16.44567
23
5.83862
33
-27.89178
0
3DFACE
8
Corps0
62
7
10
15.48229
20
5.49353
30
-32.06658
11
16.44567
21
5.83862
31
-27.89178
12
16.40130
22
2.47100
32
-32.08007
13
16.40130
23
2.47100
33
-32.08007
0
3DFACE
8
Corps0
62
7
10
16.68994
20
-0.76385
30
-32.08453
11
15.12237
21
-0.74157
31
-35.79205
12
16.40130
22
2.47100
32
-32.08007
13
16.40130
23
2.47100
33
-32.08007
0
3DFACE
8
Corps0
62
7
10
14.85980
20
2.20068
30
-35.78808
11
16.40130
21
2.47100
31
-32.08007
12
15.12237
22
-0.74157
32
-35.79205
13
15.12237
23
-0.74157
33
-35.79205
0
3DFACE
8
Corps0
62
7
10
16.40130
20
2.47100
30
-32.08007
11
14.85980
21
2.20068
31
-35.78808
12
15.48229
22
5.49353
32
-32.06658
13
15.48229
23
5.49353
33
-32.06658
0
3DFACE
8
Corps0
62
7
10
14.02398
20
4.94989
30
-35.77581
11
15.48229
21
5.49353
31
-32.06658
12
14.85980
22
2.20068
32
-35.78808
13
14.85980
23
2.20068
33
-35.78808
0
3DFACE
8
Corps0
62
7
10
16.44567
20
5.83862
30
-27.89178
11
15.48229
21
5.49353
31
-32.06658
12
14.87725
22
8.74121
32
-27.86883
13
14.87725
23
8.74121
33
-27.86883
0
3DFACE
8
Corps0
62
7
10
13.99914
20
8.23840
30
-32.04486
11
14.87725
21
8.74121
31
-27.86883
12
15.48229
22
5.49353
32
-32.06658
13
15.48229
23
5.49353
33
-32.06658
0
3DFACE
8
Corps0
62
7
10
14.87725
20
8.74121
30
-27.86883
11
13.99914
21
8.23840
31
-32.04486
12
12.78198
22
11.28094
32
-27.83819
13
12.78198
23
11.28094
33
-27.83819
0
3DFACE
8
Corps0
62
7
10
12.01763
20
10.64013
30
-32.01593
11
12.78198
21
11.28094
31
-27.83819
12
13.99914
22
8.23840
32
-32.04486
13
13.99914
23
8.23840
33
-32.04486
0
3DFACE
8
Corps0
62
7
10
15.48229
20
5.49353
30
-32.06658
11
14.02398
21
4.94989
31
-35.77581
12
13.99914
22
8.23840
32
-32.04486
13
13.99914
23
8.23840
33
-32.04486
0
3DFACE
8
Corps0
62
7
10
12.67486
20
7.44659
30
-35.75604
11
13.99914
21
8.23840
31
-32.04486
12
14.02398
22
4.94989
32
-35.77581
13
14.02398
23
4.94989
33
-35.77581
0
3DFACE
8
Corps0
62
7
10
13.99914
20
8.23840
30
-32.04486
11
12.67486
21
7.44659
31
-35.75604
12
12.01763
22
10.64013
32
-32.01593
13
12.01763
23
10.64013
33
-32.01593
0
3DFACE
8
Corps0
62
7
10
10.87261
20
9.63110
30
-35.72967
11
12.01763
21
10.64013
31
-32.01593
12
12.67486
22
7.44659
32
-35.75604
13
12.67486
23
7.44659
33
-35.75604
0
3DFACE
8
Corps0
62
7
10
13.24591
20
11.54205
30
-18.68786
11
13.01403
21
11.41149
31
-23.26300
12
10.63708
22
13.69653
32
-18.64978
13
10.63708
23
13.69653
33
-18.64978
0
3DFACE
8
Corps0
62
7
10
10.49713
20
13.66595
30
-23.27258
11
10.63708
21
13.69653
31
-18.64978
12
13.01403
22
11.41149
32
-23.26300
13
13.01403
23
11.41149
33
-23.26300
0
3DFACE
8
Corps0
62
7
10
10.63708
20
13.69653
30
-18.64978
11
10.49713
21
13.66595
31
-23.27258
12
7.63238
22
15.33856
32
-18.60583
13
7.63238
23
15.33856
33
-18.60583
0
3DFACE
8
Corps0
62
7
10
7.53527
20
15.36077
30
-23.25311
11
7.63238
21
15.33856
31
-18.60583
12
10.49713
22
13.66595
32
-23.27258
13
10.49713
23
13.66595
33
-23.27258
0
3DFACE
8
Corps0
62
7
10
13.01403
20
11.41149
30
-23.26300
11
12.78198
21
11.28094
31
-27.83819
12
10.49713
22
13.66595
32
-23.27258
13
10.49713
23
13.66595
33
-23.27258
0
3DFACE
8
Corps0
62
7
10
10.22985
20
13.38861
30
-27.80090
11
10.49713
21
13.66595
31
-23.27258
12
12.78198
22
11.28094
32
-27.83819
13
12.78198
23
11.28094
33
-27.83819
0
3DFACE
8
Corps0
62
7
10
10.49713
20
13.66595
30
-23.27258
11
10.22985
21
13.38861
31
-27.80090
12
7.53527
22
15.36077
32
-23.25311
13
7.53527
23
15.36077
33
-23.25311
0
3DFACE
8
Corps0
62
7
10
7.29046
20
14.99481
30
-27.75793
11
7.53527
21
15.36077
31
-23.25311
12
10.22985
22
13.38861
32
-27.80090
13
10.22985
23
13.38861
33
-27.80090
0
3DFACE
8
Corps0
62
7
10
7.63238
20
15.33856
30
-18.60583
11
7.53527
21
15.36077
31
-23.25311
12
4.30346
22
16.39721
32
-18.55725
13
4.30346
23
16.39721
33
-18.55725
0
3DFACE
8
Corps0
62
7
10
4.21624
20
16.44000
30
-23.21350
11
4.30346
21
16.39721
31
-18.55725
12
7.53527
22
15.36077
32
-23.25311
13
7.53527
23
15.36077
33
-23.25311
0
3DFACE
8
Corps0
62
7
10
4.30346
20
16.39721
30
-18.55725
11
4.21624
21
16.44000
31
-23.21350
12
0.72149
22
16.80163
32
-18.50494
13
0.72149
23
16.80163
33
-18.50494
0
3DFACE
8
Corps0
62
7
10
0.62756
20
16.84808
30
-23.16241
11
0.72149
21
16.80163
31
-18.50494
12
4.21624
22
16.44000
32
-23.21350
13
4.21624
23
16.44000
33
-23.21350
0
3DFACE
8
Corps0
62
7
10
7.53527
20
15.36077
30
-23.25311
11
7.29046
21
14.99481
31
-27.75793
12
4.21624
22
16.44000
32
-23.21350
13
4.21624
23
16.44000
33
-23.21350
0
3DFACE
8
Corps0
62
7
10
4.03387
20
16.03045
30
-27.71038
11
4.21624
21
16.44000
31
-23.21350
12
7.29046
22
14.99481
32
-27.75793
13
7.29046
23
14.99481
33
-27.75793
0
3DFACE
8
Corps0
62
7
10
4.21624
20
16.44000
30
-23.21350
11
4.03387
21
16.03045
31
-27.71038
12
0.62756
22
16.84808
32
-23.16241
13
0.62756
23
16.84808
33
-23.16241
0
3DFACE
8
Corps0
62
7
10
0.52984
20
16.42614
30
-27.65930
11
0.62756
21
16.84808
31
-23.16241
12
4.03387
22
16.03045
32
-27.71038
13
4.03387
23
16.03045
33
-27.71038
0
3DFACE
8
Corps0
62
7
10
12.78198
20
11.28094
30
-27.83819
11
12.01763
21
10.64013
31
-32.01593
12
10.22985
22
13.38861
32
-27.80090
13
10.22985
23
13.38861
33
-27.80090
0
3DFACE
8
Corps0
62
7
10
9.60406
20
12.63330
30
-31.98059
11
10.22985
21
13.38861
31
-27.80090
12
12.01763
22
10.64013
32
-32.01593
13
12.01763
23
10.64013
33
-32.01593
0
3DFACE
8
Corps0
62
7
10
10.22985
20
13.38861
30
-27.80090
11
9.60406
21
12.63330
31
-31.98059
12
7.29046
22
14.99481
32
-27.75793
13
7.29046
23
14.99481
33
-27.75793
0
3DFACE
8
Corps0
62
7
10
6.82446
20
14.15228
30
-31.94000
11
7.29046
21
14.99481
31
-27.75793
12
9.60406
22
12.63330
32
-31.98059
13
9.60406
23
12.63330
33
-31.98059
0
3DFACE
8
Corps0
62
7
10
12.01763
20
10.64013
30
-32.01593
11
10.87261
21
9.63110
31
-35.72967
12
9.60406
22
12.63330
32
-31.98059
13
9.60406
23
12.63330
33
-31.98059
0
3DFACE
8
Corps0
62
7
10
8.67730
20
11.44409
30
-35.69763
11
9.60406
21
12.63330
31
-31.98059
12
10.87261
22
9.63110
32
-35.72967
13
10.87261
23
9.63110
33
-35.72967
0
3DFACE
8
Corps0
62
7
10
9.60406
20
12.63330
30
-31.98059
11
8.67730
21
11.44409
31
-35.69763
12
6.82446
22
14.15228
32
-31.94000
13
6.82446
23
14.15228
33
-31.94000
0
3DFACE
8
Corps0
62
7
10
6.14898
20
12.82568
30
-35.66070
11
6.82446
21
14.15228
31
-31.94000
12
8.67730
22
11.44409
32
-35.69763
13
8.67730
23
11.44409
33
-35.69763
0
3DFACE
8
Corps0
62
7
10
7.29046
20
14.99481
30
-27.75793
11
6.82446
21
14.15228
31
-31.94000
12
4.03387
22
16.03045
32
-27.71038
13
4.03387
23
16.03045
33
-27.71038
0
3DFACE
8
Corps0
62
7
10
3.74487
20
15.13165
30
-31.89508
11
4.03387
21
16.03045
31
-27.71038
12
6.82446
22
14.15228
32
-31.94000
13
6.82446
23
14.15228
33
-31.94000
0
3DFACE
8
Corps0
62
7
10
4.03387
20
16.03045
30
-27.71038
11
3.74487
21
15.13165
31
-31.89508
12
0.52984
22
16.42614
32
-27.65930
13
0.52984
23
16.42614
33
-27.65930
0
3DFACE
8
Corps0
62
7
10
0.43115
20
15.50579
30
-31.84674
11
0.52984
21
16.42614
31
-27.65930
12
3.74487
22
15.13165
32
-31.89508
13
3.74487
23
15.13165
33
-31.89508
0
3DFACE
8
Corps0
62
7
10
6.82446
20
14.15228
30
-31.94000
11
6.14898
21
12.82568
31
-35.66070
12
3.74487
22
15.13165
32
-31.89508
13
3.74487
23
15.13165
33
-31.89508
0
3DFACE
8
Corps0
62
7
10
3.34783
20
13.71649
30
-35.61975
11
3.74487
21
15.13165
31
-31.89508
12
6.14898
22
12.82568
32
-35.66070
13
6.14898
23
12.82568
33
-35.66070
0
3DFACE
8
Corps0
62
7
10
3.74487
20
15.13165
30
-31.89508
11
3.34783
21
13.71649
31
-35.61975
12
0.43115
22
15.50579
32
-31.84674
13
0.43115
23
15.50579
33
-31.84674
0
3DFACE
8
Corps0
62
7
10
0.33386
20
14.05682
30
-35.57580
11
0.43115
21
15.50579
31
-31.84674
12
3.34783
22
13.71649
32
-35.61975
13
3.34783
23
13.71649
33
-35.61975
0
3DFACE
8
Corps0
62
7
10
15.12237
20
-0.74157
30
-35.79205
11
12.99237
21
-0.71087
31
-38.88360
12
14.85980
22
2.20068
32
-35.78808
13
14.85980
23
2.20068
33
-35.78808
0
3DFACE
8
Corps0
62
7
10
12.76593
20
1.82604
30
-38.88018
11
14.85980
21
2.20068
31
-35.78808
12
12.99237
22
-0.71087
32
-38.88360
13
12.99237
23
-0.71087
33
-38.88360
0
3DFACE
8
Corps0
62
7
10
12.99237
20
-0.71087
30
-38.88360
11
10.27142
21
-0.67144
31
-41.20996
12
12.76593
22
1.82604
32
-38.88018
13
12.76593
23
1.82604
33
-38.88018
0
3DFACE
8
Corps0
62
7
10
10.09185
20
1.34143
30
-41.20727
11
12.76593
21
1.82604
31
-38.88018
12
10.27142
22
-0.67144
32
-41.20996
13
10.27142
23
-0.67144
33
-41.20996
0
3DFACE
8
Corps0
62
7
10
14.85980
20
2.20068
30
-35.78808
11
12.76593
21
1.82604
31
-38.88018
12
14.02398
22
4.94989
32
-35.77581
13
14.02398
23
4.94989
33
-35.77581
0
3DFACE
8
Corps0
62
7
10
12.04522
20
4.19659
30
-38.86962
11
14.02398
21
4.94989
31
-35.77581
12
12.76593
22
1.82604
32
-38.88018
13
12.76593
23
1.82604
33
-38.88018
0
3DFACE
8
Corps0
62
7
10
12.76593
20
1.82604
30
-38.88018
11
10.09185
21
1.34143
31
-41.20727
12
12.04522
22
4.19659
32
-38.86962
13
12.04522
23
4.19659
33
-38.86962
0
3DFACE
8
Corps0
62
7
10
9.51995
20
3.22222
30
-41.19885
11
12.04522
21
4.19659
31
-38.86962
12
10.09185
22
1.34143
32
-41.20727
13
10.09185
23
1.34143
33
-41.20727
0
3DFACE
8
Corps0
62
7
10
14.02398
20
4.94989
30
-35.77581
11
12.04522
21
4.19659
31
-38.86962
12
12.67486
22
7.44659
32
-35.75604
13
12.67486
23
7.44659
33
-35.75604
0
3DFACE
8
Corps0
62
7
10
10.68658
20
6.21490
30
-38.84973
11
12.67486
21
7.44659
31
-35.75604
12
12.04522
22
4.19659
32
-38.86962
13
12.04522
23
4.19659
33
-38.86962
0
3DFACE
8
Corps0
62
7
10
12.67486
20
7.44659
30
-35.75604
11
10.68658
21
6.21490
31
-38.84973
12
10.87261
22
9.63110
32
-35.72967
13
10.87261
23
9.63110
33
-35.72967
0
3DFACE
8
Corps0
62
7
10
9.32794
20
8.23303
30
-38.82983
11
10.87261
21
9.63110
31
-35.72967
12
10.68658
22
6.21490
32
-38.84973
13
10.68658
23
6.21490
33
-38.84973
0
3DFACE
8
Corps0
62
7
10
12.04522
20
4.19659
30
-38.86962
11
9.51995
21
3.22222
31
-41.19885
12
9.32794
22
8.23303
32
-38.82983
13
9.32794
23
8.23303
33
-38.82983
0
3DFACE
8
Corps0
62
7
10
7.36401
20
6.42474
30
-41.16735
11
9.32794
21
8.23303
31
-38.82983
12
9.51995
22
3.22222
32
-41.19885
13
9.51995
23
3.22222
33
-41.19885
0
3DFACE
8
Corps0
62
7
10
10.27142
20
-0.67144
30
-41.20996
11
6.93188
21
-0.62274
31
-42.62158
12
10.09185
22
1.34143
32
-41.20727
13
10.09185
23
1.34143
33
-41.20727
0
3DFACE
8
Corps0
62
7
10
6.67742
20
0.69635
30
-42.61779
11
10.09185
21
1.34143
31
-41.20727
12
6.93188
22
-0.62274
32
-42.62158
13
6.93188
23
-0.62274
33
-42.62158
0
3DFACE
8
Corps0
62
7
10
10.09185
20
1.34143
30
-41.20727
11
6.67742
21
0.69635
31
-42.61779
12
9.51995
22
3.22222
32
-41.19885
13
9.51995
23
3.22222
33
-41.19885
0
3DFACE
8
Corps0
62
7
10
6.42272
20
2.01531
30
-42.61401
11
9.51995
21
3.22222
31
-41.19885
12
6.67742
22
0.69635
32
-42.61779
13
6.67742
23
0.69635
33
-42.61779
0
3DFACE
8
Corps0
62
7
10
9.51995
20
3.22222
30
-41.19885
11
6.42272
21
2.01531
31
-42.61401
12
7.36401
22
6.42474
32
-41.16735
13
7.36401
23
6.42474
33
-41.16735
0
3DFACE
8
Corps0
62
7
10
4.96197
20
4.18511
30
-42.59265
11
7.36401
21
6.42474
31
-41.16735
12
6.42272
22
2.01531
32
-42.61401
13
6.42272
23
2.01531
33
-42.61401
0
3DFACE
8
Corps0
62
7
10
6.93188
20
-0.62274
30
-42.62158
11
2.94531
21
-0.56445
31
-42.96887
12
6.42272
22
2.01531
32
-42.61401
13
6.42272
23
2.01531
33
-42.61401
0
3DFACE
8
Corps0
62
7
10
2.72741
20
0.56469
30
-42.96563
11
6.42272
21
2.01531
31
-42.61401
12
2.94531
22
-0.56445
32
-42.96887
13
2.94531
23
-0.56445
33
-42.96887
0
3DFACE
8
Corps0
62
7
10
6.42272
20
2.01531
30
-42.61401
11
2.72741
21
0.56469
31
-42.96563
12
4.96197
22
4.18511
32
-42.59265
13
4.96197
23
4.18511
33
-42.59265
0
3DFACE
8
Corps0
62
7
10
2.10235
20
1.49322
30
-42.95654
11
4.96197
21
4.18511
31
-42.59265
12
2.72741
22
0.56469
32
-42.96563
13
2.72741
23
0.56469
33
-42.96563
0
3DFACE
8
Corps0
62
7
10
10.87261
20
9.63110
30
-35.72967
11
9.32794
21
8.23303
31
-38.82983
12
8.67730
22
11.44409
32
-35.69763
13
8.67730
23
11.44409
33
-35.69763
0
3DFACE
8
Corps0
62
7
10
7.29144
20
9.61047
30
-38.80010
11
8.67730
21
11.44409
31
-35.69763
12
9.32794
22
8.23303
32
-38.82983
13
9.32794
23
8.23303
33
-38.82983
0
3DFACE
8
Corps0
62
7
10
8.67730
20
11.44409
30
-35.69763
11
7.29144
21
9.61047
31
-38.80010
12
6.14898
22
12.82568
32
-35.66070
13
6.14898
23
12.82568
33
-35.66070
0
3DFACE
8
Corps0
62
7
10
5.25494
20
10.98760
30
-38.77032
11
6.14898
21
12.82568
31
-35.66070
12
7.29144
22
9.61047
32
-38.80010
13
7.29144
23
9.61047
33
-38.80010
0
3DFACE
8
Corps0
62
7
10
9.32794
20
8.23303
30
-38.82983
11
7.36401
21
6.42474
31
-41.16735
12
5.25494
22
10.98760
32
-38.77032
13
5.25494
23
10.98760
33
-38.77032
0
3DFACE
8
Corps0
62
7
10
4.13250
20
8.61016
30
-41.12011
11
5.25494
21
10.98760
31
-38.77032
12
7.36401
22
6.42474
32
-41.16735
13
7.36401
23
6.42474
33
-41.16735
0
3DFACE
8
Corps0
62
7
10
6.14898
20
12.82568
30
-35.66070
11
5.25494
21
10.98760
31
-38.77032
12
3.34783
22
13.71649
32
-35.61975
13
3.34783
23
13.71649
33
-35.61975
0
3DFACE
8
Corps0
62
7
10
2.83056
20
11.73211
30
-38.73492
11
3.34783
21
13.71649
31
-35.61975
12
5.25494
22
10.98760
32
-38.77032
13
5.25494
23
10.98760
33
-38.77032
0
3DFACE
8
Corps0
62
7
10
5.25494
20
10.98760
30
-38.77032
11
4.13250
21
8.61016
31
-41.12011
12
2.83056
22
11.73211
32
-38.73492
13
2.83056
23
11.73211
33
-38.73492
0
3DFACE
8
Corps0
62
7
10
2.14337
20
9.03137
30
-41.09106
11
2.83056
21
11.73211
31
-38.73492
12
4.13250
22
8.61016
32
-41.12011
13
4.13250
23
8.61016
33
-41.12011
0
3DFACE
8
Corps0
62
7
10
3.34783
20
13.71649
30
-35.61975
11
2.83056
21
11.73211
31
-38.73492
12
0.33386
22
14.05682
32
-35.57580
13
0.33386
23
14.05682
33
-35.57580
0
3DFACE
8
Corps0
62
7
10
0.24078
20
12.04913
30
-38.69714
11
0.33386
21
14.05682
31
-35.57580
12
2.83056
22
11.73211
32
-38.73492
13
2.83056
23
11.73211
33
-38.73492
0
3DFACE
8
Corps0
62
7
10
2.83056
20
11.73211
30
-38.73492
11
2.14337
21
9.03137
31
-41.09106
12
0.24078
22
12.04913
32
-38.69714
13
0.24078
23
12.04913
33
-38.69714
0
3DFACE
8
Corps0
62
7
10
0.15423
20
9.45245
30
-41.06201
11
0.24078
21
12.04913
31
-38.69714
12
2.14337
22
9.03137
32
-41.09106
13
2.14337
23
9.03137
33
-41.09106
0
3DFACE
8
Corps0
62
7
10
7.36401
20
6.42474
30
-41.16735
11
4.96197
21
4.18511
31
-42.59265
12
4.13250
22
8.61016
32
-41.12011
13
4.13250
23
8.61016
33
-41.12011
0
3DFACE
8
Corps0
62
7
10
2.77252
20
5.66595
30
-42.56066
11
4.13250
21
8.61016
31
-41.12011
12
4.96197
22
4.18511
32
-42.59265
13
4.96197
23
4.18511
33
-42.59265
0
3DFACE
8
Corps0
62
7
10
4.96197
20
4.18511
30
-42.59265
11
2.10235
21
1.49322
31
-42.95654
12
2.77252
22
5.66595
32
-42.56066
13
2.77252
23
5.66595
33
-42.56066
0
3DFACE
8
Corps0
62
7
10
1.16528
20
2.12695
30
-42.94281
11
2.77252
21
5.66595
31
-42.56066
12
2.10235
22
1.49322
32
-42.95654
13
2.10235
23
1.49322
33
-42.95654
0
3DFACE
8
Corps0
62
7
10
4.13250
20
8.61016
30
-41.12011
11
2.77252
21
5.66595
31
-42.56066
12
0.15423
22
9.45245
32
-41.06201
13
0.15423
23
9.45245
33
-41.06201
0
3DFACE
8
Corps0
62
7
10
0.07708
20
6.23651
30
-42.52136
11
0.15423
21
9.45245
31
-41.06201
12
2.77252
22
5.66595
32
-42.56066
13
2.77252
23
5.66595
33
-42.56066
0
3DFACE
8
Corps0
62
7
10
2.77252
20
5.66595
30
-42.56066
11
1.16528
21
2.12695
31
-42.94281
12
0.07708
22
6.23651
32
-42.52136
13
0.07708
23
6.23651
33
-42.52136
0
3DFACE
8
Corps0
62
7
10
0.01159
20
2.37109
30
-42.92596
11
0.07708
21
6.23651
31
-42.52136
12
1.16528
22
2.12695
32
-42.94281
13
1.16528
23
2.12695
33
-42.94281
0
3DFACE
8
Corps0
62
7
10
1.03363
20
3.19720
30
6.64648
11
1.06152
21
5.90264
31
6.07073
12
-0.46221
22
2.92633
32
6.66833
13
-0.46221
23
2.92633
33
6.66833
0
3DFACE
8
Corps0
62
7
10
-1.52075
20
5.43505
30
6.10845
11
-0.46221
21
2.92633
31
6.66833
12
1.06152
22
5.90264
32
6.07073
13
1.06152
23
5.90264
33
6.07073
0
3DFACE
8
Corps0
62
7
10
1.06152
20
5.90264
30
6.07073
11
1.06506
21
8.38134
31
4.46313
12
-1.52075
22
5.43505
32
6.10845
13
-1.52075
23
5.43505
33
6.10845
0
3DFACE
8
Corps0
62
7
10
-2.51251
20
7.73339
30
4.51531
11
-1.52075
21
5.43505
31
6.10845
12
1.06506
22
8.38134
32
4.46313
13
1.06506
23
8.38134
33
4.46313
0
3DFACE
8
Corps0
62
7
10
1.06506
20
8.38134
30
4.46313
11
1.04699
21
10.60314
31
1.97271
12
-2.51251
22
7.73339
32
4.51531
13
-2.51251
23
7.73339
33
4.51531
0
3DFACE
8
Corps0
62
7
10
-3.42260
20
9.79357
30
2.03790
11
-2.51251
21
7.73339
31
4.51531
12
1.04699
22
10.60314
32
1.97271
13
1.04699
23
10.60314
33
1.97271
0
3DFACE
8
Corps0
62
7
10
1.04699
20
10.60314
30
1.97271
11
1.00976
21
12.53778
31
-1.25146
12
-1.18774
22
10.19842
32
2.00531
13
-1.18774
23
10.19842
33
2.00531
0
3DFACE
8
Corps0
62
7
10
-1.70263
20
12.31195
30
-1.21185
11
-1.18774
21
10.19842
31
2.00531
12
1.00976
22
12.53778
32
-1.25146
13
1.00976
23
12.53778
33
-1.25146
0
3DFACE
8
Corps0
62
7
10
-1.18774
20
10.19842
30
2.00531
11
-1.70263
21
12.31195
31
-1.21185
12
-3.42260
22
9.79357
32
2.03790
13
-3.42260
23
9.79357
33
2.03790
0
3DFACE
8
Corps0
62
7
10
-4.23675
20
11.58740
30
-1.17492
11
-3.42260
21
9.79357
31
2.03790
12
-1.70263
22
12.31195
32
-1.21185
13
-1.70263
23
12.31195
33
-1.21185
0
3DFACE
8
Corps0
62
7
10
-0.46221
20
2.92633
30
6.66833
11
-1.52075
21
5.43505
31
6.10845
12
-1.69213
22
2.14581
32
6.68627
13
-1.69213
23
2.14581
33
6.68627
0
3DFACE
8
Corps0
62
7
10
-3.64379
20
4.08764
30
6.13934
11
-1.69213
21
2.14581
31
6.68627
12
-1.52075
22
5.43505
32
6.10845
13
-1.52075
23
5.43505
33
6.10845
0
3DFACE
8
Corps0
62
7
10
-1.52075
20
5.43505
30
6.10845
11
-2.51251
21
7.73339
31
4.51531
12
-3.64379
22
4.08764
32
6.13934
13
-3.64379
23
4.08764
33
6.13934
0
3DFACE
8
Corps0
62
7
10
-5.45385
20
5.86657
30
4.55822
11
-3.64379
21
4.08764
31
6.13934
12
-2.51251
22
7.73339
32
4.51531
13
-2.51251
23
7.73339
33
4.51531
0
3DFACE
8
Corps0
62
7
10
-2.51251
20
7.73339
30
4.51531
11
-3.42260
21
9.79357
31
2.03790
12
-5.45385
22
5.86657
32
4.55822
13
-5.45385
23
5.86657
33
4.55822
0
3DFACE
8
Corps0
62
7
10
-7.09753
20
7.46130
30
2.09143
11
-5.45385
21
5.86657
31
4.55822
12
-3.42260
22
9.79357
32
2.03790
13
-3.42260
23
9.79357
33
2.03790
0
3DFACE
8
Corps0
62
7
10
-3.42260
20
9.79357
30
2.03790
11
-4.23675
21
11.58740
31
-1.17492
12
-5.26007
22
8.62750
32
2.06463
13
-5.26007
23
8.62750
33
2.06463
0
3DFACE
8
Corps0
62
7
10
-6.53759
20
10.41619
30
-1.14135
11
-5.26007
21
8.62750
31
2.06463
12
-4.23675
22
11.58740
32
-1.17492
13
-4.23675
23
11.58740
33
-1.17492
0
3DFACE
8
Corps0
62
7
10
-5.26007
20
8.62750
30
2.06463
11
-6.53759
21
10.41619
31
-1.14135
12
-7.09753
22
7.46130
32
2.09143
13
-7.09753
23
7.46130
33
2.09143
0
3DFACE
8
Corps0
62
7
10
-8.55035
20
8.84985
30
-1.11206
11
-7.09753
21
7.46130
31
2.09143
12
-6.53759
22
10.41619
32
-1.14135
13
-6.53759
23
10.41619
33
-1.14135
0
3DFACE
8
Corps0
62
7
10
-1.69213
20
2.14581
30
6.68627
11
-3.64379
21
4.08764
31
6.13934
12
-2.53076
22
0.97387
32
6.69848
13
-2.53076
23
0.97387
33
6.69848
0
3DFACE
8
Corps0
62
7
10
-5.09161
20
2.06451
30
6.16040
11
-2.53076
21
0.97387
31
6.69848
12
-3.64379
22
4.08764
32
6.13934
13
-3.64379
23
4.08764
33
6.13934
0
3DFACE
8
Corps0
62
7
10
-3.64379
20
4.08764
30
6.13934
11
-5.45385
21
5.86657
31
4.55822
12
-5.09161
22
2.06451
32
6.16040
13
-5.09161
23
2.06451
33
6.16040
0
3DFACE
8
Corps0
62
7
10
-7.45977
20
3.06372
30
4.58734
11
-5.09161
21
2.06451
31
6.16040
12
-5.45385
22
5.86657
32
4.55822
13
-5.45385
23
5.86657
33
4.55822
0
3DFACE
8
Corps0
62
7
10
-2.53076
20
0.97387
30
6.69848
11
-5.09161
21
2.06451
31
6.16040
12
-2.85321
22
-0.47137
32
6.70318
13
-2.85321
23
-0.47137
33
6.70318
0
3DFACE
8
Corps0
62
7
10
-5.64825
20
-0.43041
30
6.16845
11
-2.85321
21
-0.47137
31
6.70318
12
-5.09161
22
2.06451
32
6.16040
13
-5.09161
23
2.06451
33
6.16040
0
3DFACE
8
Corps0
62
7
10
-5.09161
20
2.06451
30
6.16040
11
-7.45977
21
3.06372
31
4.58734
12
-5.64825
22
-0.43041
32
6.16845
13
-5.64825
23
-0.43041
33
6.16845
0
3DFACE
8
Corps0
62
7
10
-8.23089
20
-0.39282
30
4.59851
11
-5.64825
21
-0.43041
31
6.16845
12
-7.45977
22
3.06372
32
4.58734
13
-7.45977
23
3.06372
33
4.58734
0
3DFACE
8
Corps0
62
7
10
-5.45385
20
5.86657
30
4.55822
11
-7.09753
21
7.46130
31
2.09143
12
-7.45977
22
3.06372
32
4.58734
13
-7.45977
23
3.06372
33
4.58734
0
3DFACE
8
Corps0
62
7
10
-9.60363
20
3.95941
30
2.12792
11
-7.45977
21
3.06372
31
4.58734
12
-7.09753
22
7.46130
32
2.09143
13
-7.09753
23
7.46130
33
2.09143
0
3DFACE
8
Corps0
62
7
10
-7.09753
20
7.46130
30
2.09143
11
-8.55035
21
8.84985
31
-1.11206
12
-8.35046
22
5.71044
32
2.10968
13
-8.35046
23
5.71044
33
2.10968
0
3DFACE
8
Corps0
62
7
10
-10.22003
20
6.94042
30
-1.08770
11
-8.35046
21
5.71044
31
2.10968
12
-8.55035
22
8.84985
32
-1.11206
13
-8.55035
23
8.84985
33
-1.11206
0
3DFACE
8
Corps0
62
7
10
-8.35046
20
5.71044
30
2.10968
11
-10.22003
21
6.94042
31
-1.08770
12
-9.60363
22
3.95941
32
2.12792
13
-9.60363
23
3.95941
33
2.12792
0
3DFACE
8
Corps0
62
7
10
-11.49200
20
4.73950
30
-1.06927
11
-9.60363
21
3.95941
31
2.12792
12
-10.22003
22
6.94042
32
-1.08770
13
-10.22003
23
6.94042
33
-1.08770
0
3DFACE
8
Corps0
62
7
10
-7.45977
20
3.06372
30
4.58734
11
-9.60363
21
3.95941
31
2.12792
12
-7.84527
22
1.33557
32
4.59289
13
-7.84527
23
1.33557
33
4.59289
0
3DFACE
8
Corps0
62
7
10
-10.27984
20
1.87231
30
2.13769
11
-7.84527
21
1.33557
31
4.59289
12
-9.60363
22
3.95941
32
2.12792
13
-9.60363
23
3.95941
33
2.12792
0
3DFACE
8
Corps0
62
7
10
-7.84527
20
1.33557
30
4.59289
11
-10.27984
21
1.87231
31
2.13769
12
-8.23089
22
-0.39282
32
4.59851
13
-8.23089
23
-0.39282
33
4.59851
0
3DFACE
8
Corps0
62
7
10
-10.56701
20
-0.35900
30
2.14178
11
-8.23089
21
-0.39282
31
4.59851
12
-10.27984
22
1.87231
32
2.13769
13
-10.27984
23
1.87231
33
2.13769
0
3DFACE
8
Corps0
62
7
10
-9.60363
20
3.95941
30
2.12792
11
-11.49200
21
4.73950
31
-1.06927
12
-10.27984
22
1.87231
32
2.13769
13
-10.27984
23
1.87231
33
2.13769
0
3DFACE
8
Corps0
62
7
10
-12.31109
20
2.29895
30
-1.05737
11
-10.27984
21
1.87231
31
2.13769
12
-11.49200
22
4.73950
32
-1.06927
13
-11.49200
23
4.73950
33
-1.06927
0
3DFACE
8
Corps0
62
7
10
-10.27984
20
1.87231
30
2.13769
11
-12.31109
21
2.29895
31
-1.05737
12
-10.56701
22
-0.35900
32
2.14178
13
-10.56701
23
-0.35900
33
2.14178
0
3DFACE
8
Corps0
62
7
10
-12.62274
20
-0.32952
30
-1.05297
11
-10.56701
21
-0.35900
31
2.14178
12
-12.31109
22
2.29895
32
-1.05737
13
-12.31109
23
2.29895
33
-1.05737
0
3DFACE
8
Corps0
62
7
10
1.00976
20
12.53778
30
-1.25146
11
0.95611
21
14.15521
31
-5.06030
12
-1.70263
22
12.31195
32
-1.21185
13
-1.70263
23
12.31195
33
-1.21185
0
3DFACE
8
Corps0
62
7
10
-2.09197
20
13.90142
30
-5.01580
11
-1.70263
21
12.31195
31
-1.21185
12
0.95611
22
14.15521
32
-5.06030
13
0.95611
23
14.15521
33
-5.06030
0
3DFACE
8
Corps0
62
7
10
-1.70263
20
12.31195
30
-1.21185
11
-2.09197
21
13.90142
31
-5.01580
12
-4.23675
22
11.58740
32
-1.17492
13
-4.23675
23
11.58740
33
-1.17492
0
3DFACE
8
Corps0
62
7
10
-4.93969
20
13.08734
30
-4.97424
11
-4.23675
21
11.58740
31
-1.17492
12
-2.09197
22
13.90142
32
-5.01580
13
-2.09197
23
13.90142
33
-5.01580
0
3DFACE
8
Corps0
62
7
10
0.95611
20
14.15521
30
-5.06030
11
0.88836
21
15.42510
31
-9.30487
12
-2.09197
22
13.90142
32
-5.01580
13
-2.09197
23
13.90142
33
-5.01580
0
3DFACE
8
Corps0
62
7
10
-2.42333
20
15.14935
30
-9.25653
11
-2.09197
21
13.90142
31
-5.01580
12
0.88836
22
15.42510
32
-9.30487
13
0.88836
23
15.42510
33
-9.30487
0
3DFACE
8
Corps0
62
7
10
-2.09197
20
13.90142
30
-5.01580
11
-2.42333
21
15.14935
31
-9.25653
12
-4.93969
22
13.08734
32
-4.97424
13
-4.93969
23
13.08734
33
-4.97424
0
3DFACE
8
Corps0
62
7
10
-5.51727
20
14.26483
30
-9.21148
11
-4.93969
21
13.08734
31
-4.97424
12
-2.42333
22
15.14935
32
-9.25653
13
-2.42333
23
15.14935
33
-9.25653
0
3DFACE
8
Corps0
62
7
10
-4.23675
20
11.58740
30
-1.17492
11
-4.93969
21
13.08734
31
-4.97424
12
-6.53759
22
10.41619
32
-1.14135
13
-6.53759
23
10.41619
33
-1.14135
0
3DFACE
8
Corps0
62
7
10
-7.52532
20
11.77099
30
-4.93658
11
-6.53759
21
10.41619
31
-1.14135
12
-4.93969
22
13.08734
32
-4.97424
13
-4.93969
23
13.08734
33
-4.97424
0
3DFACE
8
Corps0
62
7
10
-6.53759
20
10.41619
30
-1.14135
11
-7.52532
21
11.77099
31
-4.93658
12
-8.55035
22
8.84985
32
-1.11206
13
-8.55035
23
8.84985
33
-1.11206
0
3DFACE
8
Corps0
62
7
10
-9.78717
20
10.01080
30
-4.90362
11
-8.55035
21
8.84985
31
-1.11206
12
-7.52532
22
11.77099
32
-4.93658
13
-7.52532
23
11.77099
33
-4.93658
0
3DFACE
8
Corps0
62
7
10
-4.93969
20
13.08734
30
-4.97424
11
-5.51727
21
14.26483
31
-9.21148
12
-7.52532
22
11.77099
32
-4.93658
13
-7.52532
23
11.77099
33
-4.93658
0
3DFACE
8
Corps0
62
7
10
-8.32641
20
12.83471
30
-9.17047
11
-7.52532
21
11.77099
31
-4.93658
12
-5.51727
22
14.26483
32
-9.21148
13
-5.51727
23
14.26483
33
-9.21148
0
3DFACE
8
Corps0
62
7
10
-7.52532
20
11.77099
30
-4.93658
11
-8.32641
21
12.83471
31
-9.17047
12
-9.78717
22
10.01080
32
-4.90362
13
-9.78717
23
10.01080
33
-4.90362
0
3DFACE
8
Corps0
62
7
10
-10.78381
20
10.92236
30
-9.13470
11
-9.78717
21
10.01080
31
-4.90362
12
-8.32641
22
12.83471
32
-9.17047
13
-8.32641
23
12.83471
33
-9.17047
0
3DFACE
8
Corps0
62
7
10
0.88836
20
15.42510
30
-9.30487
11
0.80938
21
16.31726
31
-13.83612
12
-2.42333
22
15.14935
32
-9.25653
13
-2.42333
23
15.14935
33
-9.25653
0
3DFACE
8
Corps0
62
7
10
-2.67785
20
16.00262
30
-13.79376
11
-2.42333
21
15.14935
31
-9.25653
12
0.80938
22
16.31726
32
-13.83612
13
0.80938
23
16.31726
33
-13.83612
0
3DFACE
8
Corps0
62
7
10
-2.42333
20
15.14935
30
-9.25653
11
-2.67785
21
16.00262
31
-13.79376
12
-5.51727
22
14.26483
32
-9.21148
13
-5.51727
23
14.26483
33
-9.21148
0
3DFACE
8
Corps0
62
7
10
-5.87689
20
14.90313
30
-13.80737
11
-5.51727
21
14.26483
31
-9.21148
12
-2.67785
22
16.00262
32
-13.79376
13
-2.67785
23
16.00262
33
-13.79376
0
3DFACE
8
Corps0
62
7
10
0.80938
20
16.31726
30
-13.83612
11
0.72149
21
16.80163
31
-18.50494
12
-2.67785
22
16.00262
32
-13.79376
13
-2.67785
23
16.00262
33
-13.79376
0
3DFACE
8
Corps0
62
7
10
-2.87585
20
16.50213
30
-18.45245
11
-2.67785
21
16.00262
31
-13.79376
12
0.72149
22
16.80163
32
-18.50494
13
0.72149
23
16.80163
33
-18.50494
0
3DFACE
8
Corps0
62
7
10
-2.67785
20
16.00262
30
-13.79376
11
-2.87585
21
16.50213
31
-18.45245
12
-5.87689
22
14.90313
32
-13.80737
13
-5.87689
23
14.90313
33
-13.80737
0
3DFACE
8
Corps0
62
7
10
-6.23669
20
15.54132
30
-18.40344
11
-5.87689
21
14.90313
31
-13.80737
12
-2.87585
22
16.50213
32
-18.45245
13
-2.87585
23
16.50213
33
-18.45245
0
3DFACE
8
Corps0
62
7
10
-5.51727
20
14.26483
30
-9.21148
11
-6.23669
21
15.54132
31
-18.40344
12
-8.32641
22
12.83471
32
-9.17047
13
-8.32641
23
12.83471
33
-9.17047
0
3DFACE
8
Corps0
62
7
10
-9.28802
20
13.98785
30
-18.35906
11
-8.32641
21
12.83471
31
-9.17047
12
-6.23669
22
15.54132
32
-18.40344
13
-6.23669
23
15.54132
33
-18.40344
0
3DFACE
8
Corps0
62
7
10
-8.32641
20
12.83471
30
-9.17047
11
-9.28802
21
13.98785
31
-18.35906
12
-10.78381
22
10.92236
32
-9.13470
13
-10.78381
23
10.92236
33
-9.13470
0
3DFACE
8
Corps0
62
7
10
-11.95733
20
11.91052
30
-18.32012
11
-10.78381
21
10.92236
31
-9.13470
12
-9.28802
22
13.98785
32
-18.35906
13
-9.28802
23
13.98785
33
-18.35906
0
3DFACE
8
Corps0
62
7
10
-8.55035
20
8.84985
30
-1.11206
11
-9.78717
21
10.01080
31
-4.90362
12
-10.22003
22
6.94042
32
-1.08770
13
-10.22003
23
6.94042
33
-1.08770
0
3DFACE
8
Corps0
62
7
10
-11.66351
20
7.86505
30
-4.87628
11
-10.22003
21
6.94042
31
-1.08770
12
-9.78717
22
10.01080
32
-4.90362
13
-9.78717
23
10.01080
33
-4.90362
0
3DFACE
8
Corps0
62
7
10
-10.22003
20
6.94042
30
-1.08770
11
-11.66351
21
7.86505
31
-4.87628
12
-11.49200
22
4.73950
32
-1.06927
13
-11.49200
23
4.73950
33
-1.06927
0
3DFACE
8
Corps0
62
7
10
-13.09289
20
5.39160
30
-4.85552
11
-11.49200
21
4.73950
31
-1.06927
12
-11.66351
22
7.86505
32
-4.87628
13
-11.66351
23
7.86505
33
-4.87628
0
3DFACE
8
Corps0
62
7
10
-9.78717
20
10.01080
30
-4.90362
11
-10.78381
21
10.92236
31
-9.13470
12
-11.66351
22
7.86505
32
-4.87628
13
-11.66351
23
7.86505
33
-4.87628
0
3DFACE
8
Corps0
62
7
10
-12.82238
20
8.59100
30
-9.10504
11
-11.66351
21
7.86505
31
-4.87628
12
-10.78381
22
10.92236
32
-9.13470
13
-10.78381
23
10.92236
33
-9.13470
0
3DFACE
8
Corps0
62
7
10
-11.66351
20
7.86505
30
-4.87628
11
-12.82238
21
8.59100
31
-9.10504
12
-13.09289
22
5.39160
32
-4.85552
13
-13.09289
23
5.39160
33
-4.85552
0
3DFACE
8
Corps0
62
7
10
-14.37530
20
5.90380
30
-9.08245
11
-13.09289
21
5.39160
31
-4.85552
12
-12.82238
22
8.59100
32
-9.10504
13
-12.82238
23
8.59100
33
-9.10504
0
3DFACE
8
Corps0
62
7
10
-11.49200
20
4.73950
30
-1.06927
11
-13.09289
21
5.39160
31
-4.85552
12
-12.31109
22
2.29895
32
-1.05737
13
-12.31109
23
2.29895
33
-1.05737
0
3DFACE
8
Corps0
62
7
10
-14.01342
20
2.64904
30
-4.84216
11
-12.31109
21
2.29895
31
-1.05737
12
-13.09289
22
5.39160
32
-4.85552
13
-13.09289
23
5.39160
33
-4.85552
0
3DFACE
8
Corps0
62
7
10
-12.31109
20
2.29895
30
-1.05737
11
-14.01342
21
2.64904
31
-4.84216
12
-12.62274
22
-0.32952
32
-1.05297
13
-12.62274
23
-0.32952
33
-1.05297
0
3DFACE
8
Corps0
62
7
10
-14.36364
20
-0.30474
30
-4.83721
11
-12.62274
21
-0.32952
31
-1.05297
12
-14.01342
22
2.64904
32
-4.84216
13
-14.01342
23
2.64904
33
-4.84216
0
3DFACE
8
Corps0
62
7
10
-13.09289
20
5.39160
30
-4.85552
11
-14.37530
21
5.90380
31
-9.08245
12
-14.01342
22
2.64904
32
-4.84216
13
-14.01342
23
2.64904
33
-4.84216
0
3DFACE
8
Corps0
62
7
10
-15.37542
20
2.92401
30
-9.06793
11
-14.01342
21
2.64904
31
-4.84216
12
-14.37530
22
5.90380
32
-9.08245
13
-14.37530
23
5.90380
33
-9.08245
0
3DFACE
8
Corps0
62
7
10
-14.01342
20
2.64904
30
-4.84216
11
-15.37542
21
2.92401
31
-9.06793
12
-14.36364
22
-0.30474
32
-4.83721
13
-14.36364
23
-0.30474
33
-4.83721
0
3DFACE
8
Corps0
62
7
10
-15.75592
20
-0.28515
30
-9.06256
11
-14.36364
21
-0.30474
31
-4.83721
12
-15.37542
22
2.92401
32
-9.06793
13
-15.37542
23
2.92401
33
-9.06793
0
3DFACE
8
Corps0
62
7
10
-10.78381
20
10.92236
30
-9.13470
11
-11.95733
21
11.91052
31
-18.32012
12
-12.82238
22
8.59100
32
-9.10504
13
-12.82238
23
8.59100
33
-9.10504
0
3DFACE
8
Corps0
62
7
10
-14.17169
20
9.37817
30
-18.28796
11
-12.82238
21
8.59100
31
-9.10504
12
-11.95733
22
11.91052
32
-18.32012
13
-11.95733
23
11.91052
33
-18.32012
0
3DFACE
8
Corps0
62
7
10
-12.82238
20
8.59100
30
-9.10504
11
-14.17169
21
9.37817
31
-18.28796
12
-14.37530
22
5.90380
32
-9.08245
13
-14.37530
23
5.90380
33
-9.08245
0
3DFACE
8
Corps0
62
7
10
-15.85852
20
6.45916
30
-18.26342
11
-14.37530
21
5.90380
31
-9.08245
12
-14.17169
22
9.37817
32
-18.28796
13
-14.17169
23
9.37817
33
-18.28796
0
3DFACE
8
Corps0
62
7
10
-14.37530
20
5.90380
30
-9.08245
11
-15.11682
21
6.18145
31
-13.67285
12
-15.37542
22
2.92401
32
-9.06793
13
-15.37542
23
2.92401
33
-9.06793
0
3DFACE
8
Corps0
62
7
10
-16.33984
20
3.10705
30
-13.59484
11
-15.37542
21
2.92401
31
-9.06793
12
-15.11682
22
6.18145
32
-13.67285
13
-15.11682
23
6.18145
33
-13.67285
0
3DFACE
8
Corps0
62
7
10
-15.37542
20
2.92401
30
-9.06793
11
-16.33984
21
3.10705
31
-13.59484
12
-15.75592
22
-0.28515
32
-9.06256
13
-15.75592
23
-0.28515
33
-9.06256
0
3DFACE
8
Corps0
62
7
10
-16.76544
20
-0.27124
30
-13.58020
11
-15.75592
21
-0.28515
31
-9.06256
12
-16.33984
22
3.10705
32
-13.59484
13
-16.33984
23
3.10705
33
-13.59484
0
3DFACE
8
Corps0
62
7
10
-15.11682
20
6.18145
30
-13.67285
11
-15.85852
21
6.45916
31
-18.26342
12
-16.33984
22
3.10705
32
-13.59484
13
-16.33984
23
3.10705
33
-13.59484
0
3DFACE
8
Corps0
62
7
10
-16.94488
20
3.22229
30
-18.24761
11
-16.33984
21
3.10705
31
-13.59484
12
-15.85852
22
6.45916
32
-18.26342
13
-15.85852
23
6.45916
33
-18.26342
0
3DFACE
8
Corps0
62
7
10
-16.33984
20
3.10705
30
-13.59484
11
-16.94488
21
3.22229
31
-18.24761
12
-16.76544
22
-0.27124
32
-13.58020
13
-16.76544
23
-0.27124
33
-13.58020
0
3DFACE
8
Corps0
62
7
10
-17.35821
20
-0.26361
30
-18.24176
11
-16.76544
21
-0.27124
31
-13.58020
12
-16.94488
22
3.22229
32
-18.24761
13
-16.94488
23
3.22229
33
-18.24761
0
3DFACE
8
Corps0
62
7
10
0.72149
20
16.80163
30
-18.50494
11
0.62756
21
16.84808
31
-23.16241
12
-2.87585
22
16.50213
32
-18.45245
13
-2.87585
23
16.50213
33
-18.45245
0
3DFACE
8
Corps0
62
7
10
-2.97674
20
16.54516
30
-23.10852
11
-2.87585
21
16.50213
31
-18.45245
12
0.62756
22
16.84808
32
-23.16241
13
0.62756
23
16.84808
33
-23.16241
0
3DFACE
8
Corps0
62
7
10
-2.87585
20
16.50213
30
-18.45245
11
-2.97674
21
16.54516
31
-23.10852
12
-6.23669
22
15.54132
32
-18.40344
13
-6.23669
23
15.54132
33
-18.40344
0
3DFACE
8
Corps0
62
7
10
-6.32781
20
15.56347
30
-23.05084
11
-6.23669
21
15.54132
31
-18.40344
12
-2.97674
22
16.54516
32
-23.10852
13
-2.97674
23
16.54516
33
-23.10852
0
3DFACE
8
Corps0
62
7
10
0.62756
20
16.84808
30
-23.16241
11
0.52984
21
16.42614
31
-27.65930
12
-2.97674
22
16.54516
32
-23.10852
13
-2.97674
23
16.54516
33
-23.10852
0
3DFACE
8
Corps0
62
7
10
-2.98931
20
16.13311
30
-27.60791
11
-2.97674
21
16.54516
31
-23.10852
12
0.52984
22
16.42614
32
-27.65930
13
0.52984
23
16.42614
33
-27.65930
0
3DFACE
8
Corps0
62
7
10
-2.97674
20
16.54516
30
-23.10852
11
-2.98931
21
16.13311
31
-27.60791
12
-6.32781
22
15.56347
32
-23.05084
13
-6.32781
23
15.56347
33
-23.05084
0
3DFACE
8
Corps0
62
7
10
-6.27709
20
15.19317
30
-27.55999
11
-6.32781
21
15.56347
31
-23.05084
12
-2.98931
22
16.13311
32
-27.60791
13
-2.98931
23
16.13311
33
-27.60791
0
3DFACE
8
Corps0
62
7
10
-6.23669
20
15.54132
30
-18.40344
11
-6.32781
21
15.56347
31
-23.05084
12
-9.28802
22
13.98785
32
-18.35906
13
-9.28802
23
13.98785
33
-18.35906
0
3DFACE
8
Corps0
62
7
10
-9.33697
20
13.95599
30
-22.98315
11
-9.28802
21
13.98785
31
-18.35906
12
-6.32781
22
15.56347
32
-23.05084
13
-6.32781
23
15.56347
33
-23.05084
0
3DFACE
8
Corps0
62
7
10
-9.28802
20
13.98785
30
-18.35906
11
-9.33697
21
13.95599
31
-22.98315
12
-11.95733
22
11.91052
32
-18.32012
13
-11.95733
23
11.91052
33
-18.32012
0
3DFACE
8
Corps0
62
7
10
-11.91534
20
11.77600
30
-22.89923
11
-11.95733
21
11.91052
31
-18.32012
12
-9.33697
22
13.95599
32
-22.98315
13
-9.33697
23
13.95599
33
-22.98315
0
3DFACE
8
Corps0
62
7
10
-6.32781
20
15.56347
30
-23.05084
11
-6.27709
21
15.19317
31
-27.55999
12
-9.33697
22
13.95599
32
-22.98315
13
-9.33697
23
13.95599
33
-22.98315
0
3DFACE
8
Corps0
62
7
10
-9.26214
20
13.67358
30
-27.51654
11
-9.33697
21
13.95599
31
-22.98315
12
-6.27709
22
15.19317
32
-27.55999
13
-6.27709
23
15.19317
33
-27.55999
0
3DFACE
8
Corps0
62
7
10
-9.33697
20
13.95599
30
-22.98315
11
-9.26214
21
13.67358
31
-27.51654
12
-11.91534
22
11.77600
32
-22.89923
13
-11.91534
23
11.77600
33
-22.89923
0
3DFACE
8
Corps0
62
7
10
-11.87347
20
11.64141
30
-27.47845
11
-11.91534
21
11.77600
31
-22.89923
12
-9.26214
22
13.67358
32
-27.51654
13
-9.26214
23
13.67358
33
-27.51654
0
3DFACE
8
Corps0
62
7
10
0.52984
20
16.42614
30
-27.65930
11
0.43115
21
15.50579
31
-31.84674
12
-2.98931
22
16.13311
32
-27.60791
13
-2.98931
23
16.13311
33
-27.60791
0
3DFACE
8
Corps0
62
7
10
-2.89678
20
15.22875
30
-31.79815
11
-2.98931
21
16.13311
31
-27.60791
12
0.43115
22
15.50579
32
-31.84674
13
0.43115
23
15.50579
33
-31.84674
0
3DFACE
8
Corps0
62
7
10
-2.98931
20
16.13311
30
-27.60791
11
-2.89678
21
15.22875
31
-31.79815
12
-6.27709
22
15.19317
32
-27.55999
13
-6.27709
23
15.19317
33
-27.55999
0
3DFACE
8
Corps0
62
7
10
-6.00598
20
14.33990
30
-31.75280
11
-6.27709
21
15.19317
31
-27.55999
12
-2.89678
22
15.22875
32
-31.79815
13
-2.89678
23
15.22875
33
-31.79815
0
3DFACE
8
Corps0
62
7
10
0.43115
20
15.50579
30
-31.84674
11
0.33386
21
14.05682
31
-35.57580
12
-2.89678
22
15.22875
32
-31.79815
13
-2.89678
23
15.22875
33
-31.79815
0
3DFACE
8
Corps0
62
7
10
-2.69323
20
13.80487
30
-35.53161
11
-2.89678
21
15.22875
31
-31.79815
12
0.33386
22
14.05682
32
-35.57580
13
0.33386
23
14.05682
33
-35.57580
0
3DFACE
8
Corps0
62
7
10
-2.89678
20
15.22875
30
-31.79815
11
-2.69323
21
13.80487
31
-35.53161
12
-6.00598
22
14.33990
32
-31.75280
13
-6.00598
23
14.33990
33
-31.75280
0
3DFACE
8
Corps0
62
7
10
-5.52124
20
12.99633
30
-35.49041
11
-6.00598
21
14.33990
31
-31.75280
12
-2.69323
22
13.80487
32
-35.53161
13
-2.69323
23
13.80487
33
-35.53161
0
3DFACE
8
Corps0
62
7
10
-6.27709
20
15.19317
30
-27.55999
11
-6.00598
21
14.33990
31
-31.75280
12
-9.26214
22
13.67358
32
-27.51654
13
-9.26214
23
13.67358
33
-27.51654
0
3DFACE
8
Corps0
62
7
10
-8.82885
20
12.90283
30
-31.71166
11
-9.26214
21
13.67358
31
-27.51654
12
-6.00598
22
14.33990
32
-31.75280
13
-6.00598
23
14.33990
33
-31.75280
0
3DFACE
8
Corps0
62
7
10
-9.26214
20
13.67358
30
-27.51654
11
-8.82885
21
12.90283
31
-31.71166
12
-11.87347
22
11.64141
32
-27.47845
13
-11.87347
23
11.64141
33
-27.47845
0
3DFACE
8
Corps0
62
7
10
-11.29833
20
10.98107
30
-31.67572
11
-11.87347
21
11.64141
31
-27.47845
12
-8.82885
22
12.90283
32
-31.71166
13
-8.82885
23
12.90283
33
-31.71166
0
3DFACE
8
Corps0
62
7
10
-6.00598
20
14.33990
30
-31.75280
11
-5.52124
21
12.99633
31
-35.49041
12
-8.82885
22
12.90283
32
-31.71166
13
-8.82885
23
12.90283
33
-31.71166
0
3DFACE
8
Corps0
62
7
10
-8.08886
20
11.68920
30
-35.45300
11
-8.82885
21
12.90283
31
-31.71166
12
-5.52124
22
12.99633
32
-35.49041
13
-5.52124
23
12.99633
33
-35.49041
0
3DFACE
8
Corps0
62
7
10
-8.82885
20
12.90283
30
-31.71166
11
-8.08886
21
11.68920
31
-35.45300
12
-11.29833
22
10.98107
32
-31.67572
13
-11.29833
23
10.98107
33
-31.67572
0
3DFACE
8
Corps0
62
7
10
-10.33496
20
9.94116
30
-35.42022
11
-11.29833
21
10.98107
31
-31.67572
12
-8.08886
22
11.68920
32
-35.45300
13
-8.08886
23
11.68920
33
-35.45300
0
3DFACE
8
Corps0
62
7
10
-11.95733
20
11.91052
30
-18.32012
11
-11.91534
21
11.77600
31
-22.89923
12
-14.17169
22
9.37817
32
-18.28796
13
-14.17169
23
9.37817
33
-18.28796
0
3DFACE
8
Corps0
62
7
10
-14.23352
20
9.33404
30
-22.91180
11
-14.17169
21
9.37817
31
-18.28796
12
-11.91534
22
11.77600
32
-22.89923
13
-11.91534
23
11.77600
33
-22.89923
0
3DFACE
8
Corps0
62
7
10
-14.17169
20
9.37817
30
-18.28796
11
-14.23352
21
9.33404
31
-22.91180
12
-15.85852
22
6.45916
32
-18.26342
13
-15.85852
23
6.45916
33
-18.26342
0
3DFACE
8
Corps0
62
7
10
-15.97515
20
6.45721
30
-22.91040
11
-15.85852
21
6.45916
31
-18.26342
12
-14.23352
22
9.33404
32
-22.91180
13
-14.23352
23
9.33404
33
-22.91180
0
3DFACE
8
Corps0
62
7
10
-11.91534
20
11.77600
30
-22.89923
11
-11.87347
21
11.64141
31
-27.47845
12
-14.23352
22
9.33404
32
-22.91180
13
-14.23352
23
9.33404
33
-22.91180
0
3DFACE
8
Corps0
62
7
10
-14.03967
20
9.16400
30
-27.44696
11
-14.23352
21
9.33404
31
-22.91180
12
-11.87347
22
11.64141
32
-27.47845
13
-11.87347
23
11.64141
33
-27.47845
0
3DFACE
8
Corps0
62
7
10
-14.23352
20
9.33404
30
-22.91180
11
-14.03967
21
9.16400
31
-27.44696
12
-15.97515
22
6.45721
32
-22.91040
13
-15.97515
23
6.45721
33
-22.91040
0
3DFACE
8
Corps0
62
7
10
-15.68975
20
6.30847
30
-27.42291
11
-15.97515
21
6.45721
31
-22.91040
12
-14.03967
22
9.16400
32
-27.44696
13
-14.03967
23
9.16400
33
-27.44696
0
3DFACE
8
Corps0
62
7
10
-15.85852
20
6.45916
30
-18.26342
11
-15.97515
21
6.45721
31
-22.91040
12
-16.94488
22
3.22229
32
-18.24761
13
-16.94488
23
3.22229
33
-18.24761
0
3DFACE
8
Corps0
62
7
10
-17.08294
20
3.23022
30
-22.90307
11
-16.94488
21
3.22229
31
-18.24761
12
-15.97515
22
6.45721
32
-22.91040
13
-15.97515
23
6.45721
33
-22.91040
0
3DFACE
8
Corps0
62
7
10
-16.94488
20
3.22229
30
-18.24761
11
-17.08294
21
3.23022
31
-22.90307
12
-17.35821
22
-0.26361
32
-18.24176
13
-17.35821
23
-0.26361
33
-18.24176
0
3DFACE
8
Corps0
62
7
10
-17.49993
20
-0.26232
30
-22.89843
11
-17.35821
21
-0.26361
31
-18.24176
12
-17.08294
22
3.23022
32
-22.90307
13
-17.08294
23
3.23022
33
-22.90307
0
3DFACE
8
Corps0
62
7
10
-15.97515
20
6.45721
30
-22.91040
11
-15.68975
21
6.30847
31
-27.42291
12
-17.08294
22
3.23022
32
-22.90307
13
-17.08294
23
3.23022
33
-22.90307
0
3DFACE
8
Corps0
62
7
10
-16.75256
20
3.14202
30
-27.40753
11
-17.08294
21
3.23022
31
-22.90307
12
-15.68975
22
6.30847
32
-27.42291
13
-15.68975
23
6.30847
33
-27.42291
0
3DFACE
8
Corps0
62
7
10
-17.08294
20
3.23022
30
-22.90307
11
-16.75256
21
3.14202
31
-27.40753
12
-17.49993
22
-0.26232
32
-22.89843
13
-17.49993
23
-0.26232
33
-22.89843
0
3DFACE
8
Corps0
62
7
10
-17.15686
20
-0.26818
30
-27.40179
11
-17.49993
21
-0.26232
31
-22.89843
12
-16.75256
22
3.14202
32
-27.40753
13
-16.75256
23
3.14202
33
-27.40753
0
3DFACE
8
Corps0
62
7
10
-11.87347
20
11.64141
30
-27.47845
11
-11.29833
21
10.98107
31
-31.67572
12
-14.03967
22
9.16400
32
-27.44696
13
-14.03967
23
9.16400
33
-27.44696
0
3DFACE
8
Corps0
62
7
10
-13.34680
20
8.63824
30
-31.64587
11
-14.03967
21
9.16400
31
-27.44696
12
-11.29833
22
10.98107
32
-31.67572
13
-11.29833
23
10.98107
33
-31.67572
0
3DFACE
8
Corps0
62
7
10
-14.03967
20
9.16400
30
-27.44696
11
-13.34680
21
8.63824
31
-31.64587
12
-15.68975
22
6.30847
32
-27.42291
13
-15.68975
23
6.30847
33
-27.42291
0
3DFACE
8
Corps0
62
7
10
-14.90728
20
5.93786
30
-31.62316
11
-15.68975
21
6.30847
31
-27.42291
12
-13.34680
22
8.63824
32
-31.64587
13
-13.34680
23
8.63824
33
-31.64587
0
3DFACE
8
Corps0
62
7
10
-11.29833
20
10.98107
30
-31.67572
11
-10.33496
21
9.94116
31
-35.42022
12
-13.34680
22
8.63824
32
-31.64587
13
-13.34680
23
8.63824
33
-31.64587
0
3DFACE
8
Corps0
62
7
10
-12.19824
20
7.81024
30
-35.39312
11
-13.34680
21
8.63824
31
-31.64587
12
-10.33496
22
9.94116
32
-35.42022
13
-10.33496
23
9.94116
33
-35.42022
0
3DFACE
8
Corps0
62
7
10
-13.34680
20
8.63824
30
-31.64587
11
-12.19824
21
7.81024
31
-35.39312
12
-14.90728
22
5.93786
32
-31.62316
13
-14.90728
23
5.93786
33
-31.62316
0
3DFACE
8
Corps0
62
7
10
-13.61761
20
5.35400
30
-35.37255
11
-14.90728
21
5.93786
31
-31.62316
12
-12.19824
22
7.81024
32
-35.39312
13
-12.19824
23
7.81024
33
-35.39312
0
3DFACE
8
Corps0
62
7
10
-15.68975
20
6.30847
30
-27.42291
11
-14.90728
21
5.93786
31
-31.62316
12
-16.75256
22
3.14202
32
-27.40753
13
-16.75256
23
3.14202
33
-27.40753
0
3DFACE
8
Corps0
62
7
10
-15.91235
20
2.94348
30
-31.60864
11
-16.75256
21
3.14202
31
-27.40753
12
-14.90728
22
5.93786
32
-31.62316
13
-14.90728
23
5.93786
33
-31.62316
0
3DFACE
8
Corps0
62
7
10
-16.75256
20
3.14202
30
-27.40753
11
-15.91235
21
2.94348
31
-31.60864
12
-17.15686
22
-0.26818
32
-27.40179
13
-17.15686
23
-0.26818
33
-27.40179
0
3DFACE
8
Corps0
62
7
10
-16.29467
20
-0.28155
30
-31.60314
11
-17.15686
21
-0.26818
31
-27.40179
12
-15.91235
22
2.94348
32
-31.60864
13
-15.91235
23
2.94348
33
-31.60864
0
3DFACE
8
Corps0
62
7
10
-14.90728
20
5.93786
30
-31.62316
11
-13.61761
21
5.35400
31
-35.37255
12
-15.91235
22
2.94348
32
-31.60864
13
-15.91235
23
2.94348
33
-31.60864
0
3DFACE
8
Corps0
62
7
10
-14.53179
20
2.63043
30
-35.35925
11
-15.91235
21
2.94348
31
-31.60864
12
-13.61761
22
5.35400
32
-35.37255
13
-13.61761
23
5.35400
33
-35.37255
0
3DFACE
8
Corps0
62
7
10
-15.91235
20
2.94348
30
-31.60864
11
-14.53179
21
2.63043
31
-35.35925
12
-16.29467
22
-0.28155
32
-31.60314
13
-16.29467
23
-0.28155
33
-31.60314
0
3DFACE
8
Corps0
62
7
10
-14.87951
20
-0.30291
30
-35.35430
11
-16.29467
21
-0.28155
31
-31.60314
12
-14.53179
22
2.63043
32
-35.35925
13
-14.53179
23
2.63043
33
-35.35925
0
3DFACE
8
Corps0
62
7
10
0.33386
20
14.05682
30
-35.57580
11
0.24078
21
12.04913
31
-38.69714
12
-2.69323
22
13.80487
32
-35.53161
13
-2.69323
23
13.80487
33
-35.53161
0
3DFACE
8
Corps0
62
7
10
-2.36077
20
11.80804
30
-38.65917
11
-2.69323
21
13.80487
31
-35.53161
12
0.24078
22
12.04913
32
-38.69714
13
0.24078
23
12.04913
33
-38.69714
0
3DFACE
8
Corps0
62
7
10
0.24078
20
12.04913
30
-38.69714
11
0.15423
21
9.45245
31
-41.06201
12
-2.36077
22
11.80804
32
-38.65917
13
-2.36077
23
11.80804
33
-38.65917
0
3DFACE
8
Corps0
62
7
10
-1.84844
20
9.08978
30
-41.03277
11
-2.36077
21
11.80804
31
-38.65917
12
0.15423
22
9.45245
32
-41.06201
13
0.15423
23
9.45245
33
-41.06201
0
3DFACE
8
Corps0
62
7
10
-2.69323
20
13.80487
30
-35.53161
11
-2.36077
21
11.80804
31
-38.65917
12
-5.52124
22
12.99633
32
-35.49041
13
-5.52124
23
12.99633
33
-35.49041
0
3DFACE
8
Corps0
62
7
10
-4.80780
20
11.13476
30
-38.62353
11
-5.52124
21
12.99633
31
-35.49041
12
-2.36077
22
11.80804
32
-38.65917
13
-2.36077
23
11.80804
33
-38.65917
0
3DFACE
8
Corps0
62
7
10
-2.36077
20
11.80804
30
-38.65917
11
-1.84844
21
9.08978
31
-41.03277
12
-4.80780
22
11.13476
32
-38.62353
13
-4.80780
23
11.13476
33
-38.62353
0
3DFACE
8
Corps0
62
7
10
-3.85125
20
8.72692
30
-41.00360
11
-4.80780
21
11.13476
31
-38.62353
12
-1.84844
22
9.08978
32
-41.03277
13
-1.84844
23
9.08978
33
-41.03277
0
3DFACE
8
Corps0
62
7
10
-5.52124
20
12.99633
30
-35.49041
11
-4.80780
21
11.13476
31
-38.62353
12
-8.08886
22
11.68920
32
-35.45300
13
-8.08886
23
11.68920
33
-35.45300
0
3DFACE
8
Corps0
62
7
10
-6.88311
20
9.81768
30
-38.59326
11
-8.08886
21
11.68920
31
-35.45300
12
-4.80780
22
11.13476
32
-38.62353
13
-4.80780
23
11.13476
33
-38.62353
0
3DFACE
8
Corps0
62
7
10
-8.08886
20
11.68920
30
-35.45300
11
-6.88311
21
9.81768
31
-38.59326
12
-10.33496
22
9.94116
32
-35.42022
13
-10.33496
23
9.94116
33
-35.42022
0
3DFACE
8
Corps0
62
7
10
-8.95843
20
8.50042
30
-38.56304
11
-10.33496
21
9.94116
31
-35.42022
12
-6.88311
22
9.81768
32
-38.59326
13
-6.88311
23
9.81768
33
-38.59326
0
3DFACE
8
Corps0
62
7
10
-4.80780
20
11.13476
30
-38.62353
11
-3.85125
21
8.72692
31
-41.00360
12
-8.95843
22
8.50042
32
-38.56304
13
-8.95843
23
8.50042
33
-38.56304
0
3DFACE
8
Corps0
62
7
10
-7.14447
20
6.63684
30
-40.95562
11
-8.95843
21
8.50042
31
-38.56304
12
-3.85125
22
8.72692
32
-41.00360
13
-3.85125
23
8.72692
33
-41.00360
0
3DFACE
8
Corps0
62
7
10
0.15423
20
9.45245
30
-41.06201
11
0.07708
21
6.23651
31
-42.52136
12
-3.85125
22
8.72692
32
-41.00360
13
-3.85125
23
8.72692
33
-41.00360
0
3DFACE
8
Corps0
62
7
10
-2.63677
20
5.74505
30
-42.48175
11
-3.85125
21
8.72692
31
-41.00360
12
0.07708
22
6.23651
32
-42.52136
13
0.07708
23
6.23651
33
-42.52136
0
3DFACE
8
Corps0
62
7
10
0.07708
20
6.23651
30
-42.52136
11
0.01159
21
2.37109
31
-42.92596
12
-2.63677
22
5.74505
32
-42.48175
13
-2.63677
23
5.74505
33
-42.48175
0
3DFACE
8
Corps0
62
7
10
-1.14978
20
2.16076
30
-42.90899
11
-2.63677
21
5.74505
31
-42.48175
12
0.01159
22
2.37109
32
-42.92596
13
0.01159
23
2.37109
33
-42.92596
0
3DFACE
8
Corps0
62
7
10
-3.85125
20
8.72692
30
-41.00360
11
-2.63677
21
5.74505
31
-42.48175
12
-7.14447
22
6.63684
32
-40.95562
13
-7.14447
23
6.63684
33
-40.95562
0
3DFACE
8
Corps0
62
7
10
-4.86804
20
4.32885
30
-42.44927
11
-7.14447
21
6.63684
31
-40.95562
12
-2.63677
22
5.74505
32
-42.48175
13
-2.63677
23
5.74505
33
-42.48175
0
3DFACE
8
Corps0
62
7
10
-2.63677
20
5.74505
30
-42.48175
11
-1.14978
21
2.16076
31
-42.90899
12
-4.86804
22
4.32885
32
-42.44927
13
-4.86804
23
4.32885
33
-42.44927
0
3DFACE
8
Corps0
62
7
10
-2.10473
20
1.55474
30
-42.89514
11
-4.86804
21
4.32885
31
-42.44927
12
-1.14978
22
2.16076
32
-42.90899
13
-1.14978
23
2.16076
33
-42.90899
0
3DFACE
8
Corps0
62
7
10
-10.33496
20
9.94116
30
-35.42022
11
-8.95843
21
8.50042
31
-38.56304
12
-12.19824
22
7.81024
32
-35.39312
13
-12.19824
23
7.81024
33
-35.39312
0
3DFACE
8
Corps0
62
7
10
-10.37365
20
6.52282
30
-38.54248
11
-12.19824
21
7.81024
31
-35.39312
12
-8.95843
22
8.50042
32
-38.56304
13
-8.95843
23
8.50042
33
-38.56304
0
3DFACE
8
Corps0
62
7
10
-12.19824
20
7.81024
30
-35.39312
11
-10.37365
21
6.52282
31
-38.54248
12
-13.61761
22
5.35400
32
-35.37255
13
-13.61761
23
5.35400
33
-35.37255
0
3DFACE
8
Corps0
62
7
10
-11.78887
20
4.54510
30
-38.52185
11
-13.61761
21
5.35400
31
-35.37255
12
-10.37365
22
6.52282
32
-38.54248
13
-10.37365
23
6.52282
33
-38.54248
0
3DFACE
8
Corps0
62
7
10
-8.95843
20
8.50042
30
-38.56304
11
-7.14447
21
6.63684
31
-40.95562
12
-11.78887
22
4.54510
32
-38.52185
13
-11.78887
23
4.54510
33
-38.52185
0
3DFACE
8
Corps0
62
7
10
-9.39013
20
3.49871
30
-40.92297
11
-11.78887
21
4.54510
31
-38.52185
12
-7.14447
22
6.63684
32
-40.95562
13
-7.14447
23
6.63684
33
-40.95562
0
3DFACE
8
Corps0
62
7
10
-13.61761
20
5.35400
30
-35.37255
11
-11.78887
21
4.54510
31
-38.52185
12
-14.53179
22
2.63043
32
-35.35925
13
-14.53179
23
2.63043
33
-35.35925
0
3DFACE
8
Corps0
62
7
10
-12.57714
20
2.19659
30
-38.51043
11
-14.53179
21
2.63043
31
-35.35925
12
-11.78887
22
4.54510
32
-38.52185
13
-11.78887
23
4.54510
33
-38.52185
0
3DFACE
8
Corps0
62
7
10
-11.78887
20
4.54510
30
-38.52185
11
-9.39013
21
3.49871
31
-40.92297
12
-12.57714
22
2.19659
32
-38.51043
13
-12.57714
23
2.19659
33
-38.51043
0
3DFACE
8
Corps0
62
7
10
-10.01550
20
1.63537
30
-40.91394
11
-12.57714
21
2.19659
31
-38.51043
12
-9.39013
22
3.49871
32
-40.92297
13
-9.39013
23
3.49871
33
-40.92297
0
3DFACE
8
Corps0
62
7
10
-14.53179
20
2.63043
30
-35.35925
11
-12.57714
21
2.19659
31
-38.51043
12
-14.87951
22
-0.30291
32
-35.35430
13
-14.87951
23
-0.30291
33
-35.35430
0
3DFACE
8
Corps0
62
7
10
-12.87701
20
-0.33264
30
-38.50616
11
-14.87951
21
-0.30291
31
-35.35430
12
-12.57714
22
2.19659
32
-38.51043
13
-12.57714
23
2.19659
33
-38.51043
0
3DFACE
8
Corps0
62
7
10
-12.57714
20
2.19659
30
-38.51043
11
-10.01550
21
1.63537
31
-40.91394
12
-12.87701
22
-0.33264
32
-38.50616
13
-12.87701
23
-0.33264
33
-38.50616
0
3DFACE
8
Corps0
62
7
10
-10.25341
20
-0.37139
30
-40.91052
11
-12.87701
21
-0.33264
31
-38.50616
12
-10.01550
22
1.63537
32
-40.91394
13
-10.01550
23
1.63537
33
-40.91394
0
3DFACE
8
Corps0
62
7
10
-7.14447
20
6.63684
30
-40.95562
11
-4.86804
21
4.32885
31
-42.44927
12
-9.39013
22
3.49871
32
-40.92297
13
-9.39013
23
3.49871
33
-40.92297
0
3DFACE
8
Corps0
62
7
10
-6.38952
20
2.20263
30
-42.42706
11
-9.39013
21
3.49871
31
-40.92297
12
-4.86804
22
4.32885
32
-42.44927
13
-4.86804
23
4.32885
33
-42.44927
0
3DFACE
8
Corps0
62
7
10
-9.39013
20
3.49871
30
-40.92297
11
-6.38952
21
2.20263
31
-42.42706
12
-10.01550
22
1.63537
32
-40.91394
13
-10.01550
23
1.63537
33
-40.91394
0
3DFACE
8
Corps0
62
7
10
-6.68194
20
0.89166
30
-42.42285
11
-10.01550
21
1.63537
31
-40.91394
12
-6.38952
22
2.20263
32
-42.42706
13
-6.38952
23
2.20263
33
-42.42706
0
3DFACE
8
Corps0
62
7
10
-10.01550
20
1.63537
30
-40.91394
11
-6.68194
21
0.89166
31
-42.42285
12
-10.25341
22
-0.37139
32
-40.91052
13
-10.25341
23
-0.37139
33
-40.91052
0
3DFACE
8
Corps0
62
7
10
-6.97448
20
-0.41943
30
-42.41870
11
-10.25341
21
-0.37139
31
-40.91052
12
-6.68194
22
0.89166
32
-42.42285
13
-6.68194
23
0.89166
33
-42.42285
0
3DFACE
8
Corps0
62
7
10
-4.86804
20
4.32885
30
-42.44927
11
-2.10473
21
1.55474
31
-42.89514
12
-6.38952
22
2.20263
32
-42.42706
13
-6.38952
23
2.20263
33
-42.42706
0
3DFACE
8
Corps0
62
7
10
-2.75592
20
0.64489
30
-42.88568
11
-6.38952
21
2.20263
31
-42.42706
12
-2.10473
22
1.55474
32
-42.89514
13
-2.10473
23
1.55474
33
-42.89514
0
3DFACE
8
Corps0
62
7
10
-6.38952
20
2.20263
30
-42.42706
11
-2.75592
21
0.64489
31
-42.88568
12
-6.97448
22
-0.41943
32
-42.41870
13
-6.97448
23
-0.41943
33
-42.41870
0
3DFACE
8
Corps0
62
7
10
-3.00628
20
-0.47741
30
-42.88208
11
-6.97448
21
-0.41943
31
-42.41870
12
-2.75592
22
0.64489
32
-42.88568
13
-2.75592
23
0.64489
33
-42.88568
0
3DFACE
8
Corps0
62
7
10
-2.85321
20
-0.47137
30
6.70318
11
-5.64825
21
-0.43041
31
6.16845
12
-2.57312
22
-1.92352
32
6.69903
13
-2.57312
23
-1.92352
33
6.69903
0
3DFACE
8
Corps0
62
7
10
-5.16473
20
-2.93719
30
6.16131
11
-2.57312
21
-1.92352
31
6.69903
12
-5.64825
22
-0.43041
32
6.16845
13
-5.64825
23
-0.43041
33
6.16845
0
3DFACE
8
Corps0
62
7
10
-5.64825
20
-0.43041
30
6.16845
11
-8.23089
21
-0.39282
31
4.59851
12
-5.16473
22
-2.93719
32
6.16131
13
-5.16473
23
-2.93719
33
6.16131
0
3DFACE
8
Corps0
62
7
10
-7.56109
20
-3.86578
30
4.58862
11
-5.16473
21
-2.93719
31
6.16131
12
-8.23089
22
-0.39282
32
4.59851
13
-8.23089
23
-0.39282
33
4.59851
0
3DFACE
8
Corps0
62
7
10
-2.57312
20
-1.92352
30
6.69903
11
-5.16473
21
-2.93719
31
6.16131
12
-1.76910
22
-3.11962
32
6.68719
13
-1.76910
23
-3.11962
33
6.68719
0
3DFACE
8
Corps0
62
7
10
-3.77673
20
-5.00207
30
6.14099
11
-1.76910
21
-3.11962
31
6.68719
12
-5.16473
22
-2.93719
32
6.16131
13
-5.16473
23
-2.93719
33
6.16131
0
3DFACE
8
Corps0
62
7
10
-5.16473
20
-2.93719
30
6.16131
11
-7.56109
21
-3.86578
31
4.58862
12
-3.77673
22
-5.00207
32
6.14099
13
-3.77673
23
-5.00207
33
6.14099
0
3DFACE
8
Corps0
62
7
10
-5.63793
20
-6.72650
30
4.56048
11
-3.77673
21
-5.00207
31
6.14099
12
-7.56109
22
-3.86578
32
4.58862
13
-7.56109
23
-3.86578
33
4.58862
0
3DFACE
8
Corps0
62
7
10
-8.23089
20
-0.39282
30
4.59851
11
-10.56701
21
-0.35900
31
2.14178
12
-7.89593
22
-2.12921
32
4.59356
13
-7.89593
23
-2.12921
33
4.59356
0
3DFACE
8
Corps0
62
7
10
-10.34515
20
-2.59387
30
2.13848
11
-7.89593
21
-2.12921
31
4.59356
12
-10.56701
22
-0.35900
32
2.14178
13
-10.56701
23
-0.35900
33
2.14178
0
3DFACE
8
Corps0
62
7
10
-7.89593
20
-2.12921
30
4.59356
11
-10.34515
21
-2.59387
31
2.13848
12
-7.56109
22
-3.86578
32
4.58862
13
-7.56109
23
-3.86578
33
4.58862
0
3DFACE
8
Corps0
62
7
10
-9.73022
20
-4.69799
30
2.12945
11
-7.56109
21
-3.86578
31
4.58862
12
-10.34515
22
-2.59387
32
2.13848
13
-10.34515
23
-2.59387
33
2.13848
0
3DFACE
8
Corps0
62
7
10
-10.56701
20
-0.35900
30
2.14178
11
-12.62274
21
-0.32952
31
-1.05297
12
-10.34515
22
-2.59387
32
2.13848
13
-10.34515
23
-2.59387
33
2.13848
0
3DFACE
8
Corps0
62
7
10
-12.38800
20
-2.96124
30
-1.05645
11
-10.34515
21
-2.59387
31
2.13848
12
-12.62274
22
-0.32952
32
-1.05297
13
-12.62274
23
-0.32952
33
-1.05297
0
3DFACE
8
Corps0
62
7
10
-10.34515
20
-2.59387
30
2.13848
11
-12.38800
21
-2.96124
31
-1.05645
12
-9.73022
22
-4.69799
32
2.12945
13
-9.73022
23
-4.69799
33
2.12945
0
3DFACE
8
Corps0
62
7
10
-11.64056
20
-5.42260
30
-1.06738
11
-9.73022
21
-4.69799
31
2.12945
12
-12.38800
22
-2.96124
32
-1.05645
13
-12.38800
23
-2.96124
33
-1.05645
0
3DFACE
8
Corps0
62
7
10
-7.56109
20
-3.86578
30
4.58862
11
-9.73022
21
-4.69799
31
2.12945
12
-5.63793
22
-6.72650
32
4.56048
13
-5.63793
23
-6.72650
33
4.56048
0
3DFACE
8
Corps0
62
7
10
-7.32757
20
-8.27215
30
2.09429
11
-5.63793
21
-6.72650
31
4.56048
12
-9.73022
22
-4.69799
32
2.12945
13
-9.73022
23
-4.69799
33
2.12945
0
3DFACE
8
Corps0
62
7
10
-9.73022
20
-4.69799
30
2.12945
11
-11.64056
21
-5.42260
31
-1.06738
12
-8.52874
22
-6.48504
32
2.11193
13
-8.52874
23
-6.48504
33
2.11193
0
3DFACE
8
Corps0
62
7
10
-10.43347
20
-7.65936
30
-1.08508
11
-8.52874
21
-6.48504
31
2.11193
12
-11.64056
22
-5.42260
32
-1.06738
13
-11.64056
23
-5.42260
33
-1.06738
0
3DFACE
8
Corps0
62
7
10
-8.52874
20
-6.48504
30
2.11193
11
-10.43347
21
-7.65936
31
-1.08508
12
-7.32757
22
-8.27215
32
2.09429
13
-7.32757
23
-8.27215
33
2.09429
0
3DFACE
8
Corps0
62
7
10
-8.82031
20
-9.61779
30
-1.10870
11
-7.32757
21
-8.27215
31
2.09429
12
-10.43347
22
-7.65936
32
-1.08508
13
-10.43347
23
-7.65936
33
-1.08508
0
3DFACE
8
Corps0
62
7
10
-1.76910
20
-3.11962
30
6.68719
11
-3.77673
21
-5.00207
31
6.14099
12
-0.56256
22
-3.93670
32
6.66961
13
-0.56256
23
-3.93670
33
6.66961
0
3DFACE
8
Corps0
62
7
10
-1.69396
20
-6.41253
30
6.11059
11
-0.56256
21
-3.93670
31
6.66961
12
-3.77673
22
-5.00207
32
6.14099
13
-3.77673
23
-5.00207
33
6.14099
0
3DFACE
8
Corps0
62
7
10
-3.77673
20
-5.00207
30
6.14099
11
-5.63793
21
-6.72650
31
4.56048
12
-1.69396
22
-6.41253
32
6.11059
13
-1.69396
23
-6.41253
33
6.11059
0
3DFACE
8
Corps0
62
7
10
-2.75250
20
-8.68078
30
4.51831
11
-1.69396
21
-6.41253
31
6.11059
12
-5.63793
22
-6.72650
32
4.56048
13
-5.63793
23
-6.72650
33
4.56048
0
3DFACE
8
Corps0
62
7
10
-5.63793
20
-6.72650
30
4.56048
11
-7.32757
21
-8.27215
31
2.09429
12
-2.75250
22
-8.68078
32
4.51831
13
-2.75250
23
-8.68078
33
4.51831
0
3DFACE
8
Corps0
62
7
10
-3.72241
20
-10.71374
30
2.04162
11
-2.75250
21
-8.68078
31
4.51831
12
-7.32757
22
-8.27215
32
2.09429
13
-7.32757
23
-8.27215
33
2.09429
0
3DFACE
8
Corps0
62
7
10
-7.32757
20
-8.27215
30
2.09429
11
-8.82031
21
-9.61779
31
-1.10870
12
-5.52496
22
-9.49285
32
2.06799
13
-5.52496
23
-9.49285
33
2.06799
0
3DFACE
8
Corps0
62
7
10
-6.85424
20
-11.24395
30
-1.13739
11
-5.52496
21
-9.49285
31
2.06799
12
-8.82031
22
-9.61779
32
-1.10870
13
-8.82031
23
-9.61779
33
-1.10870
0
3DFACE
8
Corps0
62
7
10
-5.52496
20
-9.49285
30
2.06799
11
-6.85424
21
-11.24395
31
-1.13739
12
-3.72241
22
-10.71374
32
2.04162
13
-3.72241
23
-10.71374
33
2.04162
0
3DFACE
8
Corps0
62
7
10
-4.58868
20
-12.48382
30
-1.17047
11
-3.72241
21
-10.71374
31
2.04162
12
-6.85424
22
-11.24395
32
-1.13739
13
-6.85424
23
-11.24395
33
-1.13739
0
3DFACE
8
Corps0
62
7
10
-0.56256
20
-3.93670
30
6.66961
11
-1.69396
21
-6.41253
31
6.11059
12
0.92468
22
-4.25201
32
6.64788
13
0.92468
23
-4.25201
33
6.64788
0
3DFACE
8
Corps0
62
7
10
0.87353
20
-6.95672
30
6.07305
11
0.92468
21
-4.25201
31
6.64788
12
-1.69396
22
-6.41253
32
6.11059
13
-1.69396
23
-6.41253
33
6.11059
0
3DFACE
8
Corps0
62
7
10
-1.69396
20
-6.41253
30
6.11059
11
-2.75250
21
-8.68078
31
4.51831
12
0.87353
22
-6.95672
32
6.07305
13
0.87353
23
-6.95672
33
6.07305
0
3DFACE
8
Corps0
62
7
10
0.80462
20
-9.43469
30
4.46624
11
0.87353
21
-6.95672
31
6.07305
12
-2.75250
22
-8.68078
32
4.51831
13
-2.75250
23
-8.68078
33
4.51831
0
3DFACE
8
Corps0
62
7
10
-2.75250
20
-8.68078
30
4.51831
11
-3.72241
21
-10.71374
31
2.04162
12
0.80462
22
-9.43469
32
4.46624
13
0.80462
23
-9.43469
33
4.46624
0
3DFACE
8
Corps0
62
7
10
0.72161
20
-11.65551
30
1.97668
11
0.80462
21
-9.43469
31
4.46624
12
-3.72241
22
-10.71374
32
2.04162
13
-3.72241
23
-10.71374
33
2.04162
0
3DFACE
8
Corps0
62
7
10
-3.72241
20
-10.71374
30
2.04162
11
-4.58868
21
-12.48382
31
-1.17047
12
-1.50036
22
-11.18457
32
2.00927
13
-1.50036
23
-11.18457
33
2.00927
0
3DFACE
8
Corps0
62
7
10
-2.07684
20
-13.28356
30
-1.20715
11
-1.50036
21
-11.18457
31
2.00927
12
-4.58868
22
-12.48382
32
-1.17047
13
-4.58868
23
-12.48382
33
-1.17047
0
3DFACE
8
Corps0
62
7
10
-1.50036
20
-11.18457
30
2.00927
11
-2.07684
21
-13.28356
31
-1.20715
12
0.72161
22
-11.65551
32
1.97668
13
0.72161
23
-11.65551
33
1.97668
0
3DFACE
8
Corps0
62
7
10
0.62780
20
-13.58935
30
-1.24682
11
0.72161
21
-11.65551
31
1.97668
12
-2.07684
22
-13.28356
32
-1.20715
13
-2.07684
23
-13.28356
33
-1.20715
0
3DFACE
8
Corps0
62
7
10
-12.62274
20
-0.32952
30
-1.05297
11
-14.36364
21
-0.30474
31
-4.83721
12
-12.38800
22
-2.96124
32
-1.05645
13
-12.38800
23
-2.96124
33
-1.05645
0
3DFACE
8
Corps0
62
7
10
-14.09985
20
-3.26214
30
-4.84112
11
-12.38800
21
-2.96124
31
-1.05645
12
-14.36364
22
-0.30474
32
-4.83721
13
-14.36364
23
-0.30474
33
-4.83721
0
3DFACE
8
Corps0
62
7
10
-12.38800
20
-2.96124
30
-1.05645
11
-14.09985
21
-3.26214
31
-4.84112
12
-11.64056
22
-5.42260
32
-1.06738
13
-11.64056
23
-5.42260
33
-1.06738
0
3DFACE
8
Corps0
62
7
10
-13.25982
20
-6.02813
30
-4.85339
11
-11.64056
21
-5.42260
31
-1.06738
12
-14.09985
22
-3.26214
32
-4.84112
13
-14.09985
23
-3.26214
33
-4.84112
0
3DFACE
8
Corps0
62
7
10
-14.36364
20
-0.30474
30
-4.83721
11
-15.75592
21
-0.28515
31
-9.06256
12
-14.09985
22
-3.26214
32
-4.84112
13
-14.09985
23
-3.26214
33
-4.84112
0
3DFACE
8
Corps0
62
7
10
-15.46929
20
-3.49829
30
-9.06677
11
-14.09985
21
-3.26214
31
-4.84112
12
-15.75592
22
-0.28515
32
-9.06256
13
-15.75592
23
-0.28515
33
-9.06256
0
3DFACE
8
Corps0
62
7
10
-14.09985
20
-3.26214
30
-4.84112
11
-15.46929
21
-3.49829
31
-9.06677
12
-13.25982
22
-6.02813
32
-4.85339
13
-13.25982
23
-6.02813
33
-4.85339
0
3DFACE
8
Corps0
62
7
10
-14.55670
20
-6.50335
30
-9.08020
11
-13.25982
21
-6.02813
31
-4.85339
12
-15.46929
22
-3.49829
32
-9.06677
13
-15.46929
23
-3.49829
33
-9.06677
0
3DFACE
8
Corps0
62
7
10
-11.64056
20
-5.42260
30
-1.06738
11
-13.25982
21
-6.02813
31
-4.85339
12
-10.43347
22
-7.65936
32
-1.08508
13
-10.43347
23
-7.65936
33
-1.08508
0
3DFACE
8
Corps0
62
7
10
-11.90338
20
-8.54168
30
-4.87329
11
-10.43347
21
-7.65936
31
-1.08508
12
-13.25982
22
-6.02813
32
-4.85339
13
-13.25982
23
-6.02813
33
-4.85339
0
3DFACE
8
Corps0
62
7
10
-10.43347
20
-7.65936
30
-1.08508
11
-11.90338
21
-8.54168
31
-4.87329
12
-8.82031
22
-9.61779
32
-1.10870
13
-8.82031
23
-9.61779
33
-1.10870
0
3DFACE
8
Corps0
62
7
10
-10.09057
20
-10.74255
30
-4.89978
11
-8.82031
21
-9.61779
31
-1.10870
12
-11.90338
22
-8.54168
32
-4.87329
13
-11.90338
23
-8.54168
33
-4.87329
0
3DFACE
8
Corps0
62
7
10
-13.25982
20
-6.02813
30
-4.85339
11
-14.55670
21
-6.50335
31
-9.08020
12
-11.90338
22
-8.54168
32
-4.87329
13
-11.90338
23
-8.54168
33
-4.87329
0
3DFACE
8
Corps0
62
7
10
-13.08294
20
-9.23437
30
-9.10180
11
-11.90338
21
-8.54168
31
-4.87329
12
-14.55670
22
-6.50335
32
-9.08020
13
-14.55670
23
-6.50335
33
-9.08020
0
3DFACE
8
Corps0
62
7
10
-11.90338
20
-8.54168
30
-4.87329
11
-13.08294
21
-9.23437
31
-9.10180
12
-10.09057
22
-10.74255
32
-4.89978
13
-10.09057
23
-10.74255
33
-4.89978
0
3DFACE
8
Corps0
62
7
10
-11.11346
20
-11.62548
30
-9.13061
11
-10.09057
21
-10.74255
31
-4.89978
12
-13.08294
22
-9.23437
32
-9.10180
13
-13.08294
23
-9.23437
33
-9.10180
0
3DFACE
8
Corps0
62
7
10
-15.75592
20
-0.28515
30
-9.06256
11
-16.76544
21
-0.27124
31
-13.58020
12
-15.46929
22
-3.49829
32
-9.06677
13
-15.46929
23
-3.49829
33
-9.06677
0
3DFACE
8
Corps0
62
7
10
-16.43865
20
-3.65454
30
-13.59356
11
-15.46929
21
-3.49829
31
-9.06677
12
-16.76544
22
-0.27124
32
-13.58020
13
-16.76544
23
-0.27124
33
-13.58020
0
3DFACE
8
Corps0
62
7
10
-15.46929
20
-3.49829
30
-9.06677
11
-16.43865
21
-3.65454
31
-13.59356
12
-14.55670
22
-6.50335
32
-9.08020
13
-14.55670
23
-6.50335
33
-9.08020
0
3DFACE
8
Corps0
62
7
10
-15.30603
20
-6.76062
30
-13.67047
11
-14.55670
21
-6.50335
31
-9.08020
12
-16.43865
22
-3.65454
32
-13.59356
13
-16.43865
23
-3.65454
33
-13.59356
0
3DFACE
8
Corps0
62
7
10
-16.76544
20
-0.27124
30
-13.58020
11
-17.35821
21
-0.26361
31
-18.24176
12
-16.43865
22
-3.65454
32
-13.59356
13
-16.43865
23
-3.65454
33
-13.59356
0
3DFACE
8
Corps0
62
7
10
-17.04687
20
-3.75378
30
-18.24633
11
-16.43865
21
-3.65454
31
-13.59356
12
-17.35821
22
-0.26361
32
-18.24176
13
-17.35821
23
-0.26361
33
-18.24176
0
3DFACE
8
Corps0
62
7
10
-16.43865
20
-3.65454
30
-13.59356
11
-17.04687
21
-3.75378
31
-18.24633
12
-15.30603
22
-6.76062
32
-13.67047
13
-15.30603
23
-6.76062
33
-13.67047
0
3DFACE
8
Corps0
62
7
10
-16.05554
20
-7.01794
30
-18.26092
11
-15.30603
21
-6.76062
31
-13.67047
12
-17.04687
22
-3.75378
32
-18.24633
13
-17.04687
23
-3.75378
33
-18.24633
0
3DFACE
8
Corps0
62
7
10
-14.55670
20
-6.50335
30
-9.08020
11
-16.05554
21
-7.01794
31
-18.26092
12
-13.08294
22
-9.23437
32
-9.10180
13
-13.08294
23
-9.23437
33
-9.10180
0
3DFACE
8
Corps0
62
7
10
-14.45477
20
-9.98443
30
-18.28436
11
-13.08294
21
-9.23437
31
-9.10180
12
-16.05554
22
-7.01794
32
-18.26092
13
-16.05554
23
-7.01794
33
-18.26092
0
3DFACE
8
Corps0
62
7
10
-13.08294
20
-9.23437
30
-9.10180
11
-14.45477
21
-9.98443
31
-18.28436
12
-11.11346
22
-11.62548
32
-9.13061
13
-11.11346
23
-11.62548
33
-9.13061
0
3DFACE
8
Corps0
62
7
10
-12.31542
20
-12.58178
30
-18.31567
11
-11.11346
21
-11.62548
31
-9.13061
12
-14.45477
22
-9.98443
32
-18.28436
13
-14.45477
23
-9.98443
33
-18.28436
0
3DFACE
8
Corps0
62
7
10
-8.82031
20
-9.61779
30
-1.10870
11
-10.09057
21
-10.74255
31
-4.89978
12
-6.85424
22
-11.24395
32
-1.13739
13
-6.85424
23
-11.24395
33
-1.13739
0
3DFACE
8
Corps0
62
7
10
-7.88116
20
-12.56988
30
-4.93212
11
-6.85424
21
-11.24395
31
-1.13739
12
-10.09057
22
-10.74255
32
-4.89978
13
-10.09057
23
-10.74255
33
-4.89978
0
3DFACE
8
Corps0
62
7
10
-6.85424
20
-11.24395
30
-1.13739
11
-7.88116
21
-12.56988
31
-4.93212
12
-4.58868
22
-12.48382
32
-1.17047
13
-4.58868
23
-12.48382
33
-1.17047
0
3DFACE
8
Corps0
62
7
10
-5.33520
20
-13.96325
30
-4.96936
11
-4.58868
21
-12.48382
31
-1.17047
12
-7.88116
22
-12.56988
32
-4.93212
13
-7.88116
23
-12.56988
33
-4.93212
0
3DFACE
8
Corps0
62
7
10
-10.09057
20
-10.74255
30
-4.89978
11
-11.11346
21
-11.62548
31
-9.13061
12
-7.88116
22
-12.56988
32
-4.93212
13
-7.88116
23
-12.56988
33
-4.93212
0
3DFACE
8
Corps0
62
7
10
-8.71307
20
-13.61077
30
-9.16564
11
-7.88116
21
-12.56988
31
-4.93212
12
-11.11346
22
-11.62548
32
-9.13061
13
-11.11346
23
-11.62548
33
-9.13061
0
3DFACE
8
Corps0
62
7
10
-7.88116
20
-12.56988
30
-4.93212
11
-8.71307
21
-13.61077
31
-9.16564
12
-5.33520
22
-13.96325
32
-4.96936
13
-5.33520
23
-13.96325
33
-4.96936
0
3DFACE
8
Corps0
62
7
10
-5.94696
20
-15.12469
30
-9.20611
11
-5.33520
21
-13.96325
31
-4.96936
12
-8.71307
22
-13.61077
32
-9.16564
13
-8.71307
23
-13.61077
33
-9.16564
0
3DFACE
8
Corps0
62
7
10
-4.58868
20
-12.48382
30
-1.17047
11
-5.33520
21
-13.96325
31
-4.96936
12
-2.07684
22
-13.28356
32
-1.20715
13
-2.07684
23
-13.28356
33
-1.20715
0
3DFACE
8
Corps0
62
7
10
-2.51251
20
-14.86193
30
-5.01055
11
-2.07684
21
-13.28356
31
-1.20715
12
-5.33520
22
-13.96325
32
-4.96936
13
-5.33520
23
-13.96325
33
-4.96936
0
3DFACE
8
Corps0
62
7
10
-2.07684
20
-13.28356
30
-1.20715
11
-2.51251
21
-14.86193
31
-5.01055
12
0.62780
22
-13.58935
32
-1.24682
13
0.62780
23
-13.58935
33
-1.24682
0
3DFACE
8
Corps0
62
7
10
0.52685
20
-15.20562
30
-5.05511
11
0.62780
21
-13.58935
31
-1.24682
12
-2.51251
22
-14.86193
32
-5.01055
13
-2.51251
23
-14.86193
33
-5.01055
0
3DFACE
8
Corps0
62
7
10
-5.33520
20
-13.96325
30
-4.96936
11
-5.94696
21
-15.12469
31
-9.20611
12
-2.51251
22
-14.86193
32
-5.01055
13
-2.51251
23
-14.86193
33
-5.01055
0
3DFACE
8
Corps0
62
7
10
-2.88018
20
-16.10113
30
-9.25091
11
-2.51251
21
-14.86193
31
-5.01055
12
-5.94696
22
-15.12469
32
-9.20611
13
-5.94696
23
-15.12469
33
-9.20611
0
3DFACE
8
Corps0
62
7
10
-2.51251
20
-14.86193
30
-5.01055
11
-2.88018
21
-16.10113
31
-9.25091
12
0.52685
22
-15.20562
32
-5.05511
13
0.52685
23
-15.20562
33
-5.05511
0
3DFACE
8
Corps0
62
7
10
0.42199
20
-16.47448
30
-9.29931
11
0.52685
21
-15.20562
31
-5.05511
12
-2.88018
22
-16.10113
32
-9.25091
13
-2.88018
23
-16.10113
33
-9.25091
0
3DFACE
8
Corps0
62
7
10
-11.11346
20
-11.62548
30
-9.13061
11
-12.31542
21
-12.58178
31
-18.31567
12
-8.71307
22
-13.61077
32
-9.16564
13
-8.71307
23
-13.61077
33
-9.16564
0
3DFACE
8
Corps0
62
7
10
-9.70800
20
-14.73834
30
-18.35375
11
-8.71307
21
-13.61077
31
-9.16564
12
-12.31542
22
-12.58178
32
-18.31567
13
-12.31542
23
-12.58178
33
-18.31567
0
3DFACE
8
Corps0
62
7
10
-8.71307
20
-13.61077
30
-9.16564
11
-9.70800
21
-14.73834
31
-18.35375
12
-5.94696
22
-15.12469
32
-9.20611
13
-5.94696
23
-15.12469
33
-9.20611
0
3DFACE
8
Corps0
62
7
10
-6.70336
20
-16.38281
30
-18.39770
11
-5.94696
21
-15.12469
31
-9.20611
12
-9.70800
22
-14.73834
32
-18.35375
13
-9.70800
23
-14.73834
33
-18.35375
0
3DFACE
8
Corps0
62
7
10
-5.94696
20
-15.12469
30
-9.20611
11
-6.32507
21
-15.75366
31
-13.80187
12
-2.88018
22
-16.10113
32
-9.25091
13
-2.88018
23
-16.10113
33
-9.25091
0
3DFACE
8
Corps0
62
7
10
-3.15954
20
-16.94805
30
-13.78784
11
-2.88018
21
-16.10113
31
-9.25091
12
-6.32507
22
-15.75366
32
-13.80187
13
-6.32507
23
-15.75366
33
-13.80187
0
3DFACE
8
Corps0
62
7
10
-2.88018
20
-16.10113
30
-9.25091
11
-3.15954
21
-16.94805
31
-13.78784
12
0.42199
22
-16.47448
32
-9.29931
13
0.42199
23
-16.47448
33
-9.29931
0
3DFACE
8
Corps0
62
7
10
0.31695
20
-17.36560
30
-13.83020
11
0.42199
21
-16.47448
31
-9.29931
12
-3.15954
22
-16.94805
32
-13.78784
13
-3.15954
23
-16.94805
33
-13.78784
0
3DFACE
8
Corps0
62
7
10
-6.32507
20
-15.75366
30
-13.80187
11
-6.70336
21
-16.38281
31
-18.39770
12
-3.15954
22
-16.94805
32
-13.78784
13
-3.15954
23
-16.94805
33
-13.78784
0
3DFACE
8
Corps0
62
7
10
-3.37213
20
-17.44348
30
-18.44635
11
-3.15954
21
-16.94805
31
-13.78784
12
-6.70336
22
-16.38281
32
-18.39770
13
-6.70336
23
-16.38281
33
-18.39770
0
3DFACE
8
Corps0
62
7
10
-3.15954
20
-16.94805
30
-13.78784
11
-3.37213
21
-17.44348
31
-18.44635
12
0.31695
22
-17.36560
32
-13.83020
13
0.31695
23
-17.36560
33
-13.83020
0
3DFACE
8
Corps0
62
7
10
0.21490
20
-17.84893
30
-18.49890
11
0.31695
21
-17.36560
31
-13.83020
12
-3.37213
22
-17.44348
32
-18.44635
13
-3.37213
23
-17.44348
33
-18.44635
0
3DFACE
8
Corps0
62
7
10
-17.35821
20
-0.26361
30
-18.24176
11
-17.49993
21
-0.26232
31
-22.89843
12
-17.04687
22
-3.75378
32
-18.24633
13
-17.04687
23
-3.75378
33
-18.24633
0
3DFACE
8
Corps0
62
7
10
-17.18511
20
-3.75915
30
-22.90179
11
-17.04687
21
-3.75378
31
-18.24633
12
-17.49993
22
-0.26232
32
-22.89843
13
-17.49993
23
-0.26232
33
-22.89843
0
3DFACE
8
Corps0
62
7
10
-17.04687
20
-3.75378
30
-18.24633
11
-17.18511
21
-3.75915
31
-22.90179
12
-16.05554
22
-7.01794
32
-18.26092
13
-16.05554
23
-7.01794
33
-18.26092
0
3DFACE
8
Corps0
62
7
10
-16.17211
20
-7.01416
30
-22.90789
11
-16.05554
21
-7.01794
31
-18.26092
12
-17.18511
22
-3.75915
32
-22.90179
13
-17.18511
23
-3.75915
33
-22.90179
0
3DFACE
8
Corps0
62
7
10
-17.49993
20
-0.26232
30
-22.89843
11
-17.15686
21
-0.26818
31
-27.40179
12
-17.18511
22
-3.75915
32
-22.90179
13
-17.18511
23
-3.75915
33
-22.90179
0
3DFACE
8
Corps0
62
7
10
-16.85235
20
-3.68249
30
-27.40625
11
-17.18511
21
-3.75915
31
-22.90179
12
-17.15686
22
-0.26818
32
-27.40179
13
-17.15686
23
-0.26818
33
-27.40179
0
3DFACE
8
Corps0
62
7
10
-17.18511
20
-3.75915
30
-22.90179
11
-16.85235
21
-3.68249
31
-27.40625
12
-16.17211
22
-7.01416
32
-22.90789
13
-16.17211
23
-7.01416
33
-22.90789
0
3DFACE
8
Corps0
62
7
10
-15.88250
20
-6.87561
30
-27.42053
11
-16.17211
21
-7.01416
31
-22.90789
12
-16.85235
22
-3.68249
32
-27.40625
13
-16.85235
23
-3.68249
33
-27.40625
0
3DFACE
8
Corps0
62
7
10
-16.05554
20
-7.01794
30
-18.26092
11
-16.17211
21
-7.01416
31
-22.90789
12
-14.45477
22
-9.98443
32
-18.28436
13
-14.45477
23
-9.98443
33
-18.28436
0
3DFACE
8
Corps0
62
7
10
-14.51531
20
-9.94006
30
-22.90832
11
-14.45477
21
-9.98443
31
-18.28436
12
-16.17211
22
-7.01416
32
-22.90789
13
-16.17211
23
-7.01416
33
-22.90789
0
3DFACE
8
Corps0
62
7
10
-14.45477
20
-9.98443
30
-18.28436
11
-14.51531
21
-9.94006
31
-22.90832
12
-12.31542
22
-12.58178
32
-18.31567
13
-12.31542
23
-12.58178
33
-18.31567
0
3DFACE
8
Corps0
62
7
10
-12.26953
20
-12.45007
30
-22.89477
11
-12.31542
21
-12.58178
31
-18.31567
12
-14.51531
22
-9.94006
32
-22.90832
13
-14.51531
23
-9.94006
33
-22.90832
0
3DFACE
8
Corps0
62
7
10
-16.17211
20
-7.01416
30
-22.90789
11
-15.88250
21
-6.87561
31
-27.42053
12
-14.51531
22
-9.94006
32
-22.90832
13
-14.51531
23
-9.94006
33
-22.90832
0
3DFACE
8
Corps0
62
7
10
-14.31658
20
-9.77764
30
-27.44348
11
-14.51531
21
-9.94006
31
-22.90832
12
-15.88250
22
-6.87561
32
-27.42053
13
-15.88250
23
-6.87561
33
-27.42053
0
3DFACE
8
Corps0
62
7
10
-14.51531
20
-9.94006
30
-22.90832
11
-14.31658
21
-9.77764
31
-27.44348
12
-12.26953
22
-12.45007
32
-22.89477
13
-12.26953
23
-12.45007
33
-22.89477
0
3DFACE
8
Corps0
62
7
10
-12.22375
20
-12.31854
30
-27.47412
11
-12.26953
21
-12.45007
31
-22.89477
12
-14.31658
22
-9.77764
32
-27.44348
13
-14.31658
23
-9.77764
33
-27.44348
0
3DFACE
8
Corps0
62
7
10
-17.15686
20
-0.26818
30
-27.40179
11
-16.29467
21
-0.28155
31
-31.60314
12
-16.85235
22
-3.68249
32
-27.40625
13
-16.85235
23
-3.68249
33
-27.40625
0
3DFACE
8
Corps0
62
7
10
-16.00671
20
-3.51025
30
-31.60748
11
-16.85235
21
-3.68249
31
-27.40625
12
-16.29467
22
-0.28155
32
-31.60314
13
-16.29467
23
-0.28155
33
-31.60314
0
3DFACE
8
Corps0
62
7
10
-16.85235
20
-3.68249
30
-27.40625
11
-16.00671
21
-3.51025
31
-31.60748
12
-15.88250
22
-6.87561
32
-27.42053
13
-15.88250
23
-6.87561
33
-27.42053
0
3DFACE
8
Corps0
62
7
10
-15.08959
20
-6.53002
30
-31.62091
11
-15.88250
21
-6.87561
31
-27.42053
12
-16.00671
22
-3.51025
32
-31.60748
13
-16.00671
23
-3.51025
33
-31.60748
0
3DFACE
8
Corps0
62
7
10
-16.29467
20
-0.28155
30
-31.60314
11
-14.87951
21
-0.30291
31
-35.35430
12
-16.00671
22
-3.51025
32
-31.60748
13
-16.00671
23
-3.51025
33
-31.60748
0
3DFACE
8
Corps0
62
7
10
-14.61761
20
-3.23968
30
-35.35821
11
-16.00671
21
-3.51025
31
-31.60748
12
-14.87951
22
-0.30291
32
-35.35430
13
-14.87951
23
-0.30291
33
-35.35430
0
3DFACE
8
Corps0
62
7
10
-16.00671
20
-3.51025
30
-31.60748
11
-14.61761
21
-3.23968
31
-35.35821
12
-15.08959
22
-6.53002
32
-31.62091
13
-15.08959
23
-6.53002
33
-31.62091
0
3DFACE
8
Corps0
62
7
10
-13.78344
20
-5.98638
30
-35.37048
11
-15.08959
21
-6.53002
31
-31.62091
12
-14.61761
22
-3.23968
32
-35.35821
13
-14.61761
23
-3.23968
33
-35.35821
0
3DFACE
8
Corps0
62
7
10
-15.88250
20
-6.87561
30
-27.42053
11
-15.08959
21
-6.53002
31
-31.62091
12
-14.31658
22
-9.77764
32
-27.44348
13
-14.31658
23
-9.77764
33
-27.44348
0
3DFACE
8
Corps0
62
7
10
-13.60870
20
-9.27429
30
-31.64263
11
-14.31658
21
-9.77764
31
-27.44348
12
-15.08959
22
-6.53002
32
-31.62091
13
-15.08959
23
-6.53002
33
-31.62091
0
3DFACE
8
Corps0
62
7
10
-14.31658
20
-9.77764
30
-27.44348
11
-13.60870
21
-9.27429
31
-31.64263
12
-12.22375
22
-12.31854
32
-27.47412
13
-12.22375
23
-12.31854
33
-27.47412
0
3DFACE
8
Corps0
62
7
10
-11.62957
20
-11.67712
30
-31.67156
11
-12.22375
21
-12.31854
31
-27.47412
12
-13.60870
22
-9.27429
32
-31.64263
13
-13.60870
23
-9.27429
33
-31.64263
0
3DFACE
8
Corps0
62
7
10
-15.08959
20
-6.53002
30
-31.62091
11
-13.78344
21
-5.98638
31
-35.37048
12
-13.60870
22
-9.27429
32
-31.64263
13
-13.60870
23
-9.27429
33
-31.64263
0
3DFACE
8
Corps0
62
7
10
-12.43646
20
-8.48242
30
-35.39013
11
-13.60870
21
-9.27429
31
-31.64263
12
-13.78344
22
-5.98638
32
-35.37048
13
-13.78344
23
-5.98638
33
-35.37048
0
3DFACE
8
Corps0
62
7
10
-13.60870
20
-9.27429
30
-31.64263
11
-12.43646
21
-8.48242
31
-35.39013
12
-11.62957
22
-11.67712
32
-31.67156
13
-11.62957
23
-11.67712
33
-31.67156
0
3DFACE
8
Corps0
62
7
10
-10.63629
20
-10.66802
30
-35.41650
11
-11.62957
21
-11.67712
31
-31.67156
12
-12.43646
22
-8.48242
32
-35.39013
13
-12.43646
23
-8.48242
33
-35.39013
0
3DFACE
8
Corps0
62
7
10
-12.31542
20
-12.58178
30
-18.31567
11
-12.26953
21
-12.45007
31
-22.89477
12
-9.70800
22
-14.73834
32
-18.35375
13
-9.70800
23
-14.73834
33
-18.35375
0
3DFACE
8
Corps0
62
7
10
-9.75598
20
-14.70648
30
-22.97790
11
-9.70800
21
-14.73834
31
-18.35375
12
-12.26953
22
-12.45007
32
-22.89477
13
-12.26953
23
-12.45007
33
-22.89477
0
3DFACE
8
Corps0
62
7
10
-9.70800
20
-14.73834
30
-18.35375
11
-9.75598
21
-14.70648
31
-22.97790
12
-6.70336
22
-16.38281
32
-18.39770
13
-6.70336
23
-16.38281
33
-18.39770
0
3DFACE
8
Corps0
62
7
10
-6.79516
20
-16.40368
30
-23.04510
11
-6.70336
21
-16.38281
31
-18.39770
12
-9.75598
22
-14.70648
32
-22.97790
13
-9.75598
23
-14.70648
33
-22.97790
0
3DFACE
8
Corps0
62
7
10
-12.26953
20
-12.45007
30
-22.89477
11
-12.22375
21
-12.31854
31
-27.47412
12
-9.75598
22
-14.70648
32
-22.97790
13
-9.75598
23
-14.70648
33
-22.97790
0
3DFACE
8
Corps0
62
7
10
-9.67297
20
-14.42822
30
-27.51135
11
-9.75598
21
-14.70648
31
-22.97790
12
-12.22375
22
-12.31854
32
-27.47412
13
-12.22375
23
-12.31854
33
-27.47412
0
3DFACE
8
Corps0
62
7
10
-9.75598
20
-14.70648
30
-22.97790
11
-9.67297
21
-14.42822
31
-27.51135
12
-6.79516
22
-16.40368
32
-23.04510
13
-6.79516
23
-16.40368
33
-23.04510
0
3DFACE
8
Corps0
62
7
10
-6.73364
20
-16.03692
30
-27.55438
11
-6.79516
21
-16.40368
31
-23.04510
12
-9.67297
22
-14.42822
32
-27.51135
13
-9.67297
23
-14.42822
33
-27.51135
0
3DFACE
8
Corps0
62
7
10
-6.70336
20
-16.38281
30
-18.39770
11
-6.79516
21
-16.40368
31
-23.04510
12
-3.37213
22
-17.44348
32
-18.44635
13
-3.37213
23
-17.44348
33
-18.44635
0
3DFACE
8
Corps0
62
7
10
-3.47424
20
-17.48504
30
-23.10235
11
-3.37213
21
-17.44348
31
-18.44635
12
-6.79516
22
-16.40368
32
-23.04510
13
-6.79516
23
-16.40368
33
-23.04510
0
3DFACE
8
Corps0
62
7
10
-3.37213
20
-17.44348
30
-18.44635
11
-3.47424
21
-17.48504
31
-23.10235
12
0.21490
22
-17.84893
32
-18.49890
13
0.21490
23
-17.84893
33
-18.49890
0
3DFACE
8
Corps0
62
7
10
0.11962
20
-17.89410
30
-23.15625
11
0.21490
21
-17.84893
31
-18.49890
12
-3.47424
22
-17.48504
32
-23.10235
13
-3.47424
23
-17.48504
33
-23.10235
0
3DFACE
8
Corps0
62
7
10
-6.79516
20
-16.40368
30
-23.04510
11
-6.73364
21
-16.03692
31
-27.55438
12
-3.47424
22
-17.48504
32
-23.10235
13
-3.47424
23
-17.48504
33
-23.10235
0
3DFACE
8
Corps0
62
7
10
-3.47479
20
-17.07452
30
-27.60192
11
-3.47424
21
-17.48504
31
-23.10235
12
-6.73364
22
-16.03692
32
-27.55438
13
-6.73364
23
-16.03692
33
-27.55438
0
3DFACE
8
Corps0
62
7
10
-3.47424
20
-17.48504
30
-23.10235
11
-3.47479
21
-17.07452
31
-27.60192
12
0.11962
22
-17.89410
32
-23.15625
13
0.11962
23
-17.89410
33
-23.15625
0
3DFACE
8
Corps0
62
7
10
0.03430
20
-17.47125
30
-27.65338
11
0.11962
21
-17.89410
31
-23.15625
12
-3.47479
22
-17.07452
32
-27.60192
13
-3.47479
23
-17.07452
33
-27.60192
0
3DFACE
8
Corps0
62
7
10
-12.22375
20
-12.31854
30
-27.47412
11
-11.62957
21
-11.67712
31
-31.67156
12
-9.67297
22
-14.42822
32
-27.51135
13
-9.67297
23
-14.42822
33
-27.51135
0
3DFACE
8
Corps0
62
7
10
-9.21734
20
-13.67224
30
-31.70684
11
-9.67297
21
-14.42822
31
-27.51135
12
-11.62957
22
-11.67712
32
-31.67156
13
-11.62957
23
-11.67712
33
-31.67156
0
3DFACE
8
Corps0
62
7
10
-9.67297
20
-14.42822
30
-27.51135
11
-9.21734
21
-13.67224
31
-31.70684
12
-6.73364
22
-16.03692
32
-27.55438
13
-6.73364
23
-16.03692
33
-27.55438
0
3DFACE
8
Corps0
62
7
10
-6.43774
20
-15.19354
30
-31.74743
11
-6.73364
21
-16.03692
31
-27.55438
12
-9.21734
22
-13.67224
32
-31.70684
13
-9.21734
23
-13.67224
33
-31.70684
0
3DFACE
8
Corps0
62
7
10
-11.62957
20
-11.67712
30
-31.67156
11
-10.63629
21
-10.66802
31
-35.41650
12
-9.21734
22
-13.67224
32
-31.70684
13
-9.21734
23
-13.67224
33
-31.70684
0
3DFACE
8
Corps0
62
7
10
-8.44226
20
-12.48266
30
-35.44854
11
-9.21734
21
-13.67224
31
-31.70684
12
-10.63629
22
-10.66802
32
-35.41650
13
-10.63629
23
-10.66802
33
-35.41650
0
3DFACE
8
Corps0
62
7
10
-9.21734
20
-13.67224
30
-31.70684
11
-8.44226
21
-12.48266
31
-35.44854
12
-6.43774
22
-15.19354
32
-31.74743
13
-6.43774
23
-15.19354
33
-31.74743
0
3DFACE
8
Corps0
62
7
10
-5.91394
20
-13.86645
30
-35.48547
11
-6.43774
21
-15.19354
31
-31.74743
12
-8.44226
22
-12.48266
32
-35.44854
13
-8.44226
23
-12.48266
33
-35.44854
0
3DFACE
8
Corps0
62
7
10
-6.73364
20
-16.03692
30
-27.55438
11
-6.43774
21
-15.19354
31
-31.74743
12
-3.47479
22
-17.07452
32
-27.60192
13
-3.47479
23
-17.07452
33
-27.60192
0
3DFACE
8
Corps0
62
7
10
-3.35589
20
-16.17480
30
-31.79241
11
-3.47479
21
-17.07452
31
-27.60192
12
-6.43774
22
-15.19354
32
-31.74743
13
-6.43774
23
-15.19354
33
-31.74743
0
3DFACE
8
Corps0
62
7
10
-3.47479
20
-17.07452
30
-27.60192
11
-3.35589
21
-16.17480
31
-31.79241
12
0.03430
22
-17.47125
32
-27.65338
13
0.03430
23
-17.47125
33
-27.65338
0
3DFACE
8
Corps0
62
7
10
-0.03747
20
-16.54992
30
-31.84106
11
0.03430
21
-17.47125
31
-27.65338
12
-3.35589
22
-16.17480
32
-31.79241
13
-3.35589
23
-16.17480
33
-31.79241
0
3DFACE
8
Corps0
62
7
10
-6.43774
20
-15.19354
30
-31.74743
11
-5.91394
21
-13.86645
31
-35.48547
12
-3.35589
22
-16.17480
32
-31.79241
13
-3.35589
23
-16.17480
33
-31.79241
0
3DFACE
8
Corps0
62
7
10
-3.11083
20
-14.75897
30
-35.52642
11
-3.35589
21
-16.17480
31
-31.79241
12
-5.91394
22
-13.86645
32
-35.48547
13
-5.91394
23
-13.86645
33
-35.48547
0
3DFACE
8
Corps0
62
7
10
-3.35589
20
-16.17480
30
-31.79241
11
-3.11083
21
-14.75897
31
-35.52642
12
-0.03747
22
-16.54992
32
-31.84106
13
-0.03747
23
-16.54992
33
-31.84106
0
3DFACE
8
Corps0
62
7
10
-0.09240
20
-15.10021
30
-35.57067
11
-0.03747
21
-16.54992
31
-31.84106
12
-3.11083
22
-14.75897
32
-35.52642
13
-3.11083
23
-14.75897
33
-35.52642
0
3DFACE
8
Corps0
62
7
10
-14.87951
20
-0.30291
30
-35.35430
11
-12.87701
21
-0.33264
31
-38.50616
12
-14.61761
22
-3.23968
32
-35.35821
13
-14.61761
23
-3.23968
33
-35.35821
0
3DFACE
8
Corps0
62
7
10
-12.65112
20
-2.86492
30
-38.50952
11
-14.61761
21
-3.23968
31
-35.35821
12
-12.87701
22
-0.33264
32
-38.50616
13
-12.87701
23
-0.33264
33
-38.50616
0
3DFACE
8
Corps0
62
7
10
-12.87701
20
-0.33264
30
-38.50616
11
-10.25341
21
-0.37139
31
-40.91052
12
-12.65112
22
-2.86492
32
-38.50952
13
-12.65112
23
-2.86492
33
-38.50952
0
3DFACE
8
Corps0
62
7
10
-10.07421
20
-2.38043
30
-40.91314
11
-12.65112
21
-2.86492
31
-38.50952
12
-10.25341
22
-0.37139
32
-40.91052
13
-10.25341
23
-0.37139
33
-40.91052
0
3DFACE
8
Corps0
62
7
10
-14.61761
20
-3.23968
30
-35.35821
11
-12.65112
21
-2.86492
31
-38.50952
12
-13.78344
22
-5.98638
32
-35.37048
13
-13.78344
23
-5.98638
33
-35.37048
0
3DFACE
8
Corps0
62
7
10
-11.93188
20
-5.23315
30
-38.52008
11
-13.78344
21
-5.98638
31
-35.37048
12
-12.65112
22
-2.86492
32
-38.50952
13
-12.65112
23
-2.86492
33
-38.50952
0
3DFACE
8
Corps0
62
7
10
-12.65112
20
-2.86492
30
-38.50952
11
-10.07421
21
-2.38043
31
-40.91314
12
-11.93188
22
-5.23315
32
-38.52008
13
-11.93188
23
-5.23315
33
-38.52008
0
3DFACE
8
Corps0
62
7
10
-9.50354
20
-4.25939
30
-40.92156
11
-11.93188
21
-5.23315
31
-38.52008
12
-10.07421
22
-2.38043
32
-40.91314
13
-10.07421
23
-2.38043
33
-40.91314
0
3DFACE
8
Corps0
62
7
10
-13.78344
20
-5.98638
30
-35.37048
11
-11.93188
21
-5.23315
31
-38.52008
12
-12.43646
22
-8.48242
32
-35.39013
13
-12.43646
23
-8.48242
33
-35.39013
0
3DFACE
8
Corps0
62
7
10
-10.57501
20
-7.25146
30
-38.53997
11
-12.43646
21
-8.48242
31
-35.39013
12
-11.93188
22
-5.23315
32
-38.52008
13
-11.93188
23
-5.23315
33
-38.52008
0
3DFACE
8
Corps0
62
7
10
-12.43646
20
-8.48242
30
-35.39013
11
-10.57501
21
-7.25146
31
-38.53997
12
-10.63629
22
-10.66802
32
-35.41650
13
-10.63629
23
-10.66802
33
-35.41650
0
3DFACE
8
Corps0
62
7
10
-9.21826
20
-9.26995
30
-38.55981
11
-10.63629
21
-10.66802
31
-35.41650
12
-10.57501
22
-7.25146
32
-38.53997
13
-10.57501
23
-7.25146
33
-38.53997
0
3DFACE
8
Corps0
62
7
10
-11.93188
20
-5.23315
30
-38.52008
11
-9.50354
21
-4.25939
31
-40.92156
12
-9.21826
22
-9.26995
32
-38.55981
13
-9.21826
23
-9.26995
33
-38.55981
0
3DFACE
8
Corps0
62
7
10
-7.35058
20
-7.46221
30
-40.95300
11
-9.21826
21
-9.26995
31
-38.55981
12
-9.50354
22
-4.25939
32
-40.92156
13
-9.50354
23
-4.25939
33
-40.92156
0
3DFACE
8
Corps0
62
7
10
-10.25341
20
-0.37139
30
-40.91052
11
-6.97448
21
-0.41943
31
-42.41870
12
-10.07421
22
-2.38043
32
-40.91314
13
-10.07421
23
-2.38043
33
-40.91314
0
3DFACE
8
Corps0
62
7
10
-6.72039
20
-1.73651
30
-42.42242
11
-10.07421
21
-2.38043
31
-40.91314
12
-6.97448
22
-0.41943
32
-42.41870
13
-6.97448
23
-0.41943
33
-42.41870
0
3DFACE
8
Corps0
62
7
10
-10.07421
20
-2.38043
30
-40.91314
11
-6.72039
21
-1.73651
31
-42.42242
12
-9.50354
22
-4.25939
32
-40.92156
13
-9.50354
23
-4.25939
33
-40.92156
0
3DFACE
8
Corps0
62
7
10
-6.46636
20
-3.05364
30
-42.42614
11
-9.50354
21
-4.25939
31
-40.92156
12
-6.72039
22
-1.73651
32
-42.42242
13
-6.72039
23
-1.73651
33
-42.42242
0
3DFACE
8
Corps0
62
7
10
-9.50354
20
-4.25939
30
-40.92156
11
-6.46636
21
-3.05364
31
-42.42614
12
-7.35058
22
-7.46221
32
-40.95300
13
-7.35058
23
-7.46221
33
-40.95300
0
3DFACE
8
Corps0
62
7
10
-5.00769
20
-5.22363
30
-42.44750
11
-7.35058
21
-7.46221
31
-40.95300
12
-6.46636
22
-3.05364
32
-42.42614
13
-6.46636
23
-3.05364
33
-42.42614
0
3DFACE
8
Corps0
62
7
10
-6.97448
20
-0.41943
30
-42.41870
11
-3.00628
21
-0.47741
31
-42.88208
12
-6.46636
22
-3.05364
32
-42.42614
13
-6.46636
23
-3.05364
33
-42.42614
0
3DFACE
8
Corps0
62
7
10
-2.78875
20
-1.60473
30
-42.88525
11
-6.46636
21
-3.05364
31
-42.42614
12
-3.00628
22
-0.47741
32
-42.88208
13
-3.00628
23
-0.47741
33
-42.88208
0
3DFACE
8
Corps0
62
7
10
-6.46636
20
-3.05364
30
-42.42614
11
-2.78875
21
-1.60473
31
-42.88525
12
-5.00769
22
-5.22363
32
-42.44750
13
-5.00769
23
-5.22363
33
-42.44750
0
3DFACE
8
Corps0
62
7
10
-2.16455
20
-2.53338
30
-42.89434
11
-5.00769
21
-5.22363
31
-42.44750
12
-2.78875
22
-1.60473
32
-42.88525
13
-2.78875
23
-1.60473
33
-42.88525
0
3DFACE
8
Corps0
62
7
10
-10.63629
20
-10.66802
30
-35.41650
11
-9.21826
21
-9.26995
31
-38.55981
12
-8.44226
22
-12.48266
32
-35.44854
13
-8.44226
23
-12.48266
33
-35.44854
0
3DFACE
8
Corps0
62
7
10
-7.18231
20
-10.64886
30
-38.58953
11
-8.44226
21
-12.48266
31
-35.44854
12
-9.21826
22
-9.26995
32
-38.55981
13
-9.21826
23
-9.26995
33
-38.55981
0
3DFACE
8
Corps0
62
7
10
-8.44226
20
-12.48266
30
-35.44854
11
-7.18231
21
-10.64886
31
-38.58953
12
-5.91394
22
-13.86645
32
-35.48547
13
-5.91394
23
-13.86645
33
-35.48547
0
3DFACE
8
Corps0
62
7
10
-5.14642
20
-12.02783
30
-38.61932
11
-5.91394
21
-13.86645
31
-35.48547
12
-7.18231
22
-10.64886
32
-38.58953
13
-7.18231
23
-10.64886
33
-38.58953
0
3DFACE
8
Corps0
62
7
10
-9.21826
20
-9.26995
30
-38.55981
11
-7.35058
21
-7.46221
31
-40.95300
12
-5.14642
22
-12.02783
32
-38.61932
13
-5.14642
23
-12.02783
33
-38.61932
0
3DFACE
8
Corps0
62
7
10
-4.11993
20
-9.65026
30
-41.00024
11
-5.14642
21
-12.02783
31
-38.61932
12
-7.35058
22
-7.46221
32
-40.95300
13
-7.35058
23
-7.46221
33
-40.95300
0
3DFACE
8
Corps0
62
7
10
-5.91394
20
-13.86645
30
-35.48547
11
-5.14642
21
-12.02783
31
-38.61932
12
-3.11083
22
-14.75897
32
-35.52642
13
-3.11083
23
-14.75897
33
-35.52642
0
3DFACE
8
Corps0
62
7
10
-2.72015
20
-12.77392
30
-38.65472
11
-3.11083
21
-14.75897
31
-35.52642
12
-5.14642
22
-12.02783
32
-38.61932
13
-5.14642
23
-12.02783
33
-38.61932
0
3DFACE
8
Corps0
62
7
10
-5.14642
20
-12.02783
30
-38.61932
11
-4.11993
21
-9.65026
31
-41.00024
12
-2.72015
22
-12.77392
32
-38.65472
13
-2.72015
23
-12.77392
33
-38.65472
0
3DFACE
8
Corps0
62
7
10
-2.12860
20
-10.07220
30
-41.02929
11
-2.72015
21
-12.77392
31
-38.65472
12
-4.11993
22
-9.65026
32
-41.00024
13
-4.11993
23
-9.65026
33
-41.00024
0
3DFACE
8
Corps0
62
7
10
-3.11083
20
-14.75897
30
-35.52642
11
-2.72015
21
-12.77392
31
-38.65472
12
-0.09240
22
-15.10021
32
-35.57067
13
-0.09240
23
-15.10021
33
-35.57067
0
3DFACE
8
Corps0
62
7
10
-0.12677
20
-13.09167
30
-38.69268
11
-0.09240
21
-15.10021
31
-35.57067
12
-2.72015
22
-12.77392
32
-38.65472
13
-2.72015
23
-12.77392
33
-38.65472
0
3DFACE
8
Corps0
62
7
10
-2.72015
20
-12.77392
30
-38.65472
11
-2.12860
21
-10.07220
31
-41.02929
12
-0.12677
22
-13.09167
32
-38.69268
13
-0.12677
23
-13.09167
33
-38.69268
0
3DFACE
8
Corps0
62
7
10
-0.13739
20
-10.49432
30
-41.05853
11
-0.12677
21
-13.09167
31
-38.69268
12
-2.12860
22
-10.07220
32
-41.02929
13
-2.12860
23
-10.07220
33
-41.02929
0
3DFACE
8
Corps0
62
7
10
-7.35058
20
-7.46221
30
-40.95300
11
-5.00769
21
-5.22363
31
-42.44750
12
-4.11993
22
-9.65026
32
-41.00024
13
-4.11993
23
-9.65026
33
-41.00024
0
3DFACE
8
Corps0
62
7
10
-2.81878
20
-6.70611
30
-42.47949
11
-4.11993
21
-9.65026
31
-41.00024
12
-5.00769
22
-5.22363
32
-42.44750
13
-5.00769
23
-5.22363
33
-42.44750
0
3DFACE
8
Corps0
62
7
10
-5.00769
20
-5.22363
30
-42.44750
11
-2.16455
21
-2.53338
31
-42.89434
12
-2.81878
22
-6.70611
32
-42.47949
13
-2.81878
23
-6.70611
33
-42.47949
0
3DFACE
8
Corps0
62
7
10
-1.22766
20
-3.16790
30
-42.90808
11
-2.81878
21
-6.70611
31
-42.47949
12
-2.16455
22
-2.53338
32
-42.89434
13
-2.16455
23
-2.53338
33
-42.89434
0
3DFACE
8
Corps0
62
7
10
-4.11993
20
-9.65026
30
-41.00024
11
-2.81878
21
-6.70611
31
-42.47949
12
-0.13739
22
-10.49432
32
-41.05853
13
-0.13739
23
-10.49432
33
-41.05853
0
3DFACE
8
Corps0
62
7
10
-0.12048
20
-7.27807
30
-42.51885
11
-0.13739
21
-10.49432
31
-41.05853
12
-2.81878
22
-6.70611
32
-42.47949
13
-2.81878
23
-6.70611
33
-42.47949
0
3DFACE
8
Corps0
62
7
10
-2.81878
20
-6.70611
30
-42.47949
11
-1.22766
21
-3.16790
31
-42.90808
12
-0.12048
22
-7.27807
32
-42.51885
13
-0.12048
23
-7.27807
33
-42.51885
0
3DFACE
8
Corps0
62
7
10
-0.07293
20
-3.41259
30
-42.92492
11
-0.12048
21
-7.27807
31
-42.51885
12
-1.22766
22
-3.16790
32
-42.90808
13
-1.22766
23
-3.16790
33
-42.90808
0
3DFACE
8
Corps0
62
7
10
-2.85321
20
-0.47137
30
6.70318
11
-2.53076
21
0.97387
31
6.69848
12
-2.57312
22
-1.92352
32
6.69903
13
-2.57312
23
-1.92352
33
6.69903
0
3DFACE
8
Corps0
62
7
10
-1.46484
20
-0.55682
30
6.68286
11
-2.57312
21
-1.92352
31
6.69903
12
-2.53076
22
0.97387
32
6.69848
13
-2.53076
23
0.97387
33
6.69848
0
3DFACE
8
Corps0
62
7
10
-2.53076
20
0.97387
30
6.69848
11
-1.69213
21
2.14581
31
6.68627
12
-1.46484
22
-0.55682
32
6.68286
13
-1.46484
23
-0.55682
33
6.68286
0
3DFACE
8
Corps0
62
7
10
-0.35662
20
0.80969
30
6.66674
11
-1.46484
21
-0.55682
31
6.68286
12
-1.69213
22
2.14581
32
6.68627
13
-1.69213
23
2.14581
33
6.68627
0
3DFACE
8
Corps0
62
7
10
-2.57312
20
-1.92352
30
6.69903
11
-0.35662
21
0.80969
31
6.66674
12
-1.76910
22
-3.11962
32
6.68719
13
-1.76910
23
-3.11962
33
6.68719
0
3DFACE
8
Corps0
62
7
10
0.97863
20
-0.52648
30
6.64721
11
-1.76910
21
-3.11962
31
6.68719
12
-0.35662
22
0.80969
32
6.66674
13
-0.35662
23
0.80969
33
6.66674
0
3DFACE
8
Corps0
62
7
10
-1.69213
20
2.14581
30
6.68627
11
-0.46221
21
2.92633
31
6.66833
12
0.97863
22
-0.52648
32
6.64721
13
0.97863
23
-0.52648
33
6.64721
0
3DFACE
8
Corps0
62
7
10
2.35247
20
0.77008
30
6.62725
11
0.97863
21
-0.52648
31
6.64721
12
-0.46221
22
2.92633
32
6.66833
13
-0.46221
23
2.92633
33
6.66833
0
3DFACE
8
Corps0
62
7
10
-0.46221
20
2.92633
30
6.66833
11
1.03363
21
3.19720
31
6.64648
12
0.94512
22
1.84820
32
6.64776
13
0.94512
23
1.84820
33
6.64776
0
3DFACE
8
Corps0
62
7
10
2.51953
20
2.88269
30
6.62481
11
0.94512
21
1.84820
31
6.64776
12
1.03363
22
3.19720
32
6.64648
13
1.03363
23
3.19720
33
6.64648
0
3DFACE
8
Corps0
62
7
10
0.94512
20
1.84820
30
6.64776
11
2.51953
21
2.88269
31
6.62481
12
2.35247
22
0.77008
32
6.62725
13
2.35247
23
0.77008
33
6.62725
0
3DFACE
8
Corps0
62
7
10
3.72619
20
2.06658
30
6.60723
11
2.35247
21
0.77008
31
6.62725
12
2.51953
22
2.88269
32
6.62481
13
2.51953
23
2.88269
33
6.62481
0
3DFACE
8
Corps0
62
7
10
-1.76910
20
-3.11962
30
6.68719
11
0.97863
21
-0.52648
31
6.64721
12
-0.56256
22
-3.93670
32
6.66961
13
-0.56256
23
-3.93670
33
6.66961
0
3DFACE
8
Corps0
62
7
10
2.31396
20
-1.86267
30
6.62768
11
-0.56256
21
-3.93670
31
6.66961
12
0.97863
22
-0.52648
32
6.64721
13
0.97863
23
-0.52648
33
6.64721
0
3DFACE
8
Corps0
62
7
10
-0.56256
20
-3.93670
30
6.66961
11
0.87573
21
-2.89965
31
6.64868
12
0.92468
22
-4.25201
32
6.64788
13
0.92468
23
-4.25201
33
6.64788
0
3DFACE
8
Corps0
62
7
10
2.41918
20
-3.98034
30
6.62609
11
0.92468
21
-4.25201
31
6.64788
12
0.87573
22
-2.89965
32
6.64868
13
0.87573
23
-2.89965
33
6.64868
0
3DFACE
8
Corps0
62
7
10
0.87573
20
-2.89965
30
6.64868
11
2.31396
21
-1.86267
31
6.62768
12
2.41918
22
-3.98034
32
6.62609
13
2.41918
23
-3.98034
33
6.62609
0
3DFACE
8
Corps0
62
7
10
3.64923
20
-3.19885
30
6.60815
11
2.41918
21
-3.98034
31
6.62609
12
2.31396
22
-1.86267
32
6.62768
13
2.31396
23
-1.86267
33
6.62768
0
3DFACE
8
Corps0
62
7
10
0.97863
20
-0.52648
30
6.64721
11
3.72619
21
2.06658
31
6.60723
12
2.31396
22
-1.86267
32
6.62768
13
2.31396
23
-1.86267
33
6.62768
0
3DFACE
8
Corps0
62
7
10
4.53143
20
0.87066
30
6.59539
11
2.31396
21
-1.86267
31
6.62768
12
3.72619
22
2.06658
32
6.60723
13
3.72619
23
2.06658
33
6.60723
0
3DFACE
8
Corps0
62
7
10
2.31396
20
-1.86267
30
6.62768
11
3.42272
21
-0.49597
31
6.61157
12
3.64923
22
-3.19885
32
6.60815
13
3.64923
23
-3.19885
33
6.60815
0
3DFACE
8
Corps0
62
7
10
4.48907
20
-2.02673
30
6.59594
11
3.64923
21
-3.19885
31
6.60815
12
3.42272
22
-0.49597
32
6.61157
13
3.42272
23
-0.49597
33
6.61157
0
3DFACE
8
Corps0
62
7
10
3.42272
20
-0.49597
30
6.61157
11
4.53143
21
0.87066
31
6.59539
12
4.48907
22
-2.02673
32
6.59594
13
4.48907
23
-2.02673
33
6.59594
0
3DFACE
8
Corps0
62
7
10
4.81188
20
-0.58343
30
6.59130
11
4.48907
21
-2.02673
31
6.59594
12
4.53143
22
0.87066
32
6.59539
13
4.53143
23
0.87066
33
6.59539
0
3DFACE
8
Corps0
62
7
10
-3.00628
20
-0.47741
30
-42.88208
11
-2.75592
21
0.64489
31
-42.88568
12
-2.78875
22
-1.60473
32
-42.88525
13
-2.78875
23
-1.60473
33
-42.88525
0
3DFACE
8
Corps0
62
7
10
-1.92822
20
-0.54364
30
-42.89776
11
-2.78875
21
-1.60473
31
-42.88525
12
-2.75592
22
0.64489
32
-42.88568
13
-2.75592
23
0.64489
33
-42.88568
0
3DFACE
8
Corps0
62
7
10
-2.75592
20
0.64489
30
-42.88568
11
-2.10473
21
1.55474
31
-42.89514
12
-1.92822
22
-0.54364
32
-42.89776
13
-1.92822
23
-0.54364
33
-42.89776
0
3DFACE
8
Corps0
62
7
10
-1.06774
20
0.51739
30
-42.91033
11
-1.92822
21
-0.54364
31
-42.89776
12
-2.10473
22
1.55474
32
-42.89514
13
-2.10473
23
1.55474
33
-42.89514
0
3DFACE
8
Corps0
62
7
10
-2.78875
20
-1.60473
30
-42.88525
11
-1.06774
21
0.51739
31
-42.91033
12
-2.16455
22
-2.53338
32
-42.89434
13
-2.16455
23
-2.53338
33
-42.89434
0
3DFACE
8
Corps0
62
7
10
-0.03100
20
-0.52001
30
-42.92547
11
-2.16455
21
-2.53338
31
-42.89434
12
-1.06774
22
0.51739
32
-42.91033
13
-1.06774
23
0.51739
33
-42.91033
0
3DFACE
8
Corps0
62
7
10
-2.10473
20
1.55474
30
-42.89514
11
-1.14978
21
2.16076
31
-42.90899
12
-0.03100
22
-0.52001
32
-42.92547
13
-0.03100
23
-0.52001
33
-42.92547
0
3DFACE
8
Corps0
62
7
10
1.03564
20
0.48663
30
-42.94097
11
-0.03100
21
-0.52001
31
-42.92547
12
-1.14978
22
2.16076
32
-42.90899
13
-1.14978
23
2.16076
33
-42.90899
0
3DFACE
8
Corps0
62
7
10
-1.14978
20
2.16076
30
-42.90899
11
0.01159
21
2.37109
31
-42.92596
12
-0.05700
22
1.32373
32
-42.92498
13
-0.05700
23
1.32373
33
-42.92498
0
3DFACE
8
Corps0
62
7
10
1.16528
20
2.12695
30
-42.94281
11
-0.05700
21
1.32373
31
-42.92498
12
0.01159
22
2.37109
32
-42.92596
13
0.01159
23
2.37109
33
-42.92596
0
3DFACE
8
Corps0
62
7
10
-0.05700
20
1.32373
30
-42.92498
11
1.16528
21
2.12695
31
-42.94281
12
1.03564
22
0.48663
32
-42.94097
13
1.03564
23
0.48663
33
-42.94097
0
3DFACE
8
Corps0
62
7
10
2.10235
20
1.49322
30
-42.95654
11
1.03564
21
0.48663
31
-42.94097
12
1.16528
22
2.12695
32
-42.94281
13
1.16528
23
2.12695
33
-42.94281
0
3DFACE
8
Corps0
62
7
10
-2.16455
20
-2.53338
30
-42.89434
11
-0.03100
21
-0.52001
31
-42.92547
12
-1.22766
22
-3.16790
32
-42.90808
13
-1.22766
23
-3.16790
33
-42.90808
0
3DFACE
8
Corps0
62
7
10
1.00573
20
-1.55737
30
-42.94055
11
-1.22766
21
-3.16790
31
-42.90808
12
-0.03100
22
-0.52001
32
-42.92547
13
-0.03100
23
-0.52001
33
-42.92547
0
3DFACE
8
Corps0
62
7
10
-1.22766
20
-3.16790
30
-42.90808
11
-0.11090
21
-2.36248
31
-42.92431
12
-0.07293
22
-3.41259
32
-42.92492
13
-0.07293
23
-3.41259
33
-42.92492
0
3DFACE
8
Corps0
62
7
10
1.08740
20
-3.20172
30
-42.94189
11
-0.07293
21
-3.41259
31
-42.92492
12
-0.11090
22
-2.36248
32
-42.92431
13
-0.11090
23
-2.36248
33
-42.92431
0
3DFACE
8
Corps0
62
7
10
-0.11090
20
-2.36248
30
-42.92431
11
1.00573
21
-1.55737
31
-42.94055
12
1.08740
22
-3.20172
32
-42.94189
13
1.08740
23
-3.20172
33
-42.94189
0
3DFACE
8
Corps0
62
7
10
2.04254
20
-2.59490
30
-42.95574
11
1.08740
21
-3.20172
31
-42.94189
12
1.00573
22
-1.55737
32
-42.94055
13
1.00573
23
-1.55737
33
-42.94055
0
3DFACE
8
Corps0
62
7
10
-0.03100
20
-0.52001
30
-42.92547
11
2.10235
21
1.49322
31
-42.95654
12
1.00573
22
-1.55737
32
-42.94055
13
1.00573
23
-1.55737
33
-42.94055
0
3DFACE
8
Corps0
62
7
10
2.72741
20
0.56469
30
-42.96563
11
1.00573
21
-1.55737
31
-42.94055
12
2.10235
22
1.49322
32
-42.95654
13
2.10235
23
1.49322
33
-42.95654
0
3DFACE
8
Corps0
62
7
10
1.00573
20
-1.55737
30
-42.94055
11
1.86663
21
-0.49627
31
-42.95312
12
2.04254
22
-2.59490
32
-42.95574
13
2.04254
23
-2.59490
33
-42.95574
0
3DFACE
8
Corps0
62
7
10
2.69458
20
-1.68493
30
-42.96520
11
2.04254
21
-2.59490
31
-42.95574
12
1.86663
22
-0.49627
32
-42.95312
13
1.86663
23
-0.49627
33
-42.95312
0
3DFACE
8
Corps0
62
7
10
1.86663
20
-0.49627
30
-42.95312
11
2.72741
21
0.56469
31
-42.96563
12
2.69458
22
-1.68493
32
-42.96520
13
2.69458
23
-1.68493
33
-42.96520
0
3DFACE
8
Corps0
62
7
10
2.94531
20
-0.56445
30
-42.96887
11
2.69458
21
-1.68493
31
-42.96520
12
2.72741
22
0.56469
32
-42.96563
13
2.72741
23
0.56469
33
-42.96563
0
ENDSEC
0
EOF
