999
***** Fichier AutoCAD DXF créé parAmapi
0
SECTION
2
ENTITIES
0
POLYLINE
8
Form0
66
1
10
0.000000
20
0.000000
30
0.000000
70
64
71
856
72
904
0
VERTEX
8
Form0
10
0.000000
20
0.000000
30
-62.992126
70
192
0
VERTEX
8
Form0
10
-0.000001
20
0.000000
30
7.874015
70
192
0
VERTEX
8
Form0
10
13.665630
20
0.000000
30
-59.873035
70
192
0
VERTEX
8
Form0
10
24.624611
20
0.000000
30
-51.133537
70
192
0
VERTEX
8
Form0
10
30.706390
20
0.000000
30
-38.504597
70
192
0
VERTEX
8
Form0
10
30.706390
20
0.000000
30
-24.487530
70
192
0
VERTEX
8
Form0
10
24.624611
20
0.000000
30
-11.858589
70
192
0
VERTEX
8
Form0
10
13.665628
20
0.000000
30
4.754925
70
192
0
VERTEX
8
Form0
10
12.312305
20
-4.212845
30
-59.873035
70
192
0
VERTEX
8
Form0
10
22.186010
20
-7.591285
30
-51.133537
70
192
0
VERTEX
8
Form0
10
27.665504
20
-9.466178
30
-38.504597
70
192
0
VERTEX
8
Form0
10
27.665504
20
-9.466178
30
-24.487530
70
192
0
VERTEX
8
Form0
10
22.186010
20
-7.591285
30
-11.858589
70
192
0
VERTEX
8
Form0
10
12.312305
20
-5.929294
30
4.754925
70
192
0
VERTEX
8
Form0
10
8.520380
20
-7.591285
30
-59.873035
70
192
0
VERTEX
8
Form0
10
15.353195
20
-13.679023
30
-51.133537
70
192
0
VERTEX
8
Form0
10
19.145123
20
-17.057463
30
-38.504597
70
192
0
VERTEX
8
Form0
10
19.145123
20
-17.057463
30
-24.487530
70
192
0
VERTEX
8
Form0
10
15.353195
20
-13.679023
30
-11.858589
70
192
0
VERTEX
8
Form0
10
8.520380
20
-10.684218
30
4.754925
70
192
0
VERTEX
8
Form0
10
3.040888
20
-9.466178
30
-59.873035
70
192
0
VERTEX
8
Form0
10
5.479492
20
-17.057463
30
-51.133537
70
192
0
VERTEX
8
Form0
10
6.832815
20
-21.270308
30
-38.504597
70
192
0
VERTEX
8
Form0
10
6.832815
20
-21.270308
30
-24.487530
70
192
0
VERTEX
8
Form0
10
5.479492
20
-17.057463
30
-11.858589
70
192
0
VERTEX
8
Form0
10
3.040889
20
-13.323003
30
4.754925
70
192
0
VERTEX
8
Form0
10
-3.040889
20
-9.466178
30
-59.873035
70
192
0
VERTEX
8
Form0
10
-5.479492
20
-17.057463
30
-51.133537
70
192
0
VERTEX
8
Form0
10
-6.832814
20
-21.270308
30
-38.504597
70
192
0
VERTEX
8
Form0
10
-6.832814
20
-21.270308
30
-24.487530
70
192
0
VERTEX
8
Form0
10
-5.479492
20
-17.057463
30
-11.858589
70
192
0
VERTEX
8
Form0
10
-3.040888
20
-13.323003
30
4.754925
70
192
0
VERTEX
8
Form0
10
-8.520381
20
-7.591285
30
-59.873035
70
192
0
VERTEX
8
Form0
10
-15.353195
20
-13.679023
30
-51.133537
70
192
0
VERTEX
8
Form0
10
-19.145121
20
-17.057463
30
-38.504597
70
192
0
VERTEX
8
Form0
10
-19.145121
20
-17.057463
30
-24.487530
70
192
0
VERTEX
8
Form0
10
-15.353195
20
-13.679023
30
-11.858589
70
192
0
VERTEX
8
Form0
10
-8.520380
20
-10.684218
30
4.754925
70
192
0
VERTEX
8
Form0
10
-12.312307
20
-4.212845
30
-59.873035
70
192
0
VERTEX
8
Form0
10
-22.186010
20
-7.591285
30
-51.133537
70
192
0
VERTEX
8
Form0
10
-39.476524
20
-9.466178
30
-38.504597
70
192
0
VERTEX
8
Form0
10
-31.602509
20
-9.466178
30
-24.487530
70
192
0
VERTEX
8
Form0
10
-22.186010
20
-7.591285
30
-11.858589
70
192
0
VERTEX
8
Form0
10
-12.312305
20
-5.929294
30
4.754925
70
192
0
VERTEX
8
Form0
10
-13.665630
20
0.000000
30
-59.873035
70
192
0
VERTEX
8
Form0
10
-24.624613
20
0.000000
30
-51.133537
70
192
0
VERTEX
8
Form0
10
-46.454422
20
-0.000001
30
-38.504597
70
192
0
VERTEX
8
Form0
10
-38.580406
20
-0.000001
30
-24.487530
70
192
0
VERTEX
8
Form0
10
-24.624611
20
0.000000
30
-11.858589
70
192
0
VERTEX
8
Form0
10
-13.665628
20
0.000000
30
4.754925
70
192
0
VERTEX
8
Form0
10
-12.312307
20
4.212846
30
-59.873035
70
192
0
VERTEX
8
Form0
10
-22.186010
20
7.591285
30
-51.133537
70
192
0
VERTEX
8
Form0
10
-39.476528
20
9.466177
30
-38.504597
70
192
0
VERTEX
8
Form0
10
-31.602512
20
9.466177
30
-24.487530
70
192
0
VERTEX
8
Form0
10
-22.186010
20
7.591285
30
-11.858589
70
192
0
VERTEX
8
Form0
10
-12.312305
20
5.929294
30
4.754925
70
192
0
VERTEX
8
Form0
10
-8.520381
20
7.591286
30
-59.873035
70
192
0
VERTEX
8
Form0
10
-15.353195
20
13.679023
30
-51.133537
70
192
0
VERTEX
8
Form0
10
-19.145123
20
17.057463
30
-38.504597
70
192
0
VERTEX
8
Form0
10
-19.145123
20
17.057463
30
-24.487530
70
192
0
VERTEX
8
Form0
10
-15.353195
20
13.679023
30
-11.858589
70
192
0
VERTEX
8
Form0
10
-8.520380
20
10.684218
30
4.754925
70
192
0
VERTEX
8
Form0
10
-3.040889
20
9.466178
30
-59.873035
70
192
0
VERTEX
8
Form0
10
-5.479492
20
17.057463
30
-51.133537
70
192
0
VERTEX
8
Form0
10
-6.832816
20
21.270308
30
-38.504597
70
192
0
VERTEX
8
Form0
10
-6.832816
20
21.270308
30
-24.487530
70
192
0
VERTEX
8
Form0
10
-5.479492
20
17.057463
30
-11.858589
70
192
0
VERTEX
8
Form0
10
-3.040889
20
13.323003
30
4.754925
70
192
0
VERTEX
8
Form0
10
3.040890
20
9.466178
30
-59.873035
70
192
0
VERTEX
8
Form0
10
5.479492
20
17.057463
30
-51.133537
70
192
0
VERTEX
8
Form0
10
6.832814
20
21.270308
30
-38.504597
70
192
0
VERTEX
8
Form0
10
6.832814
20
21.270308
30
-24.487530
70
192
0
VERTEX
8
Form0
10
5.479492
20
17.057463
30
-11.858589
70
192
0
VERTEX
8
Form0
10
3.040888
20
13.323003
30
4.754925
70
192
0
VERTEX
8
Form0
10
8.520382
20
7.591286
30
-59.873035
70
192
0
VERTEX
8
Form0
10
15.353195
20
13.679023
30
-51.133537
70
192
0
VERTEX
8
Form0
10
19.145121
20
17.057463
30
-38.504597
70
192
0
VERTEX
8
Form0
10
19.145121
20
17.057463
30
-24.487530
70
192
0
VERTEX
8
Form0
10
15.353195
20
13.679023
30
-11.858589
70
192
0
VERTEX
8
Form0
10
8.520380
20
10.684218
30
4.754925
70
192
0
VERTEX
8
Form0
10
12.312309
20
4.212845
30
-59.873035
70
192
0
VERTEX
8
Form0
10
22.186010
20
7.591285
30
-51.133537
70
192
0
VERTEX
8
Form0
10
27.665501
20
9.466178
30
-38.504597
70
192
0
VERTEX
8
Form0
10
27.665501
20
9.466178
30
-24.487530
70
192
0
VERTEX
8
Form0
10
22.186010
20
7.591285
30
-11.858589
70
192
0
VERTEX
8
Form0
10
12.312305
20
5.929294
30
4.754925
70
192
0
VERTEX
8
Form0
10
-31.940308
20
-8.825562
30
-49.879227
70
192
0
VERTEX
8
Form0
10
-36.820068
20
-0.000000
30
-59.688347
70
192
0
VERTEX
8
Form0
10
-31.940310
20
8.825562
30
-49.879227
70
192
0
VERTEX
8
Form0
10
-23.958673
20
-3.966455
30
-51.133537
70
192
0
VERTEX
8
Form0
10
-23.958672
20
3.966455
30
-51.133537
70
192
0
VERTEX
8
Form0
10
-44.163727
20
-5.457714
30
-38.504597
70
192
0
VERTEX
8
Form0
10
-44.163734
20
5.457711
30
-38.504597
70
192
0
VERTEX
8
Form0
10
-35.255997
20
-4.860500
30
-57.933392
70
192
0
VERTEX
8
Form0
10
-35.255997
20
4.860499
30
-57.933392
70
192
0
VERTEX
8
Form0
10
4.555210
20
0.000000
30
-61.952431
70
192
0
VERTEX
8
Form0
10
9.110420
20
0.000000
30
-60.912727
70
192
0
VERTEX
8
Form0
10
17.745964
20
0.000000
30
-57.516872
70
192
0
VERTEX
8
Form0
10
21.419569
20
0.000000
30
-54.587276
70
192
0
VERTEX
8
Form0
10
27.278566
20
0.000000
30
-47.240322
70
192
0
VERTEX
8
Form0
10
29.317266
20
0.000000
30
-43.006924
70
192
0
VERTEX
8
Form0
10
31.408321
20
0.000000
30
-33.845421
70
192
0
VERTEX
8
Form0
10
31.408321
20
0.000000
30
-29.146702
70
192
0
VERTEX
8
Form0
10
29.174524
20
0.000000
30
-20.067270
70
192
0
VERTEX
8
Form0
10
26.993084
20
0.000000
30
-15.915945
70
192
0
VERTEX
8
Form0
10
21.583961
20
0.000000
30
-5.854906
70
192
0
VERTEX
8
Form0
10
18.292517
20
0.000000
30
-0.010682
70
192
0
VERTEX
8
Form0
10
9.110418
20
0.000000
30
5.794621
70
192
0
VERTEX
8
Form0
10
4.555208
20
0.000000
30
6.834318
70
192
0
VERTEX
8
Form0
10
4.104102
20
-1.404282
30
-61.952431
70
192
0
VERTEX
8
Form0
10
8.208204
20
-2.808564
30
-60.912727
70
192
0
VERTEX
8
Form0
10
16.013556
20
-5.479285
30
-57.500107
70
192
0
VERTEX
8
Form0
10
19.318039
20
-6.609964
30
-54.563057
70
192
0
VERTEX
8
Form0
10
24.592482
20
-8.414697
30
-47.219898
70
192
0
VERTEX
8
Form0
10
26.422609
20
-9.040902
30
-42.984783
70
192
0
VERTEX
8
Form0
10
28.301544
20
-9.683808
30
-33.844330
70
192
0
VERTEX
8
Form0
10
28.301544
20
-9.683809
30
-29.147795
70
192
0
VERTEX
8
Form0
10
26.291080
20
-8.950207
30
-20.090620
70
192
0
VERTEX
8
Form0
10
24.329428
20
-8.233306
30
-15.938781
70
192
0
VERTEX
8
Form0
10
19.461559
20
-7.259519
30
-5.890929
70
192
0
VERTEX
8
Form0
10
16.496767
20
-7.035576
30
-0.049546
70
192
0
VERTEX
8
Form0
10
8.208202
20
-3.952863
30
5.794621
70
192
0
VERTEX
8
Form0
10
4.104101
20
-1.976431
30
6.834318
70
192
0
VERTEX
8
Form0
10
2.840127
20
-2.530429
30
-61.952431
70
192
0
VERTEX
8
Form0
10
5.680254
20
-5.060857
30
-60.912727
70
192
0
VERTEX
8
Form0
10
11.132203
20
-9.918303
30
-57.455170
70
192
0
VERTEX
8
Form0
10
13.406420
20
-11.944530
30
-54.500694
70
192
0
VERTEX
8
Form0
10
17.045990
20
-15.187229
30
-47.169712
70
192
0
VERTEX
8
Form0
10
18.300337
20
-16.304798
30
-42.932461
70
192
0
VERTEX
8
Form0
10
19.591103
20
-17.454811
30
-33.841782
70
192
0
VERTEX
8
Form0
10
19.591103
20
-17.454811
30
-29.150339
70
192
0
VERTEX
8
Form0
10
18.203922
20
-16.133007
30
-20.145863
70
192
0
VERTEX
8
Form0
10
16.853163
20
-14.843654
30
-15.994814
70
192
0
VERTEX
8
Form0
10
13.495745
20
-13.097101
30
-5.983382
70
192
0
VERTEX
8
Form0
10
11.446924
20
-12.687265
30
-0.151252
70
192
0
VERTEX
8
Form0
10
5.680253
20
-7.122812
30
5.794621
70
192
0
VERTEX
8
Form0
10
2.840126
20
-3.561406
30
6.834318
70
192
0
VERTEX
8
Form0
10
1.013629
20
-3.155393
30
-61.952431
70
192
0
VERTEX
8
Form0
10
2.027259
20
-6.310786
30
-60.912727
70
192
0
VERTEX
8
Form0
10
3.994233
20
-12.433907
30
-57.408508
70
192
0
VERTEX
8
Form0
10
4.799610
20
-14.941013
30
-54.440056
70
192
0
VERTEX
8
Form0
10
6.093167
20
-18.967810
30
-47.124062
70
192
0
VERTEX
8
Form0
10
6.536551
20
-20.348049
30
-42.887363
70
192
0
VERTEX
8
Form0
10
6.993726
20
-21.771217
30
-33.839645
70
192
0
VERTEX
8
Form0
10
6.993726
20
-21.771217
30
-29.152479
70
192
0
VERTEX
8
Form0
10
6.500190
20
-20.123491
30
-20.193514
70
192
0
VERTEX
8
Form0
10
6.020445
20
-18.518696
30
-16.045565
70
192
0
VERTEX
8
Form0
10
4.826717
20
-16.352766
30
-6.072385
70
192
0
VERTEX
8
Form0
10
4.097302
20
-15.837087
30
-0.252047
70
192
0
VERTEX
8
Form0
10
2.027259
20
-8.882001
30
5.794621
70
192
0
VERTEX
8
Form0
10
1.013629
20
-4.441000
30
6.834318
70
192
0
VERTEX
8
Form0
10
-1.013630
20
-3.155393
30
-61.952431
70
192
0
VERTEX
8
Form0
10
-2.027260
20
-6.310786
30
-60.912727
70
192
0
VERTEX
8
Form0
10
-3.994234
20
-12.433905
30
-57.408508
70
192
0
VERTEX
8
Form0
10
-4.799610
20
-14.941013
30
-54.440056
70
192
0
VERTEX
8
Form0
10
-6.093167
20
-18.967810
30
-47.124062
70
192
0
VERTEX
8
Form0
10
-6.536551
20
-20.348049
30
-42.887363
70
192
0
VERTEX
8
Form0
10
-6.993725
20
-21.771217
30
-33.839645
70
192
0
VERTEX
8
Form0
10
-6.993726
20
-21.771217
30
-29.152479
70
192
0
VERTEX
8
Form0
10
-6.500190
20
-20.123491
30
-20.193514
70
192
0
VERTEX
8
Form0
10
-6.020444
20
-18.518696
30
-16.045565
70
192
0
VERTEX
8
Form0
10
-4.826717
20
-16.352766
30
-6.072384
70
192
0
VERTEX
8
Form0
10
-4.097301
20
-15.837087
30
-0.252046
70
192
0
VERTEX
8
Form0
10
-2.027259
20
-8.882001
30
5.794621
70
192
0
VERTEX
8
Form0
10
-1.013630
20
-4.441000
30
6.834318
70
192
0
VERTEX
8
Form0
10
-2.840127
20
-2.530428
30
-61.952431
70
192
0
VERTEX
8
Form0
10
-5.680254
20
-5.060857
30
-60.912727
70
192
0
VERTEX
8
Form0
10
-11.132203
20
-9.918303
30
-57.455170
70
192
0
VERTEX
8
Form0
10
-13.406420
20
-11.944531
30
-54.500694
70
192
0
VERTEX
8
Form0
10
-17.045988
20
-15.187229
30
-47.169712
70
192
0
VERTEX
8
Form0
10
-18.300335
20
-16.304796
30
-42.932461
70
192
0
VERTEX
8
Form0
10
-19.591101
20
-17.454811
30
-33.841782
70
192
0
VERTEX
8
Form0
10
-19.591101
20
-17.454811
30
-29.150339
70
192
0
VERTEX
8
Form0
10
-18.203922
20
-16.133007
30
-20.145863
70
192
0
VERTEX
8
Form0
10
-16.853161
20
-14.843654
30
-15.994814
70
192
0
VERTEX
8
Form0
10
-13.495745
20
-13.097101
30
-5.983382
70
192
0
VERTEX
8
Form0
10
-11.446924
20
-12.687265
30
-0.151252
70
192
0
VERTEX
8
Form0
10
-5.680254
20
-7.122812
30
5.794621
70
192
0
VERTEX
8
Form0
10
-2.840127
20
-3.561406
30
6.834318
70
192
0
VERTEX
8
Form0
10
-4.104103
20
-1.404282
30
-61.952431
70
192
0
VERTEX
8
Form0
10
-8.208205
20
-2.808564
30
-60.912727
70
192
0
VERTEX
8
Form0
10
-15.676967
20
-5.478624
30
-57.103333
70
192
0
VERTEX
8
Form0
10
-18.644859
20
-6.608643
30
-53.769508
70
192
0
VERTEX
8
Form0
10
-25.530539
20
-7.381133
30
-51.106804
70
192
0
VERTEX
8
Form0
10
-28.845211
20
-8.131771
30
-50.962013
70
192
0
VERTEX
8
Form0
10
-36.203793
20
-8.655918
30
-46.936474
70
192
0
VERTEX
8
Form0
10
-39.457333
20
-8.328979
30
-43.142838
70
192
0
VERTEX
8
Form0
10
-38.177219
20
-9.607605
30
-33.301556
70
192
0
VERTEX
8
Form0
10
-34.988148
20
-9.643058
30
-28.835415
70
192
0
VERTEX
8
Form0
10
-28.530104
20
-8.960464
30
-20.215200
70
192
0
VERTEX
8
Form0
10
-25.285707
20
-8.247629
30
-16.093390
70
192
0
VERTEX
8
Form0
10
-19.176323
20
-7.284046
30
-6.056634
70
192
0
VERTEX
8
Form0
10
-16.354149
20
-7.047839
30
-0.132398
70
192
0
VERTEX
8
Form0
10
-8.208203
20
-3.952862
30
5.794621
70
192
0
VERTEX
8
Form0
10
-4.104103
20
-1.976431
30
6.834318
70
192
0
VERTEX
8
Form0
10
-4.555210
20
0.000000
30
-61.952431
70
192
0
VERTEX
8
Form0
10
-9.110420
20
0.000000
30
-60.912727
70
192
0
VERTEX
8
Form0
10
-17.318624
20
0.000000
30
-56.959866
70
192
0
VERTEX
8
Form0
10
-20.971617
20
0.000000
30
-54.046703
70
192
0
VERTEX
8
Form0
10
-28.293875
20
-0.000000
30
-54.972988
70
192
0
VERTEX
8
Form0
10
-31.963139
20
-0.000000
30
-58.812439
70
192
0
VERTEX
8
Form0
10
-43.454655
20
-0.000000
30
-54.910431
70
192
0
VERTEX
8
Form0
10
-46.141129
20
-0.000000
30
-47.084827
70
192
0
VERTEX
8
Form0
10
-43.829750
20
-0.000001
30
-33.832237
70
192
0
VERTEX
8
Form0
10
-41.205078
20
-0.000001
30
-29.159885
70
192
0
VERTEX
8
Form0
10
-34.123081
20
-0.000000
30
-20.081841
70
192
0
VERTEX
8
Form0
10
-29.190529
20
-0.000000
30
-16.160376
70
192
0
VERTEX
8
Form0
10
-21.112522
20
0.000000
30
-6.175972
70
192
0
VERTEX
8
Form0
10
-18.056797
20
0.000000
30
-0.171215
70
192
0
VERTEX
8
Form0
10
-9.110419
20
0.000000
30
5.794621
70
192
0
VERTEX
8
Form0
10
-4.555210
20
0.000000
30
6.834318
70
192
0
VERTEX
8
Form0
10
-4.104103
20
1.404282
30
-61.952431
70
192
0
VERTEX
8
Form0
10
-8.208205
20
2.808564
30
-60.912727
70
192
0
VERTEX
8
Form0
10
-14.654197
20
7.582585
30
-57.048077
70
192
0
VERTEX
8
Form0
10
-18.149572
20
8.725722
30
-53.873665
70
192
0
VERTEX
8
Form0
10
-25.408987
20
8.131717
30
-50.609901
70
192
0
VERTEX
8
Form0
10
-28.784435
20
8.507063
30
-50.713562
70
192
0
VERTEX
8
Form0
10
-35.644272
20
9.161404
30
-46.903236
70
192
0
VERTEX
8
Form0
10
-38.338287
20
9.339950
30
-43.076363
70
192
0
VERTEX
8
Form0
10
-35.339737
20
11.497150
30
-34.591965
70
192
0
VERTEX
8
Form0
10
-32.401493
20
11.994838
30
-29.621262
70
192
0
VERTEX
8
Form0
10
-28.530107
20
8.960464
30
-20.215200
70
192
0
VERTEX
8
Form0
10
-25.285709
20
8.247629
30
-16.093388
70
192
0
VERTEX
8
Form0
10
-19.176323
20
7.284047
30
-6.056635
70
192
0
VERTEX
8
Form0
10
-16.354149
20
7.047839
30
-0.132399
70
192
0
VERTEX
8
Form0
10
-8.208203
20
3.952863
30
5.794621
70
192
0
VERTEX
8
Form0
10
-4.104102
20
1.976431
30
6.834318
70
192
0
VERTEX
8
Form0
10
-2.840127
20
2.530429
30
-61.952431
70
192
0
VERTEX
8
Form0
10
-5.680254
20
5.060858
30
-60.912727
70
192
0
VERTEX
8
Form0
10
-11.132203
20
9.918305
30
-57.455170
70
192
0
VERTEX
8
Form0
10
-13.406420
20
11.944531
30
-54.500694
70
192
0
VERTEX
8
Form0
10
-14.624222
20
16.204504
30
-46.951977
70
192
0
VERTEX
8
Form0
10
-15.947671
20
17.119904
30
-42.361961
70
192
0
VERTEX
8
Form0
10
-19.591103
20
17.454811
30
-33.841782
70
192
0
VERTEX
8
Form0
10
-19.591103
20
17.454811
30
-29.150339
70
192
0
VERTEX
8
Form0
10
-18.203922
20
16.133007
30
-20.145863
70
192
0
VERTEX
8
Form0
10
-16.853163
20
14.843654
30
-15.994814
70
192
0
VERTEX
8
Form0
10
-13.495745
20
13.097101
30
-5.983382
70
192
0
VERTEX
8
Form0
10
-11.446924
20
12.687265
30
-0.151252
70
192
0
VERTEX
8
Form0
10
-5.680254
20
7.122812
30
5.794621
70
192
0
VERTEX
8
Form0
10
-2.840127
20
3.561406
30
6.834318
70
192
0
VERTEX
8
Form0
10
-1.013630
20
3.155393
30
-61.952431
70
192
0
VERTEX
8
Form0
10
-2.027259
20
6.310786
30
-60.912727
70
192
0
VERTEX
8
Form0
10
-3.994234
20
12.433905
30
-57.408508
70
192
0
VERTEX
8
Form0
10
-4.799610
20
14.941013
30
-54.440056
70
192
0
VERTEX
8
Form0
10
-6.093168
20
18.967810
30
-47.124062
70
192
0
VERTEX
8
Form0
10
-6.536552
20
20.348049
30
-42.887363
70
192
0
VERTEX
8
Form0
10
-6.993727
20
21.771217
30
-33.839645
70
192
0
VERTEX
8
Form0
10
-6.993727
20
21.771217
30
-29.152479
70
192
0
VERTEX
8
Form0
10
-6.500191
20
20.123491
30
-20.193514
70
192
0
VERTEX
8
Form0
10
-6.020445
20
18.518696
30
-16.045565
70
192
0
VERTEX
8
Form0
10
-4.826717
20
16.352766
30
-6.072385
70
192
0
VERTEX
8
Form0
10
-4.097302
20
15.837087
30
-0.252047
70
192
0
VERTEX
8
Form0
10
-2.027259
20
8.882001
30
5.794621
70
192
0
VERTEX
8
Form0
10
-1.013630
20
4.441000
30
6.834318
70
192
0
VERTEX
8
Form0
10
1.013630
20
3.155393
30
-61.952431
70
192
0
VERTEX
8
Form0
10
2.027260
20
6.310786
30
-60.912727
70
192
0
VERTEX
8
Form0
10
3.994234
20
12.433905
30
-57.408508
70
192
0
VERTEX
8
Form0
10
4.799610
20
14.941013
30
-54.440056
70
192
0
VERTEX
8
Form0
10
6.093167
20
18.967810
30
-47.124062
70
192
0
VERTEX
8
Form0
10
6.536551
20
20.348049
30
-42.887363
70
192
0
VERTEX
8
Form0
10
6.993725
20
21.771217
30
-33.839645
70
192
0
VERTEX
8
Form0
10
6.993726
20
21.771217
30
-29.152479
70
192
0
VERTEX
8
Form0
10
6.500190
20
20.123491
30
-20.193514
70
192
0
VERTEX
8
Form0
10
6.020444
20
18.518696
30
-16.045565
70
192
0
VERTEX
8
Form0
10
4.826717
20
16.352766
30
-6.072384
70
192
0
VERTEX
8
Form0
10
4.097302
20
15.837087
30
-0.252046
70
192
0
VERTEX
8
Form0
10
2.027258
20
8.882001
30
5.794621
70
192
0
VERTEX
8
Form0
10
1.013629
20
4.441000
30
6.834318
70
192
0
VERTEX
8
Form0
10
2.840128
20
2.530429
30
-61.952431
70
192
0
VERTEX
8
Form0
10
5.680255
20
5.060858
30
-60.912727
70
192
0
VERTEX
8
Form0
10
11.132204
20
9.918304
30
-57.455170
70
192
0
VERTEX
8
Form0
10
13.406420
20
11.944531
30
-54.500694
70
192
0
VERTEX
8
Form0
10
17.045988
20
15.187229
30
-47.169712
70
192
0
VERTEX
8
Form0
10
18.300335
20
16.304796
30
-42.932461
70
192
0
VERTEX
8
Form0
10
19.591101
20
17.454811
30
-33.841782
70
192
0
VERTEX
8
Form0
10
19.591101
20
17.454811
30
-29.150339
70
192
0
VERTEX
8
Form0
10
18.203922
20
16.133007
30
-20.145863
70
192
0
VERTEX
8
Form0
10
16.853161
20
14.843654
30
-15.994814
70
192
0
VERTEX
8
Form0
10
13.495745
20
13.097101
30
-5.983382
70
192
0
VERTEX
8
Form0
10
11.446924
20
12.687265
30
-0.151252
70
192
0
VERTEX
8
Form0
10
5.680253
20
7.122812
30
5.794621
70
192
0
VERTEX
8
Form0
10
2.840126
20
3.561406
30
6.834318
70
192
0
VERTEX
8
Form0
10
4.104103
20
1.404282
30
-61.952431
70
192
0
VERTEX
8
Form0
10
8.208206
20
2.808564
30
-60.912727
70
192
0
VERTEX
8
Form0
10
16.013559
20
5.479285
30
-57.500107
70
192
0
VERTEX
8
Form0
10
19.318041
20
6.609964
30
-54.563057
70
192
0
VERTEX
8
Form0
10
24.592482
20
8.414696
30
-47.219898
70
192
0
VERTEX
8
Form0
10
26.422607
20
9.040901
30
-42.984783
70
192
0
VERTEX
8
Form0
10
28.301538
20
9.683808
30
-33.844330
70
192
0
VERTEX
8
Form0
10
28.301540
20
9.683809
30
-29.147795
70
192
0
VERTEX
8
Form0
10
26.291079
20
8.950207
30
-20.090620
70
192
0
VERTEX
8
Form0
10
24.329426
20
8.233306
30
-15.938780
70
192
0
VERTEX
8
Form0
10
19.461559
20
7.259519
30
-5.890929
70
192
0
VERTEX
8
Form0
10
16.496767
20
7.035575
30
-0.049546
70
192
0
VERTEX
8
Form0
10
8.208202
20
3.952862
30
5.794621
70
192
0
VERTEX
8
Form0
10
4.104101
20
1.976431
30
6.834318
70
192
0
VERTEX
8
Form0
10
14.117006
20
-1.578553
30
-59.654266
70
192
0
VERTEX
8
Form0
10
13.570177
20
-3.100822
30
-59.667465
70
192
0
VERTEX
8
Form0
10
11.922427
20
-6.036676
30
-59.569706
70
192
0
VERTEX
8
Form0
10
10.436451
20
-7.179151
30
-59.606987
70
192
0
VERTEX
8
Form0
10
7.295660
20
-9.355079
30
-59.473824
70
192
0
VERTEX
8
Form0
10
5.227898
20
-9.934662
30
-59.511803
70
192
0
VERTEX
8
Form0
10
1.128000
20
-10.759710
30
-59.446815
70
192
0
VERTEX
8
Form0
10
-1.128002
20
-10.759710
30
-59.446815
70
192
0
VERTEX
8
Form0
10
-5.227900
20
-9.934660
30
-59.511806
70
192
0
VERTEX
8
Form0
10
-7.295661
20
-9.355079
30
-59.473824
70
192
0
VERTEX
8
Form0
10
-10.436452
20
-7.179151
30
-59.606991
70
192
0
VERTEX
8
Form0
10
-11.922429
20
-6.036676
30
-59.569710
70
192
0
VERTEX
8
Form0
10
-12.763414
20
-2.808563
30
-59.873035
70
192
0
VERTEX
8
Form0
10
-13.214522
20
-1.404281
30
-59.873032
70
192
0
VERTEX
8
Form0
10
-13.214521
20
1.404282
30
-59.873035
70
192
0
VERTEX
8
Form0
10
-12.763414
20
2.808564
30
-59.873032
70
192
0
VERTEX
8
Form0
10
-11.922429
20
6.036677
30
-59.569706
70
192
0
VERTEX
8
Form0
10
-10.436452
20
7.179152
30
-59.606987
70
192
0
VERTEX
8
Form0
10
-7.295661
20
9.355080
30
-59.473824
70
192
0
VERTEX
8
Form0
10
-5.227899
20
9.934662
30
-59.511803
70
192
0
VERTEX
8
Form0
10
-1.128001
20
10.759710
30
-59.446815
70
192
0
VERTEX
8
Form0
10
1.128002
20
10.759710
30
-59.446815
70
192
0
VERTEX
8
Form0
10
5.227900
20
9.934660
30
-59.511806
70
192
0
VERTEX
8
Form0
10
7.295662
20
9.355081
30
-59.473824
70
192
0
VERTEX
8
Form0
10
10.436454
20
7.179152
30
-59.606991
70
192
0
VERTEX
8
Form0
10
11.922432
20
6.036676
30
-59.569710
70
192
0
VERTEX
8
Form0
10
13.570179
20
3.100821
30
-59.667465
70
192
0
VERTEX
8
Form0
10
14.117008
20
1.578552
30
-59.654266
70
192
0
VERTEX
8
Form0
10
24.320297
20
-2.674450
30
-51.133533
70
192
0
VERTEX
8
Form0
10
23.474072
20
-5.220502
30
-51.133537
70
192
0
VERTEX
8
Form0
10
20.252956
20
-9.980910
30
-51.133533
70
192
0
VERTEX
8
Form0
10
17.930599
20
-11.988338
30
-51.133537
70
192
0
VERTEX
8
Form0
10
12.212862
20
-15.214863
30
-51.133533
70
192
0
VERTEX
8
Form0
10
8.900709
20
-16.319977
30
-51.133537
70
192
0
VERTEX
8
Form0
10
1.832037
20
-17.459810
30
-51.133533
70
192
0
VERTEX
8
Form0
10
-1.832037
20
-17.459812
30
-51.133537
70
192
0
VERTEX
8
Form0
10
-8.900709
20
-16.319977
30
-51.133533
70
192
0
VERTEX
8
Form0
10
-12.212863
20
-15.214864
30
-51.133537
70
192
0
VERTEX
8
Form0
10
-17.893421
20
-11.955206
30
-51.133533
70
192
0
VERTEX
8
Form0
10
-20.178604
20
-9.914647
30
-51.133537
70
192
0
VERTEX
8
Form0
10
-23.054827
20
-6.618284
30
-50.835552
70
192
0
VERTEX
8
Form0
10
-23.506750
20
-5.292370
30
-50.984543
70
192
0
VERTEX
8
Form0
10
-24.482042
20
-2.636129
30
-50.963902
70
192
0
VERTEX
8
Form0
10
-24.878817
20
-1.279819
30
-50.794270
70
192
0
VERTEX
8
Form0
10
-24.878815
20
1.279820
30
-50.794270
70
192
0
VERTEX
8
Form0
10
-24.482040
20
2.636130
30
-50.963905
70
192
0
VERTEX
8
Form0
10
-23.506750
20
5.292370
30
-50.984543
70
192
0
VERTEX
8
Form0
10
-23.054827
20
6.618284
30
-50.835552
70
192
0
VERTEX
8
Form0
10
-20.178604
20
9.914648
30
-51.133533
70
192
0
VERTEX
8
Form0
10
-17.893421
20
11.955207
30
-51.133537
70
192
0
VERTEX
8
Form0
10
-12.212862
20
15.214863
30
-51.133533
70
192
0
VERTEX
8
Form0
10
-8.900709
20
16.319977
30
-51.133537
70
192
0
VERTEX
8
Form0
10
-1.832036
20
17.459810
30
-51.133533
70
192
0
VERTEX
8
Form0
10
1.832037
20
17.459812
30
-51.133537
70
192
0
VERTEX
8
Form0
10
8.900709
20
16.319977
30
-51.133533
70
192
0
VERTEX
8
Form0
10
12.212863
20
15.214864
30
-51.133537
70
192
0
VERTEX
8
Form0
10
17.930599
20
11.988338
30
-51.133533
70
192
0
VERTEX
8
Form0
10
20.252958
20
9.980909
30
-51.133537
70
192
0
VERTEX
8
Form0
10
23.474072
20
5.220501
30
-51.133533
70
192
0
VERTEX
8
Form0
10
24.320297
20
2.674450
30
-51.133537
70
192
0
VERTEX
8
Form0
10
30.326916
20
-3.334985
30
-38.504597
70
192
0
VERTEX
8
Form0
10
29.271692
20
-6.509860
30
-38.504597
70
192
0
VERTEX
8
Form0
10
25.255026
20
-12.445992
30
-38.504597
70
192
0
VERTEX
8
Form0
10
22.359093
20
-14.949214
30
-38.504597
70
192
0
VERTEX
8
Form0
10
15.229191
20
-18.972622
30
-38.504597
70
192
0
VERTEX
8
Form0
10
11.099003
20
-20.350677
30
-38.504597
70
192
0
VERTEX
8
Form0
10
2.284513
20
-21.772026
30
-38.504597
70
192
0
VERTEX
8
Form0
10
-2.284512
20
-21.772026
30
-38.504597
70
192
0
VERTEX
8
Form0
10
-11.031943
20
-20.184244
30
-38.504597
70
192
0
VERTEX
8
Form0
10
-15.095074
20
-18.639755
30
-38.504597
70
192
0
VERTEX
8
Form0
10
-26.477819
20
-15.698784
30
-34.514378
70
192
0
VERTEX
8
Form0
10
-33.997253
20
-13.015200
30
-33.830544
70
192
0
VERTEX
8
Form0
10
-41.212048
20
-8.333667
30
-38.504597
70
192
0
VERTEX
8
Form0
10
-42.799240
20
-7.011466
30
-38.504597
70
192
0
VERTEX
8
Form0
10
-45.281536
20
-3.780901
30
-38.504597
70
192
0
VERTEX
8
Form0
10
-46.122501
20
-1.968361
30
-38.504597
70
192
0
VERTEX
8
Form0
10
-46.122498
20
1.968360
30
-38.504597
70
192
0
VERTEX
8
Form0
10
-45.281544
20
3.780899
30
-38.504597
70
192
0
VERTEX
8
Form0
10
-42.799248
20
7.011466
30
-38.504597
70
192
0
VERTEX
8
Form0
10
-41.212051
20
8.333666
30
-38.504597
70
192
0
VERTEX
8
Form0
10
-33.997257
20
13.015199
30
-33.830544
70
192
0
VERTEX
8
Form0
10
-26.477821
20
15.698785
30
-34.514378
70
192
0
VERTEX
8
Form0
10
-15.095074
20
18.639755
30
-38.504597
70
192
0
VERTEX
8
Form0
10
-11.031944
20
20.184242
30
-38.504597
70
192
0
VERTEX
8
Form0
10
-2.284513
20
21.772026
30
-38.504597
70
192
0
VERTEX
8
Form0
10
2.284512
20
21.772026
30
-38.504597
70
192
0
VERTEX
8
Form0
10
11.099002
20
20.350676
30
-38.504597
70
192
0
VERTEX
8
Form0
10
15.229191
20
18.972624
30
-38.504597
70
192
0
VERTEX
8
Form0
10
22.359091
20
14.949213
30
-38.504597
70
192
0
VERTEX
8
Form0
10
25.255024
20
12.445992
30
-38.504597
70
192
0
VERTEX
8
Form0
10
29.271688
20
6.509860
30
-38.504597
70
192
0
VERTEX
8
Form0
10
30.326916
20
3.334985
30
-38.504597
70
192
0
VERTEX
8
Form0
10
30.326916
20
-3.334985
30
-24.487528
70
192
0
VERTEX
8
Form0
10
29.271692
20
-6.509860
30
-24.487530
70
192
0
VERTEX
8
Form0
10
25.255026
20
-12.445992
30
-24.487528
70
192
0
VERTEX
8
Form0
10
22.359093
20
-14.949214
30
-24.487530
70
192
0
VERTEX
8
Form0
10
15.229191
20
-18.972622
30
-24.487528
70
192
0
VERTEX
8
Form0
10
11.099003
20
-20.350677
30
-24.487530
70
192
0
VERTEX
8
Form0
10
2.284513
20
-21.772026
30
-24.487528
70
192
0
VERTEX
8
Form0
10
-2.284512
20
-21.772026
30
-24.487530
70
192
0
VERTEX
8
Form0
10
-11.064275
20
-20.270046
30
-24.487528
70
192
0
VERTEX
8
Form0
10
-15.159735
20
-18.811363
30
-24.487530
70
192
0
VERTEX
8
Form0
10
-23.532862
20
-14.905754
30
-24.487528
70
192
0
VERTEX
8
Form0
10
-27.745083
20
-12.447540
30
-24.487530
70
192
0
VERTEX
8
Form0
10
-32.950191
20
-6.020238
30
-22.364761
70
192
0
VERTEX
8
Form0
10
-35.563625
20
-2.684397
30
-22.639711
70
192
0
VERTEX
8
Form0
10
-35.563625
20
2.684396
30
-22.639711
70
192
0
VERTEX
8
Form0
10
-32.950195
20
6.020238
30
-22.364761
70
192
0
VERTEX
8
Form0
10
-27.745085
20
12.447540
30
-24.487528
70
192
0
VERTEX
8
Form0
10
-23.532864
20
14.905755
30
-24.487530
70
192
0
VERTEX
8
Form0
10
-15.159737
20
18.811361
30
-24.487528
70
192
0
VERTEX
8
Form0
10
-11.064276
20
20.270046
30
-24.487530
70
192
0
VERTEX
8
Form0
10
-2.284513
20
21.772026
30
-24.487528
70
192
0
VERTEX
8
Form0
10
2.284512
20
21.772026
30
-24.487530
70
192
0
VERTEX
8
Form0
10
11.099002
20
20.350676
30
-24.487528
70
192
0
VERTEX
8
Form0
10
15.229191
20
18.972624
30
-24.487530
70
192
0
VERTEX
8
Form0
10
22.359091
20
14.949213
30
-24.487528
70
192
0
VERTEX
8
Form0
10
25.255024
20
12.445992
30
-24.487530
70
192
0
VERTEX
8
Form0
10
29.271688
20
6.509860
30
-24.487528
70
192
0
VERTEX
8
Form0
10
30.326916
20
3.334985
30
-24.487530
70
192
0
VERTEX
8
Form0
10
24.320297
20
-2.674450
30
-11.858589
70
192
0
VERTEX
8
Form0
10
23.474072
20
-5.220502
30
-11.858589
70
192
0
VERTEX
8
Form0
10
20.252956
20
-9.980910
30
-11.858589
70
192
0
VERTEX
8
Form0
10
17.930599
20
-11.988338
30
-11.858589
70
192
0
VERTEX
8
Form0
10
12.212862
20
-15.214863
30
-11.858589
70
192
0
VERTEX
8
Form0
10
8.900709
20
-16.319977
30
-11.858589
70
192
0
VERTEX
8
Form0
10
1.832037
20
-17.459810
30
-11.858589
70
192
0
VERTEX
8
Form0
10
-1.832037
20
-17.459812
30
-11.858589
70
192
0
VERTEX
8
Form0
10
-8.900709
20
-16.319977
30
-11.858589
70
192
0
VERTEX
8
Form0
10
-12.212863
20
-15.214864
30
-11.858589
70
192
0
VERTEX
8
Form0
10
-17.930599
20
-11.988338
30
-11.858589
70
192
0
VERTEX
8
Form0
10
-20.252958
20
-9.980909
30
-11.858589
70
192
0
VERTEX
8
Form0
10
-23.474072
20
-5.220501
30
-11.858589
70
192
0
VERTEX
8
Form0
10
-24.320297
20
-2.674450
30
-11.858589
70
192
0
VERTEX
8
Form0
10
-24.320297
20
2.674450
30
-11.858589
70
192
0
VERTEX
8
Form0
10
-23.474072
20
5.220502
30
-11.858589
70
192
0
VERTEX
8
Form0
10
-20.252956
20
9.980910
30
-11.858589
70
192
0
VERTEX
8
Form0
10
-17.930599
20
11.988338
30
-11.858589
70
192
0
VERTEX
8
Form0
10
-12.212862
20
15.214863
30
-11.858589
70
192
0
VERTEX
8
Form0
10
-8.900709
20
16.319977
30
-11.858589
70
192
0
VERTEX
8
Form0
10
-1.832036
20
17.459810
30
-11.858589
70
192
0
VERTEX
8
Form0
10
1.832037
20
17.459812
30
-11.858589
70
192
0
VERTEX
8
Form0
10
8.900709
20
16.319977
30
-11.858589
70
192
0
VERTEX
8
Form0
10
12.212863
20
15.214864
30
-11.858589
70
192
0
VERTEX
8
Form0
10
17.930599
20
11.988338
30
-11.858589
70
192
0
VERTEX
8
Form0
10
20.252958
20
9.980909
30
-11.858589
70
192
0
VERTEX
8
Form0
10
23.474072
20
5.220501
30
-11.858589
70
192
0
VERTEX
8
Form0
10
24.320297
20
2.674450
30
-11.858589
70
192
0
VERTEX
8
Form0
10
13.512713
20
-2.038626
30
4.754925
70
192
0
VERTEX
8
Form0
10
13.059059
20
-4.026209
30
4.754925
70
192
0
VERTEX
8
Form0
10
11.290008
20
-7.699685
30
4.754925
70
192
0
VERTEX
8
Form0
10
10.018901
20
-9.293602
30
4.754925
70
192
0
VERTEX
8
Form0
10
6.831177
20
-11.835726
30
4.754925
70
192
0
VERTEX
8
Form0
10
4.994375
20
-12.720284
30
4.754925
70
192
0
VERTEX
8
Form0
10
1.019349
20
-13.627559
30
4.754925
70
192
0
VERTEX
8
Form0
10
-1.019349
20
-13.627559
30
4.754925
70
192
0
VERTEX
8
Form0
10
-4.994375
20
-12.720284
30
4.754925
70
192
0
VERTEX
8
Form0
10
-6.831178
20
-11.835728
30
4.754925
70
192
0
VERTEX
8
Form0
10
-10.018902
20
-9.293602
30
4.754925
70
192
0
VERTEX
8
Form0
10
-11.290008
20
-7.699685
30
4.754925
70
192
0
VERTEX
8
Form0
10
-13.059059
20
-4.026208
30
4.754925
70
192
0
VERTEX
8
Form0
10
-13.512714
20
-2.038625
30
4.754925
70
192
0
VERTEX
8
Form0
10
-13.512713
20
2.038626
30
4.754925
70
192
0
VERTEX
8
Form0
10
-13.059059
20
4.026209
30
4.754925
70
192
0
VERTEX
8
Form0
10
-11.290008
20
7.699685
30
4.754925
70
192
0
VERTEX
8
Form0
10
-10.018901
20
9.293602
30
4.754925
70
192
0
VERTEX
8
Form0
10
-6.831177
20
11.835726
30
4.754925
70
192
0
VERTEX
8
Form0
10
-4.994375
20
12.720284
30
4.754925
70
192
0
VERTEX
8
Form0
10
-1.019349
20
13.627559
30
4.754925
70
192
0
VERTEX
8
Form0
10
1.019349
20
13.627559
30
4.754925
70
192
0
VERTEX
8
Form0
10
4.994375
20
12.720284
30
4.754925
70
192
0
VERTEX
8
Form0
10
6.831178
20
11.835728
30
4.754925
70
192
0
VERTEX
8
Form0
10
10.018902
20
9.293602
30
4.754925
70
192
0
VERTEX
8
Form0
10
11.290008
20
7.699685
30
4.754925
70
192
0
VERTEX
8
Form0
10
13.059059
20
4.026208
30
4.754925
70
192
0
VERTEX
8
Form0
10
13.512714
20
2.038625
30
4.754925
70
192
0
VERTEX
8
Form0
10
-36.555283
20
-1.811218
30
-59.491417
70
192
0
VERTEX
8
Form0
10
-35.942928
20
-3.439748
30
-58.904495
70
192
0
VERTEX
8
Form0
10
-34.123936
20
-6.517213
30
-55.475426
70
192
0
VERTEX
8
Form0
10
-33.003315
20
-7.508835
30
-52.599884
70
192
0
VERTEX
8
Form0
10
-27.442482
20
-4.246590
30
-54.250687
70
192
0
VERTEX
8
Form0
10
-30.926294
20
-4.526724
30
-57.367832
70
192
0
VERTEX
8
Form0
10
-40.816608
20
-5.511940
30
-53.325523
70
192
0
VERTEX
8
Form0
10
-42.926537
20
-5.887879
30
-46.083549
70
192
0
VERTEX
8
Form0
10
-33.003319
20
7.508834
30
-52.599892
70
192
0
VERTEX
8
Form0
10
-34.123936
20
6.517212
30
-55.475426
70
192
0
VERTEX
8
Form0
10
-35.942928
20
3.439747
30
-58.904495
70
192
0
VERTEX
8
Form0
10
-36.555283
20
1.811217
30
-59.491417
70
192
0
VERTEX
8
Form0
10
-27.442482
20
4.246589
30
-54.250687
70
192
0
VERTEX
8
Form0
10
-30.926292
20
4.526724
30
-57.367832
70
192
0
VERTEX
8
Form0
10
-40.816608
20
5.511939
30
-53.325527
70
192
0
VERTEX
8
Form0
10
-42.926544
20
5.887878
30
-46.083553
70
192
0
VERTEX
8
Form0
10
17.304588
20
-3.939663
30
-57.352177
70
192
0
VERTEX
8
Form0
10
17.976088
20
-1.963927
30
-57.350475
70
192
0
VERTEX
8
Form0
10
20.583832
20
-4.592860
30
-54.516037
70
192
0
VERTEX
8
Form0
10
21.325615
20
-2.362995
30
-54.524281
70
192
0
VERTEX
8
Form0
10
25.986698
20
-5.804652
30
-47.225189
70
192
0
VERTEX
8
Form0
10
26.931087
20
-2.933155
30
-47.235027
70
192
0
VERTEX
8
Form0
10
27.948893
20
-6.220624
30
-42.990524
70
192
0
VERTEX
8
Form0
10
28.954704
20
-3.179500
30
-43.001183
70
192
0
VERTEX
8
Form0
10
29.924814
20
-6.671067
30
-33.844612
70
192
0
VERTEX
8
Form0
10
31.011765
20
-3.391407
30
-33.845139
70
192
0
VERTEX
8
Form0
10
29.924814
20
-6.671068
30
-29.147509
70
192
0
VERTEX
8
Form0
10
31.011765
20
-3.391408
30
-29.146986
70
192
0
VERTEX
8
Form0
10
27.814455
20
-6.153442
30
-20.084564
70
192
0
VERTEX
8
Form0
10
28.814871
20
-3.155986
30
-20.073324
70
192
0
VERTEX
8
Form0
10
25.717831
20
-5.670289
30
-15.932859
70
192
0
VERTEX
8
Form0
10
26.651419
20
-2.886128
30
-15.921865
70
192
0
VERTEX
8
Form0
10
20.600252
20
-4.984293
30
-5.881590
70
192
0
VERTEX
8
Form0
10
21.327929
20
-2.535305
30
-5.864245
70
192
0
VERTEX
8
Form0
10
17.425617
20
-4.836133
30
-0.039470
70
192
0
VERTEX
8
Form0
10
18.058596
20
-2.378571
30
-0.020758
70
192
0
VERTEX
8
Form0
10
13.297780
20
-9.081834
30
-57.269749
70
192
0
VERTEX
8
Form0
10
15.145547
20
-7.542661
30
-57.263771
70
192
0
VERTEX
8
Form0
10
15.777933
20
-10.598482
30
-54.447884
70
192
0
VERTEX
8
Form0
10
17.819504
20
-8.839741
30
-54.468250
70
192
0
VERTEX
8
Form0
10
19.860027
20
-13.311809
30
-47.182720
70
192
0
VERTEX
8
Form0
10
22.464056
20
-11.033813
30
-47.206886
70
192
0
VERTEX
8
Form0
10
21.359488
20
-14.288622
30
-42.946026
70
192
0
VERTEX
8
Form0
10
24.125692
20
-11.883887
30
-42.971218
70
192
0
VERTEX
8
Form0
10
22.854347
20
-15.299967
30
-33.842442
70
192
0
VERTEX
8
Form0
10
25.841793
20
-12.710217
30
-33.843670
70
192
0
VERTEX
8
Form0
10
22.854347
20
-15.299968
30
-29.149677
70
192
0
VERTEX
8
Form0
10
25.841793
20
-12.710217
30
-29.148455
70
192
0
VERTEX
8
Form0
10
21.253969
20
-14.137856
30
-20.131538
70
192
0
VERTEX
8
Form0
10
24.003267
20
-11.772167
30
-20.104942
70
192
0
VERTEX
8
Form0
10
19.648994
20
-13.010282
30
-15.980286
70
192
0
VERTEX
8
Form0
10
22.219208
20
-10.810373
30
-15.953308
70
192
0
VERTEX
8
Form0
10
15.773055
20
-11.459480
30
-5.959413
70
192
0
VERTEX
8
Form0
10
17.785013
20
-9.513331
30
-5.914898
70
192
0
VERTEX
8
Form0
10
13.346889
20
-11.075945
30
-0.124884
70
192
0
VERTEX
8
Form0
10
15.116615
20
-9.109419
30
-0.075914
70
192
0
VERTEX
8
Form0
10
6.635840
20
-12.524682
30
-57.153027
70
192
0
VERTEX
8
Form0
10
9.276226
20
-11.688046
30
-57.147362
70
192
0
VERTEX
8
Form0
10
7.867752
20
-14.514150
30
-54.362122
70
192
0
VERTEX
8
Form0
10
10.795824
20
-13.541507
30
-54.381474
70
192
0
VERTEX
8
Form0
10
9.849311
20
-18.134928
30
-47.135895
70
192
0
VERTEX
8
Form0
10
13.588717
20
-16.869587
30
-47.157875
70
192
0
VERTEX
8
Form0
10
10.605376
20
-19.463524
30
-42.899055
70
192
0
VERTEX
8
Form0
10
14.563785
20
-18.133734
30
-42.920769
70
192
0
VERTEX
8
Form0
10
11.333821
20
-20.824736
30
-33.840199
70
192
0
VERTEX
8
Form0
10
15.601264
20
-19.396822
30
-33.841228
70
192
0
VERTEX
8
Form0
10
11.333821
20
-20.824736
30
-29.151922
70
192
0
VERTEX
8
Form0
10
15.601264
20
-19.396822
30
-29.150894
70
192
0
VERTEX
8
Form0
10
10.553446
20
-19.252645
30
-20.181158
70
192
0
VERTEX
8
Form0
10
14.482940
20
-17.948263
30
-20.158216
70
192
0
VERTEX
8
Form0
10
9.745450
20
-17.713175
30
-16.032406
70
192
0
VERTEX
8
Form0
10
13.427028
20
-16.498650
30
-16.007971
70
192
0
VERTEX
8
Form0
10
7.850447
20
-15.632335
30
-6.049310
70
192
0
VERTEX
8
Form0
10
10.748597
20
-14.551187
30
-6.006457
70
192
0
VERTEX
8
Form0
10
6.620801
20
-15.116654
30
-0.225915
70
192
0
VERTEX
8
Form0
10
9.192013
20
-14.021191
30
-0.177384
70
192
0
VERTEX
8
Form0
10
-1.465140
20
-13.496390
30
-57.092789
70
192
0
VERTEX
8
Form0
10
1.465139
20
-13.496390
30
-57.092793
70
192
0
VERTEX
8
Form0
10
-1.626566
20
-15.574409
30
-54.329552
70
192
0
VERTEX
8
Form0
10
1.626565
20
-15.574410
30
-54.329552
70
192
0
VERTEX
8
Form0
10
-2.075885
20
-19.395920
30
-47.124058
70
192
0
VERTEX
8
Form0
10
2.075886
20
-19.395922
30
-47.124062
70
192
0
VERTEX
8
Form0
10
-2.193492
20
-20.824005
30
-42.887363
70
192
0
VERTEX
8
Form0
10
2.193492
20
-20.824005
30
-42.887363
70
192
0
VERTEX
8
Form0
10
-2.361987
20
-22.272936
30
-33.839645
70
192
0
VERTEX
8
Form0
10
2.361988
20
-22.272936
30
-33.839645
70
192
0
VERTEX
8
Form0
10
-2.361988
20
-22.272936
30
-29.152477
70
192
0
VERTEX
8
Form0
10
2.361988
20
-22.272936
30
-29.152479
70
192
0
VERTEX
8
Form0
10
-2.175984
20
-20.599447
30
-20.193512
70
192
0
VERTEX
8
Form0
10
2.175985
20
-20.599447
30
-20.193514
70
192
0
VERTEX
8
Form0
10
-2.040870
20
-18.946806
30
-16.045563
70
192
0
VERTEX
8
Form0
10
2.040871
20
-18.946808
30
-16.045565
70
192
0
VERTEX
8
Form0
10
-1.611448
20
-16.729759
30
-6.072384
70
192
0
VERTEX
8
Form0
10
1.611448
20
-16.729761
30
-6.072384
70
192
0
VERTEX
8
Form0
10
-1.434281
20
-16.166996
30
-0.252046
70
192
0
VERTEX
8
Form0
10
1.434282
20
-16.166996
30
-0.252047
70
192
0
VERTEX
8
Form0
10
-9.276226
20
-11.688046
30
-57.147362
70
192
0
VERTEX
8
Form0
10
-6.635840
20
-12.524681
30
-57.153027
70
192
0
VERTEX
8
Form0
10
-10.795823
20
-13.541507
30
-54.381470
70
192
0
VERTEX
8
Form0
10
-7.867753
20
-14.514151
30
-54.362122
70
192
0
VERTEX
8
Form0
10
-13.553943
20
-16.783287
30
-47.157871
70
192
0
VERTEX
8
Form0
10
-9.831924
20
-18.091778
30
-47.135899
70
192
0
VERTEX
8
Form0
10
-14.464438
20
-17.887161
30
-42.920769
70
192
0
VERTEX
8
Form0
10
-10.555702
20
-19.340240
30
-42.899055
70
192
0
VERTEX
8
Form0
10
-15.483912
20
-19.108444
30
-33.841228
70
192
0
VERTEX
8
Form0
10
-11.275144
20
-20.680548
30
-33.840199
70
192
0
VERTEX
8
Form0
10
-15.515045
20
-19.191069
30
-29.150892
70
192
0
VERTEX
8
Form0
10
-11.290711
20
-20.721861
30
-29.151924
70
192
0
VERTEX
8
Form0
10
-14.431492
20
-17.828808
30
-20.158215
70
192
0
VERTEX
8
Form0
10
-10.527720
20
-19.192921
30
-20.181160
70
192
0
VERTEX
8
Form0
10
-13.409018
20
-16.456841
30
-16.007969
70
192
0
VERTEX
8
Form0
10
-9.736445
20
-17.692270
30
-16.032408
70
192
0
VERTEX
8
Form0
10
-10.748595
20
-14.551185
30
-6.006456
70
192
0
VERTEX
8
Form0
10
-7.850446
20
-15.632335
30
-6.049309
70
192
0
VERTEX
8
Form0
10
-9.192013
20
-14.021190
30
-0.177384
70
192
0
VERTEX
8
Form0
10
-6.620801
20
-15.116654
30
-0.225914
70
192
0
VERTEX
8
Form0
10
-14.876944
20
-7.524994
30
-56.969860
70
192
0
VERTEX
8
Form0
10
-13.200878
20
-9.073074
30
-57.166882
70
192
0
VERTEX
8
Form0
10
-17.265774
20
-8.789680
30
-53.880432
70
192
0
VERTEX
8
Form0
10
-15.575866
20
-10.573599
30
-54.242149
70
192
0
VERTEX
8
Form0
10
-33.041653
20
-13.075805
30
-29.979355
70
192
0
VERTEX
8
Form0
10
-26.237064
20
-15.824183
30
-30.746004
70
192
0
VERTEX
8
Form0
10
-30.477364
20
-12.828750
30
-27.705271
70
192
0
VERTEX
8
Form0
10
-24.975229
20
-15.451546
30
-28.034191
70
192
0
VERTEX
8
Form0
10
-25.346066
20
-11.780911
30
-20.197222
70
192
0
VERTEX
8
Form0
10
-21.947840
20
-14.108325
30
-20.163839
70
192
0
VERTEX
8
Form0
10
-22.817053
20
-10.821384
30
-16.067833
70
192
0
VERTEX
8
Form0
10
-19.936600
20
-13.002729
30
-16.020370
70
192
0
VERTEX
8
Form0
10
-17.573727
20
-9.531501
30
-6.037643
70
192
0
VERTEX
8
Form0
10
-15.699104
20
-11.465841
30
-6.002373
70
192
0
VERTEX
8
Form0
10
-15.010972
20
-9.118502
30
-0.137286
70
192
0
VERTEX
8
Form0
10
-13.309913
20
-11.079123
30
-0.146364
70
192
0
VERTEX
8
Form0
10
-28.425812
20
-1.430123
30
-54.601318
70
192
0
VERTEX
8
Form0
10
-27.995968
20
-2.880286
30
-54.446102
70
192
0
VERTEX
8
Form0
10
-31.909224
20
-1.647007
30
-58.541111
70
192
0
VERTEX
8
Form0
10
-31.494503
20
-3.155857
30
-58.080688
70
192
0
VERTEX
8
Form0
10
-26.881832
20
-5.508286
30
-53.229351
70
192
0
VERTEX
8
Form0
10
-26.382095
20
-6.468998
30
-51.865150
70
192
0
VERTEX
8
Form0
10
-30.186934
20
-6.027206
30
-55.394474
70
192
0
VERTEX
8
Form0
10
-29.641504
20
-6.974626
30
-53.014072
70
192
0
VERTEX
8
Form0
10
-42.942867
20
-1.980709
30
-54.690685
70
192
0
VERTEX
8
Form0
10
-41.844845
20
-3.896052
30
-54.118729
70
192
0
VERTEX
8
Form0
10
-45.538242
20
-2.079287
30
-46.892143
70
192
0
VERTEX
8
Form0
10
-44.221001
20
-4.125786
30
-46.476948
70
192
0
VERTEX
8
Form0
10
-39.380184
20
-6.926168
30
-51.395138
70
192
0
VERTEX
8
Form0
10
-37.685261
20
-7.602741
30
-49.061443
70
192
0
VERTEX
8
Form0
10
-41.845901
20
-7.064888
30
-45.225258
70
192
0
VERTEX
8
Form0
10
-40.794910
20
-7.552143
30
-44.069237
70
192
0
VERTEX
8
Form0
10
-31.863476
20
-2.676729
30
-18.747662
70
192
0
VERTEX
8
Form0
10
-29.808386
20
-5.798359
30
-18.608206
70
192
0
VERTEX
8
Form0
10
-28.107962
20
-2.721171
30
-15.663945
70
192
0
VERTEX
8
Form0
10
-26.664248
20
-5.553960
30
-15.560409
70
192
0
VERTEX
8
Form0
10
-20.904764
20
-2.541664
30
-6.145033
70
192
0
VERTEX
8
Form0
10
-20.266741
20
-5.002461
30
-6.087574
70
192
0
VERTEX
8
Form0
10
-17.847013
20
-2.381751
30
-0.161151
70
192
0
VERTEX
8
Form0
10
-17.258862
20
-4.845217
30
-0.142462
70
192
0
VERTEX
8
Form0
10
-26.292059
20
7.024986
30
-51.497074
70
192
0
VERTEX
8
Form0
10
-26.850317
20
5.702881
30
-53.100525
70
192
0
VERTEX
8
Form0
10
-29.596487
20
7.252620
30
-52.830044
70
192
0
VERTEX
8
Form0
10
-30.171175
20
6.124504
30
-55.330059
70
192
0
VERTEX
8
Form0
10
-27.995970
20
2.880286
30
-54.446102
70
192
0
VERTEX
8
Form0
10
-28.425814
20
1.430123
30
-54.601318
70
192
0
VERTEX
8
Form0
10
-31.494501
20
3.155856
30
-58.080685
70
192
0
VERTEX
8
Form0
10
-31.909224
20
1.647006
30
-58.541111
70
192
0
VERTEX
8
Form0
10
-37.270802
20
7.977174
30
-49.036831
70
192
0
VERTEX
8
Form0
10
-39.235119
20
7.057219
30
-51.386524
70
192
0
VERTEX
8
Form0
10
-39.965984
20
8.301012
30
-44.019997
70
192
0
VERTEX
8
Form0
10
-41.555782
20
7.326992
30
-45.208027
70
192
0
VERTEX
8
Form0
10
-41.844845
20
3.896050
30
-54.118732
70
192
0
VERTEX
8
Form0
10
-42.942863
20
1.980707
30
-54.690685
70
192
0
VERTEX
8
Form0
10
-44.221012
20
4.125785
30
-46.476952
70
192
0
VERTEX
8
Form0
10
-45.538246
20
2.079285
30
-46.892143
70
192
0
VERTEX
8
Form0
10
-29.808388
20
5.798357
30
-18.608206
70
192
0
VERTEX
8
Form0
10
-31.863480
20
2.676728
30
-18.747662
70
192
0
VERTEX
8
Form0
10
-26.664251
20
5.553960
30
-15.560407
70
192
0
VERTEX
8
Form0
10
-28.107962
20
2.721170
30
-15.663945
70
192
0
VERTEX
8
Form0
10
-20.266741
20
5.002461
30
-6.087574
70
192
0
VERTEX
8
Form0
10
-20.904764
20
2.541664
30
-6.145033
70
192
0
VERTEX
8
Form0
10
-17.258862
20
4.845216
30
-0.142462
70
192
0
VERTEX
8
Form0
10
-17.847013
20
2.381751
30
-0.161152
70
192
0
VERTEX
8
Form0
10
-12.935716
20
9.618546
30
-57.152557
70
192
0
VERTEX
8
Form0
10
-14.119336
20
9.083483
30
-56.928932
70
192
0
VERTEX
8
Form0
10
-15.447457
20
11.122470
30
-54.269154
70
192
0
VERTEX
8
Form0
10
-16.898895
20
10.357886
30
-53.957588
70
192
0
VERTEX
8
Form0
10
-25.501423
20
16.314064
30
-31.080557
70
192
0
VERTEX
8
Form0
10
-30.939814
20
14.475469
30
-30.935213
70
192
0
VERTEX
8
Form0
10
-24.304615
20
16.061266
30
-28.237928
70
192
0
VERTEX
8
Form0
10
-28.561325
20
14.570808
30
-28.287378
70
192
0
VERTEX
8
Form0
10
-21.947840
20
14.108324
30
-20.163837
70
192
0
VERTEX
8
Form0
10
-25.346071
20
11.780911
30
-20.197224
70
192
0
VERTEX
8
Form0
10
-19.936602
20
13.002728
30
-16.020370
70
192
0
VERTEX
8
Form0
10
-22.817059
20
10.821383
30
-16.067831
70
192
0
VERTEX
8
Form0
10
-15.699104
20
11.465839
30
-6.002374
70
192
0
VERTEX
8
Form0
10
-17.573727
20
9.531500
30
-6.037643
70
192
0
VERTEX
8
Form0
10
-13.309914
20
11.079124
30
-0.146364
70
192
0
VERTEX
8
Form0
10
-15.010972
20
9.118502
30
-0.137287
70
192
0
VERTEX
8
Form0
10
-6.635840
20
12.524681
30
-57.153027
70
192
0
VERTEX
8
Form0
10
-9.276226
20
11.688048
30
-57.147362
70
192
0
VERTEX
8
Form0
10
-7.867752
20
14.514150
30
-54.362122
70
192
0
VERTEX
8
Form0
10
-10.795824
20
13.541507
30
-54.381474
70
192
0
VERTEX
8
Form0
10
-9.204060
20
18.355515
30
-47.079445
70
192
0
VERTEX
8
Form0
10
-11.760043
20
17.536823
30
-46.996590
70
192
0
VERTEX
8
Form0
10
-9.945752
20
19.551565
30
-42.751148
70
192
0
VERTEX
8
Form0
10
-12.721724
20
18.490946
30
-42.498177
70
192
0
VERTEX
8
Form0
10
-11.275145
20
20.680550
30
-33.840199
70
192
0
VERTEX
8
Form0
10
-15.483913
20
19.108444
30
-33.841228
70
192
0
VERTEX
8
Form0
10
-11.290711
20
20.721861
30
-29.151922
70
192
0
VERTEX
8
Form0
10
-15.515047
20
19.191071
30
-29.150894
70
192
0
VERTEX
8
Form0
10
-10.527720
20
19.192921
30
-20.181158
70
192
0
VERTEX
8
Form0
10
-14.431492
20
17.828810
30
-20.158216
70
192
0
VERTEX
8
Form0
10
-9.736446
20
17.692270
30
-16.032406
70
192
0
VERTEX
8
Form0
10
-13.409021
20
16.456841
30
-16.007971
70
192
0
VERTEX
8
Form0
10
-7.850447
20
15.632335
30
-6.049310
70
192
0
VERTEX
8
Form0
10
-10.748596
20
14.551187
30
-6.006457
70
192
0
VERTEX
8
Form0
10
-6.620801
20
15.116654
30
-0.225915
70
192
0
VERTEX
8
Form0
10
-9.192013
20
14.021191
30
-0.177384
70
192
0
VERTEX
8
Form0
10
1.465140
20
13.496389
30
-57.092789
70
192
0
VERTEX
8
Form0
10
-1.465140
20
13.496389
30
-57.092793
70
192
0
VERTEX
8
Form0
10
1.626566
20
15.574409
30
-54.329552
70
192
0
VERTEX
8
Form0
10
-1.626566
20
15.574410
30
-54.329552
70
192
0
VERTEX
8
Form0
10
2.075885
20
19.395920
30
-47.124058
70
192
0
VERTEX
8
Form0
10
-2.075886
20
19.395922
30
-47.124062
70
192
0
VERTEX
8
Form0
10
2.193491
20
20.824005
30
-42.887363
70
192
0
VERTEX
8
Form0
10
-2.193493
20
20.824005
30
-42.887363
70
192
0
VERTEX
8
Form0
10
2.361987
20
22.272936
30
-33.839645
70
192
0
VERTEX
8
Form0
10
-2.361990
20
22.272936
30
-33.839645
70
192
0
VERTEX
8
Form0
10
2.361988
20
22.272936
30
-29.152477
70
192
0
VERTEX
8
Form0
10
-2.361989
20
22.272936
30
-29.152479
70
192
0
VERTEX
8
Form0
10
2.175984
20
20.599447
30
-20.193512
70
192
0
VERTEX
8
Form0
10
-2.175985
20
20.599447
30
-20.193514
70
192
0
VERTEX
8
Form0
10
2.040870
20
18.946806
30
-16.045563
70
192
0
VERTEX
8
Form0
10
-2.040871
20
18.946808
30
-16.045565
70
192
0
VERTEX
8
Form0
10
1.611448
20
16.729759
30
-6.072384
70
192
0
VERTEX
8
Form0
10
-1.611448
20
16.729761
30
-6.072384
70
192
0
VERTEX
8
Form0
10
1.434282
20
16.166996
30
-0.252046
70
192
0
VERTEX
8
Form0
10
-1.434282
20
16.166996
30
-0.252047
70
192
0
VERTEX
8
Form0
10
9.276226
20
11.688047
30
-57.147362
70
192
0
VERTEX
8
Form0
10
6.635840
20
12.524681
30
-57.153027
70
192
0
VERTEX
8
Form0
10
10.795822
20
13.541506
30
-54.381470
70
192
0
VERTEX
8
Form0
10
7.867752
20
14.514151
30
-54.362122
70
192
0
VERTEX
8
Form0
10
13.588714
20
16.869583
30
-47.157871
70
192
0
VERTEX
8
Form0
10
9.849310
20
18.134928
30
-47.135899
70
192
0
VERTEX
8
Form0
10
14.563784
20
18.133730
30
-42.920769
70
192
0
VERTEX
8
Form0
10
10.605374
20
19.463526
30
-42.899055
70
192
0
VERTEX
8
Form0
10
15.601264
20
19.396820
30
-33.841228
70
192
0
VERTEX
8
Form0
10
11.333819
20
20.824738
30
-33.840199
70
192
0
VERTEX
8
Form0
10
15.601264
20
19.396820
30
-29.150892
70
192
0
VERTEX
8
Form0
10
11.333820
20
20.824738
30
-29.151924
70
192
0
VERTEX
8
Form0
10
14.482940
20
17.948261
30
-20.158215
70
192
0
VERTEX
8
Form0
10
10.553444
20
19.252647
30
-20.181160
70
192
0
VERTEX
8
Form0
10
13.427025
20
16.498646
30
-16.007969
70
192
0
VERTEX
8
Form0
10
9.745449
20
17.713175
30
-16.032408
70
192
0
VERTEX
8
Form0
10
10.748596
20
14.551185
30
-6.006456
70
192
0
VERTEX
8
Form0
10
7.850447
20
15.632335
30
-6.049309
70
192
0
VERTEX
8
Form0
10
9.192013
20
14.021190
30
-0.177384
70
192
0
VERTEX
8
Form0
10
6.620801
20
15.116654
30
-0.225914
70
192
0
VERTEX
8
Form0
10
15.145549
20
7.542663
30
-57.263767
70
192
0
VERTEX
8
Form0
10
13.297782
20
9.081837
30
-57.269749
70
192
0
VERTEX
8
Form0
10
17.819504
20
8.839743
30
-54.468246
70
192
0
VERTEX
8
Form0
10
15.777934
20
10.598483
30
-54.447884
70
192
0
VERTEX
8
Form0
10
22.464052
20
11.033812
30
-47.206882
70
192
0
VERTEX
8
Form0
10
19.860025
20
13.311810
30
-47.182724
70
192
0
VERTEX
8
Form0
10
24.125689
20
11.883885
30
-42.971218
70
192
0
VERTEX
8
Form0
10
21.359486
20
14.288622
30
-42.946026
70
192
0
VERTEX
8
Form0
10
25.841787
20
12.710216
30
-33.843670
70
192
0
VERTEX
8
Form0
10
22.854342
20
15.299969
30
-33.842442
70
192
0
VERTEX
8
Form0
10
25.841787
20
12.710216
30
-29.148453
70
192
0
VERTEX
8
Form0
10
22.854343
20
15.299970
30
-29.149679
70
192
0
VERTEX
8
Form0
10
24.003263
20
11.772166
30
-20.104940
70
192
0
VERTEX
8
Form0
10
21.253969
20
14.137857
30
-20.131540
70
192
0
VERTEX
8
Form0
10
22.219204
20
10.810373
30
-15.953306
70
192
0
VERTEX
8
Form0
10
19.648991
20
13.010283
30
-15.980287
70
192
0
VERTEX
8
Form0
10
17.785013
20
9.513332
30
-5.914898
70
192
0
VERTEX
8
Form0
10
15.773055
20
11.459482
30
-5.959413
70
192
0
VERTEX
8
Form0
10
15.116615
20
9.109417
30
-0.075914
70
192
0
VERTEX
8
Form0
10
13.346888
20
11.075944
30
-0.124884
70
192
0
VERTEX
8
Form0
10
17.976089
20
1.963927
30
-57.350475
70
192
0
VERTEX
8
Form0
10
17.304592
20
3.939663
30
-57.352177
70
192
0
VERTEX
8
Form0
10
21.325617
20
2.362995
30
-54.524277
70
192
0
VERTEX
8
Form0
10
20.583832
20
4.592860
30
-54.516041
70
192
0
VERTEX
8
Form0
10
26.931087
20
2.933155
30
-47.235023
70
192
0
VERTEX
8
Form0
10
25.986700
20
5.804652
30
-47.225193
70
192
0
VERTEX
8
Form0
10
28.954706
20
3.179500
30
-43.001183
70
192
0
VERTEX
8
Form0
10
27.948891
20
6.220624
30
-42.990524
70
192
0
VERTEX
8
Form0
10
31.011765
20
3.391408
30
-33.845139
70
192
0
VERTEX
8
Form0
10
29.924810
20
6.671068
30
-33.844612
70
192
0
VERTEX
8
Form0
10
31.011765
20
3.391408
30
-29.146984
70
192
0
VERTEX
8
Form0
10
29.924812
20
6.671068
30
-29.147511
70
192
0
VERTEX
8
Form0
10
28.814871
20
3.155987
30
-20.073322
70
192
0
VERTEX
8
Form0
10
27.814455
20
6.153443
30
-20.084566
70
192
0
VERTEX
8
Form0
10
26.651419
20
2.886128
30
-15.921865
70
192
0
VERTEX
8
Form0
10
25.717831
20
5.670290
30
-15.932859
70
192
0
VERTEX
8
Form0
10
21.327929
20
2.535305
30
-5.864245
70
192
0
VERTEX
8
Form0
10
20.600252
20
4.984293
30
-5.881589
70
192
0
VERTEX
8
Form0
10
18.058596
20
2.378571
30
-0.020758
70
192
0
VERTEX
8
Form0
10
17.425617
20
4.836133
30
-0.039470
70
192
0
VERTEX
8
Form0
10
0.000000
20
0.000000
30
-62.992126
70
192
0
VERTEX
8
Form0
10
0.000000
20
0.000000
30
-62.992126
70
192
0
VERTEX
8
Form0
10
0.000000
20
0.000000
30
-62.992126
70
192
0
VERTEX
8
Form0
10
0.000000
20
0.000000
30
-62.992126
70
192
0
VERTEX
8
Form0
10
0.000000
20
0.000000
30
-62.992126
70
192
0
VERTEX
8
Form0
10
0.000000
20
0.000000
30
-62.992126
70
192
0
VERTEX
8
Form0
10
0.000000
20
0.000000
30
-62.992126
70
192
0
VERTEX
8
Form0
10
0.000000
20
0.000000
30
-62.992126
70
192
0
VERTEX
8
Form0
10
0.000000
20
0.000000
30
-62.992126
70
192
0
VERTEX
8
Form0
10
0.000000
20
0.000000
30
-62.992126
70
192
0
VERTEX
8
Form0
10
0.000000
20
0.000000
30
-62.992126
70
192
0
VERTEX
8
Form0
10
0.000000
20
0.000000
30
-62.992126
70
192
0
VERTEX
8
Form0
10
0.000000
20
0.000000
30
-62.992126
70
192
0
VERTEX
8
Form0
10
-0.000001
20
0.000000
30
7.874015
70
192
0
VERTEX
8
Form0
10
-0.000001
20
0.000000
30
7.874015
70
192
0
VERTEX
8
Form0
10
-0.000001
20
0.000000
30
7.874015
70
192
0
VERTEX
8
Form0
10
-0.000001
20
0.000000
30
7.874015
70
192
0
VERTEX
8
Form0
10
-0.000001
20
0.000000
30
7.874015
70
192
0
VERTEX
8
Form0
10
-0.000001
20
0.000000
30
7.874015
70
192
0
VERTEX
8
Form0
10
-0.000001
20
0.000000
30
7.874015
70
192
0
VERTEX
8
Form0
10
-0.000001
20
0.000000
30
7.874015
70
192
0
VERTEX
8
Form0
10
-0.000001
20
0.000000
30
7.874015
70
192
0
VERTEX
8
Form0
10
-0.000001
20
0.000000
30
7.874015
70
192
0
VERTEX
8
Form0
10
-0.000001
20
0.000000
30
7.874015
70
192
0
VERTEX
8
Form0
10
-0.000001
20
0.000000
30
7.874015
70
192
0
VERTEX
8
Form0
10
-0.000001
20
0.000000
30
7.874015
70
192
0
VERTEX
8
Form0
10
-24.624613
20
0.000000
30
-51.133537
70
192
0
VERTEX
8
Form0
10
4.555210
20
0.000000
30
-61.952431
70
192
0
VERTEX
8
Form0
10
9.110420
20
0.000000
30
-60.912727
70
192
0
VERTEX
8
Form0
10
9.110418
20
0.000000
30
5.794621
70
192
0
VERTEX
8
Form0
10
4.555208
20
0.000000
30
6.834318
70
192
0
VERTEX
8
Form0
10
4.104102
20
-1.404282
30
-61.952431
70
192
0
VERTEX
8
Form0
10
8.208204
20
-2.808564
30
-60.912727
70
192
0
VERTEX
8
Form0
10
8.208202
20
-3.952863
30
5.794621
70
192
0
VERTEX
8
Form0
10
4.104101
20
-1.976431
30
6.834318
70
192
0
VERTEX
8
Form0
10
2.840127
20
-2.530429
30
-61.952431
70
192
0
VERTEX
8
Form0
10
5.680254
20
-5.060857
30
-60.912727
70
192
0
VERTEX
8
Form0
10
5.680253
20
-7.122812
30
5.794621
70
192
0
VERTEX
8
Form0
10
2.840126
20
-3.561406
30
6.834318
70
192
0
VERTEX
8
Form0
10
1.013629
20
-3.155393
30
-61.952431
70
192
0
VERTEX
8
Form0
10
2.027259
20
-6.310786
30
-60.912727
70
192
0
VERTEX
8
Form0
10
2.027259
20
-8.882001
30
5.794621
70
192
0
VERTEX
8
Form0
10
1.013629
20
-4.441000
30
6.834318
70
192
0
VERTEX
8
Form0
10
-1.013630
20
-3.155393
30
-61.952431
70
192
0
VERTEX
8
Form0
10
-2.027260
20
-6.310786
30
-60.912727
70
192
0
VERTEX
8
Form0
10
-2.027259
20
-8.882001
30
5.794621
70
192
0
VERTEX
8
Form0
10
-1.013630
20
-4.441000
30
6.834318
70
192
0
VERTEX
8
Form0
10
-2.840127
20
-2.530428
30
-61.952431
70
192
0
VERTEX
8
Form0
10
-5.680254
20
-5.060857
30
-60.912727
70
192
0
VERTEX
8
Form0
10
-5.680254
20
-7.122812
30
5.794621
70
192
0
VERTEX
8
Form0
10
-2.840127
20
-3.561406
30
6.834318
70
192
0
VERTEX
8
Form0
10
-4.104103
20
-1.404282
30
-61.952431
70
192
0
VERTEX
8
Form0
10
-8.208205
20
-2.808564
30
-60.912727
70
192
0
VERTEX
8
Form0
10
-8.208203
20
-3.952862
30
5.794621
70
192
0
VERTEX
8
Form0
10
-4.104103
20
-1.976431
30
6.834318
70
192
0
VERTEX
8
Form0
10
-4.555210
20
0.000000
30
-61.952431
70
192
0
VERTEX
8
Form0
10
-9.110420
20
0.000000
30
-60.912727
70
192
0
VERTEX
8
Form0
10
-9.110419
20
0.000000
30
5.794621
70
192
0
VERTEX
8
Form0
10
-4.555210
20
0.000000
30
6.834318
70
192
0
VERTEX
8
Form0
10
-4.104103
20
1.404282
30
-61.952431
70
192
0
VERTEX
8
Form0
10
-8.208205
20
2.808564
30
-60.912727
70
192
0
VERTEX
8
Form0
10
-8.208203
20
3.952863
30
5.794621
70
192
0
VERTEX
8
Form0
10
-4.104102
20
1.976431
30
6.834318
70
192
0
VERTEX
8
Form0
10
-2.840127
20
2.530429
30
-61.952431
70
192
0
VERTEX
8
Form0
10
-5.680254
20
5.060858
30
-60.912727
70
192
0
VERTEX
8
Form0
10
-5.680254
20
7.122812
30
5.794621
70
192
0
VERTEX
8
Form0
10
-2.840127
20
3.561406
30
6.834318
70
192
0
VERTEX
8
Form0
10
-1.013630
20
3.155393
30
-61.952431
70
192
0
VERTEX
8
Form0
10
-2.027259
20
6.310786
30
-60.912727
70
192
0
VERTEX
8
Form0
10
-2.027259
20
8.882001
30
5.794621
70
192
0
VERTEX
8
Form0
10
-1.013630
20
4.441000
30
6.834318
70
192
0
VERTEX
8
Form0
10
1.013630
20
3.155393
30
-61.952431
70
192
0
VERTEX
8
Form0
10
2.027260
20
6.310786
30
-60.912727
70
192
0
VERTEX
8
Form0
10
2.027258
20
8.882001
30
5.794621
70
192
0
VERTEX
8
Form0
10
1.013629
20
4.441000
30
6.834318
70
192
0
VERTEX
8
Form0
10
2.840128
20
2.530429
30
-61.952431
70
192
0
VERTEX
8
Form0
10
5.680255
20
5.060858
30
-60.912727
70
192
0
VERTEX
8
Form0
10
5.680253
20
7.122812
30
5.794621
70
192
0
VERTEX
8
Form0
10
2.840126
20
3.561406
30
6.834318
70
192
0
VERTEX
8
Form0
10
4.104103
20
1.404282
30
-61.952431
70
192
0
VERTEX
8
Form0
10
8.208206
20
2.808564
30
-60.912727
70
192
0
VERTEX
8
Form0
10
8.208202
20
3.952862
30
5.794621
70
192
0
VERTEX
8
Form0
10
4.104101
20
1.976431
30
6.834318
70
192
0
VERTEX
8
Form0
10
-24.482042
20
-2.636129
30
-50.963902
70
192
0
VERTEX
8
Form0
10
-24.878817
20
-1.279819
30
-50.794270
70
192
0
VERTEX
8
Form0
10
-24.878815
20
1.279820
30
-50.794270
70
192
0
VERTEX
8
Form0
10
-24.482040
20
2.636130
30
-50.963905
70
192
0
VERTEX
8
Form0
10
0.000000
20
0.000000
30
0.000000
70
128
71
3
72
299
73
97
74
97
0
VERTEX
8
Form0
10
0.000000
20
0.000000
30
0.000000
70
128
71
3
72
298
73
299
74
299
0
VERTEX
8
Form0
10
0.000000
20
0.000000
30
0.000000
70
128
71
299
72
9
73
97
74
97
0
VERTEX
8
Form0
10
0.000000
20
0.000000
30
0.000000
70
128
71
110
72
1
73
96
74
96
0
VERTEX
8
Form0
10
0.000000
20
0.000000
30
0.000000
70
128
71
111
72
96
73
97
74
97
0
VERTEX
8
Form0
10
0.000000
20
0.000000
30
0.000000
70
128
71
96
72
111
73
110
74
110
0
VERTEX
8
Form0
10
0.000000
20
0.000000
30
0.000000
70
128
71
111
72
97
73
9
74
9
0
VERTEX
8
Form0
10
0.000000
20
0.000000
30
0.000000
70
128
71
9
72
299
73
490
74
112
0
VERTEX
8
Form0
10
0.000000
20
0.000000
30
0.000000
70
128
71
299
72
298
73
491
74
490
0
VERTEX
8
Form0
10
0.000000
20
0.000000
30
0.000000
70
128
71
298
72
3
73
98
74
491
0
VERTEX
8
Form0
10
0.000000
20
0.000000
30
0.000000
70
128
71
112
72
490
73
492
74
113
0
VERTEX
8
Form0
10
0.000000
20
0.000000
30
0.000000
70
128
71
490
72
491
73
493
74
492
0
VERTEX
8
Form0
10
0.000000
20
0.000000
30
0.000000
70
128
71
491
72
98
73
99
74
493
0
VERTEX
8
Form0
10
0.000000
20
0.000000
30
0.000000
70
128
71
113
72
492
73
327
74
10
0
VERTEX
8
Form0
10
0.000000
20
0.000000
30
0.000000
70
128
71
492
72
493
73
326
74
327
0
VERTEX
8
Form0
10
0.000000
20
0.000000
30
0.000000
70
128
71
493
72
99
73
4
74
326
0
VERTEX
8
Form0
10
0.000000
20
0.000000
30
0.000000
70
128
71
10
72
327
73
494
74
114
0
VERTEX
8
Form0
10
0.000000
20
0.000000
30
0.000000
70
128
71
327
72
326
73
495
74
494
0
VERTEX
8
Form0
10
0.000000
20
0.000000
30
0.000000
70
128
71
326
72
4
73
100
74
495
0
VERTEX
8
Form0
10
0.000000
20
0.000000
30
0.000000
70
128
71
114
72
494
73
496
74
115
0
VERTEX
8
Form0
10
0.000000
20
0.000000
30
0.000000
70
128
71
494
72
495
73
497
74
496
0
VERTEX
8
Form0
10
0.000000
20
0.000000
30
0.000000
70
128
71
495
72
100
73
101
74
497
0
VERTEX
8
Form0
10
0.000000
20
0.000000
30
0.000000
70
128
71
115
72
496
73
359
74
11
0
VERTEX
8
Form0
10
0.000000
20
0.000000
30
0.000000
70
128
71
496
72
497
73
358
74
359
0
VERTEX
8
Form0
10
0.000000
20
0.000000
30
0.000000
70
128
71
497
72
101
73
5
74
358
0
VERTEX
8
Form0
10
0.000000
20
0.000000
30
0.000000
70
128
71
11
72
359
73
498
74
116
0
VERTEX
8
Form0
10
0.000000
20
0.000000
30
0.000000
70
128
71
359
72
358
73
499
74
498
0
VERTEX
8
Form0
10
0.000000
20
0.000000
30
0.000000
70
128
71
358
72
5
73
102
74
499
0
VERTEX
8
Form0
10
0.000000
20
0.000000
30
0.000000
70
128
71
116
72
498
73
500
74
117
0
VERTEX
8
Form0
10
0.000000
20
0.000000
30
0.000000
70
128
71
498
72
499
73
501
74
500
0
VERTEX
8
Form0
10
0.000000
20
0.000000
30
0.000000
70
128
71
499
72
102
73
103
74
501
0
VERTEX
8
Form0
10
0.000000
20
0.000000
30
0.000000
70
128
71
117
72
500
73
391
74
12
0
VERTEX
8
Form0
10
0.000000
20
0.000000
30
0.000000
70
128
71
500
72
501
73
390
74
391
0
VERTEX
8
Form0
10
0.000000
20
0.000000
30
0.000000
70
128
71
501
72
103
73
6
74
390
0
VERTEX
8
Form0
10
0.000000
20
0.000000
30
0.000000
70
128
71
12
72
391
73
502
74
118
0
VERTEX
8
Form0
10
0.000000
20
0.000000
30
0.000000
70
128
71
391
72
390
73
503
74
502
0
VERTEX
8
Form0
10
0.000000
20
0.000000
30
0.000000
70
128
71
390
72
6
73
104
74
503
0
VERTEX
8
Form0
10
0.000000
20
0.000000
30
0.000000
70
128
71
118
72
502
73
504
74
119
0
VERTEX
8
Form0
10
0.000000
20
0.000000
30
0.000000
70
128
71
502
72
503
73
505
74
504
0
VERTEX
8
Form0
10
0.000000
20
0.000000
30
0.000000
70
128
71
503
72
104
73
105
74
505
0
VERTEX
8
Form0
10
0.000000
20
0.000000
30
0.000000
70
128
71
119
72
504
73
419
74
13
0
VERTEX
8
Form0
10
0.000000
20
0.000000
30
0.000000
70
128
71
504
72
505
73
418
74
419
0
VERTEX
8
Form0
10
0.000000
20
0.000000
30
0.000000
70
128
71
505
72
105
73
7
74
418
0
VERTEX
8
Form0
10
0.000000
20
0.000000
30
0.000000
70
128
71
13
72
419
73
506
74
120
0
VERTEX
8
Form0
10
0.000000
20
0.000000
30
0.000000
70
128
71
419
72
418
73
507
74
506
0
VERTEX
8
Form0
10
0.000000
20
0.000000
30
0.000000
70
128
71
418
72
7
73
106
74
507
0
VERTEX
8
Form0
10
0.000000
20
0.000000
30
0.000000
70
128
71
120
72
506
73
508
74
121
0
VERTEX
8
Form0
10
0.000000
20
0.000000
30
0.000000
70
128
71
506
72
507
73
509
74
508
0
VERTEX
8
Form0
10
0.000000
20
0.000000
30
0.000000
70
128
71
507
72
106
73
107
74
509
0
VERTEX
8
Form0
10
0.000000
20
0.000000
30
0.000000
70
128
71
121
72
508
73
447
74
14
0
VERTEX
8
Form0
10
0.000000
20
0.000000
30
0.000000
70
128
71
508
72
509
73
446
74
447
0
VERTEX
8
Form0
10
0.000000
20
0.000000
30
0.000000
70
128
71
509
72
107
73
8
74
446
0
VERTEX
8
Form0
10
0.000000
20
0.000000
30
0.000000
70
128
71
123
72
122
73
109
74
109
0
VERTEX
8
Form0
10
0.000000
20
0.000000
30
0.000000
70
128
71
109
72
2
73
123
74
123
0
VERTEX
8
Form0
10
0.000000
20
0.000000
30
0.000000
70
128
71
122
72
108
73
109
74
109
0
VERTEX
8
Form0
10
0.000000
20
0.000000
30
0.000000
70
128
71
447
72
108
73
122
74
122
0
VERTEX
8
Form0
10
0.000000
20
0.000000
30
0.000000
70
128
71
108
72
446
73
8
74
8
0
VERTEX
8
Form0
10
0.000000
20
0.000000
30
0.000000
70
128
71
446
72
108
73
447
74
447
0
VERTEX
8
Form0
10
0.000000
20
0.000000
30
0.000000
70
128
71
447
72
122
73
14
74
14
0
VERTEX
8
Form0
10
0.000000
20
0.000000
30
0.000000
70
128
71
301
72
15
73
802
74
802
0
VERTEX
8
Form0
10
0.000000
20
0.000000
30
0.000000
70
128
71
802
72
300
73
301
74
301
0
VERTEX
8
Form0
10
0.000000
20
0.000000
30
0.000000
70
128
71
802
72
15
73
125
74
125
0
VERTEX
8
Form0
10
0.000000
20
0.000000
30
0.000000
70
128
71
124
72
770
73
801
74
801
0
VERTEX
8
Form0
10
0.000000
20
0.000000
30
0.000000
70
128
71
9
72
300
73
802
74
802
0
VERTEX
8
Form0
10
0.000000
20
0.000000
30
0.000000
70
128
71
802
72
125
73
801
74
801
0
VERTEX
8
Form0
10
0.000000
20
0.000000
30
0.000000
70
128
71
125
72
124
73
801
74
801
0
VERTEX
8
Form0
10
0.000000
20
0.000000
30
0.000000
70
128
71
15
72
301
73
510
74
126
0
VERTEX
8
Form0
10
0.000000
20
0.000000
30
0.000000
70
128
71
301
72
300
73
511
74
510
0
VERTEX
8
Form0
10
0.000000
20
0.000000
30
0.000000
70
128
71
300
72
9
73
112
74
511
0
VERTEX
8
Form0
10
0.000000
20
0.000000
30
0.000000
70
128
71
126
72
510
73
512
74
127
0
VERTEX
8
Form0
10
0.000000
20
0.000000
30
0.000000
70
128
71
510
72
511
73
513
74
512
0
VERTEX
8
Form0
10
0.000000
20
0.000000
30
0.000000
70
128
71
511
72
112
73
113
74
513
0
VERTEX
8
Form0
10
0.000000
20
0.000000
30
0.000000
70
128
71
127
72
512
73
329
74
16
0
VERTEX
8
Form0
10
0.000000
20
0.000000
30
0.000000
70
128
71
512
72
513
73
328
74
329
0
VERTEX
8
Form0
10
0.000000
20
0.000000
30
0.000000
70
128
71
513
72
113
73
10
74
328
0
VERTEX
8
Form0
10
0.000000
20
0.000000
30
0.000000
70
128
71
16
72
329
73
514
74
128
0
VERTEX
8
Form0
10
0.000000
20
0.000000
30
0.000000
70
128
71
329
72
328
73
515
74
514
0
VERTEX
8
Form0
10
0.000000
20
0.000000
30
0.000000
70
128
71
328
72
10
73
114
74
515
0
VERTEX
8
Form0
10
0.000000
20
0.000000
30
0.000000
70
128
71
128
72
514
73
516
74
129
0
VERTEX
8
Form0
10
0.000000
20
0.000000
30
0.000000
70
128
71
514
72
515
73
517
74
516
0
VERTEX
8
Form0
10
0.000000
20
0.000000
30
0.000000
70
128
71
515
72
114
73
115
74
517
0
VERTEX
8
Form0
10
0.000000
20
0.000000
30
0.000000
70
128
71
129
72
516
73
361
74
17
0
VERTEX
8
Form0
10
0.000000
20
0.000000
30
0.000000
70
128
71
516
72
517
73
360
74
361
0
VERTEX
8
Form0
10
0.000000
20
0.000000
30
0.000000
70
128
71
517
72
115
73
11
74
360
0
VERTEX
8
Form0
10
0.000000
20
0.000000
30
0.000000
70
128
71
17
72
361
73
518
74
130
0
VERTEX
8
Form0
10
0.000000
20
0.000000
30
0.000000
70
128
71
361
72
360
73
519
74
518
0
VERTEX
8
Form0
10
0.000000
20
0.000000
30
0.000000
70
128
71
360
72
11
73
116
74
519
0
VERTEX
8
Form0
10
0.000000
20
0.000000
30
0.000000
70
128
71
130
72
518
73
520
74
131
0
VERTEX
8
Form0
10
0.000000
20
0.000000
30
0.000000
70
128
71
518
72
519
73
521
74
520
0
VERTEX
8
Form0
10
0.000000
20
0.000000
30
0.000000
70
128
71
519
72
116
73
117
74
521
0
VERTEX
8
Form0
10
0.000000
20
0.000000
30
0.000000
70
128
71
131
72
520
73
393
74
18
0
VERTEX
8
Form0
10
0.000000
20
0.000000
30
0.000000
70
128
71
520
72
521
73
392
74
393
0
VERTEX
8
Form0
10
0.000000
20
0.000000
30
0.000000
70
128
71
521
72
117
73
12
74
392
0
VERTEX
8
Form0
10
0.000000
20
0.000000
30
0.000000
70
128
71
18
72
393
73
522
74
132
0
VERTEX
8
Form0
10
0.000000
20
0.000000
30
0.000000
70
128
71
393
72
392
73
523
74
522
0
VERTEX
8
Form0
10
0.000000
20
0.000000
30
0.000000
70
128
71
392
72
12
73
118
74
523
0
VERTEX
8
Form0
10
0.000000
20
0.000000
30
0.000000
70
128
71
132
72
522
73
524
74
133
0
VERTEX
8
Form0
10
0.000000
20
0.000000
30
0.000000
70
128
71
522
72
523
73
525
74
524
0
VERTEX
8
Form0
10
0.000000
20
0.000000
30
0.000000
70
128
71
523
72
118
73
119
74
525
0
VERTEX
8
Form0
10
0.000000
20
0.000000
30
0.000000
70
128
71
133
72
524
73
421
74
19
0
VERTEX
8
Form0
10
0.000000
20
0.000000
30
0.000000
70
128
71
524
72
525
73
420
74
421
0
VERTEX
8
Form0
10
0.000000
20
0.000000
30
0.000000
70
128
71
525
72
119
73
13
74
420
0
VERTEX
8
Form0
10
0.000000
20
0.000000
30
0.000000
70
128
71
19
72
421
73
526
74
134
0
VERTEX
8
Form0
10
0.000000
20
0.000000
30
0.000000
70
128
71
421
72
420
73
527
74
526
0
VERTEX
8
Form0
10
0.000000
20
0.000000
30
0.000000
70
128
71
420
72
13
73
120
74
527
0
VERTEX
8
Form0
10
0.000000
20
0.000000
30
0.000000
70
128
71
134
72
526
73
528
74
135
0
VERTEX
8
Form0
10
0.000000
20
0.000000
30
0.000000
70
128
71
526
72
527
73
529
74
528
0
VERTEX
8
Form0
10
0.000000
20
0.000000
30
0.000000
70
128
71
527
72
120
73
121
74
529
0
VERTEX
8
Form0
10
0.000000
20
0.000000
30
0.000000
70
128
71
135
72
528
73
449
74
20
0
VERTEX
8
Form0
10
0.000000
20
0.000000
30
0.000000
70
128
71
528
72
529
73
448
74
449
0
VERTEX
8
Form0
10
0.000000
20
0.000000
30
0.000000
70
128
71
529
72
121
73
14
74
448
0
VERTEX
8
Form0
10
0.000000
20
0.000000
30
0.000000
70
128
71
804
72
137
73
803
74
803
0
VERTEX
8
Form0
10
0.000000
20
0.000000
30
0.000000
70
128
71
804
72
783
73
137
74
137
0
VERTEX
8
Form0
10
0.000000
20
0.000000
30
0.000000
70
128
71
137
72
136
73
803
74
803
0
VERTEX
8
Form0
10
0.000000
20
0.000000
30
0.000000
70
128
71
449
72
803
73
136
74
136
0
VERTEX
8
Form0
10
0.000000
20
0.000000
30
0.000000
70
128
71
803
72
448
73
14
74
14
0
VERTEX
8
Form0
10
0.000000
20
0.000000
30
0.000000
70
128
71
448
72
803
73
449
74
449
0
VERTEX
8
Form0
10
0.000000
20
0.000000
30
0.000000
70
128
71
449
72
136
73
20
74
20
0
VERTEX
8
Form0
10
0.000000
20
0.000000
30
0.000000
70
128
71
806
72
21
73
139
74
139
0
VERTEX
8
Form0
10
0.000000
20
0.000000
30
0.000000
70
128
71
806
72
303
73
21
74
21
0
VERTEX
8
Form0
10
0.000000
20
0.000000
30
0.000000
70
128
71
139
72
138
73
805
74
805
0
VERTEX
8
Form0
10
0.000000
20
0.000000
30
0.000000
70
128
71
806
72
139
73
805
74
805
0
VERTEX
8
Form0
10
0.000000
20
0.000000
30
0.000000
70
128
71
302
72
806
73
15
74
15
0
VERTEX
8
Form0
10
0.000000
20
0.000000
30
0.000000
70
128
71
302
72
303
73
806
74
806
0
VERTEX
8
Form0
10
0.000000
20
0.000000
30
0.000000
70
128
71
805
72
138
73
771
74
771
0
VERTEX
8
Form0
10
0.000000
20
0.000000
30
0.000000
70
128
71
21
72
303
73
530
74
140
0
VERTEX
8
Form0
10
0.000000
20
0.000000
30
0.000000
70
128
71
303
72
302
73
531
74
530
0
VERTEX
8
Form0
10
0.000000
20
0.000000
30
0.000000
70
128
71
302
72
15
73
126
74
531
0
VERTEX
8
Form0
10
0.000000
20
0.000000
30
0.000000
70
128
71
140
72
530
73
532
74
141
0
VERTEX
8
Form0
10
0.000000
20
0.000000
30
0.000000
70
128
71
530
72
531
73
533
74
532
0
VERTEX
8
Form0
10
0.000000
20
0.000000
30
0.000000
70
128
71
531
72
126
73
127
74
533
0
VERTEX
8
Form0
10
0.000000
20
0.000000
30
0.000000
70
128
71
141
72
532
73
331
74
22
0
VERTEX
8
Form0
10
0.000000
20
0.000000
30
0.000000
70
128
71
532
72
533
73
330
74
331
0
VERTEX
8
Form0
10
0.000000
20
0.000000
30
0.000000
70
128
71
533
72
127
73
16
74
330
0
VERTEX
8
Form0
10
0.000000
20
0.000000
30
0.000000
70
128
71
22
72
331
73
534
74
142
0
VERTEX
8
Form0
10
0.000000
20
0.000000
30
0.000000
70
128
71
331
72
330
73
535
74
534
0
VERTEX
8
Form0
10
0.000000
20
0.000000
30
0.000000
70
128
71
330
72
16
73
128
74
535
0
VERTEX
8
Form0
10
0.000000
20
0.000000
30
0.000000
70
128
71
142
72
534
73
536
74
143
0
VERTEX
8
Form0
10
0.000000
20
0.000000
30
0.000000
70
128
71
534
72
535
73
537
74
536
0
VERTEX
8
Form0
10
0.000000
20
0.000000
30
0.000000
70
128
71
535
72
128
73
129
74
537
0
VERTEX
8
Form0
10
0.000000
20
0.000000
30
0.000000
70
128
71
143
72
536
73
363
74
23
0
VERTEX
8
Form0
10
0.000000
20
0.000000
30
0.000000
70
128
71
536
72
537
73
362
74
363
0
VERTEX
8
Form0
10
0.000000
20
0.000000
30
0.000000
70
128
71
537
72
129
73
17
74
362
0
VERTEX
8
Form0
10
0.000000
20
0.000000
30
0.000000
70
128
71
23
72
363
73
538
74
144
0
VERTEX
8
Form0
10
0.000000
20
0.000000
30
0.000000
70
128
71
363
72
362
73
539
74
538
0
VERTEX
8
Form0
10
0.000000
20
0.000000
30
0.000000
70
128
71
362
72
17
73
130
74
539
0
VERTEX
8
Form0
10
0.000000
20
0.000000
30
0.000000
70
128
71
144
72
538
73
540
74
145
0
VERTEX
8
Form0
10
0.000000
20
0.000000
30
0.000000
70
128
71
538
72
539
73
541
74
540
0
VERTEX
8
Form0
10
0.000000
20
0.000000
30
0.000000
70
128
71
539
72
130
73
131
74
541
0
VERTEX
8
Form0
10
0.000000
20
0.000000
30
0.000000
70
128
71
145
72
540
73
395
74
24
0
VERTEX
8
Form0
10
0.000000
20
0.000000
30
0.000000
70
128
71
540
72
541
73
394
74
395
0
VERTEX
8
Form0
10
0.000000
20
0.000000
30
0.000000
70
128
71
541
72
131
73
18
74
394
0
VERTEX
8
Form0
10
0.000000
20
0.000000
30
0.000000
70
128
71
24
72
395
73
542
74
146
0
VERTEX
8
Form0
10
0.000000
20
0.000000
30
0.000000
70
128
71
395
72
394
73
543
74
542
0
VERTEX
8
Form0
10
0.000000
20
0.000000
30
0.000000
70
128
71
394
72
18
73
132
74
543
0
VERTEX
8
Form0
10
0.000000
20
0.000000
30
0.000000
70
128
71
146
72
542
73
544
74
147
0
VERTEX
8
Form0
10
0.000000
20
0.000000
30
0.000000
70
128
71
542
72
543
73
545
74
544
0
VERTEX
8
Form0
10
0.000000
20
0.000000
30
0.000000
70
128
71
543
72
132
73
133
74
545
0
VERTEX
8
Form0
10
0.000000
20
0.000000
30
0.000000
70
128
71
147
72
544
73
423
74
25
0
VERTEX
8
Form0
10
0.000000
20
0.000000
30
0.000000
70
128
71
544
72
545
73
422
74
423
0
VERTEX
8
Form0
10
0.000000
20
0.000000
30
0.000000
70
128
71
545
72
133
73
19
74
422
0
VERTEX
8
Form0
10
0.000000
20
0.000000
30
0.000000
70
128
71
25
72
423
73
546
74
148
0
VERTEX
8
Form0
10
0.000000
20
0.000000
30
0.000000
70
128
71
423
72
422
73
547
74
546
0
VERTEX
8
Form0
10
0.000000
20
0.000000
30
0.000000
70
128
71
422
72
19
73
134
74
547
0
VERTEX
8
Form0
10
0.000000
20
0.000000
30
0.000000
70
128
71
148
72
546
73
548
74
149
0
VERTEX
8
Form0
10
0.000000
20
0.000000
30
0.000000
70
128
71
546
72
547
73
549
74
548
0
VERTEX
8
Form0
10
0.000000
20
0.000000
30
0.000000
70
128
71
547
72
134
73
135
74
549
0
VERTEX
8
Form0
10
0.000000
20
0.000000
30
0.000000
70
128
71
149
72
548
73
451
74
26
0
VERTEX
8
Form0
10
0.000000
20
0.000000
30
0.000000
70
128
71
548
72
549
73
450
74
451
0
VERTEX
8
Form0
10
0.000000
20
0.000000
30
0.000000
70
128
71
549
72
135
73
20
74
450
0
VERTEX
8
Form0
10
0.000000
20
0.000000
30
0.000000
70
128
71
151
72
150
73
808
74
808
0
VERTEX
8
Form0
10
0.000000
20
0.000000
30
0.000000
70
128
71
808
72
784
73
151
74
151
0
VERTEX
8
Form0
10
0.000000
20
0.000000
30
0.000000
70
128
71
150
72
807
73
808
74
808
0
VERTEX
8
Form0
10
0.000000
20
0.000000
30
0.000000
70
128
71
450
72
150
73
451
74
451
0
VERTEX
8
Form0
10
0.000000
20
0.000000
30
0.000000
70
128
71
807
72
450
73
20
74
20
0
VERTEX
8
Form0
10
0.000000
20
0.000000
30
0.000000
70
128
71
807
72
150
73
450
74
450
0
VERTEX
8
Form0
10
0.000000
20
0.000000
30
0.000000
70
128
71
451
72
150
73
26
74
26
0
VERTEX
8
Form0
10
0.000000
20
0.000000
30
0.000000
70
128
71
305
72
153
73
304
74
304
0
VERTEX
8
Form0
10
0.000000
20
0.000000
30
0.000000
70
128
71
305
72
27
73
153
74
153
0
VERTEX
8
Form0
10
0.000000
20
0.000000
30
0.000000
70
128
71
153
72
152
73
809
74
809
0
VERTEX
8
Form0
10
0.000000
20
0.000000
30
0.000000
70
128
71
810
72
153
73
809
74
809
0
VERTEX
8
Form0
10
0.000000
20
0.000000
30
0.000000
70
128
71
304
72
810
73
21
74
21
0
VERTEX
8
Form0
10
0.000000
20
0.000000
30
0.000000
70
128
71
304
72
153
73
810
74
810
0
VERTEX
8
Form0
10
0.000000
20
0.000000
30
0.000000
70
128
71
809
72
152
73
772
74
772
0
VERTEX
8
Form0
10
0.000000
20
0.000000
30
0.000000
70
128
71
27
72
305
73
550
74
154
0
VERTEX
8
Form0
10
0.000000
20
0.000000
30
0.000000
70
128
71
305
72
304
73
551
74
550
0
VERTEX
8
Form0
10
0.000000
20
0.000000
30
0.000000
70
128
71
304
72
21
73
140
74
551
0
VERTEX
8
Form0
10
0.000000
20
0.000000
30
0.000000
70
128
71
154
72
550
73
552
74
155
0
VERTEX
8
Form0
10
0.000000
20
0.000000
30
0.000000
70
128
71
550
72
551
73
553
74
552
0
VERTEX
8
Form0
10
0.000000
20
0.000000
30
0.000000
70
128
71
551
72
140
73
141
74
553
0
VERTEX
8
Form0
10
0.000000
20
0.000000
30
0.000000
70
128
71
155
72
552
73
333
74
28
0
VERTEX
8
Form0
10
0.000000
20
0.000000
30
0.000000
70
128
71
552
72
553
73
332
74
333
0
VERTEX
8
Form0
10
0.000000
20
0.000000
30
0.000000
70
128
71
553
72
141
73
22
74
332
0
VERTEX
8
Form0
10
0.000000
20
0.000000
30
0.000000
70
128
71
28
72
333
73
554
74
156
0
VERTEX
8
Form0
10
0.000000
20
0.000000
30
0.000000
70
128
71
333
72
332
73
555
74
554
0
VERTEX
8
Form0
10
0.000000
20
0.000000
30
0.000000
70
128
71
332
72
22
73
142
74
555
0
VERTEX
8
Form0
10
0.000000
20
0.000000
30
0.000000
70
128
71
156
72
554
73
556
74
157
0
VERTEX
8
Form0
10
0.000000
20
0.000000
30
0.000000
70
128
71
554
72
555
73
557
74
556
0
VERTEX
8
Form0
10
0.000000
20
0.000000
30
0.000000
70
128
71
555
72
142
73
143
74
557
0
VERTEX
8
Form0
10
0.000000
20
0.000000
30
0.000000
70
128
71
157
72
556
73
365
74
29
0
VERTEX
8
Form0
10
0.000000
20
0.000000
30
0.000000
70
128
71
556
72
557
73
364
74
365
0
VERTEX
8
Form0
10
0.000000
20
0.000000
30
0.000000
70
128
71
557
72
143
73
23
74
364
0
VERTEX
8
Form0
10
0.000000
20
0.000000
30
0.000000
70
128
71
29
72
365
73
558
74
158
0
VERTEX
8
Form0
10
0.000000
20
0.000000
30
0.000000
70
128
71
365
72
364
73
559
74
558
0
VERTEX
8
Form0
10
0.000000
20
0.000000
30
0.000000
70
128
71
364
72
23
73
144
74
559
0
VERTEX
8
Form0
10
0.000000
20
0.000000
30
0.000000
70
128
71
158
72
558
73
560
74
159
0
VERTEX
8
Form0
10
0.000000
20
0.000000
30
0.000000
70
128
71
558
72
559
73
561
74
560
0
VERTEX
8
Form0
10
0.000000
20
0.000000
30
0.000000
70
128
71
559
72
144
73
145
74
561
0
VERTEX
8
Form0
10
0.000000
20
0.000000
30
0.000000
70
128
71
159
72
560
73
397
74
30
0
VERTEX
8
Form0
10
0.000000
20
0.000000
30
0.000000
70
128
71
560
72
561
73
396
74
397
0
VERTEX
8
Form0
10
0.000000
20
0.000000
30
0.000000
70
128
71
561
72
145
73
24
74
396
0
VERTEX
8
Form0
10
0.000000
20
0.000000
30
0.000000
70
128
71
30
72
397
73
562
74
160
0
VERTEX
8
Form0
10
0.000000
20
0.000000
30
0.000000
70
128
71
397
72
396
73
563
74
562
0
VERTEX
8
Form0
10
0.000000
20
0.000000
30
0.000000
70
128
71
396
72
24
73
146
74
563
0
VERTEX
8
Form0
10
0.000000
20
0.000000
30
0.000000
70
128
71
160
72
562
73
564
74
161
0
VERTEX
8
Form0
10
0.000000
20
0.000000
30
0.000000
70
128
71
562
72
563
73
565
74
564
0
VERTEX
8
Form0
10
0.000000
20
0.000000
30
0.000000
70
128
71
563
72
146
73
147
74
565
0
VERTEX
8
Form0
10
0.000000
20
0.000000
30
0.000000
70
128
71
161
72
564
73
425
74
31
0
VERTEX
8
Form0
10
0.000000
20
0.000000
30
0.000000
70
128
71
564
72
565
73
424
74
425
0
VERTEX
8
Form0
10
0.000000
20
0.000000
30
0.000000
70
128
71
565
72
147
73
25
74
424
0
VERTEX
8
Form0
10
0.000000
20
0.000000
30
0.000000
70
128
71
31
72
425
73
566
74
162
0
VERTEX
8
Form0
10
0.000000
20
0.000000
30
0.000000
70
128
71
425
72
424
73
567
74
566
0
VERTEX
8
Form0
10
0.000000
20
0.000000
30
0.000000
70
128
71
424
72
25
73
148
74
567
0
VERTEX
8
Form0
10
0.000000
20
0.000000
30
0.000000
70
128
71
162
72
566
73
568
74
163
0
VERTEX
8
Form0
10
0.000000
20
0.000000
30
0.000000
70
128
71
566
72
567
73
569
74
568
0
VERTEX
8
Form0
10
0.000000
20
0.000000
30
0.000000
70
128
71
567
72
148
73
149
74
569
0
VERTEX
8
Form0
10
0.000000
20
0.000000
30
0.000000
70
128
71
163
72
568
73
453
74
32
0
VERTEX
8
Form0
10
0.000000
20
0.000000
30
0.000000
70
128
71
568
72
569
73
452
74
453
0
VERTEX
8
Form0
10
0.000000
20
0.000000
30
0.000000
70
128
71
569
72
149
73
26
74
452
0
VERTEX
8
Form0
10
0.000000
20
0.000000
30
0.000000
70
128
71
32
72
453
73
164
74
164
0
VERTEX
8
Form0
10
0.000000
20
0.000000
30
0.000000
70
128
71
811
72
165
73
164
74
164
0
VERTEX
8
Form0
10
0.000000
20
0.000000
30
0.000000
70
128
71
164
72
453
73
811
74
811
0
VERTEX
8
Form0
10
0.000000
20
0.000000
30
0.000000
70
128
71
452
72
26
73
811
74
811
0
VERTEX
8
Form0
10
0.000000
20
0.000000
30
0.000000
70
128
71
785
72
165
73
812
74
812
0
VERTEX
8
Form0
10
0.000000
20
0.000000
30
0.000000
70
128
71
812
72
165
73
811
74
811
0
VERTEX
8
Form0
10
0.000000
20
0.000000
30
0.000000
70
128
71
453
72
452
73
811
74
811
0
VERTEX
8
Form0
10
0.000000
20
0.000000
30
0.000000
70
128
71
167
72
166
73
814
74
814
0
VERTEX
8
Form0
10
0.000000
20
0.000000
30
0.000000
70
128
71
33
72
167
73
307
74
307
0
VERTEX
8
Form0
10
0.000000
20
0.000000
30
0.000000
70
128
71
166
72
773
73
813
74
813
0
VERTEX
8
Form0
10
0.000000
20
0.000000
30
0.000000
70
128
71
167
72
814
73
27
74
27
0
VERTEX
8
Form0
10
0.000000
20
0.000000
30
0.000000
70
128
71
306
72
307
73
167
74
167
0
VERTEX
8
Form0
10
0.000000
20
0.000000
30
0.000000
70
128
71
167
72
27
73
306
74
306
0
VERTEX
8
Form0
10
0.000000
20
0.000000
30
0.000000
70
128
71
814
72
166
73
813
74
813
0
VERTEX
8
Form0
10
0.000000
20
0.000000
30
0.000000
70
128
71
33
72
307
73
570
74
168
0
VERTEX
8
Form0
10
0.000000
20
0.000000
30
0.000000
70
128
71
307
72
306
73
571
74
570
0
VERTEX
8
Form0
10
0.000000
20
0.000000
30
0.000000
70
128
71
306
72
27
73
154
74
571
0
VERTEX
8
Form0
10
0.000000
20
0.000000
30
0.000000
70
128
71
168
72
570
73
572
74
169
0
VERTEX
8
Form0
10
0.000000
20
0.000000
30
0.000000
70
128
71
570
72
571
73
573
74
572
0
VERTEX
8
Form0
10
0.000000
20
0.000000
30
0.000000
70
128
71
571
72
154
73
155
74
573
0
VERTEX
8
Form0
10
0.000000
20
0.000000
30
0.000000
70
128
71
169
72
572
73
335
74
34
0
VERTEX
8
Form0
10
0.000000
20
0.000000
30
0.000000
70
128
71
572
72
573
73
334
74
335
0
VERTEX
8
Form0
10
0.000000
20
0.000000
30
0.000000
70
128
71
573
72
155
73
28
74
334
0
VERTEX
8
Form0
10
0.000000
20
0.000000
30
0.000000
70
128
71
34
72
335
73
574
74
170
0
VERTEX
8
Form0
10
0.000000
20
0.000000
30
0.000000
70
128
71
335
72
334
73
575
74
574
0
VERTEX
8
Form0
10
0.000000
20
0.000000
30
0.000000
70
128
71
334
72
28
73
156
74
575
0
VERTEX
8
Form0
10
0.000000
20
0.000000
30
0.000000
70
128
71
170
72
574
73
576
74
171
0
VERTEX
8
Form0
10
0.000000
20
0.000000
30
0.000000
70
128
71
574
72
575
73
577
74
576
0
VERTEX
8
Form0
10
0.000000
20
0.000000
30
0.000000
70
128
71
575
72
156
73
157
74
577
0
VERTEX
8
Form0
10
0.000000
20
0.000000
30
0.000000
70
128
71
171
72
576
73
367
74
35
0
VERTEX
8
Form0
10
0.000000
20
0.000000
30
0.000000
70
128
71
576
72
577
73
366
74
367
0
VERTEX
8
Form0
10
0.000000
20
0.000000
30
0.000000
70
128
71
577
72
157
73
29
74
366
0
VERTEX
8
Form0
10
0.000000
20
0.000000
30
0.000000
70
128
71
35
72
367
73
578
74
172
0
VERTEX
8
Form0
10
0.000000
20
0.000000
30
0.000000
70
128
71
367
72
366
73
579
74
578
0
VERTEX
8
Form0
10
0.000000
20
0.000000
30
0.000000
70
128
71
366
72
29
73
158
74
579
0
VERTEX
8
Form0
10
0.000000
20
0.000000
30
0.000000
70
128
71
172
72
578
73
580
74
173
0
VERTEX
8
Form0
10
0.000000
20
0.000000
30
0.000000
70
128
71
578
72
579
73
581
74
580
0
VERTEX
8
Form0
10
0.000000
20
0.000000
30
0.000000
70
128
71
579
72
158
73
159
74
581
0
VERTEX
8
Form0
10
0.000000
20
0.000000
30
0.000000
70
128
71
173
72
580
73
399
74
36
0
VERTEX
8
Form0
10
0.000000
20
0.000000
30
0.000000
70
128
71
580
72
581
73
398
74
399
0
VERTEX
8
Form0
10
0.000000
20
0.000000
30
0.000000
70
128
71
581
72
159
73
30
74
398
0
VERTEX
8
Form0
10
0.000000
20
0.000000
30
0.000000
70
128
71
36
72
399
73
582
74
174
0
VERTEX
8
Form0
10
0.000000
20
0.000000
30
0.000000
70
128
71
399
72
398
73
583
74
582
0
VERTEX
8
Form0
10
0.000000
20
0.000000
30
0.000000
70
128
71
398
72
30
73
160
74
583
0
VERTEX
8
Form0
10
0.000000
20
0.000000
30
0.000000
70
128
71
174
72
582
73
584
74
175
0
VERTEX
8
Form0
10
0.000000
20
0.000000
30
0.000000
70
128
71
582
72
583
73
585
74
584
0
VERTEX
8
Form0
10
0.000000
20
0.000000
30
0.000000
70
128
71
583
72
160
73
161
74
585
0
VERTEX
8
Form0
10
0.000000
20
0.000000
30
0.000000
70
128
71
175
72
584
73
427
74
37
0
VERTEX
8
Form0
10
0.000000
20
0.000000
30
0.000000
70
128
71
584
72
585
73
426
74
427
0
VERTEX
8
Form0
10
0.000000
20
0.000000
30
0.000000
70
128
71
585
72
161
73
31
74
426
0
VERTEX
8
Form0
10
0.000000
20
0.000000
30
0.000000
70
128
71
37
72
427
73
586
74
176
0
VERTEX
8
Form0
10
0.000000
20
0.000000
30
0.000000
70
128
71
427
72
426
73
587
74
586
0
VERTEX
8
Form0
10
0.000000
20
0.000000
30
0.000000
70
128
71
426
72
31
73
162
74
587
0
VERTEX
8
Form0
10
0.000000
20
0.000000
30
0.000000
70
128
71
176
72
586
73
588
74
177
0
VERTEX
8
Form0
10
0.000000
20
0.000000
30
0.000000
70
128
71
586
72
587
73
589
74
588
0
VERTEX
8
Form0
10
0.000000
20
0.000000
30
0.000000
70
128
71
587
72
162
73
163
74
589
0
VERTEX
8
Form0
10
0.000000
20
0.000000
30
0.000000
70
128
71
177
72
588
73
455
74
38
0
VERTEX
8
Form0
10
0.000000
20
0.000000
30
0.000000
70
128
71
588
72
589
73
454
74
455
0
VERTEX
8
Form0
10
0.000000
20
0.000000
30
0.000000
70
128
71
589
72
163
73
32
74
454
0
VERTEX
8
Form0
10
0.000000
20
0.000000
30
0.000000
70
128
71
455
72
454
73
178
74
178
0
VERTEX
8
Form0
10
0.000000
20
0.000000
30
0.000000
70
128
71
178
72
38
73
455
74
455
0
VERTEX
8
Form0
10
0.000000
20
0.000000
30
0.000000
70
128
71
454
72
815
73
178
74
178
0
VERTEX
8
Form0
10
0.000000
20
0.000000
30
0.000000
70
128
71
815
72
179
73
178
74
178
0
VERTEX
8
Form0
10
0.000000
20
0.000000
30
0.000000
70
128
71
179
72
816
73
786
74
786
0
VERTEX
8
Form0
10
0.000000
20
0.000000
30
0.000000
70
128
71
816
72
179
73
815
74
815
0
VERTEX
8
Form0
10
0.000000
20
0.000000
30
0.000000
70
128
71
815
72
454
73
32
74
32
0
VERTEX
8
Form0
10
0.000000
20
0.000000
30
0.000000
70
128
71
774
72
817
73
180
74
180
0
VERTEX
8
Form0
10
0.000000
20
0.000000
30
0.000000
70
128
71
818
72
181
73
180
74
180
0
VERTEX
8
Form0
10
0.000000
20
0.000000
30
0.000000
70
128
71
180
72
817
73
818
74
818
0
VERTEX
8
Form0
10
0.000000
20
0.000000
30
0.000000
70
128
71
33
72
308
73
181
74
181
0
VERTEX
8
Form0
10
0.000000
20
0.000000
30
0.000000
70
128
71
181
72
309
73
39
74
39
0
VERTEX
8
Form0
10
0.000000
20
0.000000
30
0.000000
70
128
71
181
72
308
73
309
74
309
0
VERTEX
8
Form0
10
0.000000
20
0.000000
30
0.000000
70
128
71
181
72
818
73
33
74
33
0
VERTEX
8
Form0
10
0.000000
20
0.000000
30
0.000000
70
128
71
39
72
309
73
590
74
182
0
VERTEX
8
Form0
10
0.000000
20
0.000000
30
0.000000
70
128
71
309
72
308
73
591
74
590
0
VERTEX
8
Form0
10
0.000000
20
0.000000
30
0.000000
70
128
71
308
72
33
73
168
74
591
0
VERTEX
8
Form0
10
0.000000
20
0.000000
30
0.000000
70
128
71
182
72
590
73
592
74
183
0
VERTEX
8
Form0
10
0.000000
20
0.000000
30
0.000000
70
128
71
590
72
591
73
593
74
592
0
VERTEX
8
Form0
10
0.000000
20
0.000000
30
0.000000
70
128
71
591
72
168
73
169
74
593
0
VERTEX
8
Form0
10
0.000000
20
0.000000
30
0.000000
70
128
71
183
72
592
73
337
74
40
0
VERTEX
8
Form0
10
0.000000
20
0.000000
30
0.000000
70
128
71
592
72
593
73
336
74
337
0
VERTEX
8
Form0
10
0.000000
20
0.000000
30
0.000000
70
128
71
593
72
169
73
34
74
336
0
VERTEX
8
Form0
10
0.000000
20
0.000000
30
0.000000
70
128
71
41
72
369
73
594
74
188
0
VERTEX
8
Form0
10
0.000000
20
0.000000
30
0.000000
70
128
71
369
72
368
73
595
74
594
0
VERTEX
8
Form0
10
0.000000
20
0.000000
30
0.000000
70
128
71
368
72
35
73
172
74
595
0
VERTEX
8
Form0
10
0.000000
20
0.000000
30
0.000000
70
128
71
188
72
594
73
596
74
189
0
VERTEX
8
Form0
10
0.000000
20
0.000000
30
0.000000
70
128
71
594
72
595
73
597
74
596
0
VERTEX
8
Form0
10
0.000000
20
0.000000
30
0.000000
70
128
71
595
72
172
73
173
74
597
0
VERTEX
8
Form0
10
0.000000
20
0.000000
30
0.000000
70
128
71
189
72
596
73
401
74
42
0
VERTEX
8
Form0
10
0.000000
20
0.000000
30
0.000000
70
128
71
596
72
597
73
400
74
401
0
VERTEX
8
Form0
10
0.000000
20
0.000000
30
0.000000
70
128
71
597
72
173
73
36
74
400
0
VERTEX
8
Form0
10
0.000000
20
0.000000
30
0.000000
70
128
71
42
72
401
73
598
74
190
0
VERTEX
8
Form0
10
0.000000
20
0.000000
30
0.000000
70
128
71
401
72
400
73
599
74
598
0
VERTEX
8
Form0
10
0.000000
20
0.000000
30
0.000000
70
128
71
400
72
36
73
174
74
599
0
VERTEX
8
Form0
10
0.000000
20
0.000000
30
0.000000
70
128
71
190
72
598
73
600
74
191
0
VERTEX
8
Form0
10
0.000000
20
0.000000
30
0.000000
70
128
71
598
72
599
73
601
74
600
0
VERTEX
8
Form0
10
0.000000
20
0.000000
30
0.000000
70
128
71
599
72
174
73
175
74
601
0
VERTEX
8
Form0
10
0.000000
20
0.000000
30
0.000000
70
128
71
191
72
600
73
429
74
43
0
VERTEX
8
Form0
10
0.000000
20
0.000000
30
0.000000
70
128
71
600
72
601
73
428
74
429
0
VERTEX
8
Form0
10
0.000000
20
0.000000
30
0.000000
70
128
71
601
72
175
73
37
74
428
0
VERTEX
8
Form0
10
0.000000
20
0.000000
30
0.000000
70
128
71
43
72
429
73
602
74
192
0
VERTEX
8
Form0
10
0.000000
20
0.000000
30
0.000000
70
128
71
429
72
428
73
603
74
602
0
VERTEX
8
Form0
10
0.000000
20
0.000000
30
0.000000
70
128
71
428
72
37
73
176
74
603
0
VERTEX
8
Form0
10
0.000000
20
0.000000
30
0.000000
70
128
71
192
72
602
73
604
74
193
0
VERTEX
8
Form0
10
0.000000
20
0.000000
30
0.000000
70
128
71
602
72
603
73
605
74
604
0
VERTEX
8
Form0
10
0.000000
20
0.000000
30
0.000000
70
128
71
603
72
176
73
177
74
605
0
VERTEX
8
Form0
10
0.000000
20
0.000000
30
0.000000
70
128
71
193
72
604
73
457
74
44
0
VERTEX
8
Form0
10
0.000000
20
0.000000
30
0.000000
70
128
71
604
72
605
73
456
74
457
0
VERTEX
8
Form0
10
0.000000
20
0.000000
30
0.000000
70
128
71
605
72
177
73
38
74
456
0
VERTEX
8
Form0
10
0.000000
20
0.000000
30
0.000000
70
128
71
457
72
456
73
819
74
819
0
VERTEX
8
Form0
10
0.000000
20
0.000000
30
0.000000
70
128
71
194
72
44
73
457
74
457
0
VERTEX
8
Form0
10
0.000000
20
0.000000
30
0.000000
70
128
71
819
72
456
73
38
74
38
0
VERTEX
8
Form0
10
0.000000
20
0.000000
30
0.000000
70
128
71
194
72
819
73
820
74
820
0
VERTEX
8
Form0
10
0.000000
20
0.000000
30
0.000000
70
128
71
819
72
194
73
457
74
457
0
VERTEX
8
Form0
10
0.000000
20
0.000000
30
0.000000
70
128
71
195
72
820
73
787
74
787
0
VERTEX
8
Form0
10
0.000000
20
0.000000
30
0.000000
70
128
71
820
72
195
73
194
74
194
0
VERTEX
8
Form0
10
0.000000
20
0.000000
30
0.000000
70
128
71
775
72
821
73
196
74
196
0
VERTEX
8
Form0
10
0.000000
20
0.000000
30
0.000000
70
128
71
822
72
197
73
196
74
196
0
VERTEX
8
Form0
10
0.000000
20
0.000000
30
0.000000
70
128
71
196
72
821
73
822
74
822
0
VERTEX
8
Form0
10
0.000000
20
0.000000
30
0.000000
70
128
71
822
72
39
73
310
74
310
0
VERTEX
8
Form0
10
0.000000
20
0.000000
30
0.000000
70
128
71
311
72
45
73
197
74
197
0
VERTEX
8
Form0
10
0.000000
20
0.000000
30
0.000000
70
128
71
197
72
310
73
311
74
311
0
VERTEX
8
Form0
10
0.000000
20
0.000000
30
0.000000
70
128
71
197
72
822
73
310
74
310
0
VERTEX
8
Form0
10
0.000000
20
0.000000
30
0.000000
70
128
71
796
72
854
73
606
74
200
0
VERTEX
8
Form0
10
0.000000
20
0.000000
30
0.000000
70
128
71
854
72
853
73
607
74
606
0
VERTEX
8
Form0
10
0.000000
20
0.000000
30
0.000000
70
128
71
853
72
90
73
478
74
607
0
VERTEX
8
Form0
10
0.000000
20
0.000000
30
0.000000
70
128
71
200
72
606
73
608
74
201
0
VERTEX
8
Form0
10
0.000000
20
0.000000
30
0.000000
70
128
71
606
72
607
73
609
74
608
0
VERTEX
8
Form0
10
0.000000
20
0.000000
30
0.000000
70
128
71
607
72
478
73
479
74
609
0
VERTEX
8
Form0
10
0.000000
20
0.000000
30
0.000000
70
128
71
201
72
608
73
474
74
88
0
VERTEX
8
Form0
10
0.000000
20
0.000000
30
0.000000
70
128
71
608
72
609
73
475
74
474
0
VERTEX
8
Form0
10
0.000000
20
0.000000
30
0.000000
70
128
71
609
72
479
73
94
74
475
0
VERTEX
8
Form0
10
0.000000
20
0.000000
30
0.000000
70
128
71
90
72
339
73
610
74
478
0
VERTEX
8
Form0
10
0.000000
20
0.000000
30
0.000000
70
128
71
339
72
338
73
611
74
610
0
VERTEX
8
Form0
10
0.000000
20
0.000000
30
0.000000
70
128
71
338
72
40
73
184
74
611
0
VERTEX
8
Form0
10
0.000000
20
0.000000
30
0.000000
70
128
71
478
72
610
73
612
74
479
0
VERTEX
8
Form0
10
0.000000
20
0.000000
30
0.000000
70
128
71
610
72
611
73
613
74
612
0
VERTEX
8
Form0
10
0.000000
20
0.000000
30
0.000000
70
128
71
611
72
184
73
185
74
613
0
VERTEX
8
Form0
10
0.000000
20
0.000000
30
0.000000
70
128
71
479
72
612
73
476
74
94
0
VERTEX
8
Form0
10
0.000000
20
0.000000
30
0.000000
70
128
71
612
72
613
73
477
74
476
0
VERTEX
8
Form0
10
0.000000
20
0.000000
30
0.000000
70
128
71
613
72
185
73
87
74
477
0
VERTEX
8
Form0
10
0.000000
20
0.000000
30
0.000000
70
128
71
88
72
474
73
614
74
202
0
VERTEX
8
Form0
10
0.000000
20
0.000000
30
0.000000
70
128
71
474
72
475
73
615
74
614
0
VERTEX
8
Form0
10
0.000000
20
0.000000
30
0.000000
70
128
71
475
72
94
73
480
74
615
0
VERTEX
8
Form0
10
0.000000
20
0.000000
30
0.000000
70
128
71
202
72
614
73
616
74
203
0
VERTEX
8
Form0
10
0.000000
20
0.000000
30
0.000000
70
128
71
614
72
615
73
617
74
616
0
VERTEX
8
Form0
10
0.000000
20
0.000000
30
0.000000
70
128
71
615
72
480
73
481
74
617
0
VERTEX
8
Form0
10
0.000000
20
0.000000
30
0.000000
70
128
71
203
72
616
73
373
74
47
0
VERTEX
8
Form0
10
0.000000
20
0.000000
30
0.000000
70
128
71
616
72
617
73
372
74
373
0
VERTEX
8
Form0
10
0.000000
20
0.000000
30
0.000000
70
128
71
617
72
481
73
92
74
372
0
VERTEX
8
Form0
10
0.000000
20
0.000000
30
0.000000
70
128
71
94
72
476
73
618
74
480
0
VERTEX
8
Form0
10
0.000000
20
0.000000
30
0.000000
70
128
71
476
72
477
73
619
74
618
0
VERTEX
8
Form0
10
0.000000
20
0.000000
30
0.000000
70
128
71
477
72
87
73
186
74
619
0
VERTEX
8
Form0
10
0.000000
20
0.000000
30
0.000000
70
128
71
480
72
618
73
620
74
481
0
VERTEX
8
Form0
10
0.000000
20
0.000000
30
0.000000
70
128
71
618
72
619
73
621
74
620
0
VERTEX
8
Form0
10
0.000000
20
0.000000
30
0.000000
70
128
71
619
72
186
73
187
74
621
0
VERTEX
8
Form0
10
0.000000
20
0.000000
30
0.000000
70
128
71
481
72
620
73
371
74
92
0
VERTEX
8
Form0
10
0.000000
20
0.000000
30
0.000000
70
128
71
620
72
621
73
370
74
371
0
VERTEX
8
Form0
10
0.000000
20
0.000000
30
0.000000
70
128
71
621
72
187
73
41
74
370
0
VERTEX
8
Form0
10
0.000000
20
0.000000
30
0.000000
70
128
71
48
72
403
73
622
74
206
0
VERTEX
8
Form0
10
0.000000
20
0.000000
30
0.000000
70
128
71
403
72
402
73
623
74
622
0
VERTEX
8
Form0
10
0.000000
20
0.000000
30
0.000000
70
128
71
402
72
42
73
190
74
623
0
VERTEX
8
Form0
10
0.000000
20
0.000000
30
0.000000
70
128
71
206
72
622
73
624
74
207
0
VERTEX
8
Form0
10
0.000000
20
0.000000
30
0.000000
70
128
71
622
72
623
73
625
74
624
0
VERTEX
8
Form0
10
0.000000
20
0.000000
30
0.000000
70
128
71
623
72
190
73
191
74
625
0
VERTEX
8
Form0
10
0.000000
20
0.000000
30
0.000000
70
128
71
207
72
624
73
431
74
49
0
VERTEX
8
Form0
10
0.000000
20
0.000000
30
0.000000
70
128
71
624
72
625
73
430
74
431
0
VERTEX
8
Form0
10
0.000000
20
0.000000
30
0.000000
70
128
71
625
72
191
73
43
74
430
0
VERTEX
8
Form0
10
0.000000
20
0.000000
30
0.000000
70
128
71
49
72
431
73
626
74
208
0
VERTEX
8
Form0
10
0.000000
20
0.000000
30
0.000000
70
128
71
431
72
430
73
627
74
626
0
VERTEX
8
Form0
10
0.000000
20
0.000000
30
0.000000
70
128
71
430
72
43
73
192
74
627
0
VERTEX
8
Form0
10
0.000000
20
0.000000
30
0.000000
70
128
71
208
72
626
73
628
74
209
0
VERTEX
8
Form0
10
0.000000
20
0.000000
30
0.000000
70
128
71
626
72
627
73
629
74
628
0
VERTEX
8
Form0
10
0.000000
20
0.000000
30
0.000000
70
128
71
627
72
192
73
193
74
629
0
VERTEX
8
Form0
10
0.000000
20
0.000000
30
0.000000
70
128
71
209
72
628
73
459
74
50
0
VERTEX
8
Form0
10
0.000000
20
0.000000
30
0.000000
70
128
71
628
72
629
73
458
74
459
0
VERTEX
8
Form0
10
0.000000
20
0.000000
30
0.000000
70
128
71
629
72
193
73
44
74
458
0
VERTEX
8
Form0
10
0.000000
20
0.000000
30
0.000000
70
128
71
210
72
459
73
458
74
458
0
VERTEX
8
Form0
10
0.000000
20
0.000000
30
0.000000
70
128
71
210
72
50
73
459
74
459
0
VERTEX
8
Form0
10
0.000000
20
0.000000
30
0.000000
70
128
71
458
72
44
73
823
74
823
0
VERTEX
8
Form0
10
0.000000
20
0.000000
30
0.000000
70
128
71
823
72
824
73
211
74
211
0
VERTEX
8
Form0
10
0.000000
20
0.000000
30
0.000000
70
128
71
211
72
210
73
823
74
823
0
VERTEX
8
Form0
10
0.000000
20
0.000000
30
0.000000
70
128
71
788
72
211
73
824
74
824
0
VERTEX
8
Form0
10
0.000000
20
0.000000
30
0.000000
70
128
71
823
72
210
73
458
74
458
0
VERTEX
8
Form0
10
0.000000
20
0.000000
30
0.000000
70
128
71
212
72
825
73
213
74
213
0
VERTEX
8
Form0
10
0.000000
20
0.000000
30
0.000000
70
128
71
212
72
776
73
825
74
825
0
VERTEX
8
Form0
10
0.000000
20
0.000000
30
0.000000
70
128
71
825
72
826
73
213
74
213
0
VERTEX
8
Form0
10
0.000000
20
0.000000
30
0.000000
70
128
71
313
72
826
73
312
74
312
0
VERTEX
8
Form0
10
0.000000
20
0.000000
30
0.000000
70
128
71
213
72
313
73
51
74
51
0
VERTEX
8
Form0
10
0.000000
20
0.000000
30
0.000000
70
128
71
213
72
826
73
313
74
313
0
VERTEX
8
Form0
10
0.000000
20
0.000000
30
0.000000
70
128
71
312
72
826
73
45
74
45
0
VERTEX
8
Form0
10
0.000000
20
0.000000
30
0.000000
70
128
71
52
72
345
73
630
74
216
0
VERTEX
8
Form0
10
0.000000
20
0.000000
30
0.000000
70
128
71
345
72
344
73
631
74
630
0
VERTEX
8
Form0
10
0.000000
20
0.000000
30
0.000000
70
128
71
344
72
91
73
486
74
631
0
VERTEX
8
Form0
10
0.000000
20
0.000000
30
0.000000
70
128
71
216
72
630
73
632
74
217
0
VERTEX
8
Form0
10
0.000000
20
0.000000
30
0.000000
70
128
71
630
72
631
73
633
74
632
0
VERTEX
8
Form0
10
0.000000
20
0.000000
30
0.000000
70
128
71
631
72
486
73
487
74
633
0
VERTEX
8
Form0
10
0.000000
20
0.000000
30
0.000000
70
128
71
217
72
632
73
482
74
89
0
VERTEX
8
Form0
10
0.000000
20
0.000000
30
0.000000
70
128
71
632
72
633
73
483
74
482
0
VERTEX
8
Form0
10
0.000000
20
0.000000
30
0.000000
70
128
71
633
72
487
73
95
74
483
0
VERTEX
8
Form0
10
0.000000
20
0.000000
30
0.000000
70
128
71
91
72
856
73
634
74
486
0
VERTEX
8
Form0
10
0.000000
20
0.000000
30
0.000000
70
128
71
856
72
855
73
635
74
634
0
VERTEX
8
Form0
10
0.000000
20
0.000000
30
0.000000
70
128
71
855
72
796
73
200
74
635
0
VERTEX
8
Form0
10
0.000000
20
0.000000
30
0.000000
70
128
71
486
72
634
73
636
74
487
0
VERTEX
8
Form0
10
0.000000
20
0.000000
30
0.000000
70
128
71
634
72
635
73
637
74
636
0
VERTEX
8
Form0
10
0.000000
20
0.000000
30
0.000000
70
128
71
635
72
200
73
201
74
637
0
VERTEX
8
Form0
10
0.000000
20
0.000000
30
0.000000
70
128
71
487
72
636
73
484
74
95
0
VERTEX
8
Form0
10
0.000000
20
0.000000
30
0.000000
70
128
71
636
72
637
73
485
74
484
0
VERTEX
8
Form0
10
0.000000
20
0.000000
30
0.000000
70
128
71
637
72
201
73
88
74
485
0
VERTEX
8
Form0
10
0.000000
20
0.000000
30
0.000000
70
128
71
89
72
482
73
638
74
218
0
VERTEX
8
Form0
10
0.000000
20
0.000000
30
0.000000
70
128
71
482
72
483
73
639
74
638
0
VERTEX
8
Form0
10
0.000000
20
0.000000
30
0.000000
70
128
71
483
72
95
73
488
74
639
0
VERTEX
8
Form0
10
0.000000
20
0.000000
30
0.000000
70
128
71
218
72
638
73
640
74
219
0
VERTEX
8
Form0
10
0.000000
20
0.000000
30
0.000000
70
128
71
638
72
639
73
641
74
640
0
VERTEX
8
Form0
10
0.000000
20
0.000000
30
0.000000
70
128
71
639
72
488
73
489
74
641
0
VERTEX
8
Form0
10
0.000000
20
0.000000
30
0.000000
70
128
71
219
72
640
73
377
74
53
0
VERTEX
8
Form0
10
0.000000
20
0.000000
30
0.000000
70
128
71
640
72
641
73
376
74
377
0
VERTEX
8
Form0
10
0.000000
20
0.000000
30
0.000000
70
128
71
641
72
489
73
93
74
376
0
VERTEX
8
Form0
10
0.000000
20
0.000000
30
0.000000
70
128
71
95
72
484
73
642
74
488
0
VERTEX
8
Form0
10
0.000000
20
0.000000
30
0.000000
70
128
71
484
72
485
73
643
74
642
0
VERTEX
8
Form0
10
0.000000
20
0.000000
30
0.000000
70
128
71
485
72
88
73
202
74
643
0
VERTEX
8
Form0
10
0.000000
20
0.000000
30
0.000000
70
128
71
488
72
642
73
644
74
489
0
VERTEX
8
Form0
10
0.000000
20
0.000000
30
0.000000
70
128
71
642
72
643
73
645
74
644
0
VERTEX
8
Form0
10
0.000000
20
0.000000
30
0.000000
70
128
71
643
72
202
73
203
74
645
0
VERTEX
8
Form0
10
0.000000
20
0.000000
30
0.000000
70
128
71
489
72
644
73
375
74
93
0
VERTEX
8
Form0
10
0.000000
20
0.000000
30
0.000000
70
128
71
644
72
645
73
374
74
375
0
VERTEX
8
Form0
10
0.000000
20
0.000000
30
0.000000
70
128
71
645
72
203
73
47
74
374
0
VERTEX
8
Form0
10
0.000000
20
0.000000
30
0.000000
70
128
71
47
72
204
73
374
74
374
0
VERTEX
8
Form0
10
0.000000
20
0.000000
30
0.000000
70
128
71
374
72
204
73
375
74
375
0
VERTEX
8
Form0
10
0.000000
20
0.000000
30
0.000000
70
128
71
375
72
204
73
93
74
93
0
VERTEX
8
Form0
10
0.000000
20
0.000000
30
0.000000
70
128
71
376
72
93
73
204
74
204
0
VERTEX
8
Form0
10
0.000000
20
0.000000
30
0.000000
70
128
71
205
72
377
73
376
74
376
0
VERTEX
8
Form0
10
0.000000
20
0.000000
30
0.000000
70
128
71
376
72
204
73
205
74
205
0
VERTEX
8
Form0
10
0.000000
20
0.000000
30
0.000000
70
128
71
205
72
48
73
404
74
404
0
VERTEX
8
Form0
10
0.000000
20
0.000000
30
0.000000
70
128
71
205
72
404
73
221
74
221
0
VERTEX
8
Form0
10
0.000000
20
0.000000
30
0.000000
70
128
71
54
72
404
73
405
74
405
0
VERTEX
8
Form0
10
0.000000
20
0.000000
30
0.000000
70
128
71
377
72
220
73
53
74
53
0
VERTEX
8
Form0
10
0.000000
20
0.000000
30
0.000000
70
128
71
221
72
220
73
205
74
205
0
VERTEX
8
Form0
10
0.000000
20
0.000000
30
0.000000
70
128
71
54
72
221
73
404
74
404
0
VERTEX
8
Form0
10
0.000000
20
0.000000
30
0.000000
70
128
71
220
72
377
73
205
74
205
0
VERTEX
8
Form0
10
0.000000
20
0.000000
30
0.000000
70
128
71
54
72
405
73
646
74
222
0
VERTEX
8
Form0
10
0.000000
20
0.000000
30
0.000000
70
128
71
405
72
404
73
647
74
646
0
VERTEX
8
Form0
10
0.000000
20
0.000000
30
0.000000
70
128
71
404
72
48
73
206
74
647
0
VERTEX
8
Form0
10
0.000000
20
0.000000
30
0.000000
70
128
71
222
72
646
73
648
74
223
0
VERTEX
8
Form0
10
0.000000
20
0.000000
30
0.000000
70
128
71
646
72
647
73
649
74
648
0
VERTEX
8
Form0
10
0.000000
20
0.000000
30
0.000000
70
128
71
647
72
206
73
207
74
649
0
VERTEX
8
Form0
10
0.000000
20
0.000000
30
0.000000
70
128
71
223
72
648
73
433
74
55
0
VERTEX
8
Form0
10
0.000000
20
0.000000
30
0.000000
70
128
71
648
72
649
73
432
74
433
0
VERTEX
8
Form0
10
0.000000
20
0.000000
30
0.000000
70
128
71
649
72
207
73
49
74
432
0
VERTEX
8
Form0
10
0.000000
20
0.000000
30
0.000000
70
128
71
55
72
433
73
650
74
224
0
VERTEX
8
Form0
10
0.000000
20
0.000000
30
0.000000
70
128
71
433
72
432
73
651
74
650
0
VERTEX
8
Form0
10
0.000000
20
0.000000
30
0.000000
70
128
71
432
72
49
73
208
74
651
0
VERTEX
8
Form0
10
0.000000
20
0.000000
30
0.000000
70
128
71
224
72
650
73
652
74
225
0
VERTEX
8
Form0
10
0.000000
20
0.000000
30
0.000000
70
128
71
650
72
651
73
653
74
652
0
VERTEX
8
Form0
10
0.000000
20
0.000000
30
0.000000
70
128
71
651
72
208
73
209
74
653
0
VERTEX
8
Form0
10
0.000000
20
0.000000
30
0.000000
70
128
71
225
72
652
73
461
74
56
0
VERTEX
8
Form0
10
0.000000
20
0.000000
30
0.000000
70
128
71
652
72
653
73
460
74
461
0
VERTEX
8
Form0
10
0.000000
20
0.000000
30
0.000000
70
128
71
653
72
209
73
50
74
460
0
VERTEX
8
Form0
10
0.000000
20
0.000000
30
0.000000
70
128
71
461
72
460
73
827
74
827
0
VERTEX
8
Form0
10
0.000000
20
0.000000
30
0.000000
70
128
71
226
72
56
73
461
74
461
0
VERTEX
8
Form0
10
0.000000
20
0.000000
30
0.000000
70
128
71
827
72
460
73
50
74
50
0
VERTEX
8
Form0
10
0.000000
20
0.000000
30
0.000000
70
128
71
828
72
789
73
227
74
227
0
VERTEX
8
Form0
10
0.000000
20
0.000000
30
0.000000
70
128
71
827
72
227
73
226
74
226
0
VERTEX
8
Form0
10
0.000000
20
0.000000
30
0.000000
70
128
71
227
72
827
73
828
74
828
0
VERTEX
8
Form0
10
0.000000
20
0.000000
30
0.000000
70
128
71
827
72
226
73
461
74
461
0
VERTEX
8
Form0
10
0.000000
20
0.000000
30
0.000000
70
128
71
228
72
829
73
229
74
229
0
VERTEX
8
Form0
10
0.000000
20
0.000000
30
0.000000
70
128
71
228
72
777
73
829
74
829
0
VERTEX
8
Form0
10
0.000000
20
0.000000
30
0.000000
70
128
71
829
72
830
73
229
74
229
0
VERTEX
8
Form0
10
0.000000
20
0.000000
30
0.000000
70
128
71
314
72
315
73
830
74
830
0
VERTEX
8
Form0
10
0.000000
20
0.000000
30
0.000000
70
128
71
830
72
57
73
229
74
229
0
VERTEX
8
Form0
10
0.000000
20
0.000000
30
0.000000
70
128
71
830
72
315
73
57
74
57
0
VERTEX
8
Form0
10
0.000000
20
0.000000
30
0.000000
70
128
71
830
72
51
73
314
74
314
0
VERTEX
8
Form0
10
0.000000
20
0.000000
30
0.000000
70
128
71
57
72
315
73
654
74
230
0
VERTEX
8
Form0
10
0.000000
20
0.000000
30
0.000000
70
128
71
315
72
314
73
655
74
654
0
VERTEX
8
Form0
10
0.000000
20
0.000000
30
0.000000
70
128
71
314
72
51
73
214
74
655
0
VERTEX
8
Form0
10
0.000000
20
0.000000
30
0.000000
70
128
71
230
72
654
73
656
74
231
0
VERTEX
8
Form0
10
0.000000
20
0.000000
30
0.000000
70
128
71
654
72
655
73
657
74
656
0
VERTEX
8
Form0
10
0.000000
20
0.000000
30
0.000000
70
128
71
655
72
214
73
215
74
657
0
VERTEX
8
Form0
10
0.000000
20
0.000000
30
0.000000
70
128
71
231
72
656
73
347
74
58
0
VERTEX
8
Form0
10
0.000000
20
0.000000
30
0.000000
70
128
71
656
72
657
73
346
74
347
0
VERTEX
8
Form0
10
0.000000
20
0.000000
30
0.000000
70
128
71
657
72
215
73
52
74
346
0
VERTEX
8
Form0
10
0.000000
20
0.000000
30
0.000000
70
128
71
59
72
379
73
658
74
234
0
VERTEX
8
Form0
10
0.000000
20
0.000000
30
0.000000
70
128
71
379
72
378
73
659
74
658
0
VERTEX
8
Form0
10
0.000000
20
0.000000
30
0.000000
70
128
71
378
72
53
73
220
74
659
0
VERTEX
8
Form0
10
0.000000
20
0.000000
30
0.000000
70
128
71
234
72
658
73
660
74
235
0
VERTEX
8
Form0
10
0.000000
20
0.000000
30
0.000000
70
128
71
658
72
659
73
661
74
660
0
VERTEX
8
Form0
10
0.000000
20
0.000000
30
0.000000
70
128
71
659
72
220
73
221
74
661
0
VERTEX
8
Form0
10
0.000000
20
0.000000
30
0.000000
70
128
71
235
72
660
73
407
74
60
0
VERTEX
8
Form0
10
0.000000
20
0.000000
30
0.000000
70
128
71
660
72
661
73
406
74
407
0
VERTEX
8
Form0
10
0.000000
20
0.000000
30
0.000000
70
128
71
661
72
221
73
54
74
406
0
VERTEX
8
Form0
10
0.000000
20
0.000000
30
0.000000
70
128
71
60
72
407
73
662
74
236
0
VERTEX
8
Form0
10
0.000000
20
0.000000
30
0.000000
70
128
71
407
72
406
73
663
74
662
0
VERTEX
8
Form0
10
0.000000
20
0.000000
30
0.000000
70
128
71
406
72
54
73
222
74
663
0
VERTEX
8
Form0
10
0.000000
20
0.000000
30
0.000000
70
128
71
236
72
662
73
664
74
237
0
VERTEX
8
Form0
10
0.000000
20
0.000000
30
0.000000
70
128
71
662
72
663
73
665
74
664
0
VERTEX
8
Form0
10
0.000000
20
0.000000
30
0.000000
70
128
71
663
72
222
73
223
74
665
0
VERTEX
8
Form0
10
0.000000
20
0.000000
30
0.000000
70
128
71
237
72
664
73
435
74
61
0
VERTEX
8
Form0
10
0.000000
20
0.000000
30
0.000000
70
128
71
664
72
665
73
434
74
435
0
VERTEX
8
Form0
10
0.000000
20
0.000000
30
0.000000
70
128
71
665
72
223
73
55
74
434
0
VERTEX
8
Form0
10
0.000000
20
0.000000
30
0.000000
70
128
71
61
72
435
73
666
74
238
0
VERTEX
8
Form0
10
0.000000
20
0.000000
30
0.000000
70
128
71
435
72
434
73
667
74
666
0
VERTEX
8
Form0
10
0.000000
20
0.000000
30
0.000000
70
128
71
434
72
55
73
224
74
667
0
VERTEX
8
Form0
10
0.000000
20
0.000000
30
0.000000
70
128
71
238
72
666
73
668
74
239
0
VERTEX
8
Form0
10
0.000000
20
0.000000
30
0.000000
70
128
71
666
72
667
73
669
74
668
0
VERTEX
8
Form0
10
0.000000
20
0.000000
30
0.000000
70
128
71
667
72
224
73
225
74
669
0
VERTEX
8
Form0
10
0.000000
20
0.000000
30
0.000000
70
128
71
239
72
668
73
463
74
62
0
VERTEX
8
Form0
10
0.000000
20
0.000000
30
0.000000
70
128
71
668
72
669
73
462
74
463
0
VERTEX
8
Form0
10
0.000000
20
0.000000
30
0.000000
70
128
71
669
72
225
73
56
74
462
0
VERTEX
8
Form0
10
0.000000
20
0.000000
30
0.000000
70
128
71
463
72
462
73
831
74
831
0
VERTEX
8
Form0
10
0.000000
20
0.000000
30
0.000000
70
128
71
240
72
62
73
463
74
463
0
VERTEX
8
Form0
10
0.000000
20
0.000000
30
0.000000
70
128
71
831
72
462
73
56
74
56
0
VERTEX
8
Form0
10
0.000000
20
0.000000
30
0.000000
70
128
71
832
72
790
73
241
74
241
0
VERTEX
8
Form0
10
0.000000
20
0.000000
30
0.000000
70
128
71
831
72
241
73
240
74
240
0
VERTEX
8
Form0
10
0.000000
20
0.000000
30
0.000000
70
128
71
241
72
831
73
832
74
832
0
VERTEX
8
Form0
10
0.000000
20
0.000000
30
0.000000
70
128
71
831
72
240
73
463
74
463
0
VERTEX
8
Form0
10
0.000000
20
0.000000
30
0.000000
70
128
71
834
72
57
73
316
74
316
0
VERTEX
8
Form0
10
0.000000
20
0.000000
30
0.000000
70
128
71
242
72
778
73
833
74
833
0
VERTEX
8
Form0
10
0.000000
20
0.000000
30
0.000000
70
128
71
833
72
834
73
243
74
243
0
VERTEX
8
Form0
10
0.000000
20
0.000000
30
0.000000
70
128
71
63
72
834
73
317
74
317
0
VERTEX
8
Form0
10
0.000000
20
0.000000
30
0.000000
70
128
71
243
72
242
73
833
74
833
0
VERTEX
8
Form0
10
0.000000
20
0.000000
30
0.000000
70
128
71
834
72
63
73
243
74
243
0
VERTEX
8
Form0
10
0.000000
20
0.000000
30
0.000000
70
128
71
834
72
316
73
317
74
317
0
VERTEX
8
Form0
10
0.000000
20
0.000000
30
0.000000
70
128
71
63
72
317
73
670
74
244
0
VERTEX
8
Form0
10
0.000000
20
0.000000
30
0.000000
70
128
71
317
72
316
73
671
74
670
0
VERTEX
8
Form0
10
0.000000
20
0.000000
30
0.000000
70
128
71
316
72
57
73
230
74
671
0
VERTEX
8
Form0
10
0.000000
20
0.000000
30
0.000000
70
128
71
244
72
670
73
672
74
245
0
VERTEX
8
Form0
10
0.000000
20
0.000000
30
0.000000
70
128
71
670
72
671
73
673
74
672
0
VERTEX
8
Form0
10
0.000000
20
0.000000
30
0.000000
70
128
71
671
72
230
73
231
74
673
0
VERTEX
8
Form0
10
0.000000
20
0.000000
30
0.000000
70
128
71
245
72
672
73
349
74
64
0
VERTEX
8
Form0
10
0.000000
20
0.000000
30
0.000000
70
128
71
672
72
673
73
348
74
349
0
VERTEX
8
Form0
10
0.000000
20
0.000000
30
0.000000
70
128
71
673
72
231
73
58
74
348
0
VERTEX
8
Form0
10
0.000000
20
0.000000
30
0.000000
70
128
71
64
72
349
73
674
74
246
0
VERTEX
8
Form0
10
0.000000
20
0.000000
30
0.000000
70
128
71
349
72
348
73
675
74
674
0
VERTEX
8
Form0
10
0.000000
20
0.000000
30
0.000000
70
128
71
348
72
58
73
232
74
675
0
VERTEX
8
Form0
10
0.000000
20
0.000000
30
0.000000
70
128
71
246
72
674
73
676
74
247
0
VERTEX
8
Form0
10
0.000000
20
0.000000
30
0.000000
70
128
71
674
72
675
73
677
74
676
0
VERTEX
8
Form0
10
0.000000
20
0.000000
30
0.000000
70
128
71
675
72
232
73
233
74
677
0
VERTEX
8
Form0
10
0.000000
20
0.000000
30
0.000000
70
128
71
247
72
676
73
381
74
65
0
VERTEX
8
Form0
10
0.000000
20
0.000000
30
0.000000
70
128
71
676
72
677
73
380
74
381
0
VERTEX
8
Form0
10
0.000000
20
0.000000
30
0.000000
70
128
71
677
72
233
73
59
74
380
0
VERTEX
8
Form0
10
0.000000
20
0.000000
30
0.000000
70
128
71
65
72
381
73
678
74
248
0
VERTEX
8
Form0
10
0.000000
20
0.000000
30
0.000000
70
128
71
381
72
380
73
679
74
678
0
VERTEX
8
Form0
10
0.000000
20
0.000000
30
0.000000
70
128
71
380
72
59
73
234
74
679
0
VERTEX
8
Form0
10
0.000000
20
0.000000
30
0.000000
70
128
71
248
72
678
73
680
74
249
0
VERTEX
8
Form0
10
0.000000
20
0.000000
30
0.000000
70
128
71
678
72
679
73
681
74
680
0
VERTEX
8
Form0
10
0.000000
20
0.000000
30
0.000000
70
128
71
679
72
234
73
235
74
681
0
VERTEX
8
Form0
10
0.000000
20
0.000000
30
0.000000
70
128
71
249
72
680
73
409
74
66
0
VERTEX
8
Form0
10
0.000000
20
0.000000
30
0.000000
70
128
71
680
72
681
73
408
74
409
0
VERTEX
8
Form0
10
0.000000
20
0.000000
30
0.000000
70
128
71
681
72
235
73
60
74
408
0
VERTEX
8
Form0
10
0.000000
20
0.000000
30
0.000000
70
128
71
66
72
409
73
682
74
250
0
VERTEX
8
Form0
10
0.000000
20
0.000000
30
0.000000
70
128
71
409
72
408
73
683
74
682
0
VERTEX
8
Form0
10
0.000000
20
0.000000
30
0.000000
70
128
71
408
72
60
73
236
74
683
0
VERTEX
8
Form0
10
0.000000
20
0.000000
30
0.000000
70
128
71
250
72
682
73
684
74
251
0
VERTEX
8
Form0
10
0.000000
20
0.000000
30
0.000000
70
128
71
682
72
683
73
685
74
684
0
VERTEX
8
Form0
10
0.000000
20
0.000000
30
0.000000
70
128
71
683
72
236
73
237
74
685
0
VERTEX
8
Form0
10
0.000000
20
0.000000
30
0.000000
70
128
71
251
72
684
73
437
74
67
0
VERTEX
8
Form0
10
0.000000
20
0.000000
30
0.000000
70
128
71
684
72
685
73
436
74
437
0
VERTEX
8
Form0
10
0.000000
20
0.000000
30
0.000000
70
128
71
685
72
237
73
61
74
436
0
VERTEX
8
Form0
10
0.000000
20
0.000000
30
0.000000
70
128
71
67
72
437
73
686
74
252
0
VERTEX
8
Form0
10
0.000000
20
0.000000
30
0.000000
70
128
71
437
72
436
73
687
74
686
0
VERTEX
8
Form0
10
0.000000
20
0.000000
30
0.000000
70
128
71
436
72
61
73
238
74
687
0
VERTEX
8
Form0
10
0.000000
20
0.000000
30
0.000000
70
128
71
252
72
686
73
688
74
253
0
VERTEX
8
Form0
10
0.000000
20
0.000000
30
0.000000
70
128
71
686
72
687
73
689
74
688
0
VERTEX
8
Form0
10
0.000000
20
0.000000
30
0.000000
70
128
71
687
72
238
73
239
74
689
0
VERTEX
8
Form0
10
0.000000
20
0.000000
30
0.000000
70
128
71
253
72
688
73
465
74
68
0
VERTEX
8
Form0
10
0.000000
20
0.000000
30
0.000000
70
128
71
688
72
689
73
464
74
465
0
VERTEX
8
Form0
10
0.000000
20
0.000000
30
0.000000
70
128
71
689
72
239
73
62
74
464
0
VERTEX
8
Form0
10
0.000000
20
0.000000
30
0.000000
70
128
71
62
72
835
73
464
74
464
0
VERTEX
8
Form0
10
0.000000
20
0.000000
30
0.000000
70
128
71
254
72
465
73
464
74
464
0
VERTEX
8
Form0
10
0.000000
20
0.000000
30
0.000000
70
128
71
464
72
835
73
254
74
254
0
VERTEX
8
Form0
10
0.000000
20
0.000000
30
0.000000
70
128
71
836
72
791
73
255
74
255
0
VERTEX
8
Form0
10
0.000000
20
0.000000
30
0.000000
70
128
71
254
72
68
73
465
74
465
0
VERTEX
8
Form0
10
0.000000
20
0.000000
30
0.000000
70
128
71
254
72
836
73
255
74
255
0
VERTEX
8
Form0
10
0.000000
20
0.000000
30
0.000000
70
128
71
254
72
835
73
836
74
836
0
VERTEX
8
Form0
10
0.000000
20
0.000000
30
0.000000
70
128
71
63
72
318
73
838
74
838
0
VERTEX
8
Form0
10
0.000000
20
0.000000
30
0.000000
70
128
71
257
72
837
73
838
74
838
0
VERTEX
8
Form0
10
0.000000
20
0.000000
30
0.000000
70
128
71
838
72
318
73
257
74
257
0
VERTEX
8
Form0
10
0.000000
20
0.000000
30
0.000000
70
128
71
319
72
69
73
257
74
257
0
VERTEX
8
Form0
10
0.000000
20
0.000000
30
0.000000
70
128
71
256
72
779
73
837
74
837
0
VERTEX
8
Form0
10
0.000000
20
0.000000
30
0.000000
70
128
71
837
72
257
73
256
74
256
0
VERTEX
8
Form0
10
0.000000
20
0.000000
30
0.000000
70
128
71
318
72
319
73
257
74
257
0
VERTEX
8
Form0
10
0.000000
20
0.000000
30
0.000000
70
128
71
69
72
319
73
690
74
258
0
VERTEX
8
Form0
10
0.000000
20
0.000000
30
0.000000
70
128
71
319
72
318
73
691
74
690
0
VERTEX
8
Form0
10
0.000000
20
0.000000
30
0.000000
70
128
71
318
72
63
73
244
74
691
0
VERTEX
8
Form0
10
0.000000
20
0.000000
30
0.000000
70
128
71
258
72
690
73
692
74
259
0
VERTEX
8
Form0
10
0.000000
20
0.000000
30
0.000000
70
128
71
690
72
691
73
693
74
692
0
VERTEX
8
Form0
10
0.000000
20
0.000000
30
0.000000
70
128
71
691
72
244
73
245
74
693
0
VERTEX
8
Form0
10
0.000000
20
0.000000
30
0.000000
70
128
71
259
72
692
73
351
74
70
0
VERTEX
8
Form0
10
0.000000
20
0.000000
30
0.000000
70
128
71
692
72
693
73
350
74
351
0
VERTEX
8
Form0
10
0.000000
20
0.000000
30
0.000000
70
128
71
693
72
245
73
64
74
350
0
VERTEX
8
Form0
10
0.000000
20
0.000000
30
0.000000
70
128
71
70
72
351
73
694
74
260
0
VERTEX
8
Form0
10
0.000000
20
0.000000
30
0.000000
70
128
71
351
72
350
73
695
74
694
0
VERTEX
8
Form0
10
0.000000
20
0.000000
30
0.000000
70
128
71
350
72
64
73
246
74
695
0
VERTEX
8
Form0
10
0.000000
20
0.000000
30
0.000000
70
128
71
260
72
694
73
696
74
261
0
VERTEX
8
Form0
10
0.000000
20
0.000000
30
0.000000
70
128
71
694
72
695
73
697
74
696
0
VERTEX
8
Form0
10
0.000000
20
0.000000
30
0.000000
70
128
71
695
72
246
73
247
74
697
0
VERTEX
8
Form0
10
0.000000
20
0.000000
30
0.000000
70
128
71
261
72
696
73
383
74
71
0
VERTEX
8
Form0
10
0.000000
20
0.000000
30
0.000000
70
128
71
696
72
697
73
382
74
383
0
VERTEX
8
Form0
10
0.000000
20
0.000000
30
0.000000
70
128
71
697
72
247
73
65
74
382
0
VERTEX
8
Form0
10
0.000000
20
0.000000
30
0.000000
70
128
71
71
72
383
73
698
74
262
0
VERTEX
8
Form0
10
0.000000
20
0.000000
30
0.000000
70
128
71
383
72
382
73
699
74
698
0
VERTEX
8
Form0
10
0.000000
20
0.000000
30
0.000000
70
128
71
382
72
65
73
248
74
699
0
VERTEX
8
Form0
10
0.000000
20
0.000000
30
0.000000
70
128
71
262
72
698
73
700
74
263
0
VERTEX
8
Form0
10
0.000000
20
0.000000
30
0.000000
70
128
71
698
72
699
73
701
74
700
0
VERTEX
8
Form0
10
0.000000
20
0.000000
30
0.000000
70
128
71
699
72
248
73
249
74
701
0
VERTEX
8
Form0
10
0.000000
20
0.000000
30
0.000000
70
128
71
263
72
700
73
411
74
72
0
VERTEX
8
Form0
10
0.000000
20
0.000000
30
0.000000
70
128
71
700
72
701
73
410
74
411
0
VERTEX
8
Form0
10
0.000000
20
0.000000
30
0.000000
70
128
71
701
72
249
73
66
74
410
0
VERTEX
8
Form0
10
0.000000
20
0.000000
30
0.000000
70
128
71
72
72
411
73
702
74
264
0
VERTEX
8
Form0
10
0.000000
20
0.000000
30
0.000000
70
128
71
411
72
410
73
703
74
702
0
VERTEX
8
Form0
10
0.000000
20
0.000000
30
0.000000
70
128
71
410
72
66
73
250
74
703
0
VERTEX
8
Form0
10
0.000000
20
0.000000
30
0.000000
70
128
71
264
72
702
73
704
74
265
0
VERTEX
8
Form0
10
0.000000
20
0.000000
30
0.000000
70
128
71
702
72
703
73
705
74
704
0
VERTEX
8
Form0
10
0.000000
20
0.000000
30
0.000000
70
128
71
703
72
250
73
251
74
705
0
VERTEX
8
Form0
10
0.000000
20
0.000000
30
0.000000
70
128
71
265
72
704
73
439
74
73
0
VERTEX
8
Form0
10
0.000000
20
0.000000
30
0.000000
70
128
71
704
72
705
73
438
74
439
0
VERTEX
8
Form0
10
0.000000
20
0.000000
30
0.000000
70
128
71
705
72
251
73
67
74
438
0
VERTEX
8
Form0
10
0.000000
20
0.000000
30
0.000000
70
128
71
73
72
439
73
706
74
266
0
VERTEX
8
Form0
10
0.000000
20
0.000000
30
0.000000
70
128
71
439
72
438
73
707
74
706
0
VERTEX
8
Form0
10
0.000000
20
0.000000
30
0.000000
70
128
71
438
72
67
73
252
74
707
0
VERTEX
8
Form0
10
0.000000
20
0.000000
30
0.000000
70
128
71
266
72
706
73
708
74
267
0
VERTEX
8
Form0
10
0.000000
20
0.000000
30
0.000000
70
128
71
706
72
707
73
709
74
708
0
VERTEX
8
Form0
10
0.000000
20
0.000000
30
0.000000
70
128
71
707
72
252
73
253
74
709
0
VERTEX
8
Form0
10
0.000000
20
0.000000
30
0.000000
70
128
71
267
72
708
73
467
74
74
0
VERTEX
8
Form0
10
0.000000
20
0.000000
30
0.000000
70
128
71
708
72
709
73
466
74
467
0
VERTEX
8
Form0
10
0.000000
20
0.000000
30
0.000000
70
128
71
709
72
253
73
68
74
466
0
VERTEX
8
Form0
10
0.000000
20
0.000000
30
0.000000
70
128
71
466
72
839
73
268
74
268
0
VERTEX
8
Form0
10
0.000000
20
0.000000
30
0.000000
70
128
71
466
72
68
73
839
74
839
0
VERTEX
8
Form0
10
0.000000
20
0.000000
30
0.000000
70
128
71
839
72
840
73
268
74
268
0
VERTEX
8
Form0
10
0.000000
20
0.000000
30
0.000000
70
128
71
268
72
840
73
269
74
269
0
VERTEX
8
Form0
10
0.000000
20
0.000000
30
0.000000
70
128
71
467
72
268
73
74
74
74
0
VERTEX
8
Form0
10
0.000000
20
0.000000
30
0.000000
70
128
71
467
72
466
73
268
74
268
0
VERTEX
8
Form0
10
0.000000
20
0.000000
30
0.000000
70
128
71
269
72
840
73
792
74
792
0
VERTEX
8
Form0
10
0.000000
20
0.000000
30
0.000000
70
128
71
842
72
69
73
271
74
271
0
VERTEX
8
Form0
10
0.000000
20
0.000000
30
0.000000
70
128
71
270
72
841
73
842
74
842
0
VERTEX
8
Form0
10
0.000000
20
0.000000
30
0.000000
70
128
71
271
72
69
73
320
74
320
0
VERTEX
8
Form0
10
0.000000
20
0.000000
30
0.000000
70
128
71
321
72
75
73
271
74
271
0
VERTEX
8
Form0
10
0.000000
20
0.000000
30
0.000000
70
128
71
270
72
780
73
841
74
841
0
VERTEX
8
Form0
10
0.000000
20
0.000000
30
0.000000
70
128
71
842
72
271
73
270
74
270
0
VERTEX
8
Form0
10
0.000000
20
0.000000
30
0.000000
70
128
71
320
72
321
73
271
74
271
0
VERTEX
8
Form0
10
0.000000
20
0.000000
30
0.000000
70
128
71
75
72
321
73
710
74
272
0
VERTEX
8
Form0
10
0.000000
20
0.000000
30
0.000000
70
128
71
321
72
320
73
711
74
710
0
VERTEX
8
Form0
10
0.000000
20
0.000000
30
0.000000
70
128
71
320
72
69
73
258
74
711
0
VERTEX
8
Form0
10
0.000000
20
0.000000
30
0.000000
70
128
71
272
72
710
73
712
74
273
0
VERTEX
8
Form0
10
0.000000
20
0.000000
30
0.000000
70
128
71
710
72
711
73
713
74
712
0
VERTEX
8
Form0
10
0.000000
20
0.000000
30
0.000000
70
128
71
711
72
258
73
259
74
713
0
VERTEX
8
Form0
10
0.000000
20
0.000000
30
0.000000
70
128
71
273
72
712
73
353
74
76
0
VERTEX
8
Form0
10
0.000000
20
0.000000
30
0.000000
70
128
71
712
72
713
73
352
74
353
0
VERTEX
8
Form0
10
0.000000
20
0.000000
30
0.000000
70
128
71
713
72
259
73
70
74
352
0
VERTEX
8
Form0
10
0.000000
20
0.000000
30
0.000000
70
128
71
76
72
353
73
714
74
274
0
VERTEX
8
Form0
10
0.000000
20
0.000000
30
0.000000
70
128
71
353
72
352
73
715
74
714
0
VERTEX
8
Form0
10
0.000000
20
0.000000
30
0.000000
70
128
71
352
72
70
73
260
74
715
0
VERTEX
8
Form0
10
0.000000
20
0.000000
30
0.000000
70
128
71
274
72
714
73
716
74
275
0
VERTEX
8
Form0
10
0.000000
20
0.000000
30
0.000000
70
128
71
714
72
715
73
717
74
716
0
VERTEX
8
Form0
10
0.000000
20
0.000000
30
0.000000
70
128
71
715
72
260
73
261
74
717
0
VERTEX
8
Form0
10
0.000000
20
0.000000
30
0.000000
70
128
71
275
72
716
73
385
74
77
0
VERTEX
8
Form0
10
0.000000
20
0.000000
30
0.000000
70
128
71
716
72
717
73
384
74
385
0
VERTEX
8
Form0
10
0.000000
20
0.000000
30
0.000000
70
128
71
717
72
261
73
71
74
384
0
VERTEX
8
Form0
10
0.000000
20
0.000000
30
0.000000
70
128
71
77
72
385
73
718
74
276
0
VERTEX
8
Form0
10
0.000000
20
0.000000
30
0.000000
70
128
71
385
72
384
73
719
74
718
0
VERTEX
8
Form0
10
0.000000
20
0.000000
30
0.000000
70
128
71
384
72
71
73
262
74
719
0
VERTEX
8
Form0
10
0.000000
20
0.000000
30
0.000000
70
128
71
276
72
718
73
720
74
277
0
VERTEX
8
Form0
10
0.000000
20
0.000000
30
0.000000
70
128
71
718
72
719
73
721
74
720
0
VERTEX
8
Form0
10
0.000000
20
0.000000
30
0.000000
70
128
71
719
72
262
73
263
74
721
0
VERTEX
8
Form0
10
0.000000
20
0.000000
30
0.000000
70
128
71
277
72
720
73
413
74
78
0
VERTEX
8
Form0
10
0.000000
20
0.000000
30
0.000000
70
128
71
720
72
721
73
412
74
413
0
VERTEX
8
Form0
10
0.000000
20
0.000000
30
0.000000
70
128
71
721
72
263
73
72
74
412
0
VERTEX
8
Form0
10
0.000000
20
0.000000
30
0.000000
70
128
71
78
72
413
73
722
74
278
0
VERTEX
8
Form0
10
0.000000
20
0.000000
30
0.000000
70
128
71
413
72
412
73
723
74
722
0
VERTEX
8
Form0
10
0.000000
20
0.000000
30
0.000000
70
128
71
412
72
72
73
264
74
723
0
VERTEX
8
Form0
10
0.000000
20
0.000000
30
0.000000
70
128
71
278
72
722
73
724
74
279
0
VERTEX
8
Form0
10
0.000000
20
0.000000
30
0.000000
70
128
71
722
72
723
73
725
74
724
0
VERTEX
8
Form0
10
0.000000
20
0.000000
30
0.000000
70
128
71
723
72
264
73
265
74
725
0
VERTEX
8
Form0
10
0.000000
20
0.000000
30
0.000000
70
128
71
279
72
724
73
441
74
79
0
VERTEX
8
Form0
10
0.000000
20
0.000000
30
0.000000
70
128
71
724
72
725
73
440
74
441
0
VERTEX
8
Form0
10
0.000000
20
0.000000
30
0.000000
70
128
71
725
72
265
73
73
74
440
0
VERTEX
8
Form0
10
0.000000
20
0.000000
30
0.000000
70
128
71
79
72
441
73
726
74
280
0
VERTEX
8
Form0
10
0.000000
20
0.000000
30
0.000000
70
128
71
441
72
440
73
727
74
726
0
VERTEX
8
Form0
10
0.000000
20
0.000000
30
0.000000
70
128
71
440
72
73
73
266
74
727
0
VERTEX
8
Form0
10
0.000000
20
0.000000
30
0.000000
70
128
71
280
72
726
73
728
74
281
0
VERTEX
8
Form0
10
0.000000
20
0.000000
30
0.000000
70
128
71
726
72
727
73
729
74
728
0
VERTEX
8
Form0
10
0.000000
20
0.000000
30
0.000000
70
128
71
727
72
266
73
267
74
729
0
VERTEX
8
Form0
10
0.000000
20
0.000000
30
0.000000
70
128
71
281
72
728
73
469
74
80
0
VERTEX
8
Form0
10
0.000000
20
0.000000
30
0.000000
70
128
71
728
72
729
73
468
74
469
0
VERTEX
8
Form0
10
0.000000
20
0.000000
30
0.000000
70
128
71
729
72
267
73
74
74
468
0
VERTEX
8
Form0
10
0.000000
20
0.000000
30
0.000000
70
128
71
793
72
283
73
844
74
844
0
VERTEX
8
Form0
10
0.000000
20
0.000000
30
0.000000
70
128
71
843
72
844
73
283
74
283
0
VERTEX
8
Form0
10
0.000000
20
0.000000
30
0.000000
70
128
71
283
72
282
73
843
74
843
0
VERTEX
8
Form0
10
0.000000
20
0.000000
30
0.000000
70
128
71
282
72
80
73
469
74
469
0
VERTEX
8
Form0
10
0.000000
20
0.000000
30
0.000000
70
128
71
468
72
74
73
843
74
843
0
VERTEX
8
Form0
10
0.000000
20
0.000000
30
0.000000
70
128
71
468
72
282
73
469
74
469
0
VERTEX
8
Form0
10
0.000000
20
0.000000
30
0.000000
70
128
71
468
72
843
73
282
74
282
0
VERTEX
8
Form0
10
0.000000
20
0.000000
30
0.000000
70
128
71
285
72
75
73
322
74
322
0
VERTEX
8
Form0
10
0.000000
20
0.000000
30
0.000000
70
128
71
285
72
846
73
75
74
75
0
VERTEX
8
Form0
10
0.000000
20
0.000000
30
0.000000
70
128
71
322
72
323
73
285
74
285
0
VERTEX
8
Form0
10
0.000000
20
0.000000
30
0.000000
70
128
71
284
72
846
73
285
74
285
0
VERTEX
8
Form0
10
0.000000
20
0.000000
30
0.000000
70
128
71
845
72
284
73
781
74
781
0
VERTEX
8
Form0
10
0.000000
20
0.000000
30
0.000000
70
128
71
845
72
846
73
284
74
284
0
VERTEX
8
Form0
10
0.000000
20
0.000000
30
0.000000
70
128
71
285
72
323
73
81
74
81
0
VERTEX
8
Form0
10
0.000000
20
0.000000
30
0.000000
70
128
71
81
72
323
73
730
74
286
0
VERTEX
8
Form0
10
0.000000
20
0.000000
30
0.000000
70
128
71
323
72
322
73
731
74
730
0
VERTEX
8
Form0
10
0.000000
20
0.000000
30
0.000000
70
128
71
322
72
75
73
272
74
731
0
VERTEX
8
Form0
10
0.000000
20
0.000000
30
0.000000
70
128
71
286
72
730
73
732
74
287
0
VERTEX
8
Form0
10
0.000000
20
0.000000
30
0.000000
70
128
71
730
72
731
73
733
74
732
0
VERTEX
8
Form0
10
0.000000
20
0.000000
30
0.000000
70
128
71
731
72
272
73
273
74
733
0
VERTEX
8
Form0
10
0.000000
20
0.000000
30
0.000000
70
128
71
287
72
732
73
355
74
82
0
VERTEX
8
Form0
10
0.000000
20
0.000000
30
0.000000
70
128
71
732
72
733
73
354
74
355
0
VERTEX
8
Form0
10
0.000000
20
0.000000
30
0.000000
70
128
71
733
72
273
73
76
74
354
0
VERTEX
8
Form0
10
0.000000
20
0.000000
30
0.000000
70
128
71
82
72
355
73
734
74
288
0
VERTEX
8
Form0
10
0.000000
20
0.000000
30
0.000000
70
128
71
355
72
354
73
735
74
734
0
VERTEX
8
Form0
10
0.000000
20
0.000000
30
0.000000
70
128
71
354
72
76
73
274
74
735
0
VERTEX
8
Form0
10
0.000000
20
0.000000
30
0.000000
70
128
71
288
72
734
73
736
74
289
0
VERTEX
8
Form0
10
0.000000
20
0.000000
30
0.000000
70
128
71
734
72
735
73
737
74
736
0
VERTEX
8
Form0
10
0.000000
20
0.000000
30
0.000000
70
128
71
735
72
274
73
275
74
737
0
VERTEX
8
Form0
10
0.000000
20
0.000000
30
0.000000
70
128
71
289
72
736
73
387
74
83
0
VERTEX
8
Form0
10
0.000000
20
0.000000
30
0.000000
70
128
71
736
72
737
73
386
74
387
0
VERTEX
8
Form0
10
0.000000
20
0.000000
30
0.000000
70
128
71
737
72
275
73
77
74
386
0
VERTEX
8
Form0
10
0.000000
20
0.000000
30
0.000000
70
128
71
83
72
387
73
738
74
290
0
VERTEX
8
Form0
10
0.000000
20
0.000000
30
0.000000
70
128
71
387
72
386
73
739
74
738
0
VERTEX
8
Form0
10
0.000000
20
0.000000
30
0.000000
70
128
71
386
72
77
73
276
74
739
0
VERTEX
8
Form0
10
0.000000
20
0.000000
30
0.000000
70
128
71
290
72
738
73
740
74
291
0
VERTEX
8
Form0
10
0.000000
20
0.000000
30
0.000000
70
128
71
738
72
739
73
741
74
740
0
VERTEX
8
Form0
10
0.000000
20
0.000000
30
0.000000
70
128
71
739
72
276
73
277
74
741
0
VERTEX
8
Form0
10
0.000000
20
0.000000
30
0.000000
70
128
71
291
72
740
73
415
74
84
0
VERTEX
8
Form0
10
0.000000
20
0.000000
30
0.000000
70
128
71
740
72
741
73
414
74
415
0
VERTEX
8
Form0
10
0.000000
20
0.000000
30
0.000000
70
128
71
741
72
277
73
78
74
414
0
VERTEX
8
Form0
10
0.000000
20
0.000000
30
0.000000
70
128
71
84
72
415
73
742
74
292
0
VERTEX
8
Form0
10
0.000000
20
0.000000
30
0.000000
70
128
71
415
72
414
73
743
74
742
0
VERTEX
8
Form0
10
0.000000
20
0.000000
30
0.000000
70
128
71
414
72
78
73
278
74
743
0
VERTEX
8
Form0
10
0.000000
20
0.000000
30
0.000000
70
128
71
292
72
742
73
744
74
293
0
VERTEX
8
Form0
10
0.000000
20
0.000000
30
0.000000
70
128
71
742
72
743
73
745
74
744
0
VERTEX
8
Form0
10
0.000000
20
0.000000
30
0.000000
70
128
71
743
72
278
73
279
74
745
0
VERTEX
8
Form0
10
0.000000
20
0.000000
30
0.000000
70
128
71
293
72
744
73
443
74
85
0
VERTEX
8
Form0
10
0.000000
20
0.000000
30
0.000000
70
128
71
744
72
745
73
442
74
443
0
VERTEX
8
Form0
10
0.000000
20
0.000000
30
0.000000
70
128
71
745
72
279
73
79
74
442
0
VERTEX
8
Form0
10
0.000000
20
0.000000
30
0.000000
70
128
71
85
72
443
73
746
74
294
0
VERTEX
8
Form0
10
0.000000
20
0.000000
30
0.000000
70
128
71
443
72
442
73
747
74
746
0
VERTEX
8
Form0
10
0.000000
20
0.000000
30
0.000000
70
128
71
442
72
79
73
280
74
747
0
VERTEX
8
Form0
10
0.000000
20
0.000000
30
0.000000
70
128
71
294
72
746
73
748
74
295
0
VERTEX
8
Form0
10
0.000000
20
0.000000
30
0.000000
70
128
71
746
72
747
73
749
74
748
0
VERTEX
8
Form0
10
0.000000
20
0.000000
30
0.000000
70
128
71
747
72
280
73
281
74
749
0
VERTEX
8
Form0
10
0.000000
20
0.000000
30
0.000000
70
128
71
295
72
748
73
471
74
86
0
VERTEX
8
Form0
10
0.000000
20
0.000000
30
0.000000
70
128
71
748
72
749
73
470
74
471
0
VERTEX
8
Form0
10
0.000000
20
0.000000
30
0.000000
70
128
71
749
72
281
73
80
74
470
0
VERTEX
8
Form0
10
0.000000
20
0.000000
30
0.000000
70
128
71
794
72
297
73
848
74
848
0
VERTEX
8
Form0
10
0.000000
20
0.000000
30
0.000000
70
128
71
296
72
847
73
848
74
848
0
VERTEX
8
Form0
10
0.000000
20
0.000000
30
0.000000
70
128
71
848
72
297
73
296
74
296
0
VERTEX
8
Form0
10
0.000000
20
0.000000
30
0.000000
70
128
71
296
72
86
73
471
74
471
0
VERTEX
8
Form0
10
0.000000
20
0.000000
30
0.000000
70
128
71
470
72
80
73
847
74
847
0
VERTEX
8
Form0
10
0.000000
20
0.000000
30
0.000000
70
128
71
847
72
471
73
470
74
470
0
VERTEX
8
Form0
10
0.000000
20
0.000000
30
0.000000
70
128
71
847
72
296
73
471
74
471
0
VERTEX
8
Form0
10
0.000000
20
0.000000
30
0.000000
70
128
71
325
72
3
73
324
74
324
0
VERTEX
8
Form0
10
0.000000
20
0.000000
30
0.000000
70
128
71
798
72
81
73
324
74
324
0
VERTEX
8
Form0
10
0.000000
20
0.000000
30
0.000000
70
128
71
324
72
3
73
798
74
798
0
VERTEX
8
Form0
10
0.000000
20
0.000000
30
0.000000
70
128
71
798
72
797
73
850
74
850
0
VERTEX
8
Form0
10
0.000000
20
0.000000
30
0.000000
70
128
71
797
72
849
73
850
74
850
0
VERTEX
8
Form0
10
0.000000
20
0.000000
30
0.000000
70
128
71
849
72
797
73
782
74
782
0
VERTEX
8
Form0
10
0.000000
20
0.000000
30
0.000000
70
128
71
798
72
850
73
81
74
81
0
VERTEX
8
Form0
10
0.000000
20
0.000000
30
0.000000
70
128
71
3
72
325
73
750
74
98
0
VERTEX
8
Form0
10
0.000000
20
0.000000
30
0.000000
70
128
71
325
72
324
73
751
74
750
0
VERTEX
8
Form0
10
0.000000
20
0.000000
30
0.000000
70
128
71
324
72
81
73
286
74
751
0
VERTEX
8
Form0
10
0.000000
20
0.000000
30
0.000000
70
128
71
98
72
750
73
752
74
99
0
VERTEX
8
Form0
10
0.000000
20
0.000000
30
0.000000
70
128
71
750
72
751
73
753
74
752
0
VERTEX
8
Form0
10
0.000000
20
0.000000
30
0.000000
70
128
71
751
72
286
73
287
74
753
0
VERTEX
8
Form0
10
0.000000
20
0.000000
30
0.000000
70
128
71
99
72
752
73
357
74
4
0
VERTEX
8
Form0
10
0.000000
20
0.000000
30
0.000000
70
128
71
752
72
753
73
356
74
357
0
VERTEX
8
Form0
10
0.000000
20
0.000000
30
0.000000
70
128
71
753
72
287
73
82
74
356
0
VERTEX
8
Form0
10
0.000000
20
0.000000
30
0.000000
70
128
71
4
72
357
73
754
74
100
0
VERTEX
8
Form0
10
0.000000
20
0.000000
30
0.000000
70
128
71
357
72
356
73
755
74
754
0
VERTEX
8
Form0
10
0.000000
20
0.000000
30
0.000000
70
128
71
356
72
82
73
288
74
755
0
VERTEX
8
Form0
10
0.000000
20
0.000000
30
0.000000
70
128
71
100
72
754
73
756
74
101
0
VERTEX
8
Form0
10
0.000000
20
0.000000
30
0.000000
70
128
71
754
72
755
73
757
74
756
0
VERTEX
8
Form0
10
0.000000
20
0.000000
30
0.000000
70
128
71
755
72
288
73
289
74
757
0
VERTEX
8
Form0
10
0.000000
20
0.000000
30
0.000000
70
128
71
101
72
756
73
389
74
5
0
VERTEX
8
Form0
10
0.000000
20
0.000000
30
0.000000
70
128
71
756
72
757
73
388
74
389
0
VERTEX
8
Form0
10
0.000000
20
0.000000
30
0.000000
70
128
71
757
72
289
73
83
74
388
0
VERTEX
8
Form0
10
0.000000
20
0.000000
30
0.000000
70
128
71
5
72
389
73
758
74
102
0
VERTEX
8
Form0
10
0.000000
20
0.000000
30
0.000000
70
128
71
389
72
388
73
759
74
758
0
VERTEX
8
Form0
10
0.000000
20
0.000000
30
0.000000
70
128
71
388
72
83
73
290
74
759
0
VERTEX
8
Form0
10
0.000000
20
0.000000
30
0.000000
70
128
71
102
72
758
73
760
74
103
0
VERTEX
8
Form0
10
0.000000
20
0.000000
30
0.000000
70
128
71
758
72
759
73
761
74
760
0
VERTEX
8
Form0
10
0.000000
20
0.000000
30
0.000000
70
128
71
759
72
290
73
291
74
761
0
VERTEX
8
Form0
10
0.000000
20
0.000000
30
0.000000
70
128
71
103
72
760
73
417
74
6
0
VERTEX
8
Form0
10
0.000000
20
0.000000
30
0.000000
70
128
71
760
72
761
73
416
74
417
0
VERTEX
8
Form0
10
0.000000
20
0.000000
30
0.000000
70
128
71
761
72
291
73
84
74
416
0
VERTEX
8
Form0
10
0.000000
20
0.000000
30
0.000000
70
128
71
6
72
417
73
762
74
104
0
VERTEX
8
Form0
10
0.000000
20
0.000000
30
0.000000
70
128
71
417
72
416
73
763
74
762
0
VERTEX
8
Form0
10
0.000000
20
0.000000
30
0.000000
70
128
71
416
72
84
73
292
74
763
0
VERTEX
8
Form0
10
0.000000
20
0.000000
30
0.000000
70
128
71
104
72
762
73
764
74
105
0
VERTEX
8
Form0
10
0.000000
20
0.000000
30
0.000000
70
128
71
762
72
763
73
765
74
764
0
VERTEX
8
Form0
10
0.000000
20
0.000000
30
0.000000
70
128
71
763
72
292
73
293
74
765
0
VERTEX
8
Form0
10
0.000000
20
0.000000
30
0.000000
70
128
71
105
72
764
73
445
74
7
0
VERTEX
8
Form0
10
0.000000
20
0.000000
30
0.000000
70
128
71
764
72
765
73
444
74
445
0
VERTEX
8
Form0
10
0.000000
20
0.000000
30
0.000000
70
128
71
765
72
293
73
85
74
444
0
VERTEX
8
Form0
10
0.000000
20
0.000000
30
0.000000
70
128
71
7
72
445
73
766
74
106
0
VERTEX
8
Form0
10
0.000000
20
0.000000
30
0.000000
70
128
71
445
72
444
73
767
74
766
0
VERTEX
8
Form0
10
0.000000
20
0.000000
30
0.000000
70
128
71
444
72
85
73
294
74
767
0
VERTEX
8
Form0
10
0.000000
20
0.000000
30
0.000000
70
128
71
106
72
766
73
768
74
107
0
VERTEX
8
Form0
10
0.000000
20
0.000000
30
0.000000
70
128
71
766
72
767
73
769
74
768
0
VERTEX
8
Form0
10
0.000000
20
0.000000
30
0.000000
70
128
71
767
72
294
73
295
74
769
0
VERTEX
8
Form0
10
0.000000
20
0.000000
30
0.000000
70
128
71
107
72
768
73
473
74
8
0
VERTEX
8
Form0
10
0.000000
20
0.000000
30
0.000000
70
128
71
768
72
769
73
472
74
473
0
VERTEX
8
Form0
10
0.000000
20
0.000000
30
0.000000
70
128
71
769
72
295
73
86
74
472
0
VERTEX
8
Form0
10
0.000000
20
0.000000
30
0.000000
70
128
71
795
72
800
73
852
74
852
0
VERTEX
8
Form0
10
0.000000
20
0.000000
30
0.000000
70
128
71
851
72
852
73
800
74
800
0
VERTEX
8
Form0
10
0.000000
20
0.000000
30
0.000000
70
128
71
800
72
799
73
851
74
851
0
VERTEX
8
Form0
10
0.000000
20
0.000000
30
0.000000
70
128
71
799
72
8
73
473
74
473
0
VERTEX
8
Form0
10
0.000000
20
0.000000
30
0.000000
70
128
71
472
72
86
73
851
74
851
0
VERTEX
8
Form0
10
0.000000
20
0.000000
30
0.000000
70
128
71
472
72
799
73
473
74
473
0
VERTEX
8
Form0
10
0.000000
20
0.000000
30
0.000000
70
128
71
472
72
851
73
799
74
799
0
VERTEX
8
Form0
10
0.000000
20
0.000000
30
0.000000
70
128
71
87
72
368
73
186
74
186
0
VERTEX
8
Form0
10
0.000000
20
0.000000
30
0.000000
70
128
71
185
72
368
73
87
74
87
0
VERTEX
8
Form0
10
0.000000
20
0.000000
30
0.000000
70
128
71
187
72
186
73
41
74
41
0
VERTEX
8
Form0
10
0.000000
20
0.000000
30
0.000000
70
128
71
369
72
41
73
186
74
186
0
VERTEX
8
Form0
10
0.000000
20
0.000000
30
0.000000
70
128
71
369
72
186
73
368
74
368
0
VERTEX
8
Form0
10
0.000000
20
0.000000
30
0.000000
70
128
71
185
72
184
73
171
74
171
0
VERTEX
8
Form0
10
0.000000
20
0.000000
30
0.000000
70
128
71
40
72
337
73
171
74
171
0
VERTEX
8
Form0
10
0.000000
20
0.000000
30
0.000000
70
128
71
336
72
34
73
170
74
170
0
VERTEX
8
Form0
10
0.000000
20
0.000000
30
0.000000
70
128
71
337
72
336
73
170
74
170
0
VERTEX
8
Form0
10
0.000000
20
0.000000
30
0.000000
70
128
71
171
72
368
73
185
74
185
0
VERTEX
8
Form0
10
0.000000
20
0.000000
30
0.000000
70
128
71
171
72
337
73
170
74
170
0
VERTEX
8
Form0
10
0.000000
20
0.000000
30
0.000000
70
128
71
171
72
35
73
368
74
368
0
VERTEX
8
Form0
10
0.000000
20
0.000000
30
0.000000
70
128
71
171
72
184
73
40
74
40
0
VERTEX
8
Form0
10
0.000000
20
0.000000
30
0.000000
70
128
71
310
72
39
73
182
74
182
0
VERTEX
8
Form0
10
0.000000
20
0.000000
30
0.000000
70
128
71
310
72
182
73
311
74
311
0
VERTEX
8
Form0
10
0.000000
20
0.000000
30
0.000000
70
128
71
45
72
311
73
198
74
198
0
VERTEX
8
Form0
10
0.000000
20
0.000000
30
0.000000
70
128
71
198
72
311
73
182
74
182
0
VERTEX
8
Form0
10
0.000000
20
0.000000
30
0.000000
70
128
71
198
72
183
73
199
74
199
0
VERTEX
8
Form0
10
0.000000
20
0.000000
30
0.000000
70
128
71
198
72
182
73
183
74
183
0
VERTEX
8
Form0
10
0.000000
20
0.000000
30
0.000000
70
128
71
183
72
339
73
90
74
90
0
VERTEX
8
Form0
10
0.000000
20
0.000000
30
0.000000
70
128
71
339
72
183
73
40
74
40
0
VERTEX
8
Form0
10
0.000000
20
0.000000
30
0.000000
70
128
71
40
72
338
73
339
74
339
0
VERTEX
8
Form0
10
0.000000
20
0.000000
30
0.000000
70
128
71
341
72
46
73
340
74
340
0
VERTEX
8
Form0
10
0.000000
20
0.000000
30
0.000000
70
128
71
46
72
199
73
340
74
340
0
VERTEX
8
Form0
10
0.000000
20
0.000000
30
0.000000
70
128
71
90
72
340
73
199
74
199
0
VERTEX
8
Form0
10
0.000000
20
0.000000
30
0.000000
70
128
71
199
72
183
73
90
74
90
0
VERTEX
8
Form0
10
0.000000
20
0.000000
30
0.000000
70
128
71
204
72
92
73
371
74
371
0
VERTEX
8
Form0
10
0.000000
20
0.000000
30
0.000000
70
128
71
188
72
204
73
371
74
371
0
VERTEX
8
Form0
10
0.000000
20
0.000000
30
0.000000
70
128
71
47
72
373
73
204
74
204
0
VERTEX
8
Form0
10
0.000000
20
0.000000
30
0.000000
70
128
71
372
72
204
73
373
74
373
0
VERTEX
8
Form0
10
0.000000
20
0.000000
30
0.000000
70
128
71
204
72
372
73
92
74
92
0
VERTEX
8
Form0
10
0.000000
20
0.000000
30
0.000000
70
128
71
371
72
370
73
188
74
188
0
VERTEX
8
Form0
10
0.000000
20
0.000000
30
0.000000
70
128
71
188
72
205
73
204
74
204
0
VERTEX
8
Form0
10
0.000000
20
0.000000
30
0.000000
70
128
71
188
72
189
73
205
74
205
0
VERTEX
8
Form0
10
0.000000
20
0.000000
30
0.000000
70
128
71
402
72
189
73
42
74
42
0
VERTEX
8
Form0
10
0.000000
20
0.000000
30
0.000000
70
128
71
205
72
189
73
48
74
48
0
VERTEX
8
Form0
10
0.000000
20
0.000000
30
0.000000
70
128
71
48
72
189
73
403
74
403
0
VERTEX
8
Form0
10
0.000000
20
0.000000
30
0.000000
70
128
71
189
72
402
73
403
74
403
0
VERTEX
8
Form0
10
0.000000
20
0.000000
30
0.000000
70
128
71
188
72
370
73
41
74
41
0
VERTEX
8
Form0
10
0.000000
20
0.000000
30
0.000000
70
128
71
214
72
198
73
215
74
215
0
VERTEX
8
Form0
10
0.000000
20
0.000000
30
0.000000
70
128
71
45
72
198
73
312
74
312
0
VERTEX
8
Form0
10
0.000000
20
0.000000
30
0.000000
70
128
71
312
72
198
73
313
74
313
0
VERTEX
8
Form0
10
0.000000
20
0.000000
30
0.000000
70
128
71
214
72
51
73
313
74
313
0
VERTEX
8
Form0
10
0.000000
20
0.000000
30
0.000000
70
128
71
198
72
214
73
313
74
313
0
VERTEX
8
Form0
10
0.000000
20
0.000000
30
0.000000
70
128
71
198
72
199
73
215
74
215
0
VERTEX
8
Form0
10
0.000000
20
0.000000
30
0.000000
70
128
71
46
72
342
73
343
74
343
0
VERTEX
8
Form0
10
0.000000
20
0.000000
30
0.000000
70
128
71
91
72
199
73
343
74
343
0
VERTEX
8
Form0
10
0.000000
20
0.000000
30
0.000000
70
128
71
344
72
199
73
91
74
91
0
VERTEX
8
Form0
10
0.000000
20
0.000000
30
0.000000
70
128
71
215
72
344
73
52
74
52
0
VERTEX
8
Form0
10
0.000000
20
0.000000
30
0.000000
70
128
71
215
72
199
73
344
74
344
0
VERTEX
8
Form0
10
0.000000
20
0.000000
30
0.000000
70
128
71
345
72
52
73
344
74
344
0
VERTEX
8
Form0
10
0.000000
20
0.000000
30
0.000000
70
128
71
199
72
46
73
343
74
343
0
VERTEX
8
Form0
10
0.000000
20
0.000000
30
0.000000
70
128
71
219
72
53
73
378
74
378
0
VERTEX
8
Form0
10
0.000000
20
0.000000
30
0.000000
70
128
71
219
72
378
73
218
74
218
0
VERTEX
8
Form0
10
0.000000
20
0.000000
30
0.000000
70
128
71
89
72
218
73
379
74
379
0
VERTEX
8
Form0
10
0.000000
20
0.000000
30
0.000000
70
128
71
217
72
89
73
379
74
379
0
VERTEX
8
Form0
10
0.000000
20
0.000000
30
0.000000
70
128
71
217
72
379
73
216
74
216
0
VERTEX
8
Form0
10
0.000000
20
0.000000
30
0.000000
70
128
71
378
72
379
73
218
74
218
0
VERTEX
8
Form0
10
0.000000
20
0.000000
30
0.000000
70
128
71
59
72
346
73
216
74
216
0
VERTEX
8
Form0
10
0.000000
20
0.000000
30
0.000000
70
128
71
59
72
233
73
346
74
346
0
VERTEX
8
Form0
10
0.000000
20
0.000000
30
0.000000
70
128
71
232
72
347
73
233
74
233
0
VERTEX
8
Form0
10
0.000000
20
0.000000
30
0.000000
70
128
71
52
72
216
73
346
74
346
0
VERTEX
8
Form0
10
0.000000
20
0.000000
30
0.000000
70
128
71
58
72
347
73
232
74
232
0
VERTEX
8
Form0
10
0.000000
20
0.000000
30
0.000000
70
128
71
346
72
233
73
347
74
347
0
VERTEX
8
Form0
10
0.000000
20
0.000000
30
0.000000
70
128
71
59
72
216
73
379
74
379
0
SEQEND
8
Form0
0
ENDSEC
0
EOF
