999
***** Fichier AutoCAD DXF créé parAmapi
0
SECTION
2
ENTITIES
0
POLYLINE
8
Form4
66
1
10
0.000000
20
0.000000
30
0.000000
70
64
71
522
72
531
0
VERTEX
8
Form4
10
-1.885027
20
23.466768
30
7.874016
70
192
0
VERTEX
8
Form4
10
7.391574
20
3.156095
30
7.874016
70
192
0
VERTEX
8
Form4
10
8.783709
20
-2.583171
30
7.874016
70
192
0
VERTEX
8
Form4
10
9.231287
20
-6.250656
30
7.874016
70
192
0
VERTEX
8
Form4
10
9.330088
20
-8.936128
30
7.874016
70
192
0
VERTEX
8
Form4
10
9.219345
20
-12.588684
30
7.874016
70
192
0
VERTEX
8
Form4
10
8.123605
20
-16.078112
30
7.874016
70
192
0
VERTEX
8
Form4
10
4.569848
20
-20.985189
30
7.874016
70
192
0
VERTEX
8
Form4
10
-1.404471
20
-23.812887
30
7.874016
70
192
0
VERTEX
8
Form4
10
-8.416173
20
-25.199051
30
7.874016
70
192
0
VERTEX
8
Form4
10
-13.948884
20
-24.606260
30
7.874016
70
192
0
VERTEX
8
Form4
10
-18.691208
20
-21.247116
30
7.874016
70
192
0
VERTEX
8
Form4
10
-21.062370
20
-15.121613
30
7.874016
70
192
0
VERTEX
8
Form4
10
-20.963570
20
-6.526150
30
7.874016
70
192
0
VERTEX
8
Form4
10
-17.802023
20
2.760900
30
7.874016
70
192
0
VERTEX
8
Form4
10
-11.478924
20
23.466768
30
7.874016
70
192
0
VERTEX
8
Form4
10
5.118110
20
23.622047
30
0.000000
70
192
0
VERTEX
8
Form4
10
14.330709
20
8.818897
30
0.000000
70
192
0
VERTEX
8
Form4
10
20.314960
20
-4.094489
30
0.000000
70
192
0
VERTEX
8
Form4
10
22.283464
20
-14.960629
30
0.000000
70
192
0
VERTEX
8
Form4
10
22.440945
20
-26.771654
30
0.000000
70
192
0
VERTEX
8
Form4
10
17.244095
20
-31.338583
30
0.000000
70
192
0
VERTEX
8
Form4
10
11.732284
20
-29.370079
30
0.000000
70
192
0
VERTEX
8
Form4
10
7.322834
20
-23.385826
30
0.000000
70
192
0
VERTEX
8
Form4
10
-0.944882
20
-32.913387
30
0.000000
70
192
0
VERTEX
8
Form4
10
-10.866142
20
-36.377953
30
0.000000
70
192
0
VERTEX
8
Form4
10
-19.685040
20
-35.433071
30
0.000000
70
192
0
VERTEX
8
Form4
10
-27.244095
20
-30.078741
30
0.000000
70
192
0
VERTEX
8
Form4
10
-31.023623
20
-20.314960
30
0.000000
70
192
0
VERTEX
8
Form4
10
-30.866142
20
-6.614173
30
0.000000
70
192
0
VERTEX
8
Form4
10
-25.826773
20
8.188976
30
0.000000
70
192
0
VERTEX
8
Form4
10
-18.897638
20
23.622047
30
0.000000
70
192
0
VERTEX
8
Form4
10
5.118110
20
23.622047
30
-7.874016
70
192
0
VERTEX
8
Form4
10
14.330709
20
8.818897
30
-7.874016
70
192
0
VERTEX
8
Form4
10
20.314960
20
-4.094489
30
-7.874016
70
192
0
VERTEX
8
Form4
10
22.283464
20
-14.960629
30
-7.874016
70
192
0
VERTEX
8
Form4
10
22.440945
20
-26.771654
30
-7.874016
70
192
0
VERTEX
8
Form4
10
17.244095
20
-31.338583
30
-7.874016
70
192
0
VERTEX
8
Form4
10
11.732284
20
-29.370079
30
-7.874016
70
192
0
VERTEX
8
Form4
10
7.322834
20
-23.385826
30
-7.874016
70
192
0
VERTEX
8
Form4
10
-0.944882
20
-32.913387
30
-7.874016
70
192
0
VERTEX
8
Form4
10
-10.866142
20
-36.377953
30
-7.874016
70
192
0
VERTEX
8
Form4
10
-19.685040
20
-35.433071
30
-7.874016
70
192
0
VERTEX
8
Form4
10
-27.244095
20
-30.078741
30
-7.874016
70
192
0
VERTEX
8
Form4
10
-31.023623
20
-20.314960
30
-7.874016
70
192
0
VERTEX
8
Form4
10
-30.866142
20
-6.614173
30
-7.874016
70
192
0
VERTEX
8
Form4
10
-25.826773
20
8.188976
30
-7.874016
70
192
0
VERTEX
8
Form4
10
-18.503937
20
23.622047
30
-7.874016
70
192
0
VERTEX
8
Form4
10
-1.491326
20
23.466768
30
-15.748032
70
192
0
VERTEX
8
Form4
10
7.391574
20
3.156095
30
-15.748032
70
192
0
VERTEX
8
Form4
10
8.783709
20
-2.583171
30
-15.748032
70
192
0
VERTEX
8
Form4
10
9.231287
20
-6.250656
30
-15.748032
70
192
0
VERTEX
8
Form4
10
9.330088
20
-8.936128
30
-15.748032
70
192
0
VERTEX
8
Form4
10
9.219345
20
-12.588684
30
-15.748032
70
192
0
VERTEX
8
Form4
10
8.123605
20
-16.078112
30
-15.748032
70
192
0
VERTEX
8
Form4
10
4.569848
20
-20.985189
30
-15.748032
70
192
0
VERTEX
8
Form4
10
-1.404471
20
-23.812887
30
-15.748032
70
192
0
VERTEX
8
Form4
10
-8.416173
20
-25.199051
30
-15.748032
70
192
0
VERTEX
8
Form4
10
-13.948884
20
-24.606260
30
-15.748032
70
192
0
VERTEX
8
Form4
10
-18.691208
20
-21.247116
30
-15.748032
70
192
0
VERTEX
8
Form4
10
-21.062370
20
-15.121613
30
-15.748032
70
192
0
VERTEX
8
Form4
10
-20.963570
20
-6.526150
30
-15.748032
70
192
0
VERTEX
8
Form4
10
-17.802023
20
2.760900
30
-15.748032
70
192
0
VERTEX
8
Form4
10
-11.478924
20
23.466768
30
-15.748032
70
192
0
VERTEX
8
Form4
10
1.352126
20
16.758617
30
7.874015
70
192
0
VERTEX
8
Form4
10
4.589278
20
10.050469
30
7.874016
70
192
0
VERTEX
8
Form4
10
7.961052
20
1.270242
30
7.874015
70
192
0
VERTEX
8
Form4
10
8.409678
20
-0.647991
30
7.874016
70
192
0
VERTEX
8
Form4
10
8.976027
20
-3.800058
30
7.874015
70
192
0
VERTEX
8
Form4
10
9.120932
20
-5.023434
30
7.874016
70
192
0
VERTEX
8
Form4
10
9.287733
20
-7.144825
30
7.874015
70
192
0
VERTEX
8
Form4
10
9.318923
20
-8.040192
30
7.874016
70
192
0
VERTEX
8
Form4
10
9.348410
20
-10.156443
30
7.874015
70
192
0
VERTEX
8
Form4
10
9.339498
20
-11.376162
30
7.874016
70
192
0
VERTEX
8
Form4
10
8.967027
20
-13.786469
30
7.874015
70
192
0
VERTEX
8
Form4
10
8.607180
20
-14.954498
30
7.874016
70
192
0
VERTEX
8
Form4
10
7.147462
20
-17.866343
30
7.874015
70
192
0
VERTEX
8
Form4
10
5.989930
20
-19.534063
30
7.874016
70
192
0
VERTEX
8
Form4
10
2.722383
20
-22.199888
30
7.874015
70
192
0
VERTEX
8
Form4
10
0.695255
20
-23.089638
30
7.874016
70
192
0
VERTEX
8
Form4
10
-3.699795
20
-24.481691
30
7.874015
70
192
0
VERTEX
8
Form4
10
-6.039145
20
-24.959084
30
7.874016
70
192
0
VERTEX
8
Form4
10
-10.286977
20
-25.230188
30
7.874015
70
192
0
VERTEX
8
Form4
10
-12.144888
20
-25.074623
30
7.874016
70
192
0
VERTEX
8
Form4
10
-15.726565
20
-23.772800
30
7.874015
70
192
0
VERTEX
8
Form4
10
-17.330315
20
-22.657133
30
7.874016
70
192
0
VERTEX
8
Form4
10
-19.829655
20
-19.357910
30
7.874015
70
192
0
VERTEX
8
Form4
10
-20.578405
20
-17.283873
30
7.874016
70
192
0
VERTEX
8
Form4
10
-21.373741
20
-12.260108
30
7.874015
70
192
0
VERTEX
8
Form4
10
-21.320099
20
-9.385378
30
7.874016
70
192
0
VERTEX
8
Form4
10
-20.120008
20
-3.368491
30
7.874015
70
192
0
VERTEX
8
Form4
10
-18.944618
20
-0.309305
30
7.874016
70
192
0
VERTEX
8
Form4
10
-15.645702
20
9.647798
30
7.874015
70
192
0
VERTEX
8
Form4
10
-13.562313
20
16.557283
30
7.874016
70
192
0
VERTEX
8
Form4
10
-8.280957
20
23.466766
30
7.874015
70
192
0
VERTEX
8
Form4
10
-5.082992
20
23.466766
30
7.874016
70
192
0
VERTEX
8
Form4
10
0.449352
20
23.518526
30
5.249344
70
192
0
VERTEX
8
Form4
10
2.783731
20
23.570288
30
2.624672
70
192
0
VERTEX
8
Form4
10
10.144647
20
5.338918
30
5.821530
70
192
0
VERTEX
8
Form4
10
12.565899
20
7.346757
30
3.299310
70
192
0
VERTEX
8
Form4
10
13.175258
20
-3.091621
30
5.970077
70
192
0
VERTEX
8
Form4
10
17.256227
20
-3.660044
30
3.574022
70
192
0
VERTEX
8
Form4
10
14.122231
20
-9.398245
30
6.216012
70
192
0
VERTEX
8
Form4
10
18.732464
20
-12.532862
30
4.026821
70
192
0
VERTEX
8
Form4
10
14.140877
20
-15.359965
30
6.572951
70
192
0
VERTEX
8
Form4
10
18.766438
20
-21.712698
30
4.759265
70
192
0
VERTEX
8
Form4
10
12.158548
20
-19.410604
30
6.477842
70
192
0
VERTEX
8
Form4
10
15.000414
20
-26.073423
30
4.559752
70
192
0
VERTEX
8
Form4
10
9.433434
20
-21.016670
30
6.000943
70
192
0
VERTEX
8
Form4
10
10.735258
20
-25.754711
30
3.760721
70
192
0
VERTEX
8
Form4
10
5.792531
20
-22.410158
30
5.687719
70
192
0
VERTEX
8
Form4
10
6.557683
20
-22.897991
30
2.843859
70
192
0
VERTEX
8
Form4
10
-1.135255
20
-27.348263
30
5.800949
70
192
0
VERTEX
8
Form4
10
-1.018414
20
-30.559612
30
3.300150
70
192
0
VERTEX
8
Form4
10
-9.299384
20
-29.468752
30
5.963990
70
192
0
VERTEX
8
Form4
10
-10.191832
20
-33.421021
30
3.556518
70
192
0
VERTEX
8
Form4
10
-16.105812
20
-28.721285
30
6.029627
70
192
0
VERTEX
8
Form4
10
-18.146032
20
-32.550190
30
3.652771
70
192
0
VERTEX
8
Form4
10
-21.950146
20
-24.579004
30
6.032822
70
192
0
VERTEX
8
Form4
10
-24.970428
20
-27.714348
30
3.657682
70
192
0
VERTEX
8
Form4
10
-24.897570
20
-17.061460
30
5.968903
70
192
0
VERTEX
8
Form4
10
-28.406269
20
-18.920567
30
3.542665
70
192
0
VERTEX
8
Form4
10
-24.809769
20
-6.526413
30
5.893255
70
192
0
VERTEX
8
Form4
10
-28.295490
20
-6.574360
30
3.404019
70
192
0
VERTEX
8
Form4
10
-20.932549
20
4.823558
30
5.843460
70
192
0
VERTEX
8
Form4
10
-23.752399
20
6.758393
30
3.363267
70
192
0
VERTEX
8
Form4
10
-13.951828
20
23.518526
30
5.249344
70
192
0
VERTEX
8
Form4
10
-16.424734
20
23.570288
30
2.624672
70
192
0
VERTEX
8
Form4
10
8.256929
20
18.728519
30
0.000000
70
192
0
VERTEX
8
Form4
10
11.395749
20
13.834993
30
0.000000
70
192
0
VERTEX
8
Form4
10
16.565861
20
4.623305
30
0.000000
70
192
0
VERTEX
8
Form4
10
18.626114
20
0.343377
30
0.000000
70
192
0
VERTEX
8
Form4
10
21.242306
20
-7.662079
30
0.000000
70
192
0
VERTEX
8
Form4
10
21.863459
20
-11.295282
30
0.000000
70
192
0
VERTEX
8
Form4
10
22.865244
20
-18.929613
30
0.000000
70
192
0
VERTEX
8
Form4
10
23.229271
20
-22.906019
30
0.000000
70
192
0
VERTEX
8
Form4
10
21.198032
20
-28.833860
30
0.000000
70
192
0
VERTEX
8
Form4
10
19.454708
20
-30.438536
30
0.000000
70
192
0
VERTEX
8
Form4
10
15.255894
20
-31.267664
30
0.000000
70
192
0
VERTEX
8
Form4
10
13.415138
20
-30.496845
30
0.000000
70
192
0
VERTEX
8
Form4
10
10.012333
20
-27.590118
30
0.000000
70
192
0
VERTEX
8
Form4
10
8.667584
20
-25.487972
30
0.000000
70
192
0
VERTEX
8
Form4
10
4.741030
20
-26.733915
30
0.000000
70
192
0
VERTEX
8
Form4
10
2.159226
20
-30.082005
30
0.000000
70
192
0
VERTEX
8
Form4
10
-4.044637
20
-34.610378
30
0.000000
70
192
0
VERTEX
8
Form4
10
-7.383444
20
-35.743927
30
0.000000
70
192
0
VERTEX
8
Form4
10
-13.849398
20
-36.521297
30
0.000000
70
192
0
VERTEX
8
Form4
10
-16.810188
20
-36.226471
30
0.000000
70
192
0
VERTEX
8
Form4
10
-22.518587
20
-34.104572
30
0.000000
70
192
0
VERTEX
8
Form4
10
-25.074894
20
-32.326248
30
0.000000
70
192
0
VERTEX
8
Form4
10
-29.058729
20
-27.067429
30
0.000000
70
192
0
VERTEX
8
Form4
10
-30.252205
20
-23.761509
30
0.000000
70
192
0
VERTEX
8
Form4
10
-31.519934
20
-15.753848
30
0.000000
70
192
0
VERTEX
8
Form4
10
-31.434435
20
-11.171656
30
0.000000
70
192
0
VERTEX
8
Form4
10
-29.590242
20
-1.557018
30
0.000000
70
192
0
VERTEX
8
Form4
10
-27.785425
20
3.343175
30
0.000000
70
192
0
VERTEX
8
Form4
10
-23.624975
20
13.380270
30
0.000000
70
192
0
VERTEX
8
Form4
10
-21.261307
20
18.501158
30
0.000000
70
192
0
VERTEX
8
Form4
10
-10.892387
20
23.622046
30
0.000000
70
192
0
VERTEX
8
Form4
10
-2.887138
20
23.622047
30
0.000000
70
192
0
VERTEX
8
Form4
10
5.118110
20
23.622046
30
-2.624672
70
192
0
VERTEX
8
Form4
10
5.118110
20
23.622047
30
-5.249344
70
192
0
VERTEX
8
Form4
10
14.915432
20
9.296069
30
-2.597545
70
192
0
VERTEX
8
Form4
10
14.915432
20
9.296069
30
-5.276471
70
192
0
VERTEX
8
Form4
10
21.178492
20
-4.207665
30
-2.588549
70
192
0
VERTEX
8
Form4
10
21.178492
20
-4.207665
30
-5.285467
70
192
0
VERTEX
8
Form4
10
23.109266
20
-15.511703
30
-2.577731
70
192
0
VERTEX
8
Form4
10
23.109268
20
-15.511703
30
-5.296285
70
192
0
VERTEX
8
Form4
10
23.098648
20
-27.666367
30
-2.565946
70
192
0
VERTEX
8
Form4
10
23.098648
20
-27.666367
30
-5.308070
70
192
0
VERTEX
8
Form4
10
17.670925
20
-32.335876
30
-2.568628
70
192
0
VERTEX
8
Form4
10
17.670925
20
-32.335876
30
-5.305387
70
192
0
VERTEX
8
Form4
10
11.979015
20
-30.278873
30
-2.582439
70
192
0
VERTEX
8
Form4
10
11.979015
20
-30.278873
30
-5.291577
70
192
0
VERTEX
8
Form4
10
7.610371
20
-23.636560
30
-2.617740
70
192
0
VERTEX
8
Form4
10
7.610371
20
-23.636560
30
-5.256275
70
192
0
VERTEX
8
Form4
10
-0.906422
20
-33.674942
30
-2.596980
70
192
0
VERTEX
8
Form4
10
-0.906422
20
-33.674946
30
-5.277036
70
192
0
VERTEX
8
Form4
10
-11.051097
20
-37.221882
30
-2.589123
70
192
0
VERTEX
8
Form4
10
-11.051098
20
-37.221882
30
-5.284892
70
192
0
VERTEX
8
Form4
10
-20.103210
20
-36.222355
30
-2.586675
70
192
0
VERTEX
8
Form4
10
-20.103210
20
-36.222355
30
-5.287341
70
192
0
VERTEX
8
Form4
10
-27.866491
20
-30.721422
30
-2.586552
70
192
0
VERTEX
8
Form4
10
-27.866493
20
-30.721424
30
-5.287464
70
192
0
VERTEX
8
Form4
10
-31.782560
20
-20.710634
30
-2.589784
70
192
0
VERTEX
8
Form4
10
-31.782562
20
-20.710636
30
-5.284231
70
192
0
VERTEX
8
Form4
10
-31.666191
20
-6.621284
30
-2.594186
70
192
0
VERTEX
8
Form4
10
-31.666191
20
-6.621284
30
-5.279830
70
192
0
VERTEX
8
Form4
10
-26.481319
20
8.631723
30
-2.594932
70
192
0
VERTEX
8
Form4
10
-26.481319
20
8.631724
30
-5.279084
70
192
0
VERTEX
8
Form4
10
-18.766405
20
23.622046
30
-2.624672
70
192
0
VERTEX
8
Form4
10
-18.635170
20
23.622047
30
-5.249344
70
192
0
VERTEX
8
Form4
10
8.256929
20
18.728519
30
-7.874015
70
192
0
VERTEX
8
Form4
10
11.395749
20
13.834993
30
-7.874016
70
192
0
VERTEX
8
Form4
10
16.565861
20
4.623305
30
-7.874015
70
192
0
VERTEX
8
Form4
10
18.626114
20
0.343377
30
-7.874016
70
192
0
VERTEX
8
Form4
10
21.242306
20
-7.662079
30
-7.874015
70
192
0
VERTEX
8
Form4
10
21.863459
20
-11.295282
30
-7.874016
70
192
0
VERTEX
8
Form4
10
22.865244
20
-18.929613
30
-7.874015
70
192
0
VERTEX
8
Form4
10
23.229271
20
-22.906019
30
-7.874016
70
192
0
VERTEX
8
Form4
10
21.198032
20
-28.833860
30
-7.874015
70
192
0
VERTEX
8
Form4
10
19.454708
20
-30.438536
30
-7.874016
70
192
0
VERTEX
8
Form4
10
15.255894
20
-31.267664
30
-7.874015
70
192
0
VERTEX
8
Form4
10
13.415138
20
-30.496845
30
-7.874016
70
192
0
VERTEX
8
Form4
10
10.012333
20
-27.590118
30
-7.874015
70
192
0
VERTEX
8
Form4
10
8.667584
20
-25.487972
30
-7.874016
70
192
0
VERTEX
8
Form4
10
4.741030
20
-26.733915
30
-7.874015
70
192
0
VERTEX
8
Form4
10
2.159226
20
-30.082005
30
-7.874016
70
192
0
VERTEX
8
Form4
10
-4.044637
20
-34.610378
30
-7.874015
70
192
0
VERTEX
8
Form4
10
-7.383444
20
-35.743927
30
-7.874016
70
192
0
VERTEX
8
Form4
10
-13.849398
20
-36.521297
30
-7.874015
70
192
0
VERTEX
8
Form4
10
-16.810188
20
-36.226471
30
-7.874016
70
192
0
VERTEX
8
Form4
10
-22.518587
20
-34.104572
30
-7.874015
70
192
0
VERTEX
8
Form4
10
-25.074894
20
-32.326248
30
-7.874016
70
192
0
VERTEX
8
Form4
10
-29.058729
20
-27.067429
30
-7.874015
70
192
0
VERTEX
8
Form4
10
-30.252205
20
-23.761509
30
-7.874016
70
192
0
VERTEX
8
Form4
10
-31.519934
20
-15.753848
30
-7.874015
70
192
0
VERTEX
8
Form4
10
-31.434435
20
-11.171656
30
-7.874016
70
192
0
VERTEX
8
Form4
10
-29.601677
20
-1.552790
30
-7.874015
70
192
0
VERTEX
8
Form4
10
-27.808290
20
3.351632
30
-7.874016
70
192
0
VERTEX
8
Form4
10
-23.518126
20
13.393794
30
-7.874015
70
192
0
VERTEX
8
Form4
10
-21.011030
20
18.507921
30
-7.874016
70
192
0
VERTEX
8
Form4
10
-10.629920
20
23.622046
30
-7.874015
70
192
0
VERTEX
8
Form4
10
-2.755905
20
23.622047
30
-7.874016
70
192
0
VERTEX
8
Form4
10
2.914965
20
23.570286
30
-10.498687
70
192
0
VERTEX
8
Form4
10
0.711819
20
23.518528
30
-13.123360
70
192
0
VERTEX
8
Form4
10
12.564610
20
7.345460
30
-11.170730
70
192
0
VERTEX
8
Form4
10
10.142071
20
5.336323
30
-13.690355
70
192
0
VERTEX
8
Form4
10
17.256227
20
-3.660043
30
-11.448038
70
192
0
VERTEX
8
Form4
10
13.175259
20
-3.091621
30
-13.844091
70
192
0
VERTEX
8
Form4
10
18.732464
20
-12.532861
30
-11.900836
70
192
0
VERTEX
8
Form4
10
14.122231
20
-9.398245
30
-14.090027
70
192
0
VERTEX
8
Form4
10
18.766436
20
-21.712696
30
-12.633281
70
192
0
VERTEX
8
Form4
10
14.140876
20
-15.359964
30
-14.446968
70
192
0
VERTEX
8
Form4
10
15.000413
20
-26.073421
30
-12.433769
70
192
0
VERTEX
8
Form4
10
12.158549
20
-19.410604
30
-14.351858
70
192
0
VERTEX
8
Form4
10
10.735258
20
-25.754711
30
-11.634737
70
192
0
VERTEX
8
Form4
10
9.433434
20
-21.016670
30
-13.874960
70
192
0
VERTEX
8
Form4
10
6.557683
20
-22.897989
30
-10.717875
70
192
0
VERTEX
8
Form4
10
5.792531
20
-22.410156
30
-13.561735
70
192
0
VERTEX
8
Form4
10
-1.018414
20
-30.559610
30
-11.174167
70
192
0
VERTEX
8
Form4
10
-1.135254
20
-27.348263
30
-13.674965
70
192
0
VERTEX
8
Form4
10
-10.191832
20
-33.421021
30
-11.430533
70
192
0
VERTEX
8
Form4
10
-9.299383
20
-29.468752
30
-13.838005
70
192
0
VERTEX
8
Form4
10
-18.146030
20
-32.550190
30
-11.526788
70
192
0
VERTEX
8
Form4
10
-16.105812
20
-28.721285
30
-13.903645
70
192
0
VERTEX
8
Form4
10
-24.970428
20
-27.714346
30
-11.531697
70
192
0
VERTEX
8
Form4
10
-21.950146
20
-24.579004
30
-13.906837
70
192
0
VERTEX
8
Form4
10
-28.406267
20
-18.920565
30
-11.416680
70
192
0
VERTEX
8
Form4
10
-24.897568
20
-17.061462
30
-13.842918
70
192
0
VERTEX
8
Form4
10
-28.295488
20
-6.574360
30
-11.278035
70
192
0
VERTEX
8
Form4
10
-24.809769
20
-6.526414
30
-13.767271
70
192
0
VERTEX
8
Form4
10
-23.750177
20
6.757830
30
-11.234001
70
192
0
VERTEX
8
Form4
10
-20.928106
20
4.822431
30
-13.710913
70
192
0
VERTEX
8
Form4
10
-16.162266
20
23.570286
30
-10.498687
70
192
0
VERTEX
8
Form4
10
-13.820595
20
23.518528
30
-13.123360
70
192
0
VERTEX
8
Form4
10
1.602106
20
16.751068
30
-15.748030
70
192
0
VERTEX
8
Form4
10
4.695537
20
10.035370
30
-15.748032
70
192
0
VERTEX
8
Form4
10
7.954246
20
1.268259
30
-15.748030
70
192
0
VERTEX
8
Form4
10
8.406274
20
-0.648983
30
-15.748032
70
192
0
VERTEX
8
Form4
10
8.976027
20
-3.800058
30
-15.748030
70
192
0
VERTEX
8
Form4
10
9.120932
20
-5.023434
30
-15.748032
70
192
0
VERTEX
8
Form4
10
9.287733
20
-7.144825
30
-15.748030
70
192
0
VERTEX
8
Form4
10
9.318923
20
-8.040192
30
-15.748032
70
192
0
VERTEX
8
Form4
10
9.348410
20
-10.156443
30
-15.748030
70
192
0
VERTEX
8
Form4
10
9.339498
20
-11.376162
30
-15.748032
70
192
0
VERTEX
8
Form4
10
8.967027
20
-13.786469
30
-15.748030
70
192
0
VERTEX
8
Form4
10
8.607180
20
-14.954498
30
-15.748032
70
192
0
VERTEX
8
Form4
10
7.147462
20
-17.866343
30
-15.748030
70
192
0
VERTEX
8
Form4
10
5.989930
20
-19.534063
30
-15.748032
70
192
0
VERTEX
8
Form4
10
2.722383
20
-22.199888
30
-15.748030
70
192
0
VERTEX
8
Form4
10
0.695255
20
-23.089638
30
-15.748032
70
192
0
VERTEX
8
Form4
10
-3.699795
20
-24.481691
30
-15.748030
70
192
0
VERTEX
8
Form4
10
-6.039145
20
-24.959084
30
-15.748032
70
192
0
VERTEX
8
Form4
10
-10.286977
20
-25.230188
30
-15.748030
70
192
0
VERTEX
8
Form4
10
-12.144888
20
-25.074623
30
-15.748032
70
192
0
VERTEX
8
Form4
10
-15.726565
20
-23.772800
30
-15.748030
70
192
0
VERTEX
8
Form4
10
-17.330315
20
-22.657133
30
-15.748032
70
192
0
VERTEX
8
Form4
10
-19.829655
20
-19.357910
30
-15.748030
70
192
0
VERTEX
8
Form4
10
-20.578405
20
-17.283873
30
-15.748032
70
192
0
VERTEX
8
Form4
10
-21.373741
20
-12.260108
30
-15.748030
70
192
0
VERTEX
8
Form4
10
-21.320099
20
-9.385378
30
-15.748032
70
192
0
VERTEX
8
Form4
10
-20.120008
20
-3.368491
30
-15.748030
70
192
0
VERTEX
8
Form4
10
-18.944618
20
-0.309305
30
-15.748032
70
192
0
VERTEX
8
Form4
10
-15.645702
20
9.647798
30
-15.748030
70
192
0
VERTEX
8
Form4
10
-13.562313
20
16.557283
30
-15.748032
70
192
0
VERTEX
8
Form4
10
-8.149724
20
23.466766
30
-15.748030
70
192
0
VERTEX
8
Form4
10
-4.820525
20
23.466766
30
-15.748032
70
192
0
VERTEX
8
Form4
10
3.773863
20
17.463140
30
5.397687
70
192
0
VERTEX
8
Form4
10
7.195104
20
11.564023
30
5.673186
70
192
0
VERTEX
8
Form4
10
6.091408
20
18.208246
30
2.799578
70
192
0
VERTEX
8
Form4
10
9.521969
20
12.847871
30
3.124403
70
192
0
VERTEX
8
Form4
10
11.262095
20
2.638718
30
5.860041
70
192
0
VERTEX
8
Form4
10
12.344218
20
-0.292070
30
5.931565
70
192
0
VERTEX
8
Form4
10
14.342409
20
3.762075
30
3.370531
70
192
0
VERTEX
8
Form4
10
15.935060
20
0.116889
30
3.502800
70
192
0
VERTEX
8
Form4
10
13.585382
20
-5.118311
30
6.033836
70
192
0
VERTEX
8
Form4
10
13.904353
20
-7.338556
30
6.152251
70
192
0
VERTEX
8
Form4
10
17.967617
20
-6.585265
30
3.691414
70
192
0
VERTEX
8
Form4
10
18.418133
20
-9.532548
30
3.909429
70
192
0
VERTEX
8
Form4
10
14.290151
20
-11.325608
30
6.308550
70
192
0
VERTEX
8
Form4
10
14.361712
20
-13.458086
30
6.480411
70
192
0
VERTEX
8
Form4
10
19.149969
20
-15.635889
30
4.216713
70
192
0
VERTEX
8
Form4
10
19.375565
20
-18.685768
30
4.569372
70
192
0
VERTEX
8
Form4
10
13.688850
20
-16.840296
30
6.548292
70
192
0
VERTEX
8
Form4
10
12.964034
20
-18.237347
30
6.502500
70
192
0
VERTEX
8
Form4
10
17.879602
20
-23.564636
30
4.707540
70
192
0
VERTEX
8
Form4
10
16.639965
20
-25.084366
30
4.611478
70
192
0
VERTEX
8
Form4
10
11.330585
20
-20.158043
30
6.354201
70
192
0
VERTEX
8
Form4
10
10.353536
20
-20.597910
30
6.124584
70
192
0
VERTEX
8
Form4
10
13.488635
20
-26.392296
30
4.352596
70
192
0
VERTEX
8
Form4
10
12.080810
20
-26.237179
30
3.967877
70
192
0
VERTEX
8
Form4
10
8.299375
20
-21.700949
30
5.919736
70
192
0
VERTEX
8
Form4
10
7.158161
20
-22.059116
30
5.768926
70
192
0
VERTEX
8
Form4
10
9.210747
20
-24.978615
30
3.523016
70
192
0
VERTEX
8
Form4
10
7.919363
20
-24.000141
30
3.081564
70
192
0
VERTEX
8
Form4
10
3.661638
20
-24.274767
30
5.717074
70
192
0
VERTEX
8
Form4
10
1.317910
20
-25.981651
30
5.771593
70
192
0
VERTEX
8
Form4
10
4.191420
20
-25.659550
30
2.962157
70
192
0
VERTEX
8
Form4
10
1.800142
20
-28.308212
30
3.181853
70
192
0
VERTEX
8
Form4
10
-3.742345
20
-28.334314
30
5.843218
70
192
0
VERTEX
8
Form4
10
-6.532490
20
-29.075941
30
5.921720
70
192
0
VERTEX
8
Form4
10
-3.911294
20
-31.973362
30
3.366616
70
192
0
VERTEX
8
Form4
10
-6.994107
20
-32.905830
30
3.490052
70
192
0
VERTEX
8
Form4
10
-11.567942
20
-29.512545
30
5.981006
70
192
0
VERTEX
8
Form4
10
-13.914846
20
-29.290354
30
6.012610
70
192
0
VERTEX
8
Form4
10
-12.883375
20
-33.530807
30
3.581472
70
192
0
VERTEX
8
Form4
10
-15.552109
20
-33.263786
30
3.627817
70
192
0
VERTEX
8
Form4
10
-18.253614
20
-27.690554
30
6.030454
70
192
0
VERTEX
8
Form4
10
-20.283314
20
-26.275076
30
6.031993
70
192
0
VERTEX
8
Form4
10
-20.704697
20
-31.350349
30
3.654044
70
192
0
VERTEX
8
Form4
10
-23.011929
20
-29.744411
30
3.656409
70
192
0
VERTEX
8
Form4
10
-23.318638
20
-22.282530
30
6.016249
70
192
0
VERTEX
8
Form4
10
-24.284344
20
-19.673037
30
5.985475
70
192
0
VERTEX
8
Form4
10
-26.615314
20
-25.000885
30
3.627862
70
192
0
VERTEX
8
Form4
10
-27.703815
20
-22.027218
30
3.572484
70
192
0
VERTEX
8
Form4
10
-25.263685
20
-13.599618
30
5.949290
70
192
0
VERTEX
8
Form4
10
-25.214401
20
-9.985628
30
5.912868
70
192
0
VERTEX
8
Form4
10
-28.862795
20
-14.808125
30
3.506720
70
192
0
VERTEX
8
Form4
10
-28.800718
20
-10.683523
30
3.439964
70
192
0
VERTEX
8
Form4
10
-23.794794
20
-2.712228
30
5.880344
70
192
0
VERTEX
8
Form4
10
-22.346041
20
1.128948
30
5.856370
70
192
0
VERTEX
8
Form4
10
-27.134123
20
-2.020114
30
3.393453
70
192
0
VERTEX
8
Form4
10
-25.497036
20
2.383379
30
3.373832
70
192
0
VERTEX
8
Form4
10
-18.634678
20
11.103923
30
5.689429
70
192
0
VERTEX
8
Form4
10
-16.237642
20
17.239683
30
5.403374
70
192
0
VERTEX
8
Form4
10
-21.418335
20
12.392348
30
3.171779
70
192
0
VERTEX
8
Form4
10
-18.859797
20
17.982630
30
2.816159
70
192
0
VERTEX
8
Form4
10
-9.230565
20
23.518524
30
5.249343
70
192
0
VERTEX
8
Form4
10
-4.271908
20
23.518524
30
5.249344
70
192
0
VERTEX
8
Form4
10
-9.942779
20
23.570286
30
2.624671
70
192
0
VERTEX
8
Form4
10
-3.698222
20
23.570288
30
2.624672
70
192
0
VERTEX
8
Form4
10
8.408524
20
18.852230
30
-2.617639
70
192
0
VERTEX
8
Form4
10
11.828876
20
14.188454
30
-2.604578
70
192
0
VERTEX
8
Form4
10
8.408524
20
18.852232
30
-5.256376
70
192
0
VERTEX
8
Form4
10
11.828876
20
14.188455
30
-5.269438
70
192
0
VERTEX
8
Form4
10
17.222866
20
4.947423
30
-2.595212
70
192
0
VERTEX
8
Form4
10
19.417360
20
0.383254
30
-2.590881
70
192
0
VERTEX
8
Form4
10
17.222866
20
4.947423
30
-5.278802
70
192
0
VERTEX
8
Form4
10
19.417360
20
0.383254
30
-5.283135
70
192
0
VERTEX
8
Form4
10
22.096054
20
-7.888784
30
-2.585744
70
192
0
VERTEX
8
Form4
10
22.699043
20
-11.732826
30
-2.580536
70
192
0
VERTEX
8
Form4
10
22.096056
20
-7.888784
30
-5.288271
70
192
0
VERTEX
8
Form4
10
22.699043
20
-11.732827
30
-5.293480
70
192
0
VERTEX
8
Form4
10
23.647465
20
-19.569778
30
-2.574676
70
192
0
VERTEX
8
Form4
10
23.930555
20
-23.711639
30
-2.569001
70
192
0
VERTEX
8
Form4
10
23.647465
20
-19.569778
30
-5.299339
70
192
0
VERTEX
8
Form4
10
23.930557
20
-23.711639
30
-5.305014
70
192
0
VERTEX
8
Form4
10
21.795881
20
-29.755167
30
-2.566641
70
192
0
VERTEX
8
Form4
10
19.941393
20
-31.409235
30
-2.567933
70
192
0
VERTEX
8
Form4
10
21.795881
20
-29.755167
30
-5.307374
70
192
0
VERTEX
8
Form4
10
19.941393
20
-31.409235
30
-5.306083
70
192
0
VERTEX
8
Form4
10
15.636033
20
-32.242012
30
-2.572208
70
192
0
VERTEX
8
Form4
10
13.708562
20
-31.428583
30
-2.578858
70
192
0
VERTEX
8
Form4
10
15.636033
20
-32.242012
30
-5.301806
70
192
0
VERTEX
8
Form4
10
13.708562
20
-31.428583
30
-5.295158
70
192
0
VERTEX
8
Form4
10
10.269644
20
-28.328306
30
-2.591591
70
192
0
VERTEX
8
Form4
10
8.944541
20
-25.909313
30
-2.608588
70
192
0
VERTEX
8
Form4
10
10.269644
20
-28.328306
30
-5.282424
70
192
0
VERTEX
8
Form4
10
8.944541
20
-25.909313
30
-5.265428
70
192
0
VERTEX
8
Form4
10
4.963991
20
-27.117085
30
-2.612358
70
192
0
VERTEX
8
Form4
10
2.262261
20
-30.711124
30
-2.602362
70
192
0
VERTEX
8
Form4
10
4.963991
20
-27.117086
30
-5.261657
70
192
0
VERTEX
8
Form4
10
2.262261
20
-30.711126
30
-5.271653
70
192
0
VERTEX
8
Form4
10
-4.064099
20
-35.393291
30
-2.594943
70
192
0
VERTEX
8
Form4
10
-7.510476
20
-36.566498
30
-2.591160
70
192
0
VERTEX
8
Form4
10
-4.064099
20
-35.393291
30
-5.279072
70
192
0
VERTEX
8
Form4
10
-7.510477
20
-36.566502
30
-5.282855
70
192
0
VERTEX
8
Form4
10
-14.094816
20
-37.351059
30
-2.588488
70
192
0
VERTEX
8
Form4
10
-17.167896
20
-37.029922
30
-2.587310
70
192
0
VERTEX
8
Form4
10
-14.094816
20
-37.351059
30
-5.285526
70
192
0
VERTEX
8
Form4
10
-17.167896
20
-37.029922
30
-5.286706
70
192
0
VERTEX
8
Form4
10
-22.989706
20
-34.855850
30
-2.586643
70
192
0
VERTEX
8
Form4
10
-25.644342
20
-33.006939
30
-2.586584
70
192
0
VERTEX
8
Form4
10
-22.989706
20
-34.855850
30
-5.287372
70
192
0
VERTEX
8
Form4
10
-25.644344
20
-33.006939
30
-5.287432
70
192
0
VERTEX
8
Form4
10
-29.716526
20
-27.646070
30
-2.587389
70
192
0
VERTEX
8
Form4
10
-30.975742
20
-24.221222
30
-2.588946
70
192
0
VERTEX
8
Form4
10
-29.716528
20
-27.646072
30
-5.286625
70
192
0
VERTEX
8
Form4
10
-30.975744
20
-24.221224
30
-5.285069
70
192
0
VERTEX
8
Form4
10
-32.289528
20
-16.048782
30
-2.590925
70
192
0
VERTEX
8
Form4
10
-32.223824
20
-11.279505
30
-2.593045
70
192
0
VERTEX
8
Form4
10
-32.289532
20
-16.048782
30
-5.283089
70
192
0
VERTEX
8
Form4
10
-32.223824
20
-11.279506
30
-5.280971
70
192
0
VERTEX
8
Form4
10
-30.355532
20
-1.446403
30
-2.594379
70
192
0
VERTEX
8
Form4
10
-28.483624
20
3.671484
30
-2.594739
70
192
0
VERTEX
8
Form4
10
-30.361038
20
-1.444367
30
-5.279635
70
192
0
VERTEX
8
Form4
10
-28.494633
20
3.675557
30
-5.279277
70
192
0
VERTEX
8
Form4
10
-24.074562
20
13.711738
30
-2.602642
70
192
0
VERTEX
8
Form4
10
-21.344515
20
18.617697
30
-2.616962
70
192
0
VERTEX
8
Form4
10
-24.038237
20
13.718249
30
-5.271372
70
192
0
VERTEX
8
Form4
10
-21.267216
20
18.620956
30
-5.257054
70
192
0
VERTEX
8
Form4
10
-10.802738
20
23.622044
30
-2.624672
70
192
0
VERTEX
8
Form4
10
-2.845555
20
23.622046
30
-2.624672
70
192
0
VERTEX
8
Form4
10
-10.719569
20
23.622046
30
-5.249343
70
192
0
VERTEX
8
Form4
10
-2.797489
20
23.622047
30
-5.249344
70
192
0
VERTEX
8
Form4
10
6.177486
20
18.205952
30
-10.672919
70
192
0
VERTEX
8
Form4
10
9.556124
20
12.842995
30
-10.996496
70
192
0
VERTEX
8
Form4
10
3.936763
20
17.456877
30
-13.270356
70
192
0
VERTEX
8
Form4
10
7.264346
20
11.550917
30
-13.543357
70
192
0
VERTEX
8
Form4
10
14.339689
20
3.760600
30
-11.242623
70
192
0
VERTEX
8
Form4
10
15.933843
20
0.116296
30
-11.376143
70
192
0
VERTEX
8
Form4
10
11.255146
20
2.635327
30
-13.730211
70
192
0
VERTEX
8
Form4
10
12.341031
20
-0.293478
30
-13.804234
70
192
0
VERTEX
8
Form4
10
17.967617
20
-6.585265
30
-11.565429
70
192
0
VERTEX
8
Form4
10
18.418133
20
-9.532548
30
-11.783444
70
192
0
VERTEX
8
Form4
10
13.585382
20
-5.118311
30
-13.907850
70
192
0
VERTEX
8
Form4
10
13.904353
20
-7.338556
30
-14.026266
70
192
0
VERTEX
8
Form4
10
19.149969
20
-15.635888
30
-12.090728
70
192
0
VERTEX
8
Form4
10
19.375563
20
-18.685766
30
-12.443388
70
192
0
VERTEX
8
Form4
10
14.290150
20
-11.325608
30
-14.182566
70
192
0
VERTEX
8
Form4
10
14.361712
20
-13.458085
30
-14.354427
70
192
0
VERTEX
8
Form4
10
17.879601
20
-23.564634
30
-12.581554
70
192
0
VERTEX
8
Form4
10
16.639965
20
-25.084364
30
-12.485495
70
192
0
VERTEX
8
Form4
10
13.688850
20
-16.840294
30
-14.422308
70
192
0
VERTEX
8
Form4
10
12.964034
20
-18.237347
30
-14.376516
70
192
0
VERTEX
8
Form4
10
13.488635
20
-26.392294
30
-12.226612
70
192
0
VERTEX
8
Form4
10
12.080809
20
-26.237179
30
-11.841893
70
192
0
VERTEX
8
Form4
10
11.330585
20
-20.158043
30
-14.228216
70
192
0
VERTEX
8
Form4
10
10.353536
20
-20.597910
30
-13.998600
70
192
0
VERTEX
8
Form4
10
9.210747
20
-24.978615
30
-11.397031
70
192
0
VERTEX
8
Form4
10
7.919363
20
-24.000139
30
-10.955580
70
192
0
VERTEX
8
Form4
10
8.299374
20
-21.700949
30
-13.793752
70
192
0
VERTEX
8
Form4
10
7.158160
20
-22.059114
30
-13.642941
70
192
0
VERTEX
8
Form4
10
4.191420
20
-25.659548
30
-10.836171
70
192
0
VERTEX
8
Form4
10
1.800142
20
-28.308210
30
-11.055869
70
192
0
VERTEX
8
Form4
10
3.661638
20
-24.274767
30
-13.591089
70
192
0
VERTEX
8
Form4
10
1.317910
20
-25.981649
30
-13.645609
70
192
0
VERTEX
8
Form4
10
-3.911294
20
-31.973362
30
-11.240631
70
192
0
VERTEX
8
Form4
10
-6.994107
20
-32.905830
30
-11.364068
70
192
0
VERTEX
8
Form4
10
-3.742345
20
-28.334314
30
-13.717233
70
192
0
VERTEX
8
Form4
10
-6.532490
20
-29.075941
30
-13.795735
70
192
0
VERTEX
8
Form4
10
-12.883374
20
-33.530807
30
-11.455487
70
192
0
VERTEX
8
Form4
10
-15.552107
20
-33.263786
30
-11.501833
70
192
0
VERTEX
8
Form4
10
-11.567941
20
-29.512545
30
-13.855021
70
192
0
VERTEX
8
Form4
10
-13.914846
20
-29.290354
30
-13.886627
70
192
0
VERTEX
8
Form4
10
-20.704697
20
-31.350349
30
-11.528060
70
192
0
VERTEX
8
Form4
10
-23.011927
20
-29.744410
30
-11.530424
70
192
0
VERTEX
8
Form4
10
-18.253614
20
-27.690554
30
-13.904470
70
192
0
VERTEX
8
Form4
10
-20.283314
20
-26.275076
30
-13.906010
70
192
0
VERTEX
8
Form4
10
-26.615314
20
-25.000883
30
-11.501877
70
192
0
VERTEX
8
Form4
10
-27.703814
20
-22.027216
30
-11.446500
70
192
0
VERTEX
8
Form4
10
-23.318638
20
-22.282532
30
-13.890264
70
192
0
VERTEX
8
Form4
10
-24.284342
20
-19.673037
30
-13.859490
70
192
0
VERTEX
8
Form4
10
-28.862793
20
-14.808124
30
-11.380734
70
192
0
VERTEX
8
Form4
10
-28.800716
20
-10.683523
30
-11.313980
70
192
0
VERTEX
8
Form4
10
-25.263683
20
-13.599620
30
-13.823304
70
192
0
VERTEX
8
Form4
10
-25.214401
20
-9.985629
30
-13.786883
70
192
0
VERTEX
8
Form4
10
-27.142017
20
-2.017129
30
-11.266618
70
192
0
VERTEX
8
Form4
10
-25.512325
20
2.389225
30
-11.245418
70
192
0
VERTEX
8
Form4
10
-23.796606
20
-2.711424
30
-13.752658
70
192
0
VERTEX
8
Form4
10
-22.348679
20
1.130306
30
-13.725524
70
192
0
VERTEX
8
Form4
10
-21.345102
20
12.401947
30
-11.043364
70
192
0
VERTEX
8
Form4
10
-18.695431
20
17.987492
30
-10.689323
70
192
0
VERTEX
8
Form4
10
-18.596125
20
11.106595
30
-13.558582
70
192
0
VERTEX
8
Form4
10
-16.150002
20
17.241146
30
-13.275688
70
192
0
VERTEX
8
Form4
10
-9.728376
20
23.570284
30
-10.498686
70
192
0
VERTEX
8
Form4
10
-3.518923
20
23.570286
30
-10.498687
70
192
0
VERTEX
8
Form4
10
-9.051268
20
23.518526
30
-13.123358
70
192
0
VERTEX
8
Form4
10
-4.057507
20
23.518526
30
-13.123360
70
192
0
VERTEX
8
Form4
10
-1.885027
20
23.466768
30
7.874016
70
192
0
VERTEX
8
Form4
10
-11.478924
20
23.466768
30
7.874016
70
192
0
VERTEX
8
Form4
10
5.118110
20
23.622047
30
0.000000
70
192
0
VERTEX
8
Form4
10
5.118110
20
23.622047
30
0.000000
70
192
0
VERTEX
8
Form4
10
-18.897638
20
23.622047
30
0.000000
70
192
0
VERTEX
8
Form4
10
-18.897638
20
23.622047
30
0.000000
70
192
0
VERTEX
8
Form4
10
5.118110
20
23.622047
30
-7.874016
70
192
0
VERTEX
8
Form4
10
5.118110
20
23.622047
30
-7.874016
70
192
0
VERTEX
8
Form4
10
-18.503937
20
23.622047
30
-7.874016
70
192
0
VERTEX
8
Form4
10
-18.503937
20
23.622047
30
-7.874016
70
192
0
VERTEX
8
Form4
10
-1.491326
20
23.466768
30
-15.748032
70
192
0
VERTEX
8
Form4
10
-11.478924
20
23.466768
30
-15.748032
70
192
0
VERTEX
8
Form4
10
-8.280957
20
23.466766
30
7.874015
70
192
0
VERTEX
8
Form4
10
-5.082992
20
23.466766
30
7.874016
70
192
0
VERTEX
8
Form4
10
0.449352
20
23.518526
30
5.249344
70
192
0
VERTEX
8
Form4
10
2.783731
20
23.570288
30
2.624672
70
192
0
VERTEX
8
Form4
10
-13.951828
20
23.518526
30
5.249344
70
192
0
VERTEX
8
Form4
10
-16.424734
20
23.570288
30
2.624672
70
192
0
VERTEX
8
Form4
10
-10.892387
20
23.622046
30
0.000000
70
192
0
VERTEX
8
Form4
10
-2.887138
20
23.622047
30
0.000000
70
192
0
VERTEX
8
Form4
10
5.118110
20
23.622046
30
-2.624672
70
192
0
VERTEX
8
Form4
10
5.118110
20
23.622047
30
-5.249344
70
192
0
VERTEX
8
Form4
10
7.610371
20
-23.636560
30
-2.617740
70
192
0
VERTEX
8
Form4
10
7.610371
20
-23.636560
30
-5.256275
70
192
0
VERTEX
8
Form4
10
-18.766405
20
23.622046
30
-2.624672
70
192
0
VERTEX
8
Form4
10
-18.635170
20
23.622047
30
-5.249344
70
192
0
VERTEX
8
Form4
10
-10.629920
20
23.622046
30
-7.874015
70
192
0
VERTEX
8
Form4
10
-2.755905
20
23.622047
30
-7.874016
70
192
0
VERTEX
8
Form4
10
2.914965
20
23.570286
30
-10.498687
70
192
0
VERTEX
8
Form4
10
0.711819
20
23.518528
30
-13.123360
70
192
0
VERTEX
8
Form4
10
-16.162266
20
23.570286
30
-10.498687
70
192
0
VERTEX
8
Form4
10
-13.820595
20
23.518528
30
-13.123360
70
192
0
VERTEX
8
Form4
10
-8.149724
20
23.466766
30
-15.748030
70
192
0
VERTEX
8
Form4
10
-4.820525
20
23.466766
30
-15.748032
70
192
0
VERTEX
8
Form4
10
-21.316578
20
-9.357144
30
-15.748032
70
192
0
VERTEX
8
Form4
10
4.058639
20
-9.008546
30
-15.748032
70
192
0
VERTEX
8
Form4
10
9.247008
20
-6.499695
30
-15.748031
70
192
0
VERTEX
8
Form4
10
7.584429
20
2.509039
30
-15.748031
70
192
0
VERTEX
8
Form4
10
7.587227
20
2.508180
30
7.874015
70
192
0
VERTEX
8
Form4
10
9.247008
20
-6.499695
30
7.874015
70
192
0
VERTEX
8
Form4
10
9.342197
20
-11.006652
30
7.874015
70
192
0
VERTEX
8
Form4
10
4.058640
20
-9.008546
30
7.874015
70
192
0
VERTEX
8
Form4
10
0.000000
20
0.000000
30
0.000000
70
128
71
481
72
65
73
289
74
97
0
VERTEX
8
Form4
10
0.000000
20
0.000000
30
0.000000
70
128
71
65
72
66
73
290
74
289
0
VERTEX
8
Form4
10
0.000000
20
0.000000
30
0.000000
70
128
71
66
72
2
73
99
74
290
0
VERTEX
8
Form4
10
0.000000
20
0.000000
30
0.000000
70
128
71
97
72
289
73
291
74
98
0
VERTEX
8
Form4
10
0.000000
20
0.000000
30
0.000000
70
128
71
289
72
290
73
292
74
291
0
VERTEX
8
Form4
10
0.000000
20
0.000000
30
0.000000
70
128
71
290
72
99
73
100
74
292
0
VERTEX
8
Form4
10
0.000000
20
0.000000
30
0.000000
70
128
71
98
72
291
73
129
74
17
0
VERTEX
8
Form4
10
0.000000
20
0.000000
30
0.000000
70
128
71
291
72
292
73
130
74
129
0
VERTEX
8
Form4
10
0.000000
20
0.000000
30
0.000000
70
128
71
292
72
100
73
18
74
130
0
VERTEX
8
Form4
10
0.000000
20
0.000000
30
0.000000
70
128
71
2
72
67
73
293
74
99
0
VERTEX
8
Form4
10
0.000000
20
0.000000
30
0.000000
70
128
71
67
72
68
73
294
74
293
0
VERTEX
8
Form4
10
0.000000
20
0.000000
30
0.000000
70
128
71
68
72
3
73
101
74
294
0
VERTEX
8
Form4
10
0.000000
20
0.000000
30
0.000000
70
128
71
99
72
293
73
295
74
100
0
VERTEX
8
Form4
10
0.000000
20
0.000000
30
0.000000
70
128
71
293
72
294
73
296
74
295
0
VERTEX
8
Form4
10
0.000000
20
0.000000
30
0.000000
70
128
71
294
72
101
73
102
74
296
0
VERTEX
8
Form4
10
0.000000
20
0.000000
30
0.000000
70
128
71
100
72
295
73
131
74
18
0
VERTEX
8
Form4
10
0.000000
20
0.000000
30
0.000000
70
128
71
295
72
296
73
132
74
131
0
VERTEX
8
Form4
10
0.000000
20
0.000000
30
0.000000
70
128
71
296
72
102
73
19
74
132
0
VERTEX
8
Form4
10
0.000000
20
0.000000
30
0.000000
70
128
71
3
72
69
73
297
74
101
0
VERTEX
8
Form4
10
0.000000
20
0.000000
30
0.000000
70
128
71
69
72
70
73
298
74
297
0
VERTEX
8
Form4
10
0.000000
20
0.000000
30
0.000000
70
128
71
70
72
4
73
103
74
298
0
VERTEX
8
Form4
10
0.000000
20
0.000000
30
0.000000
70
128
71
101
72
297
73
299
74
102
0
VERTEX
8
Form4
10
0.000000
20
0.000000
30
0.000000
70
128
71
297
72
298
73
300
74
299
0
VERTEX
8
Form4
10
0.000000
20
0.000000
30
0.000000
70
128
71
298
72
103
73
104
74
300
0
VERTEX
8
Form4
10
0.000000
20
0.000000
30
0.000000
70
128
71
102
72
299
73
133
74
19
0
VERTEX
8
Form4
10
0.000000
20
0.000000
30
0.000000
70
128
71
299
72
300
73
134
74
133
0
VERTEX
8
Form4
10
0.000000
20
0.000000
30
0.000000
70
128
71
300
72
104
73
20
74
134
0
VERTEX
8
Form4
10
0.000000
20
0.000000
30
0.000000
70
128
71
4
72
71
73
301
74
103
0
VERTEX
8
Form4
10
0.000000
20
0.000000
30
0.000000
70
128
71
71
72
72
73
302
74
301
0
VERTEX
8
Form4
10
0.000000
20
0.000000
30
0.000000
70
128
71
72
72
5
73
105
74
302
0
VERTEX
8
Form4
10
0.000000
20
0.000000
30
0.000000
70
128
71
103
72
301
73
303
74
104
0
VERTEX
8
Form4
10
0.000000
20
0.000000
30
0.000000
70
128
71
301
72
302
73
304
74
303
0
VERTEX
8
Form4
10
0.000000
20
0.000000
30
0.000000
70
128
71
302
72
105
73
106
74
304
0
VERTEX
8
Form4
10
0.000000
20
0.000000
30
0.000000
70
128
71
104
72
303
73
135
74
20
0
VERTEX
8
Form4
10
0.000000
20
0.000000
30
0.000000
70
128
71
303
72
304
73
136
74
135
0
VERTEX
8
Form4
10
0.000000
20
0.000000
30
0.000000
70
128
71
304
72
106
73
21
74
136
0
VERTEX
8
Form4
10
0.000000
20
0.000000
30
0.000000
70
128
71
5
72
73
73
305
74
105
0
VERTEX
8
Form4
10
0.000000
20
0.000000
30
0.000000
70
128
71
73
72
74
73
306
74
305
0
VERTEX
8
Form4
10
0.000000
20
0.000000
30
0.000000
70
128
71
74
72
6
73
107
74
306
0
VERTEX
8
Form4
10
0.000000
20
0.000000
30
0.000000
70
128
71
105
72
305
73
307
74
106
0
VERTEX
8
Form4
10
0.000000
20
0.000000
30
0.000000
70
128
71
305
72
306
73
308
74
307
0
VERTEX
8
Form4
10
0.000000
20
0.000000
30
0.000000
70
128
71
306
72
107
73
108
74
308
0
VERTEX
8
Form4
10
0.000000
20
0.000000
30
0.000000
70
128
71
106
72
307
73
137
74
21
0
VERTEX
8
Form4
10
0.000000
20
0.000000
30
0.000000
70
128
71
307
72
308
73
138
74
137
0
VERTEX
8
Form4
10
0.000000
20
0.000000
30
0.000000
70
128
71
308
72
108
73
22
74
138
0
VERTEX
8
Form4
10
0.000000
20
0.000000
30
0.000000
70
128
71
6
72
75
73
309
74
107
0
VERTEX
8
Form4
10
0.000000
20
0.000000
30
0.000000
70
128
71
75
72
76
73
310
74
309
0
VERTEX
8
Form4
10
0.000000
20
0.000000
30
0.000000
70
128
71
76
72
7
73
109
74
310
0
VERTEX
8
Form4
10
0.000000
20
0.000000
30
0.000000
70
128
71
107
72
309
73
311
74
108
0
VERTEX
8
Form4
10
0.000000
20
0.000000
30
0.000000
70
128
71
309
72
310
73
312
74
311
0
VERTEX
8
Form4
10
0.000000
20
0.000000
30
0.000000
70
128
71
310
72
109
73
110
74
312
0
VERTEX
8
Form4
10
0.000000
20
0.000000
30
0.000000
70
128
71
108
72
311
73
139
74
22
0
VERTEX
8
Form4
10
0.000000
20
0.000000
30
0.000000
70
128
71
311
72
312
73
140
74
139
0
VERTEX
8
Form4
10
0.000000
20
0.000000
30
0.000000
70
128
71
312
72
110
73
23
74
140
0
VERTEX
8
Form4
10
0.000000
20
0.000000
30
0.000000
70
128
71
7
72
77
73
313
74
109
0
VERTEX
8
Form4
10
0.000000
20
0.000000
30
0.000000
70
128
71
77
72
78
73
314
74
313
0
VERTEX
8
Form4
10
0.000000
20
0.000000
30
0.000000
70
128
71
78
72
8
73
111
74
314
0
VERTEX
8
Form4
10
0.000000
20
0.000000
30
0.000000
70
128
71
109
72
313
73
315
74
110
0
VERTEX
8
Form4
10
0.000000
20
0.000000
30
0.000000
70
128
71
313
72
314
73
316
74
315
0
VERTEX
8
Form4
10
0.000000
20
0.000000
30
0.000000
70
128
71
314
72
111
73
112
74
316
0
VERTEX
8
Form4
10
0.000000
20
0.000000
30
0.000000
70
128
71
110
72
315
73
141
74
23
0
VERTEX
8
Form4
10
0.000000
20
0.000000
30
0.000000
70
128
71
315
72
316
73
142
74
141
0
VERTEX
8
Form4
10
0.000000
20
0.000000
30
0.000000
70
128
71
316
72
112
73
24
74
142
0
VERTEX
8
Form4
10
0.000000
20
0.000000
30
0.000000
70
128
71
8
72
79
73
317
74
111
0
VERTEX
8
Form4
10
0.000000
20
0.000000
30
0.000000
70
128
71
79
72
80
73
318
74
317
0
VERTEX
8
Form4
10
0.000000
20
0.000000
30
0.000000
70
128
71
80
72
9
73
113
74
318
0
VERTEX
8
Form4
10
0.000000
20
0.000000
30
0.000000
70
128
71
111
72
317
73
319
74
112
0
VERTEX
8
Form4
10
0.000000
20
0.000000
30
0.000000
70
128
71
317
72
318
73
320
74
319
0
VERTEX
8
Form4
10
0.000000
20
0.000000
30
0.000000
70
128
71
318
72
113
73
114
74
320
0
VERTEX
8
Form4
10
0.000000
20
0.000000
30
0.000000
70
128
71
112
72
319
73
143
74
24
0
VERTEX
8
Form4
10
0.000000
20
0.000000
30
0.000000
70
128
71
319
72
320
73
144
74
143
0
VERTEX
8
Form4
10
0.000000
20
0.000000
30
0.000000
70
128
71
320
72
114
73
25
74
144
0
VERTEX
8
Form4
10
0.000000
20
0.000000
30
0.000000
70
128
71
9
72
81
73
321
74
113
0
VERTEX
8
Form4
10
0.000000
20
0.000000
30
0.000000
70
128
71
81
72
82
73
322
74
321
0
VERTEX
8
Form4
10
0.000000
20
0.000000
30
0.000000
70
128
71
82
72
10
73
115
74
322
0
VERTEX
8
Form4
10
0.000000
20
0.000000
30
0.000000
70
128
71
113
72
321
73
323
74
114
0
VERTEX
8
Form4
10
0.000000
20
0.000000
30
0.000000
70
128
71
321
72
322
73
324
74
323
0
VERTEX
8
Form4
10
0.000000
20
0.000000
30
0.000000
70
128
71
322
72
115
73
116
74
324
0
VERTEX
8
Form4
10
0.000000
20
0.000000
30
0.000000
70
128
71
114
72
323
73
145
74
25
0
VERTEX
8
Form4
10
0.000000
20
0.000000
30
0.000000
70
128
71
323
72
324
73
146
74
145
0
VERTEX
8
Form4
10
0.000000
20
0.000000
30
0.000000
70
128
71
324
72
116
73
26
74
146
0
VERTEX
8
Form4
10
0.000000
20
0.000000
30
0.000000
70
128
71
10
72
83
73
325
74
115
0
VERTEX
8
Form4
10
0.000000
20
0.000000
30
0.000000
70
128
71
83
72
84
73
326
74
325
0
VERTEX
8
Form4
10
0.000000
20
0.000000
30
0.000000
70
128
71
84
72
11
73
117
74
326
0
VERTEX
8
Form4
10
0.000000
20
0.000000
30
0.000000
70
128
71
115
72
325
73
327
74
116
0
VERTEX
8
Form4
10
0.000000
20
0.000000
30
0.000000
70
128
71
325
72
326
73
328
74
327
0
VERTEX
8
Form4
10
0.000000
20
0.000000
30
0.000000
70
128
71
326
72
117
73
118
74
328
0
VERTEX
8
Form4
10
0.000000
20
0.000000
30
0.000000
70
128
71
116
72
327
73
147
74
26
0
VERTEX
8
Form4
10
0.000000
20
0.000000
30
0.000000
70
128
71
327
72
328
73
148
74
147
0
VERTEX
8
Form4
10
0.000000
20
0.000000
30
0.000000
70
128
71
328
72
118
73
27
74
148
0
VERTEX
8
Form4
10
0.000000
20
0.000000
30
0.000000
70
128
71
11
72
85
73
329
74
117
0
VERTEX
8
Form4
10
0.000000
20
0.000000
30
0.000000
70
128
71
85
72
86
73
330
74
329
0
VERTEX
8
Form4
10
0.000000
20
0.000000
30
0.000000
70
128
71
86
72
12
73
119
74
330
0
VERTEX
8
Form4
10
0.000000
20
0.000000
30
0.000000
70
128
71
117
72
329
73
331
74
118
0
VERTEX
8
Form4
10
0.000000
20
0.000000
30
0.000000
70
128
71
329
72
330
73
332
74
331
0
VERTEX
8
Form4
10
0.000000
20
0.000000
30
0.000000
70
128
71
330
72
119
73
120
74
332
0
VERTEX
8
Form4
10
0.000000
20
0.000000
30
0.000000
70
128
71
118
72
331
73
149
74
27
0
VERTEX
8
Form4
10
0.000000
20
0.000000
30
0.000000
70
128
71
331
72
332
73
150
74
149
0
VERTEX
8
Form4
10
0.000000
20
0.000000
30
0.000000
70
128
71
332
72
120
73
28
74
150
0
VERTEX
8
Form4
10
0.000000
20
0.000000
30
0.000000
70
128
71
12
72
87
73
333
74
119
0
VERTEX
8
Form4
10
0.000000
20
0.000000
30
0.000000
70
128
71
87
72
88
73
334
74
333
0
VERTEX
8
Form4
10
0.000000
20
0.000000
30
0.000000
70
128
71
88
72
13
73
121
74
334
0
VERTEX
8
Form4
10
0.000000
20
0.000000
30
0.000000
70
128
71
119
72
333
73
335
74
120
0
VERTEX
8
Form4
10
0.000000
20
0.000000
30
0.000000
70
128
71
333
72
334
73
336
74
335
0
VERTEX
8
Form4
10
0.000000
20
0.000000
30
0.000000
70
128
71
334
72
121
73
122
74
336
0
VERTEX
8
Form4
10
0.000000
20
0.000000
30
0.000000
70
128
71
120
72
335
73
151
74
28
0
VERTEX
8
Form4
10
0.000000
20
0.000000
30
0.000000
70
128
71
335
72
336
73
152
74
151
0
VERTEX
8
Form4
10
0.000000
20
0.000000
30
0.000000
70
128
71
336
72
122
73
29
74
152
0
VERTEX
8
Form4
10
0.000000
20
0.000000
30
0.000000
70
128
71
13
72
89
73
337
74
121
0
VERTEX
8
Form4
10
0.000000
20
0.000000
30
0.000000
70
128
71
89
72
90
73
338
74
337
0
VERTEX
8
Form4
10
0.000000
20
0.000000
30
0.000000
70
128
71
90
72
14
73
123
74
338
0
VERTEX
8
Form4
10
0.000000
20
0.000000
30
0.000000
70
128
71
121
72
337
73
339
74
122
0
VERTEX
8
Form4
10
0.000000
20
0.000000
30
0.000000
70
128
71
337
72
338
73
340
74
339
0
VERTEX
8
Form4
10
0.000000
20
0.000000
30
0.000000
70
128
71
338
72
123
73
124
74
340
0
VERTEX
8
Form4
10
0.000000
20
0.000000
30
0.000000
70
128
71
122
72
339
73
153
74
29
0
VERTEX
8
Form4
10
0.000000
20
0.000000
30
0.000000
70
128
71
339
72
340
73
154
74
153
0
VERTEX
8
Form4
10
0.000000
20
0.000000
30
0.000000
70
128
71
340
72
124
73
30
74
154
0
VERTEX
8
Form4
10
0.000000
20
0.000000
30
0.000000
70
128
71
14
72
91
73
341
74
123
0
VERTEX
8
Form4
10
0.000000
20
0.000000
30
0.000000
70
128
71
91
72
92
73
342
74
341
0
VERTEX
8
Form4
10
0.000000
20
0.000000
30
0.000000
70
128
71
92
72
15
73
125
74
342
0
VERTEX
8
Form4
10
0.000000
20
0.000000
30
0.000000
70
128
71
123
72
341
73
343
74
124
0
VERTEX
8
Form4
10
0.000000
20
0.000000
30
0.000000
70
128
71
341
72
342
73
344
74
343
0
VERTEX
8
Form4
10
0.000000
20
0.000000
30
0.000000
70
128
71
342
72
125
73
126
74
344
0
VERTEX
8
Form4
10
0.000000
20
0.000000
30
0.000000
70
128
71
124
72
343
73
155
74
30
0
VERTEX
8
Form4
10
0.000000
20
0.000000
30
0.000000
70
128
71
343
72
344
73
156
74
155
0
VERTEX
8
Form4
10
0.000000
20
0.000000
30
0.000000
70
128
71
344
72
126
73
31
74
156
0
VERTEX
8
Form4
10
0.000000
20
0.000000
30
0.000000
70
128
71
15
72
93
73
345
74
125
0
VERTEX
8
Form4
10
0.000000
20
0.000000
30
0.000000
70
128
71
93
72
94
73
346
74
345
0
VERTEX
8
Form4
10
0.000000
20
0.000000
30
0.000000
70
128
71
94
72
482
73
127
74
346
0
VERTEX
8
Form4
10
0.000000
20
0.000000
30
0.000000
70
128
71
125
72
345
73
347
74
126
0
VERTEX
8
Form4
10
0.000000
20
0.000000
30
0.000000
70
128
71
345
72
346
73
348
74
347
0
VERTEX
8
Form4
10
0.000000
20
0.000000
30
0.000000
70
128
71
346
72
127
73
128
74
348
0
VERTEX
8
Form4
10
0.000000
20
0.000000
30
0.000000
70
128
71
126
72
347
73
157
74
31
0
VERTEX
8
Form4
10
0.000000
20
0.000000
30
0.000000
70
128
71
347
72
348
73
158
74
157
0
VERTEX
8
Form4
10
0.000000
20
0.000000
30
0.000000
70
128
71
348
72
128
73
32
74
158
0
VERTEX
8
Form4
10
0.000000
20
0.000000
30
0.000000
70
128
71
16
72
95
73
349
74
497
0
VERTEX
8
Form4
10
0.000000
20
0.000000
30
0.000000
70
128
71
95
72
96
73
350
74
349
0
VERTEX
8
Form4
10
0.000000
20
0.000000
30
0.000000
70
128
71
96
72
1
73
495
74
350
0
VERTEX
8
Form4
10
0.000000
20
0.000000
30
0.000000
70
128
71
497
72
349
73
351
74
498
0
VERTEX
8
Form4
10
0.000000
20
0.000000
30
0.000000
70
128
71
349
72
350
73
352
74
351
0
VERTEX
8
Form4
10
0.000000
20
0.000000
30
0.000000
70
128
71
350
72
495
73
496
74
352
0
VERTEX
8
Form4
10
0.000000
20
0.000000
30
0.000000
70
128
71
498
72
351
73
159
74
486
0
VERTEX
8
Form4
10
0.000000
20
0.000000
30
0.000000
70
128
71
351
72
352
73
160
74
159
0
VERTEX
8
Form4
10
0.000000
20
0.000000
30
0.000000
70
128
71
352
72
496
73
484
74
160
0
VERTEX
8
Form4
10
0.000000
20
0.000000
30
0.000000
70
128
71
17
72
129
73
353
74
161
0
VERTEX
8
Form4
10
0.000000
20
0.000000
30
0.000000
70
128
71
129
72
130
73
354
74
353
0
VERTEX
8
Form4
10
0.000000
20
0.000000
30
0.000000
70
128
71
130
72
18
73
163
74
354
0
VERTEX
8
Form4
10
0.000000
20
0.000000
30
0.000000
70
128
71
161
72
353
73
355
74
162
0
VERTEX
8
Form4
10
0.000000
20
0.000000
30
0.000000
70
128
71
353
72
354
73
356
74
355
0
VERTEX
8
Form4
10
0.000000
20
0.000000
30
0.000000
70
128
71
354
72
163
73
164
74
356
0
VERTEX
8
Form4
10
0.000000
20
0.000000
30
0.000000
70
128
71
162
72
355
73
193
74
33
0
VERTEX
8
Form4
10
0.000000
20
0.000000
30
0.000000
70
128
71
355
72
356
73
194
74
193
0
VERTEX
8
Form4
10
0.000000
20
0.000000
30
0.000000
70
128
71
356
72
164
73
34
74
194
0
VERTEX
8
Form4
10
0.000000
20
0.000000
30
0.000000
70
128
71
18
72
131
73
357
74
163
0
VERTEX
8
Form4
10
0.000000
20
0.000000
30
0.000000
70
128
71
131
72
132
73
358
74
357
0
VERTEX
8
Form4
10
0.000000
20
0.000000
30
0.000000
70
128
71
132
72
19
73
165
74
358
0
VERTEX
8
Form4
10
0.000000
20
0.000000
30
0.000000
70
128
71
163
72
357
73
359
74
164
0
VERTEX
8
Form4
10
0.000000
20
0.000000
30
0.000000
70
128
71
357
72
358
73
360
74
359
0
VERTEX
8
Form4
10
0.000000
20
0.000000
30
0.000000
70
128
71
358
72
165
73
166
74
360
0
VERTEX
8
Form4
10
0.000000
20
0.000000
30
0.000000
70
128
71
164
72
359
73
195
74
34
0
VERTEX
8
Form4
10
0.000000
20
0.000000
30
0.000000
70
128
71
359
72
360
73
196
74
195
0
VERTEX
8
Form4
10
0.000000
20
0.000000
30
0.000000
70
128
71
360
72
166
73
35
74
196
0
VERTEX
8
Form4
10
0.000000
20
0.000000
30
0.000000
70
128
71
19
72
133
73
361
74
165
0
VERTEX
8
Form4
10
0.000000
20
0.000000
30
0.000000
70
128
71
133
72
134
73
362
74
361
0
VERTEX
8
Form4
10
0.000000
20
0.000000
30
0.000000
70
128
71
134
72
20
73
167
74
362
0
VERTEX
8
Form4
10
0.000000
20
0.000000
30
0.000000
70
128
71
165
72
361
73
363
74
166
0
VERTEX
8
Form4
10
0.000000
20
0.000000
30
0.000000
70
128
71
361
72
362
73
364
74
363
0
VERTEX
8
Form4
10
0.000000
20
0.000000
30
0.000000
70
128
71
362
72
167
73
168
74
364
0
VERTEX
8
Form4
10
0.000000
20
0.000000
30
0.000000
70
128
71
166
72
363
73
197
74
35
0
VERTEX
8
Form4
10
0.000000
20
0.000000
30
0.000000
70
128
71
363
72
364
73
198
74
197
0
VERTEX
8
Form4
10
0.000000
20
0.000000
30
0.000000
70
128
71
364
72
168
73
36
74
198
0
VERTEX
8
Form4
10
0.000000
20
0.000000
30
0.000000
70
128
71
20
72
135
73
365
74
167
0
VERTEX
8
Form4
10
0.000000
20
0.000000
30
0.000000
70
128
71
135
72
136
73
366
74
365
0
VERTEX
8
Form4
10
0.000000
20
0.000000
30
0.000000
70
128
71
136
72
21
73
169
74
366
0
VERTEX
8
Form4
10
0.000000
20
0.000000
30
0.000000
70
128
71
167
72
365
73
367
74
168
0
VERTEX
8
Form4
10
0.000000
20
0.000000
30
0.000000
70
128
71
365
72
366
73
368
74
367
0
VERTEX
8
Form4
10
0.000000
20
0.000000
30
0.000000
70
128
71
366
72
169
73
170
74
368
0
VERTEX
8
Form4
10
0.000000
20
0.000000
30
0.000000
70
128
71
168
72
367
73
199
74
36
0
VERTEX
8
Form4
10
0.000000
20
0.000000
30
0.000000
70
128
71
367
72
368
73
200
74
199
0
VERTEX
8
Form4
10
0.000000
20
0.000000
30
0.000000
70
128
71
368
72
170
73
37
74
200
0
VERTEX
8
Form4
10
0.000000
20
0.000000
30
0.000000
70
128
71
21
72
137
73
369
74
169
0
VERTEX
8
Form4
10
0.000000
20
0.000000
30
0.000000
70
128
71
137
72
138
73
370
74
369
0
VERTEX
8
Form4
10
0.000000
20
0.000000
30
0.000000
70
128
71
138
72
22
73
171
74
370
0
VERTEX
8
Form4
10
0.000000
20
0.000000
30
0.000000
70
128
71
169
72
369
73
371
74
170
0
VERTEX
8
Form4
10
0.000000
20
0.000000
30
0.000000
70
128
71
369
72
370
73
372
74
371
0
VERTEX
8
Form4
10
0.000000
20
0.000000
30
0.000000
70
128
71
370
72
171
73
172
74
372
0
VERTEX
8
Form4
10
0.000000
20
0.000000
30
0.000000
70
128
71
170
72
371
73
201
74
37
0
VERTEX
8
Form4
10
0.000000
20
0.000000
30
0.000000
70
128
71
371
72
372
73
202
74
201
0
VERTEX
8
Form4
10
0.000000
20
0.000000
30
0.000000
70
128
71
372
72
172
73
38
74
202
0
VERTEX
8
Form4
10
0.000000
20
0.000000
30
0.000000
70
128
71
22
72
139
73
373
74
171
0
VERTEX
8
Form4
10
0.000000
20
0.000000
30
0.000000
70
128
71
139
72
140
73
374
74
373
0
VERTEX
8
Form4
10
0.000000
20
0.000000
30
0.000000
70
128
71
140
72
23
73
173
74
374
0
VERTEX
8
Form4
10
0.000000
20
0.000000
30
0.000000
70
128
71
171
72
373
73
375
74
172
0
VERTEX
8
Form4
10
0.000000
20
0.000000
30
0.000000
70
128
71
373
72
374
73
376
74
375
0
VERTEX
8
Form4
10
0.000000
20
0.000000
30
0.000000
70
128
71
374
72
173
73
174
74
376
0
VERTEX
8
Form4
10
0.000000
20
0.000000
30
0.000000
70
128
71
172
72
375
73
203
74
38
0
VERTEX
8
Form4
10
0.000000
20
0.000000
30
0.000000
70
128
71
375
72
376
73
204
74
203
0
VERTEX
8
Form4
10
0.000000
20
0.000000
30
0.000000
70
128
71
376
72
174
73
39
74
204
0
VERTEX
8
Form4
10
0.000000
20
0.000000
30
0.000000
70
128
71
23
72
141
73
377
74
173
0
VERTEX
8
Form4
10
0.000000
20
0.000000
30
0.000000
70
128
71
141
72
142
73
378
74
377
0
VERTEX
8
Form4
10
0.000000
20
0.000000
30
0.000000
70
128
71
142
72
24
73
175
74
378
0
VERTEX
8
Form4
10
0.000000
20
0.000000
30
0.000000
70
128
71
173
72
377
73
379
74
174
0
VERTEX
8
Form4
10
0.000000
20
0.000000
30
0.000000
70
128
71
377
72
378
73
380
74
379
0
VERTEX
8
Form4
10
0.000000
20
0.000000
30
0.000000
70
128
71
378
72
175
73
176
74
380
0
VERTEX
8
Form4
10
0.000000
20
0.000000
30
0.000000
70
128
71
174
72
379
73
205
74
39
0
VERTEX
8
Form4
10
0.000000
20
0.000000
30
0.000000
70
128
71
379
72
380
73
206
74
205
0
VERTEX
8
Form4
10
0.000000
20
0.000000
30
0.000000
70
128
71
380
72
176
73
40
74
206
0
VERTEX
8
Form4
10
0.000000
20
0.000000
30
0.000000
70
128
71
24
72
143
73
381
74
503
0
VERTEX
8
Form4
10
0.000000
20
0.000000
30
0.000000
70
128
71
143
72
144
73
382
74
381
0
VERTEX
8
Form4
10
0.000000
20
0.000000
30
0.000000
70
128
71
144
72
25
73
177
74
382
0
VERTEX
8
Form4
10
0.000000
20
0.000000
30
0.000000
70
128
71
503
72
381
73
383
74
504
0
VERTEX
8
Form4
10
0.000000
20
0.000000
30
0.000000
70
128
71
381
72
382
73
384
74
383
0
VERTEX
8
Form4
10
0.000000
20
0.000000
30
0.000000
70
128
71
382
72
177
73
178
74
384
0
VERTEX
8
Form4
10
0.000000
20
0.000000
30
0.000000
70
128
71
504
72
383
73
207
74
40
0
VERTEX
8
Form4
10
0.000000
20
0.000000
30
0.000000
70
128
71
383
72
384
73
208
74
207
0
VERTEX
8
Form4
10
0.000000
20
0.000000
30
0.000000
70
128
71
384
72
178
73
41
74
208
0
VERTEX
8
Form4
10
0.000000
20
0.000000
30
0.000000
70
128
71
25
72
145
73
385
74
177
0
VERTEX
8
Form4
10
0.000000
20
0.000000
30
0.000000
70
128
71
145
72
146
73
386
74
385
0
VERTEX
8
Form4
10
0.000000
20
0.000000
30
0.000000
70
128
71
146
72
26
73
179
74
386
0
VERTEX
8
Form4
10
0.000000
20
0.000000
30
0.000000
70
128
71
177
72
385
73
387
74
178
0
VERTEX
8
Form4
10
0.000000
20
0.000000
30
0.000000
70
128
71
385
72
386
73
388
74
387
0
VERTEX
8
Form4
10
0.000000
20
0.000000
30
0.000000
70
128
71
386
72
179
73
180
74
388
0
VERTEX
8
Form4
10
0.000000
20
0.000000
30
0.000000
70
128
71
178
72
387
73
209
74
41
0
VERTEX
8
Form4
10
0.000000
20
0.000000
30
0.000000
70
128
71
387
72
388
73
210
74
209
0
VERTEX
8
Form4
10
0.000000
20
0.000000
30
0.000000
70
128
71
388
72
180
73
42
74
210
0
VERTEX
8
Form4
10
0.000000
20
0.000000
30
0.000000
70
128
71
26
72
147
73
389
74
179
0
VERTEX
8
Form4
10
0.000000
20
0.000000
30
0.000000
70
128
71
147
72
148
73
390
74
389
0
VERTEX
8
Form4
10
0.000000
20
0.000000
30
0.000000
70
128
71
148
72
27
73
181
74
390
0
VERTEX
8
Form4
10
0.000000
20
0.000000
30
0.000000
70
128
71
179
72
389
73
391
74
180
0
VERTEX
8
Form4
10
0.000000
20
0.000000
30
0.000000
70
128
71
389
72
390
73
392
74
391
0
VERTEX
8
Form4
10
0.000000
20
0.000000
30
0.000000
70
128
71
390
72
181
73
182
74
392
0
VERTEX
8
Form4
10
0.000000
20
0.000000
30
0.000000
70
128
71
180
72
391
73
211
74
42
0
VERTEX
8
Form4
10
0.000000
20
0.000000
30
0.000000
70
128
71
391
72
392
73
212
74
211
0
VERTEX
8
Form4
10
0.000000
20
0.000000
30
0.000000
70
128
71
392
72
182
73
43
74
212
0
VERTEX
8
Form4
10
0.000000
20
0.000000
30
0.000000
70
128
71
27
72
149
73
393
74
181
0
VERTEX
8
Form4
10
0.000000
20
0.000000
30
0.000000
70
128
71
149
72
150
73
394
74
393
0
VERTEX
8
Form4
10
0.000000
20
0.000000
30
0.000000
70
128
71
150
72
28
73
183
74
394
0
VERTEX
8
Form4
10
0.000000
20
0.000000
30
0.000000
70
128
71
181
72
393
73
395
74
182
0
VERTEX
8
Form4
10
0.000000
20
0.000000
30
0.000000
70
128
71
393
72
394
73
396
74
395
0
VERTEX
8
Form4
10
0.000000
20
0.000000
30
0.000000
70
128
71
394
72
183
73
184
74
396
0
VERTEX
8
Form4
10
0.000000
20
0.000000
30
0.000000
70
128
71
182
72
395
73
213
74
43
0
VERTEX
8
Form4
10
0.000000
20
0.000000
30
0.000000
70
128
71
395
72
396
73
214
74
213
0
VERTEX
8
Form4
10
0.000000
20
0.000000
30
0.000000
70
128
71
396
72
184
73
44
74
214
0
VERTEX
8
Form4
10
0.000000
20
0.000000
30
0.000000
70
128
71
28
72
151
73
397
74
183
0
VERTEX
8
Form4
10
0.000000
20
0.000000
30
0.000000
70
128
71
151
72
152
73
398
74
397
0
VERTEX
8
Form4
10
0.000000
20
0.000000
30
0.000000
70
128
71
152
72
29
73
185
74
398
0
VERTEX
8
Form4
10
0.000000
20
0.000000
30
0.000000
70
128
71
183
72
397
73
399
74
184
0
VERTEX
8
Form4
10
0.000000
20
0.000000
30
0.000000
70
128
71
397
72
398
73
400
74
399
0
VERTEX
8
Form4
10
0.000000
20
0.000000
30
0.000000
70
128
71
398
72
185
73
186
74
400
0
VERTEX
8
Form4
10
0.000000
20
0.000000
30
0.000000
70
128
71
184
72
399
73
215
74
44
0
VERTEX
8
Form4
10
0.000000
20
0.000000
30
0.000000
70
128
71
399
72
400
73
216
74
215
0
VERTEX
8
Form4
10
0.000000
20
0.000000
30
0.000000
70
128
71
400
72
186
73
45
74
216
0
VERTEX
8
Form4
10
0.000000
20
0.000000
30
0.000000
70
128
71
29
72
153
73
401
74
185
0
VERTEX
8
Form4
10
0.000000
20
0.000000
30
0.000000
70
128
71
153
72
154
73
402
74
401
0
VERTEX
8
Form4
10
0.000000
20
0.000000
30
0.000000
70
128
71
154
72
30
73
187
74
402
0
VERTEX
8
Form4
10
0.000000
20
0.000000
30
0.000000
70
128
71
185
72
401
73
403
74
186
0
VERTEX
8
Form4
10
0.000000
20
0.000000
30
0.000000
70
128
71
401
72
402
73
404
74
403
0
VERTEX
8
Form4
10
0.000000
20
0.000000
30
0.000000
70
128
71
402
72
187
73
188
74
404
0
VERTEX
8
Form4
10
0.000000
20
0.000000
30
0.000000
70
128
71
186
72
403
73
217
74
45
0
VERTEX
8
Form4
10
0.000000
20
0.000000
30
0.000000
70
128
71
403
72
404
73
218
74
217
0
VERTEX
8
Form4
10
0.000000
20
0.000000
30
0.000000
70
128
71
404
72
188
73
46
74
218
0
VERTEX
8
Form4
10
0.000000
20
0.000000
30
0.000000
70
128
71
30
72
155
73
405
74
187
0
VERTEX
8
Form4
10
0.000000
20
0.000000
30
0.000000
70
128
71
155
72
156
73
406
74
405
0
VERTEX
8
Form4
10
0.000000
20
0.000000
30
0.000000
70
128
71
156
72
31
73
189
74
406
0
VERTEX
8
Form4
10
0.000000
20
0.000000
30
0.000000
70
128
71
187
72
405
73
407
74
188
0
VERTEX
8
Form4
10
0.000000
20
0.000000
30
0.000000
70
128
71
405
72
406
73
408
74
407
0
VERTEX
8
Form4
10
0.000000
20
0.000000
30
0.000000
70
128
71
406
72
189
73
190
74
408
0
VERTEX
8
Form4
10
0.000000
20
0.000000
30
0.000000
70
128
71
188
72
407
73
219
74
46
0
VERTEX
8
Form4
10
0.000000
20
0.000000
30
0.000000
70
128
71
407
72
408
73
220
74
219
0
VERTEX
8
Form4
10
0.000000
20
0.000000
30
0.000000
70
128
71
408
72
190
73
47
74
220
0
VERTEX
8
Form4
10
0.000000
20
0.000000
30
0.000000
70
128
71
31
72
157
73
409
74
189
0
VERTEX
8
Form4
10
0.000000
20
0.000000
30
0.000000
70
128
71
157
72
158
73
410
74
409
0
VERTEX
8
Form4
10
0.000000
20
0.000000
30
0.000000
70
128
71
158
72
32
73
191
74
410
0
VERTEX
8
Form4
10
0.000000
20
0.000000
30
0.000000
70
128
71
189
72
409
73
411
74
190
0
VERTEX
8
Form4
10
0.000000
20
0.000000
30
0.000000
70
128
71
409
72
410
73
412
74
411
0
VERTEX
8
Form4
10
0.000000
20
0.000000
30
0.000000
70
128
71
410
72
191
73
192
74
412
0
VERTEX
8
Form4
10
0.000000
20
0.000000
30
0.000000
70
128
71
190
72
411
73
221
74
47
0
VERTEX
8
Form4
10
0.000000
20
0.000000
30
0.000000
70
128
71
411
72
412
73
222
74
221
0
VERTEX
8
Form4
10
0.000000
20
0.000000
30
0.000000
70
128
71
412
72
192
73
48
74
222
0
VERTEX
8
Form4
10
0.000000
20
0.000000
30
0.000000
70
128
71
485
72
499
73
413
74
505
0
VERTEX
8
Form4
10
0.000000
20
0.000000
30
0.000000
70
128
71
499
72
500
73
414
74
413
0
VERTEX
8
Form4
10
0.000000
20
0.000000
30
0.000000
70
128
71
500
72
483
73
501
74
414
0
VERTEX
8
Form4
10
0.000000
20
0.000000
30
0.000000
70
128
71
505
72
413
73
415
74
506
0
VERTEX
8
Form4
10
0.000000
20
0.000000
30
0.000000
70
128
71
413
72
414
73
416
74
415
0
VERTEX
8
Form4
10
0.000000
20
0.000000
30
0.000000
70
128
71
414
72
501
73
502
74
416
0
VERTEX
8
Form4
10
0.000000
20
0.000000
30
0.000000
70
128
71
506
72
415
73
223
74
490
0
VERTEX
8
Form4
10
0.000000
20
0.000000
30
0.000000
70
128
71
415
72
416
73
224
74
223
0
VERTEX
8
Form4
10
0.000000
20
0.000000
30
0.000000
70
128
71
416
72
502
73
488
74
224
0
VERTEX
8
Form4
10
0.000000
20
0.000000
30
0.000000
70
128
71
33
72
193
73
417
74
225
0
VERTEX
8
Form4
10
0.000000
20
0.000000
30
0.000000
70
128
71
193
72
194
73
418
74
417
0
VERTEX
8
Form4
10
0.000000
20
0.000000
30
0.000000
70
128
71
194
72
34
73
227
74
418
0
VERTEX
8
Form4
10
0.000000
20
0.000000
30
0.000000
70
128
71
225
72
417
73
419
74
226
0
VERTEX
8
Form4
10
0.000000
20
0.000000
30
0.000000
70
128
71
417
72
418
73
420
74
419
0
VERTEX
8
Form4
10
0.000000
20
0.000000
30
0.000000
70
128
71
418
72
227
73
228
74
420
0
VERTEX
8
Form4
10
0.000000
20
0.000000
30
0.000000
70
128
71
226
72
419
73
257
74
49
0
VERTEX
8
Form4
10
0.000000
20
0.000000
30
0.000000
70
128
71
419
72
420
73
258
74
257
0
VERTEX
8
Form4
10
0.000000
20
0.000000
30
0.000000
70
128
71
420
72
228
73
50
74
258
0
VERTEX
8
Form4
10
0.000000
20
0.000000
30
0.000000
70
128
71
34
72
195
73
421
74
227
0
VERTEX
8
Form4
10
0.000000
20
0.000000
30
0.000000
70
128
71
195
72
196
73
422
74
421
0
VERTEX
8
Form4
10
0.000000
20
0.000000
30
0.000000
70
128
71
196
72
35
73
229
74
422
0
VERTEX
8
Form4
10
0.000000
20
0.000000
30
0.000000
70
128
71
227
72
421
73
423
74
228
0
VERTEX
8
Form4
10
0.000000
20
0.000000
30
0.000000
70
128
71
421
72
422
73
424
74
423
0
VERTEX
8
Form4
10
0.000000
20
0.000000
30
0.000000
70
128
71
422
72
229
73
230
74
424
0
VERTEX
8
Form4
10
0.000000
20
0.000000
30
0.000000
70
128
71
228
72
423
73
259
74
50
0
VERTEX
8
Form4
10
0.000000
20
0.000000
30
0.000000
70
128
71
423
72
424
73
260
74
259
0
VERTEX
8
Form4
10
0.000000
20
0.000000
30
0.000000
70
128
71
424
72
230
73
51
74
260
0
VERTEX
8
Form4
10
0.000000
20
0.000000
30
0.000000
70
128
71
35
72
197
73
425
74
229
0
VERTEX
8
Form4
10
0.000000
20
0.000000
30
0.000000
70
128
71
197
72
198
73
426
74
425
0
VERTEX
8
Form4
10
0.000000
20
0.000000
30
0.000000
70
128
71
198
72
36
73
231
74
426
0
VERTEX
8
Form4
10
0.000000
20
0.000000
30
0.000000
70
128
71
229
72
425
73
427
74
230
0
VERTEX
8
Form4
10
0.000000
20
0.000000
30
0.000000
70
128
71
425
72
426
73
428
74
427
0
VERTEX
8
Form4
10
0.000000
20
0.000000
30
0.000000
70
128
71
426
72
231
73
232
74
428
0
VERTEX
8
Form4
10
0.000000
20
0.000000
30
0.000000
70
128
71
230
72
427
73
261
74
51
0
VERTEX
8
Form4
10
0.000000
20
0.000000
30
0.000000
70
128
71
427
72
428
73
262
74
261
0
VERTEX
8
Form4
10
0.000000
20
0.000000
30
0.000000
70
128
71
428
72
232
73
52
74
262
0
VERTEX
8
Form4
10
0.000000
20
0.000000
30
0.000000
70
128
71
36
72
199
73
429
74
231
0
VERTEX
8
Form4
10
0.000000
20
0.000000
30
0.000000
70
128
71
199
72
200
73
430
74
429
0
VERTEX
8
Form4
10
0.000000
20
0.000000
30
0.000000
70
128
71
200
72
37
73
233
74
430
0
VERTEX
8
Form4
10
0.000000
20
0.000000
30
0.000000
70
128
71
231
72
429
73
431
74
232
0
VERTEX
8
Form4
10
0.000000
20
0.000000
30
0.000000
70
128
71
429
72
430
73
432
74
431
0
VERTEX
8
Form4
10
0.000000
20
0.000000
30
0.000000
70
128
71
430
72
233
73
234
74
432
0
VERTEX
8
Form4
10
0.000000
20
0.000000
30
0.000000
70
128
71
232
72
431
73
263
74
52
0
VERTEX
8
Form4
10
0.000000
20
0.000000
30
0.000000
70
128
71
431
72
432
73
264
74
263
0
VERTEX
8
Form4
10
0.000000
20
0.000000
30
0.000000
70
128
71
432
72
234
73
53
74
264
0
VERTEX
8
Form4
10
0.000000
20
0.000000
30
0.000000
70
128
71
37
72
201
73
433
74
233
0
VERTEX
8
Form4
10
0.000000
20
0.000000
30
0.000000
70
128
71
201
72
202
73
434
74
433
0
VERTEX
8
Form4
10
0.000000
20
0.000000
30
0.000000
70
128
71
202
72
38
73
235
74
434
0
VERTEX
8
Form4
10
0.000000
20
0.000000
30
0.000000
70
128
71
233
72
433
73
435
74
234
0
VERTEX
8
Form4
10
0.000000
20
0.000000
30
0.000000
70
128
71
433
72
434
73
436
74
435
0
VERTEX
8
Form4
10
0.000000
20
0.000000
30
0.000000
70
128
71
434
72
235
73
236
74
436
0
VERTEX
8
Form4
10
0.000000
20
0.000000
30
0.000000
70
128
71
234
72
435
73
265
74
53
0
VERTEX
8
Form4
10
0.000000
20
0.000000
30
0.000000
70
128
71
435
72
436
73
266
74
265
0
VERTEX
8
Form4
10
0.000000
20
0.000000
30
0.000000
70
128
71
436
72
236
73
54
74
266
0
VERTEX
8
Form4
10
0.000000
20
0.000000
30
0.000000
70
128
71
38
72
203
73
437
74
235
0
VERTEX
8
Form4
10
0.000000
20
0.000000
30
0.000000
70
128
71
203
72
204
73
438
74
437
0
VERTEX
8
Form4
10
0.000000
20
0.000000
30
0.000000
70
128
71
204
72
39
73
237
74
438
0
VERTEX
8
Form4
10
0.000000
20
0.000000
30
0.000000
70
128
71
235
72
437
73
439
74
236
0
VERTEX
8
Form4
10
0.000000
20
0.000000
30
0.000000
70
128
71
437
72
438
73
440
74
439
0
VERTEX
8
Form4
10
0.000000
20
0.000000
30
0.000000
70
128
71
438
72
237
73
238
74
440
0
VERTEX
8
Form4
10
0.000000
20
0.000000
30
0.000000
70
128
71
236
72
439
73
267
74
54
0
VERTEX
8
Form4
10
0.000000
20
0.000000
30
0.000000
70
128
71
439
72
440
73
268
74
267
0
VERTEX
8
Form4
10
0.000000
20
0.000000
30
0.000000
70
128
71
440
72
238
73
55
74
268
0
VERTEX
8
Form4
10
0.000000
20
0.000000
30
0.000000
70
128
71
39
72
205
73
441
74
237
0
VERTEX
8
Form4
10
0.000000
20
0.000000
30
0.000000
70
128
71
205
72
206
73
442
74
441
0
VERTEX
8
Form4
10
0.000000
20
0.000000
30
0.000000
70
128
71
206
72
40
73
239
74
442
0
VERTEX
8
Form4
10
0.000000
20
0.000000
30
0.000000
70
128
71
237
72
441
73
443
74
238
0
VERTEX
8
Form4
10
0.000000
20
0.000000
30
0.000000
70
128
71
441
72
442
73
444
74
443
0
VERTEX
8
Form4
10
0.000000
20
0.000000
30
0.000000
70
128
71
442
72
239
73
240
74
444
0
VERTEX
8
Form4
10
0.000000
20
0.000000
30
0.000000
70
128
71
238
72
443
73
269
74
55
0
VERTEX
8
Form4
10
0.000000
20
0.000000
30
0.000000
70
128
71
443
72
444
73
270
74
269
0
VERTEX
8
Form4
10
0.000000
20
0.000000
30
0.000000
70
128
71
444
72
240
73
56
74
270
0
VERTEX
8
Form4
10
0.000000
20
0.000000
30
0.000000
70
128
71
40
72
207
73
445
74
239
0
VERTEX
8
Form4
10
0.000000
20
0.000000
30
0.000000
70
128
71
207
72
208
73
446
74
445
0
VERTEX
8
Form4
10
0.000000
20
0.000000
30
0.000000
70
128
71
208
72
41
73
241
74
446
0
VERTEX
8
Form4
10
0.000000
20
0.000000
30
0.000000
70
128
71
239
72
445
73
447
74
240
0
VERTEX
8
Form4
10
0.000000
20
0.000000
30
0.000000
70
128
71
445
72
446
73
448
74
447
0
VERTEX
8
Form4
10
0.000000
20
0.000000
30
0.000000
70
128
71
446
72
241
73
242
74
448
0
VERTEX
8
Form4
10
0.000000
20
0.000000
30
0.000000
70
128
71
240
72
447
73
271
74
56
0
VERTEX
8
Form4
10
0.000000
20
0.000000
30
0.000000
70
128
71
447
72
448
73
272
74
271
0
VERTEX
8
Form4
10
0.000000
20
0.000000
30
0.000000
70
128
71
448
72
242
73
57
74
272
0
VERTEX
8
Form4
10
0.000000
20
0.000000
30
0.000000
70
128
71
41
72
209
73
449
74
241
0
VERTEX
8
Form4
10
0.000000
20
0.000000
30
0.000000
70
128
71
209
72
210
73
450
74
449
0
VERTEX
8
Form4
10
0.000000
20
0.000000
30
0.000000
70
128
71
210
72
42
73
243
74
450
0
VERTEX
8
Form4
10
0.000000
20
0.000000
30
0.000000
70
128
71
241
72
449
73
451
74
242
0
VERTEX
8
Form4
10
0.000000
20
0.000000
30
0.000000
70
128
71
449
72
450
73
452
74
451
0
VERTEX
8
Form4
10
0.000000
20
0.000000
30
0.000000
70
128
71
450
72
243
73
244
74
452
0
VERTEX
8
Form4
10
0.000000
20
0.000000
30
0.000000
70
128
71
242
72
451
73
273
74
57
0
VERTEX
8
Form4
10
0.000000
20
0.000000
30
0.000000
70
128
71
451
72
452
73
274
74
273
0
VERTEX
8
Form4
10
0.000000
20
0.000000
30
0.000000
70
128
71
452
72
244
73
58
74
274
0
VERTEX
8
Form4
10
0.000000
20
0.000000
30
0.000000
70
128
71
42
72
211
73
453
74
243
0
VERTEX
8
Form4
10
0.000000
20
0.000000
30
0.000000
70
128
71
211
72
212
73
454
74
453
0
VERTEX
8
Form4
10
0.000000
20
0.000000
30
0.000000
70
128
71
212
72
43
73
245
74
454
0
VERTEX
8
Form4
10
0.000000
20
0.000000
30
0.000000
70
128
71
243
72
453
73
455
74
244
0
VERTEX
8
Form4
10
0.000000
20
0.000000
30
0.000000
70
128
71
453
72
454
73
456
74
455
0
VERTEX
8
Form4
10
0.000000
20
0.000000
30
0.000000
70
128
71
454
72
245
73
246
74
456
0
VERTEX
8
Form4
10
0.000000
20
0.000000
30
0.000000
70
128
71
244
72
455
73
275
74
58
0
VERTEX
8
Form4
10
0.000000
20
0.000000
30
0.000000
70
128
71
455
72
456
73
276
74
275
0
VERTEX
8
Form4
10
0.000000
20
0.000000
30
0.000000
70
128
71
456
72
246
73
59
74
276
0
VERTEX
8
Form4
10
0.000000
20
0.000000
30
0.000000
70
128
71
43
72
213
73
457
74
245
0
VERTEX
8
Form4
10
0.000000
20
0.000000
30
0.000000
70
128
71
213
72
214
73
458
74
457
0
VERTEX
8
Form4
10
0.000000
20
0.000000
30
0.000000
70
128
71
214
72
44
73
247
74
458
0
VERTEX
8
Form4
10
0.000000
20
0.000000
30
0.000000
70
128
71
245
72
457
73
459
74
246
0
VERTEX
8
Form4
10
0.000000
20
0.000000
30
0.000000
70
128
71
457
72
458
73
460
74
459
0
VERTEX
8
Form4
10
0.000000
20
0.000000
30
0.000000
70
128
71
458
72
247
73
248
74
460
0
VERTEX
8
Form4
10
0.000000
20
0.000000
30
0.000000
70
128
71
246
72
459
73
277
74
59
0
VERTEX
8
Form4
10
0.000000
20
0.000000
30
0.000000
70
128
71
459
72
460
73
278
74
277
0
VERTEX
8
Form4
10
0.000000
20
0.000000
30
0.000000
70
128
71
460
72
248
73
60
74
278
0
VERTEX
8
Form4
10
0.000000
20
0.000000
30
0.000000
70
128
71
44
72
215
73
461
74
247
0
VERTEX
8
Form4
10
0.000000
20
0.000000
30
0.000000
70
128
71
215
72
216
73
462
74
461
0
VERTEX
8
Form4
10
0.000000
20
0.000000
30
0.000000
70
128
71
216
72
45
73
249
74
462
0
VERTEX
8
Form4
10
0.000000
20
0.000000
30
0.000000
70
128
71
247
72
461
73
463
74
248
0
VERTEX
8
Form4
10
0.000000
20
0.000000
30
0.000000
70
128
71
461
72
462
73
464
74
463
0
VERTEX
8
Form4
10
0.000000
20
0.000000
30
0.000000
70
128
71
462
72
249
73
250
74
464
0
VERTEX
8
Form4
10
0.000000
20
0.000000
30
0.000000
70
128
71
248
72
463
73
279
74
60
0
VERTEX
8
Form4
10
0.000000
20
0.000000
30
0.000000
70
128
71
463
72
464
73
280
74
279
0
VERTEX
8
Form4
10
0.000000
20
0.000000
30
0.000000
70
128
71
464
72
250
73
61
74
280
0
VERTEX
8
Form4
10
0.000000
20
0.000000
30
0.000000
70
128
71
45
72
217
73
465
74
249
0
VERTEX
8
Form4
10
0.000000
20
0.000000
30
0.000000
70
128
71
217
72
218
73
466
74
465
0
VERTEX
8
Form4
10
0.000000
20
0.000000
30
0.000000
70
128
71
218
72
46
73
251
74
466
0
VERTEX
8
Form4
10
0.000000
20
0.000000
30
0.000000
70
128
71
249
72
465
73
467
74
250
0
VERTEX
8
Form4
10
0.000000
20
0.000000
30
0.000000
70
128
71
465
72
466
73
468
74
467
0
VERTEX
8
Form4
10
0.000000
20
0.000000
30
0.000000
70
128
71
466
72
251
73
252
74
468
0
VERTEX
8
Form4
10
0.000000
20
0.000000
30
0.000000
70
128
71
250
72
467
73
281
74
61
0
VERTEX
8
Form4
10
0.000000
20
0.000000
30
0.000000
70
128
71
467
72
468
73
282
74
281
0
VERTEX
8
Form4
10
0.000000
20
0.000000
30
0.000000
70
128
71
468
72
252
73
62
74
282
0
VERTEX
8
Form4
10
0.000000
20
0.000000
30
0.000000
70
128
71
46
72
219
73
469
74
251
0
VERTEX
8
Form4
10
0.000000
20
0.000000
30
0.000000
70
128
71
219
72
220
73
470
74
469
0
VERTEX
8
Form4
10
0.000000
20
0.000000
30
0.000000
70
128
71
220
72
47
73
253
74
470
0
VERTEX
8
Form4
10
0.000000
20
0.000000
30
0.000000
70
128
71
251
72
469
73
471
74
252
0
VERTEX
8
Form4
10
0.000000
20
0.000000
30
0.000000
70
128
71
469
72
470
73
472
74
471
0
VERTEX
8
Form4
10
0.000000
20
0.000000
30
0.000000
70
128
71
470
72
253
73
254
74
472
0
VERTEX
8
Form4
10
0.000000
20
0.000000
30
0.000000
70
128
71
252
72
471
73
283
74
62
0
VERTEX
8
Form4
10
0.000000
20
0.000000
30
0.000000
70
128
71
471
72
472
73
284
74
283
0
VERTEX
8
Form4
10
0.000000
20
0.000000
30
0.000000
70
128
71
472
72
254
73
63
74
284
0
VERTEX
8
Form4
10
0.000000
20
0.000000
30
0.000000
70
128
71
47
72
221
73
473
74
253
0
VERTEX
8
Form4
10
0.000000
20
0.000000
30
0.000000
70
128
71
221
72
222
73
474
74
473
0
VERTEX
8
Form4
10
0.000000
20
0.000000
30
0.000000
70
128
71
222
72
48
73
255
74
474
0
VERTEX
8
Form4
10
0.000000
20
0.000000
30
0.000000
70
128
71
253
72
473
73
475
74
254
0
VERTEX
8
Form4
10
0.000000
20
0.000000
30
0.000000
70
128
71
473
72
474
73
476
74
475
0
VERTEX
8
Form4
10
0.000000
20
0.000000
30
0.000000
70
128
71
474
72
255
73
256
74
476
0
VERTEX
8
Form4
10
0.000000
20
0.000000
30
0.000000
70
128
71
254
72
475
73
285
74
63
0
VERTEX
8
Form4
10
0.000000
20
0.000000
30
0.000000
70
128
71
475
72
476
73
286
74
285
0
VERTEX
8
Form4
10
0.000000
20
0.000000
30
0.000000
70
128
71
476
72
256
73
64
74
286
0
VERTEX
8
Form4
10
0.000000
20
0.000000
30
0.000000
70
128
71
489
72
507
73
477
74
511
0
VERTEX
8
Form4
10
0.000000
20
0.000000
30
0.000000
70
128
71
507
72
508
73
478
74
477
0
VERTEX
8
Form4
10
0.000000
20
0.000000
30
0.000000
70
128
71
508
72
487
73
509
74
478
0
VERTEX
8
Form4
10
0.000000
20
0.000000
30
0.000000
70
128
71
511
72
477
73
479
74
512
0
VERTEX
8
Form4
10
0.000000
20
0.000000
30
0.000000
70
128
71
477
72
478
73
480
74
479
0
VERTEX
8
Form4
10
0.000000
20
0.000000
30
0.000000
70
128
71
478
72
509
73
510
74
480
0
VERTEX
8
Form4
10
0.000000
20
0.000000
30
0.000000
70
128
71
512
72
479
73
287
74
492
0
VERTEX
8
Form4
10
0.000000
20
0.000000
30
0.000000
70
128
71
479
72
480
73
288
74
287
0
VERTEX
8
Form4
10
0.000000
20
0.000000
30
0.000000
70
128
71
480
72
510
73
491
74
288
0
VERTEX
8
Form4
10
0.000000
20
0.000000
30
0.000000
70
128
71
271
72
269
73
270
74
270
0
VERTEX
8
Form4
10
0.000000
20
0.000000
30
0.000000
70
128
71
271
72
270
73
56
74
56
0
VERTEX
8
Form4
10
0.000000
20
0.000000
30
0.000000
70
128
71
272
72
57
73
265
74
265
0
VERTEX
8
Form4
10
0.000000
20
0.000000
30
0.000000
70
128
71
269
72
272
73
55
74
55
0
VERTEX
8
Form4
10
0.000000
20
0.000000
30
0.000000
70
128
71
271
72
272
73
269
74
269
0
VERTEX
8
Form4
10
0.000000
20
0.000000
30
0.000000
70
128
71
515
72
53
73
57
74
57
0
VERTEX
8
Form4
10
0.000000
20
0.000000
30
0.000000
70
128
71
265
72
55
73
272
74
272
0
VERTEX
8
Form4
10
0.000000
20
0.000000
30
0.000000
70
128
71
55
72
265
73
266
74
266
0
VERTEX
8
Form4
10
0.000000
20
0.000000
30
0.000000
70
128
71
268
72
55
73
267
74
267
0
VERTEX
8
Form4
10
0.000000
20
0.000000
30
0.000000
70
128
71
267
72
55
73
266
74
266
0
VERTEX
8
Form4
10
0.000000
20
0.000000
30
0.000000
70
128
71
266
72
54
73
267
74
267
0
VERTEX
8
Form4
10
0.000000
20
0.000000
30
0.000000
70
128
71
265
72
57
73
53
74
53
0
VERTEX
8
Form4
10
0.000000
20
0.000000
30
0.000000
70
128
71
57
72
273
73
515
74
515
0
VERTEX
8
Form4
10
0.000000
20
0.000000
30
0.000000
70
128
71
58
72
61
73
274
74
274
0
VERTEX
8
Form4
10
0.000000
20
0.000000
30
0.000000
70
128
71
275
72
61
73
58
74
58
0
VERTEX
8
Form4
10
0.000000
20
0.000000
30
0.000000
70
128
71
276
72
59
73
277
74
277
0
VERTEX
8
Form4
10
0.000000
20
0.000000
30
0.000000
70
128
71
276
72
277
73
280
74
280
0
VERTEX
8
Form4
10
0.000000
20
0.000000
30
0.000000
70
128
71
276
72
280
73
275
74
275
0
VERTEX
8
Form4
10
0.000000
20
0.000000
30
0.000000
70
128
71
277
72
278
73
279
74
279
0
VERTEX
8
Form4
10
0.000000
20
0.000000
30
0.000000
70
128
71
279
72
280
73
277
74
277
0
VERTEX
8
Form4
10
0.000000
20
0.000000
30
0.000000
70
128
71
280
72
61
73
275
74
275
0
VERTEX
8
Form4
10
0.000000
20
0.000000
30
0.000000
70
128
71
273
72
281
73
515
74
515
0
VERTEX
8
Form4
10
0.000000
20
0.000000
30
0.000000
70
128
71
282
72
515
73
281
74
281
0
VERTEX
8
Form4
10
0.000000
20
0.000000
30
0.000000
70
128
71
274
72
61
73
281
74
281
0
VERTEX
8
Form4
10
0.000000
20
0.000000
30
0.000000
70
128
71
279
72
278
73
60
74
60
0
VERTEX
8
Form4
10
0.000000
20
0.000000
30
0.000000
70
128
71
281
72
273
73
274
74
274
0
VERTEX
8
Form4
10
0.000000
20
0.000000
30
0.000000
70
128
71
284
72
516
73
283
74
283
0
VERTEX
8
Form4
10
0.000000
20
0.000000
30
0.000000
70
128
71
516
72
62
73
283
74
283
0
VERTEX
8
Form4
10
0.000000
20
0.000000
30
0.000000
70
128
71
62
72
516
73
515
74
515
0
VERTEX
8
Form4
10
0.000000
20
0.000000
30
0.000000
70
128
71
264
72
516
73
263
74
263
0
VERTEX
8
Form4
10
0.000000
20
0.000000
30
0.000000
70
128
71
516
72
264
73
53
74
53
0
VERTEX
8
Form4
10
0.000000
20
0.000000
30
0.000000
70
128
71
517
72
516
73
63
74
63
0
VERTEX
8
Form4
10
0.000000
20
0.000000
30
0.000000
70
128
71
516
72
517
73
263
74
263
0
VERTEX
8
Form4
10
0.000000
20
0.000000
30
0.000000
70
128
71
284
72
63
73
516
74
516
0
VERTEX
8
Form4
10
0.000000
20
0.000000
30
0.000000
70
128
71
262
72
52
73
63
74
63
0
VERTEX
8
Form4
10
0.000000
20
0.000000
30
0.000000
70
128
71
261
72
63
73
51
74
51
0
VERTEX
8
Form4
10
0.000000
20
0.000000
30
0.000000
70
128
71
262
72
63
73
261
74
261
0
VERTEX
8
Form4
10
0.000000
20
0.000000
30
0.000000
70
128
71
63
72
52
73
517
74
517
0
VERTEX
8
Form4
10
0.000000
20
0.000000
30
0.000000
70
128
71
259
72
260
73
63
74
63
0
VERTEX
8
Form4
10
0.000000
20
0.000000
30
0.000000
70
128
71
518
72
63
73
285
74
285
0
VERTEX
8
Form4
10
0.000000
20
0.000000
30
0.000000
70
128
71
63
72
518
73
259
74
259
0
VERTEX
8
Form4
10
0.000000
20
0.000000
30
0.000000
70
128
71
260
72
51
73
63
74
63
0
VERTEX
8
Form4
10
0.000000
20
0.000000
30
0.000000
70
128
71
258
72
50
73
285
74
285
0
VERTEX
8
Form4
10
0.000000
20
0.000000
30
0.000000
70
128
71
258
72
285
73
257
74
257
0
VERTEX
8
Form4
10
0.000000
20
0.000000
30
0.000000
70
128
71
49
72
257
73
514
74
514
0
VERTEX
8
Form4
10
0.000000
20
0.000000
30
0.000000
70
128
71
518
72
285
73
50
74
50
0
VERTEX
8
Form4
10
0.000000
20
0.000000
30
0.000000
70
128
71
286
72
514
73
257
74
257
0
VERTEX
8
Form4
10
0.000000
20
0.000000
30
0.000000
70
128
71
513
72
514
73
286
74
286
0
VERTEX
8
Form4
10
0.000000
20
0.000000
30
0.000000
70
128
71
64
72
513
73
286
74
286
0
VERTEX
8
Form4
10
0.000000
20
0.000000
30
0.000000
70
128
71
286
72
257
73
285
74
285
0
VERTEX
8
Form4
10
0.000000
20
0.000000
30
0.000000
70
128
71
494
72
94
73
65
74
65
0
VERTEX
8
Form4
10
0.000000
20
0.000000
30
0.000000
70
128
71
493
72
482
73
94
74
94
0
VERTEX
8
Form4
10
0.000000
20
0.000000
30
0.000000
70
128
71
494
72
493
73
94
74
94
0
VERTEX
8
Form4
10
0.000000
20
0.000000
30
0.000000
70
128
71
94
72
93
73
65
74
65
0
VERTEX
8
Form4
10
0.000000
20
0.000000
30
0.000000
70
128
71
2
72
66
73
93
74
93
0
VERTEX
8
Form4
10
0.000000
20
0.000000
30
0.000000
70
128
71
481
72
494
73
65
74
65
0
VERTEX
8
Form4
10
0.000000
20
0.000000
30
0.000000
70
128
71
65
72
93
73
66
74
66
0
VERTEX
8
Form4
10
0.000000
20
0.000000
30
0.000000
70
128
71
519
72
2
73
93
74
93
0
VERTEX
8
Form4
10
0.000000
20
0.000000
30
0.000000
70
128
71
68
72
67
73
15
74
15
0
VERTEX
8
Form4
10
0.000000
20
0.000000
30
0.000000
70
128
71
15
72
519
73
93
74
93
0
VERTEX
8
Form4
10
0.000000
20
0.000000
30
0.000000
70
128
71
519
72
15
73
67
74
67
0
VERTEX
8
Form4
10
0.000000
20
0.000000
30
0.000000
70
128
71
68
72
15
73
3
74
3
0
VERTEX
8
Form4
10
0.000000
20
0.000000
30
0.000000
70
128
71
4
72
70
73
15
74
15
0
VERTEX
8
Form4
10
0.000000
20
0.000000
30
0.000000
70
128
71
15
72
69
73
3
74
3
0
VERTEX
8
Form4
10
0.000000
20
0.000000
30
0.000000
70
128
71
15
72
70
73
69
74
69
0
VERTEX
8
Form4
10
0.000000
20
0.000000
30
0.000000
70
128
71
15
72
520
73
4
74
4
0
VERTEX
8
Form4
10
0.000000
20
0.000000
30
0.000000
70
128
71
87
72
12
73
86
74
86
0
VERTEX
8
Form4
10
0.000000
20
0.000000
30
0.000000
70
128
71
87
72
86
73
85
74
85
0
VERTEX
8
Form4
10
0.000000
20
0.000000
30
0.000000
70
128
71
85
72
84
73
88
74
88
0
VERTEX
8
Form4
10
0.000000
20
0.000000
30
0.000000
70
128
71
85
72
11
73
84
74
84
0
VERTEX
8
Form4
10
0.000000
20
0.000000
30
0.000000
70
128
71
88
72
87
73
85
74
85
0
VERTEX
8
Form4
10
0.000000
20
0.000000
30
0.000000
70
128
71
88
72
84
73
83
74
83
0
VERTEX
8
Form4
10
0.000000
20
0.000000
30
0.000000
70
128
71
89
72
13
73
82
74
82
0
VERTEX
8
Form4
10
0.000000
20
0.000000
30
0.000000
70
128
71
13
72
88
73
83
74
83
0
VERTEX
8
Form4
10
0.000000
20
0.000000
30
0.000000
70
128
71
90
72
9
73
14
74
14
0
VERTEX
8
Form4
10
0.000000
20
0.000000
30
0.000000
70
128
71
89
72
81
73
90
74
90
0
VERTEX
8
Form4
10
0.000000
20
0.000000
30
0.000000
70
128
71
14
72
521
73
91
74
91
0
VERTEX
8
Form4
10
0.000000
20
0.000000
30
0.000000
70
128
71
91
72
521
73
92
74
92
0
VERTEX
8
Form4
10
0.000000
20
0.000000
30
0.000000
70
128
71
10
72
13
73
83
74
83
0
VERTEX
8
Form4
10
0.000000
20
0.000000
30
0.000000
70
128
71
82
72
81
73
89
74
89
0
VERTEX
8
Form4
10
0.000000
20
0.000000
30
0.000000
70
128
71
90
72
81
73
9
74
9
0
VERTEX
8
Form4
10
0.000000
20
0.000000
30
0.000000
70
128
71
521
72
9
73
80
74
80
0
VERTEX
8
Form4
10
0.000000
20
0.000000
30
0.000000
70
128
71
80
72
79
73
77
74
77
0
VERTEX
8
Form4
10
0.000000
20
0.000000
30
0.000000
70
128
71
14
72
9
73
521
74
521
0
VERTEX
8
Form4
10
0.000000
20
0.000000
30
0.000000
70
128
71
79
72
8
73
78
74
78
0
VERTEX
8
Form4
10
0.000000
20
0.000000
30
0.000000
70
128
71
77
72
7
73
80
74
80
0
VERTEX
8
Form4
10
0.000000
20
0.000000
30
0.000000
70
128
71
7
72
521
73
80
74
80
0
VERTEX
8
Form4
10
0.000000
20
0.000000
30
0.000000
70
128
71
76
72
75
73
7
74
7
0
VERTEX
8
Form4
10
0.000000
20
0.000000
30
0.000000
70
128
71
75
72
6
73
521
74
521
0
VERTEX
8
Form4
10
0.000000
20
0.000000
30
0.000000
70
128
71
74
72
521
73
6
74
6
0
VERTEX
8
Form4
10
0.000000
20
0.000000
30
0.000000
70
128
71
75
72
521
73
7
74
7
0
VERTEX
8
Form4
10
0.000000
20
0.000000
30
0.000000
70
128
71
77
72
79
73
78
74
78
0
VERTEX
8
Form4
10
0.000000
20
0.000000
30
0.000000
70
128
71
82
72
13
73
10
74
10
0
VERTEX
8
Form4
10
0.000000
20
0.000000
30
0.000000
70
128
71
522
72
521
73
73
74
5
0
VERTEX
8
Form4
10
0.000000
20
0.000000
30
0.000000
70
128
71
92
72
522
73
15
74
15
0
VERTEX
8
Form4
10
0.000000
20
0.000000
30
0.000000
70
128
71
15
72
522
73
520
74
520
0
VERTEX
8
Form4
10
0.000000
20
0.000000
30
0.000000
70
128
71
71
72
522
73
72
74
72
0
VERTEX
8
Form4
10
0.000000
20
0.000000
30
0.000000
70
128
71
520
72
522
73
71
74
71
0
VERTEX
8
Form4
10
0.000000
20
0.000000
30
0.000000
70
128
71
72
72
522
73
5
74
5
0
SEQEND
8
Form4
0
ENDSEC
0
EOF
