999
***** Fichier AutoCAD DXF créé parAmapi
0
SECTION
2
ENTITIES
0
POLYLINE
8
Form4
66
1
10
0.000000
20
0.000000
30
0.000000
70
64
71
564
72
633
0
VERTEX
8
Form4
10
-1.885027
20
23.466768
30
7.874016
70
192
0
VERTEX
8
Form4
10
7.391574
20
3.156095
30
6.299212
70
192
0
VERTEX
8
Form4
10
8.783709
20
-2.583171
30
6.299212
70
192
0
VERTEX
8
Form4
10
9.231287
20
-6.250656
30
6.299212
70
192
0
VERTEX
8
Form4
10
9.330088
20
-8.936128
30
7.086614
70
192
0
VERTEX
8
Form4
10
9.219345
20
-12.588684
30
7.874016
70
192
0
VERTEX
8
Form4
10
8.123605
20
-16.078112
30
7.874016
70
192
0
VERTEX
8
Form4
10
4.569848
20
-20.985189
30
7.874016
70
192
0
VERTEX
8
Form4
10
-1.404471
20
-23.812887
30
7.874016
70
192
0
VERTEX
8
Form4
10
-8.416173
20
-25.199051
30
7.874016
70
192
0
VERTEX
8
Form4
10
-13.948884
20
-24.606260
30
7.874016
70
192
0
VERTEX
8
Form4
10
-18.691208
20
-21.247116
30
7.874016
70
192
0
VERTEX
8
Form4
10
-21.062370
20
-15.121613
30
7.086614
70
192
0
VERTEX
8
Form4
10
-20.963570
20
-6.526150
30
6.299212
70
192
0
VERTEX
8
Form4
10
-17.802023
20
2.760900
30
6.299212
70
192
0
VERTEX
8
Form4
10
-11.478924
20
23.466768
30
7.874016
70
192
0
VERTEX
8
Form4
10
5.118110
20
23.622047
30
0.000000
70
192
0
VERTEX
8
Form4
10
14.330709
20
8.818897
30
-0.787402
70
192
0
VERTEX
8
Form4
10
20.314960
20
-4.094489
30
-1.574803
70
192
0
VERTEX
8
Form4
10
22.283464
20
-14.960629
30
-1.574803
70
192
0
VERTEX
8
Form4
10
22.440945
20
-26.771654
30
0.000000
70
192
0
VERTEX
8
Form4
10
17.244095
20
-31.338583
30
0.000000
70
192
0
VERTEX
8
Form4
10
11.732284
20
-29.370079
30
0.000000
70
192
0
VERTEX
8
Form4
10
7.322834
20
-23.385826
30
0.000000
70
192
0
VERTEX
8
Form4
10
-0.944882
20
-32.913387
30
0.000000
70
192
0
VERTEX
8
Form4
10
-10.866142
20
-36.377953
30
0.000000
70
192
0
VERTEX
8
Form4
10
-19.685040
20
-35.433071
30
0.000000
70
192
0
VERTEX
8
Form4
10
-27.244095
20
-30.078741
30
0.000000
70
192
0
VERTEX
8
Form4
10
-31.023623
20
-20.314960
30
-1.574803
70
192
0
VERTEX
8
Form4
10
-30.866142
20
-6.614173
30
-1.574803
70
192
0
VERTEX
8
Form4
10
-25.826773
20
8.188976
30
-0.787402
70
192
0
VERTEX
8
Form4
10
-18.897638
20
23.622047
30
0.000000
70
192
0
VERTEX
8
Form4
10
5.118110
20
23.622047
30
-7.874016
70
192
0
VERTEX
8
Form4
10
14.330709
20
8.818897
30
-8.661417
70
192
0
VERTEX
8
Form4
10
20.314960
20
-4.094489
30
-9.448819
70
192
0
VERTEX
8
Form4
10
22.283464
20
-14.960629
30
-9.448819
70
192
0
VERTEX
8
Form4
10
22.440945
20
-26.771654
30
-7.874016
70
192
0
VERTEX
8
Form4
10
17.244095
20
-31.338583
30
-7.874016
70
192
0
VERTEX
8
Form4
10
11.732284
20
-29.370079
30
-7.874016
70
192
0
VERTEX
8
Form4
10
7.322834
20
-23.385826
30
-7.874016
70
192
0
VERTEX
8
Form4
10
-0.944882
20
-32.913387
30
-7.874016
70
192
0
VERTEX
8
Form4
10
-10.866142
20
-36.377953
30
-7.874016
70
192
0
VERTEX
8
Form4
10
-19.685040
20
-35.433071
30
-7.874016
70
192
0
VERTEX
8
Form4
10
-27.244095
20
-30.078741
30
-7.874016
70
192
0
VERTEX
8
Form4
10
-31.023623
20
-20.314960
30
-9.448819
70
192
0
VERTEX
8
Form4
10
-30.866142
20
-6.614173
30
-9.448819
70
192
0
VERTEX
8
Form4
10
-25.826773
20
8.188976
30
-8.661417
70
192
0
VERTEX
8
Form4
10
-18.503937
20
23.622047
30
-7.874016
70
192
0
VERTEX
8
Form4
10
-1.491326
20
23.466768
30
-15.748032
70
192
0
VERTEX
8
Form4
10
7.391574
20
3.156095
30
-17.322834
70
192
0
VERTEX
8
Form4
10
8.783709
20
-2.583171
30
-18.897638
70
192
0
VERTEX
8
Form4
10
9.231287
20
-6.250656
30
-18.897638
70
192
0
VERTEX
8
Form4
10
9.330088
20
-8.936128
30
-18.897638
70
192
0
VERTEX
8
Form4
10
9.219345
20
-12.588684
30
-18.897638
70
192
0
VERTEX
8
Form4
10
8.123605
20
-16.078112
30
-18.110237
70
192
0
VERTEX
8
Form4
10
4.569848
20
-20.985189
30
-17.322834
70
192
0
VERTEX
8
Form4
10
-1.404471
20
-23.812887
30
-17.322834
70
192
0
VERTEX
8
Form4
10
-8.416173
20
-25.199051
30
-17.322834
70
192
0
VERTEX
8
Form4
10
-13.948884
20
-24.606260
30
-17.322834
70
192
0
VERTEX
8
Form4
10
-18.691208
20
-21.247116
30
-17.322834
70
192
0
VERTEX
8
Form4
10
-21.062370
20
-15.121613
30
-18.110237
70
192
0
VERTEX
8
Form4
10
-20.963570
20
-6.526150
30
-18.897638
70
192
0
VERTEX
8
Form4
10
-17.802023
20
2.760900
30
-18.110237
70
192
0
VERTEX
8
Form4
10
-11.478924
20
23.466768
30
-15.748032
70
192
0
VERTEX
8
Form4
10
9.195093
20
-5.954078
30
6.299212
70
192
0
VERTEX
8
Form4
10
-3.663093
20
-8.192781
30
-20.915352
70
192
0
VERTEX
8
Form4
10
1.351138
20
16.762074
30
7.291207
70
192
0
VERTEX
8
Form4
10
4.587303
20
10.057380
30
6.708400
70
192
0
VERTEX
8
Form4
10
10.111440
20
5.301790
30
4.499964
70
192
0
VERTEX
8
Form4
10
12.541305
20
7.321672
30
2.271185
70
192
0
VERTEX
8
Form4
10
11.396011
20
13.834422
30
-0.511475
70
192
0
VERTEX
8
Form4
10
8.257061
20
18.728235
30
-0.255738
70
192
0
VERTEX
8
Form4
10
2.783731
20
23.570286
30
2.624672
70
192
0
VERTEX
8
Form4
10
0.449352
20
23.518528
30
5.249344
70
192
0
VERTEX
8
Form4
10
7.960862
20
1.270473
30
6.268197
70
192
0
VERTEX
8
Form4
10
8.409582
20
-0.647876
30
6.283705
70
192
0
VERTEX
8
Form4
10
12.678094
20
-1.114347
30
4.097678
70
192
0
VERTEX
8
Form4
10
17.007645
20
-2.671406
30
1.850422
70
192
0
VERTEX
8
Form4
10
18.625610
20
0.345880
30
-1.364718
70
192
0
VERTEX
8
Form4
10
16.565834
20
4.624197
30
-1.068267
70
192
0
VERTEX
8
Form4
10
8.920836
20
-3.706807
30
6.299212
70
192
0
VERTEX
8
Form4
10
9.057964
20
-4.830442
30
6.299212
70
192
0
VERTEX
8
Form4
10
9.207157
20
-6.052938
30
6.299212
70
192
0
VERTEX
8
Form4
10
9.219222
20
-6.151796
30
6.299212
70
192
0
VERTEX
8
Form4
10
12.777336
20
-11.827454
30
4.496775
70
192
0
VERTEX
8
Form4
10
17.217018
20
-15.884161
30
1.985603
70
192
0
VERTEX
8
Form4
10
23.828924
20
-11.496704
30
-3.072088
70
192
0
VERTEX
8
Form4
10
22.718281
20
-7.533206
30
-2.808774
70
192
0
VERTEX
8
Form4
10
9.289304
20
-7.157322
30
6.511555
70
192
0
VERTEX
8
Form4
10
9.319792
20
-8.043368
30
6.809922
70
192
0
VERTEX
8
Form4
10
14.158733
20
-15.315851
30
6.102790
70
192
0
VERTEX
8
Form4
10
18.758949
20
-21.668310
30
4.571854
70
192
0
VERTEX
8
Form4
10
23.238873
20
-22.902521
30
-0.484405
70
192
0
VERTEX
8
Form4
10
22.871506
20
-18.937912
30
-1.116352
70
192
0
VERTEX
8
Form4
10
9.349557
20
-10.146728
30
7.397361
70
192
0
VERTEX
8
Form4
10
9.342064
20
-11.363411
30
7.678442
70
192
0
VERTEX
8
Form4
10
12.189335
20
-19.431969
30
6.579567
70
192
0
VERTEX
8
Form4
10
15.015806
20
-26.084105
30
4.610615
70
192
0
VERTEX
8
Form4
10
19.454115
20
-30.437191
30
0.039172
70
192
0
VERTEX
8
Form4
10
21.196850
20
-28.831169
30
0.078344
70
192
0
VERTEX
8
Form4
10
8.966461
20
-13.784720
30
7.932374
70
192
0
VERTEX
8
Form4
10
8.606897
20
-14.953624
30
7.903195
70
192
0
VERTEX
8
Form4
10
9.434343
20
-21.042538
30
6.052635
70
192
0
VERTEX
8
Form4
10
10.735713
20
-25.767647
30
3.786567
70
192
0
VERTEX
8
Form4
10
13.415138
20
-30.496843
30
0.000000
70
192
0
VERTEX
8
Form4
10
15.255894
20
-31.267666
30
0.000000
70
192
0
VERTEX
8
Form4
10
7.147462
20
-17.866343
30
7.874015
70
192
0
VERTEX
8
Form4
10
5.989930
20
-19.534063
30
7.874016
70
192
0
VERTEX
8
Form4
10
5.811418
20
-22.427000
30
5.710377
70
192
0
VERTEX
8
Form4
10
6.567126
20
-22.906412
30
2.855188
70
192
0
VERTEX
8
Form4
10
8.667584
20
-25.487972
30
0.000000
70
192
0
VERTEX
8
Form4
10
10.012333
20
-27.590122
30
0.000000
70
192
0
VERTEX
8
Form4
10
2.722383
20
-22.199888
30
7.874015
70
192
0
VERTEX
8
Form4
10
0.695255
20
-23.089638
30
7.874016
70
192
0
VERTEX
8
Form4
10
-1.123071
20
-27.371344
30
5.835597
70
192
0
VERTEX
8
Form4
10
-1.012322
20
-30.571152
30
3.317474
70
192
0
VERTEX
8
Form4
10
2.159227
20
-30.082005
30
0.000000
70
192
0
VERTEX
8
Form4
10
4.741031
20
-26.733913
30
0.000000
70
192
0
VERTEX
8
Form4
10
-3.699795
20
-24.481691
30
7.874015
70
192
0
VERTEX
8
Form4
10
-6.039145
20
-24.959084
30
7.874016
70
192
0
VERTEX
8
Form4
10
-9.301863
20
-29.491449
30
6.005348
70
192
0
VERTEX
8
Form4
10
-10.193071
20
-33.432369
30
3.577197
70
192
0
VERTEX
8
Form4
10
-7.383444
20
-35.743927
30
0.000000
70
192
0
VERTEX
8
Form4
10
-4.044636
20
-34.610378
30
0.000000
70
192
0
VERTEX
8
Form4
10
-10.286977
20
-25.230188
30
7.874015
70
192
0
VERTEX
8
Form4
10
-12.144888
20
-25.074623
30
7.874016
70
192
0
VERTEX
8
Form4
10
-16.119387
20
-28.735844
30
6.067251
70
192
0
VERTEX
8
Form4
10
-18.152819
20
-32.557468
30
3.671583
70
192
0
VERTEX
8
Form4
10
-16.810190
20
-36.226471
30
0.000000
70
192
0
VERTEX
8
Form4
10
-13.849399
20
-36.521301
30
0.000000
70
192
0
VERTEX
8
Form4
10
-15.726504
20
-23.772112
30
7.901418
70
192
0
VERTEX
8
Form4
10
-17.330193
20
-22.655756
30
7.928822
70
192
0
VERTEX
8
Form4
10
-21.979731
20
-24.566721
30
6.056426
70
192
0
VERTEX
8
Form4
10
-24.985222
20
-27.708206
30
3.669484
70
192
0
VERTEX
8
Form4
10
-25.074587
20
-32.322807
30
0.109317
70
192
0
VERTEX
8
Form4
10
-22.518435
20
-34.102852
30
0.054659
70
192
0
VERTEX
8
Form4
10
-19.834192
20
-19.354527
30
7.660418
70
192
0
VERTEX
8
Form4
10
-20.580709
20
-17.283176
30
7.365424
70
192
0
VERTEX
8
Form4
10
-24.976315
20
-17.045904
30
4.952447
70
192
0
VERTEX
8
Form4
10
-28.456738
20
-18.918571
30
2.217326
70
192
0
VERTEX
8
Form4
10
-30.256842
20
-23.771639
30
-1.108629
70
192
0
VERTEX
8
Form4
10
-29.069530
20
-27.064899
30
-0.473045
70
192
0
VERTEX
8
Form4
10
-21.373610
20
-12.264362
30
6.774104
70
192
0
VERTEX
8
Form4
10
-21.320938
20
-9.390879
30
6.493814
70
192
0
VERTEX
8
Form4
10
-24.800209
20
-6.517516
30
4.303379
70
192
0
VERTEX
8
Form4
10
-28.290710
20
-6.569911
30
1.821679
70
192
0
VERTEX
8
Form4
10
-31.432802
20
-11.172725
30
-1.704724
70
192
0
VERTEX
8
Form4
10
-31.517063
20
-15.756451
30
-1.756590
70
192
0
VERTEX
8
Form4
10
-20.119608
20
-3.369155
30
6.205167
70
192
0
VERTEX
8
Form4
10
-18.944328
20
-0.309287
30
6.212603
70
192
0
VERTEX
8
Form4
10
-21.104813
20
4.667911
30
4.726394
70
192
0
VERTEX
8
Form4
10
-23.828875
20
6.674038
30
2.439473
70
192
0
VERTEX
8
Form4
10
-27.785410
20
3.344260
30
-1.074246
70
192
0
VERTEX
8
Form4
10
-29.590088
20
-1.554558
30
-1.367416
70
192
0
VERTEX
8
Form4
10
-15.643362
20
9.654832
30
6.707632
70
192
0
VERTEX
8
Form4
10
-13.561142
20
16.560801
30
7.290824
70
192
0
VERTEX
8
Form4
10
-13.951828
20
23.518526
30
5.249344
70
192
0
VERTEX
8
Form4
10
-16.424734
20
23.570288
30
2.624672
70
192
0
VERTEX
8
Form4
10
-21.261343
20
18.501047
30
-0.259986
70
192
0
VERTEX
8
Form4
10
-23.625051
20
13.380049
30
-0.519972
70
192
0
VERTEX
8
Form4
10
-8.280957
20
23.466766
30
7.874015
70
192
0
VERTEX
8
Form4
10
-5.082992
20
23.466766
30
7.874016
70
192
0
VERTEX
8
Form4
10
-2.887139
20
23.622046
30
0.000000
70
192
0
VERTEX
8
Form4
10
-10.892389
20
23.622047
30
0.000000
70
192
0
VERTEX
8
Form4
10
14.928801
20
9.306979
30
-3.374865
70
192
0
VERTEX
8
Form4
10
14.905317
20
9.287816
30
-6.054290
70
192
0
VERTEX
8
Form4
10
11.396011
20
13.834422
30
-8.385489
70
192
0
VERTEX
8
Form4
10
8.257061
20
18.728235
30
-8.129753
70
192
0
VERTEX
8
Form4
10
5.118110
20
23.622046
30
-5.249344
70
192
0
VERTEX
8
Form4
10
5.118110
20
23.622047
30
-2.624672
70
192
0
VERTEX
8
Form4
10
21.151875
20
-4.204177
30
-4.156981
70
192
0
VERTEX
8
Form4
10
21.125259
20
-4.200688
30
-6.847528
70
192
0
VERTEX
8
Form4
10
18.625610
20
0.345880
30
-9.238733
70
192
0
VERTEX
8
Form4
10
16.565834
20
4.624197
30
-8.942284
70
192
0
VERTEX
8
Form4
10
23.089212
20
-15.498321
30
-4.145944
70
192
0
VERTEX
8
Form4
10
23.069160
20
-15.484940
30
-6.857907
70
192
0
VERTEX
8
Form4
10
21.862911
20
-11.297037
30
-9.580718
70
192
0
VERTEX
8
Form4
10
21.241844
20
-7.662757
30
-9.549093
70
192
0
VERTEX
8
Form4
10
23.088156
20
-27.652098
30
-2.547824
70
192
0
VERTEX
8
Form4
10
23.059412
20
-27.612995
30
-5.281740
70
192
0
VERTEX
8
Form4
10
23.238873
20
-22.902521
30
-8.358421
70
192
0
VERTEX
8
Form4
10
22.871506
20
-18.937912
30
-8.990368
70
192
0
VERTEX
8
Form4
10
17.655092
20
-32.298882
30
-2.556849
70
192
0
VERTEX
8
Form4
10
17.639261
20
-32.261890
30
-5.281830
70
192
0
VERTEX
8
Form4
10
19.454115
20
-30.437191
30
-7.834843
70
192
0
VERTEX
8
Form4
10
21.196850
20
-28.831169
30
-7.795671
70
192
0
VERTEX
8
Form4
10
11.969275
20
-30.242996
30
-2.573028
70
192
0
VERTEX
8
Form4
10
11.959534
20
-30.207119
30
-5.272755
70
192
0
VERTEX
8
Form4
10
13.415138
20
-30.496843
30
-7.874015
70
192
0
VERTEX
8
Form4
10
15.255894
20
-31.267666
30
-7.874016
70
192
0
VERTEX
8
Form4
10
7.595835
20
-23.623886
30
-2.615797
70
192
0
VERTEX
8
Form4
10
7.581300
20
-23.611210
30
-5.252389
70
192
0
VERTEX
8
Form4
10
8.667584
20
-25.487972
30
-7.874015
70
192
0
VERTEX
8
Form4
10
10.012333
20
-27.590122
30
-7.874016
70
192
0
VERTEX
8
Form4
10
-0.907816
20
-33.647343
30
-2.591286
70
192
0
VERTEX
8
Form4
10
-0.909210
20
-33.619747
30
-5.265647
70
192
0
VERTEX
8
Form4
10
2.159227
20
-30.082005
30
-7.874015
70
192
0
VERTEX
8
Form4
10
4.741031
20
-26.733913
30
-7.874016
70
192
0
VERTEX
8
Form4
10
-11.045329
20
-37.195564
30
-2.582783
70
192
0
VERTEX
8
Form4
10
-11.039562
20
-37.169247
30
-5.272212
70
192
0
VERTEX
8
Form4
10
-7.383444
20
-35.743927
30
-7.874015
70
192
0
VERTEX
8
Form4
10
-4.044636
20
-34.610378
30
-7.874016
70
192
0
VERTEX
8
Form4
10
-20.090809
20
-36.198948
30
-2.580215
70
192
0
VERTEX
8
Form4
10
-20.078409
20
-36.175545
30
-5.274421
70
192
0
VERTEX
8
Form4
10
-16.810190
20
-36.226471
30
-7.874015
70
192
0
VERTEX
8
Form4
10
-13.849399
20
-36.521301
30
-7.874016
70
192
0
VERTEX
8
Form4
10
-27.848082
20
-30.702414
30
-2.580086
70
192
0
VERTEX
8
Form4
10
-27.829674
20
-30.683403
30
-5.274533
70
192
0
VERTEX
8
Form4
10
-25.074587
20
-32.322807
30
-7.764698
70
192
0
VERTEX
8
Form4
10
-22.518435
20
-34.102852
30
-7.819357
70
192
0
VERTEX
8
Form4
10
-31.745275
20
-20.691198
30
-4.167931
70
192
0
VERTEX
8
Form4
10
-31.745277
20
-20.691200
30
-6.855691
70
192
0
VERTEX
8
Form4
10
-30.256842
20
-23.771639
30
-8.982644
70
192
0
VERTEX
8
Form4
10
-29.069530
20
-27.064899
30
-8.347061
70
192
0
VERTEX
8
Form4
10
-31.638655
20
-6.621039
30
-4.163019
70
192
0
VERTEX
8
Form4
10
-31.611120
20
-6.620794
30
-6.842692
70
192
0
VERTEX
8
Form4
10
-31.432802
20
-11.172725
30
-9.578740
70
192
0
VERTEX
8
Form4
10
-31.517063
20
-15.756451
30
-9.630606
70
192
0
VERTEX
8
Form4
10
-26.484411
20
8.633813
30
-3.369151
70
192
0
VERTEX
8
Form4
10
-26.448599
20
8.609591
30
-6.051042
70
192
0
VERTEX
8
Form4
10
-27.808290
20
3.352700
30
-8.947833
70
192
0
VERTEX
8
Form4
10
-29.601528
20
-1.550338
30
-9.241217
70
192
0
VERTEX
8
Form4
10
-18.766405
20
23.622046
30
-2.624672
70
192
0
VERTEX
8
Form4
10
-18.635170
20
23.622047
30
-5.249344
70
192
0
VERTEX
8
Form4
10
-21.011072
20
18.507793
30
-8.133643
70
192
0
VERTEX
8
Form4
10
-23.518211
20
13.393542
30
-8.393271
70
192
0
VERTEX
8
Form4
10
-2.755906
20
23.622046
30
-7.874015
70
192
0
VERTEX
8
Form4
10
-10.629921
20
23.622047
30
-7.874016
70
192
0
VERTEX
8
Form4
10
12.555526
20
7.440304
30
-12.228375
70
192
0
VERTEX
8
Form4
10
10.110391
20
5.514986
30
-15.065719
70
192
0
VERTEX
8
Form4
10
4.700861
20
10.005380
30
-16.483702
70
192
0
VERTEX
8
Form4
10
1.604768
20
16.736074
30
-16.115868
70
192
0
VERTEX
8
Form4
10
0.711819
20
23.518526
30
-13.123358
70
192
0
VERTEX
8
Form4
10
2.914965
20
23.570288
30
-10.498688
70
192
0
VERTEX
8
Form4
10
17.357954
20
-3.384609
30
-13.527994
70
192
0
VERTEX
8
Form4
10
13.329817
20
-2.534344
30
-16.546881
70
192
0
VERTEX
8
Form4
10
8.406186
20
-0.631862
30
-18.446194
70
192
0
VERTEX
8
Form4
10
7.959895
20
1.262857
30
-17.822468
70
192
0
VERTEX
8
Form4
10
19.003143
20
-12.160966
30
-13.913458
70
192
0
VERTEX
8
Form4
10
14.603391
20
-8.614288
30
-16.689039
70
192
0
VERTEX
8
Form4
10
9.120452
20
-5.022323
30
-18.933437
70
192
0
VERTEX
8
Form4
10
8.975067
20
-3.797836
30
-18.969238
70
192
0
VERTEX
8
Form4
10
19.423027
20
-21.296486
30
-13.460847
70
192
0
VERTEX
8
Form4
10
15.343659
20
-14.377359
30
-16.446882
70
192
0
VERTEX
8
Form4
10
9.318923
20
-8.040192
30
-18.897636
70
192
0
VERTEX
8
Form4
10
9.287733
20
-7.144825
30
-18.897638
70
192
0
VERTEX
8
Form4
10
15.688299
20
-25.854511
30
-13.290133
70
192
0
VERTEX
8
Form4
10
13.466102
20
-18.813379
30
-16.395042
70
192
0
VERTEX
8
Form4
10
9.338392
20
-11.377624
30
-18.955898
70
192
0
VERTEX
8
Form4
10
9.347857
20
-10.157173
30
-18.926767
70
192
0
VERTEX
8
Form4
10
11.213341
20
-25.702957
30
-12.362344
70
192
0
VERTEX
8
Form4
10
10.366508
20
-20.828104
30
-15.526560
70
192
0
VERTEX
8
Form4
10
8.609214
20
-14.956331
30
-18.380524
70
192
0
VERTEX
8
Form4
10
8.967335
20
-13.795488
30
-18.681833
70
192
0
VERTEX
8
Form4
10
6.562953
20
-22.885874
30
-11.196888
70
192
0
VERTEX
8
Form4
10
5.803071
20
-22.385923
30
-14.519762
70
192
0
VERTEX
8
Form4
10
5.996392
20
-19.527855
30
-17.509962
70
192
0
VERTEX
8
Form4
10
7.151935
20
-17.859024
30
-17.780046
70
192
0
VERTEX
8
Form4
10
-1.011580
20
-30.659897
30
-11.706511
70
192
0
VERTEX
8
Form4
10
-1.123265
20
-27.515629
30
-14.831711
70
192
0
VERTEX
8
Form4
10
0.695399
20
-23.088825
30
-17.289648
70
192
0
VERTEX
8
Form4
10
2.722671
20
-22.198265
30
-17.256464
70
192
0
VERTEX
8
Form4
10
-10.267062
20
-33.494942
30
-11.931198
70
192
0
VERTEX
8
Form4
10
-9.439535
20
-29.569559
30
-14.955310
70
192
0
VERTEX
8
Form4
10
-6.039145
20
-24.959082
30
-17.322834
70
192
0
VERTEX
8
Form4
10
-3.699795
20
-24.481693
30
-17.322834
70
192
0
VERTEX
8
Form4
10
-18.233025
20
-32.601307
30
-12.017515
70
192
0
VERTEX
8
Form4
10
-16.254925
20
-28.776573
30
-15.008295
70
192
0
VERTEX
8
Form4
10
-12.144887
20
-25.074621
30
-17.322834
70
192
0
VERTEX
8
Form4
10
-10.286977
20
-25.230188
30
-17.322834
70
192
0
VERTEX
8
Form4
10
-25.059015
20
-27.749355
30
-12.023880
70
192
0
VERTEX
8
Form4
10
-22.090183
20
-24.610678
30
-15.014759
70
192
0
VERTEX
8
Form4
10
-17.330193
20
-22.655754
30
-17.268028
70
192
0
VERTEX
8
Form4
10
-15.726505
20
-23.772112
30
-17.295431
70
192
0
VERTEX
8
Form4
10
-28.470049
20
-18.921133
30
-13.262987
70
192
0
VERTEX
8
Form4
10
-25.002937
20
-17.051025
30
-16.020147
70
192
0
VERTEX
8
Form4
10
-20.580708
20
-17.283176
30
-17.831425
70
192
0
VERTEX
8
Form4
10
-19.834192
20
-19.354527
30
-17.536430
70
192
0
VERTEX
8
Form4
10
-28.408638
20
-6.535134
30
-13.398183
70
192
0
VERTEX
8
Form4
10
-24.997707
20
-6.447622
30
-16.533455
70
192
0
VERTEX
8
Form4
10
-21.321131
20
-9.393949
30
-18.755215
70
192
0
VERTEX
8
Form4
10
-21.373707
20
-12.265898
30
-18.448835
70
192
0
VERTEX
8
Form4
10
-23.815582
20
6.869964
30
-12.574085
70
192
0
VERTEX
8
Form4
10
-21.028292
20
5.025983
30
-15.702080
70
192
0
VERTEX
8
Form4
10
-18.943432
20
-0.304018
30
-18.456017
70
192
0
VERTEX
8
Form4
10
-20.118401
20
-3.360421
30
-18.770597
70
192
0
VERTEX
8
Form4
10
-16.162266
20
23.570286
30
-10.498687
70
192
0
VERTEX
8
Form4
10
-13.820595
20
23.518528
30
-13.123360
70
192
0
VERTEX
8
Form4
10
-13.561538
20
16.559570
30
-16.558338
70
192
0
VERTEX
8
Form4
10
-15.644154
20
9.652375
30
-17.368647
70
192
0
VERTEX
8
Form4
10
-4.820525
20
23.466766
30
-15.748030
70
192
0
VERTEX
8
Form4
10
-8.149725
20
23.466766
30
-15.748032
70
192
0
VERTEX
8
Form4
10
-2.903446
20
2.464262
30
-20.141012
70
192
0
VERTEX
8
Form4
10
-2.197386
20
12.965515
30
-17.944523
70
192
0
VERTEX
8
Form4
10
3.808060
20
-0.392723
30
-19.434589
70
192
0
VERTEX
8
Form4
10
0.135363
20
-4.257438
30
-20.591621
70
192
0
VERTEX
8
Form4
10
4.604575
20
-3.967508
30
-20.291355
70
192
0
VERTEX
8
Form4
10
0.496624
20
-6.079674
30
-20.814934
70
192
0
VERTEX
8
Form4
10
4.999776
20
-6.252247
30
-20.136560
70
192
0
VERTEX
8
Form4
10
0.692760
20
-7.227511
30
-20.719698
70
192
0
VERTEX
8
Form4
10
5.217376
20
-7.921548
30
-20.071947
70
192
0
VERTEX
8
Form4
10
0.799048
20
-8.065513
30
-20.675076
70
192
0
VERTEX
8
Form4
10
5.338475
20
-10.456344
30
-20.112631
70
192
0
VERTEX
8
Form4
10
0.854976
20
-9.335648
30
-20.679495
70
192
0
VERTEX
8
Form4
10
4.725917
20
-13.045780
30
-19.741039
70
192
0
VERTEX
8
Form4
10
0.560556
20
-10.644226
30
-20.568031
70
192
0
VERTEX
8
Form4
10
1.950497
20
-17.173943
30
-19.823322
70
192
0
VERTEX
8
Form4
10
-0.824043
20
-12.733025
30
-20.684278
70
192
0
VERTEX
8
Form4
10
-2.036024
20
-18.836220
30
-19.406475
70
192
0
VERTEX
8
Form4
10
-2.834525
20
-13.570753
30
-20.481178
70
192
0
VERTEX
8
Form4
10
-6.938292
20
-19.715181
30
-19.379900
70
192
0
VERTEX
8
Form4
10
-5.303010
20
-14.008929
30
-20.483030
70
192
0
VERTEX
8
Form4
10
-10.692755
20
-19.265537
30
-19.433008
70
192
0
VERTEX
8
Form4
10
-7.191442
20
-13.780738
30
-20.529068
70
192
0
VERTEX
8
Form4
10
-13.899297
20
-16.959574
30
-19.476673
70
192
0
VERTEX
8
Form4
10
-8.808397
20
-12.624694
30
-20.580408
70
192
0
VERTEX
8
Form4
10
-15.467370
20
-12.777405
30
-19.970406
70
192
0
VERTEX
8
Form4
10
-9.593084
20
-10.513322
30
-20.774921
70
192
0
VERTEX
8
Form4
10
-15.368853
20
-6.965291
30
-20.592398
70
192
0
VERTEX
8
Form4
10
-9.539325
20
-7.587543
30
-21.037079
70
192
0
VERTEX
8
Form4
10
-13.226843
20
-0.704840
30
-20.129864
70
192
0
VERTEX
8
Form4
10
-8.482579
20
-4.427700
30
-20.926842
70
192
0
VERTEX
8
Form4
10
-8.878285
20
12.966842
30
-17.964924
70
192
0
VERTEX
8
Form4
10
-6.277648
20
2.466915
30
-20.181816
70
192
0
VERTEX
8
Form4
10
-8.802983
20
-0.144092
30
6.299212
70
192
0
VERTEX
8
Form4
10
0.196055
20
-3.049085
30
6.299212
70
192
0
VERTEX
8
Form4
10
3.764556
20
17.456001
30
4.912405
70
192
0
VERTEX
8
Form4
10
7.169112
20
11.541492
30
4.713529
70
192
0
VERTEX
8
Form4
10
6.084874
20
18.202427
30
2.449560
70
192
0
VERTEX
8
Form4
10
9.503434
20
12.830658
30
2.416238
70
192
0
VERTEX
8
Form4
10
11.108456
20
3.124244
30
4.352801
70
192
0
VERTEX
8
Form4
10
11.967138
20
1.163686
30
4.192028
70
192
0
VERTEX
8
Form4
10
14.259673
20
4.000527
30
2.097224
70
192
0
VERTEX
8
Form4
10
15.744150
20
0.844593
30
1.959890
70
192
0
VERTEX
8
Form4
10
13.301348
20
-13.124994
30
4.932231
70
192
0
VERTEX
8
Form4
10
14.029397
20
-14.056651
30
5.612939
70
192
0
VERTEX
8
Form4
10
18.030521
20
-18.116213
30
2.695401
70
192
0
VERTEX
8
Form4
10
18.984465
20
-19.519976
30
3.826148
70
192
0
VERTEX
8
Form4
10
13.710603
20
-16.805264
30
6.325677
70
192
0
VERTEX
8
Form4
10
12.993216
20
-18.231941
30
6.472460
70
192
0
VERTEX
8
Form4
10
17.877468
20
-23.530016
30
4.667574
70
192
0
VERTEX
8
Form4
10
16.649651
20
-25.076466
30
4.631804
70
192
0
VERTEX
8
Form4
10
11.353205
20
-20.179279
30
6.486184
70
192
0
VERTEX
8
Form4
10
10.361982
20
-20.621962
30
6.210862
70
192
0
VERTEX
8
Form4
10
13.500010
20
-26.403107
30
4.412103
70
192
0
VERTEX
8
Form4
10
12.085063
20
-26.249304
30
4.007774
70
192
0
VERTEX
8
Form4
10
8.304945
20
-21.724476
30
5.963901
70
192
0
VERTEX
8
Form4
10
7.172387
20
-22.078299
30
5.799111
70
192
0
VERTEX
8
Form4
10
9.213531
20
-24.990379
30
3.545098
70
192
0
VERTEX
8
Form4
10
7.926476
20
-24.009733
30
3.096657
70
192
0
VERTEX
8
Form4
10
3.678787
20
-24.293226
30
5.742841
70
192
0
VERTEX
8
Form4
10
1.331832
20
-26.003115
30
5.803132
70
192
0
VERTEX
8
Form4
10
4.199995
20
-25.668779
30
2.975040
70
192
0
VERTEX
8
Form4
10
1.807102
20
-28.318943
30
3.197623
70
192
0
VERTEX
8
Form4
10
-3.733963
20
-28.357296
30
5.879605
70
192
0
VERTEX
8
Form4
10
-6.531168
20
-29.098738
30
5.961338
70
192
0
VERTEX
8
Form4
10
-3.907103
20
-31.984852
30
3.384809
70
192
0
VERTEX
8
Form4
10
-6.993446
20
-32.917229
30
3.509861
70
192
0
VERTEX
8
Form4
10
-11.573298
20
-29.533133
30
6.021396
70
192
0
VERTEX
8
Form4
10
-13.925544
20
-29.307022
30
6.051202
70
192
0
VERTEX
8
Form4
10
-12.886052
20
-33.541100
30
3.601667
70
192
0
VERTEX
8
Form4
10
-15.557457
20
-33.272121
30
3.647113
70
192
0
VERTEX
8
Form4
10
-18.271255
20
-27.697199
30
6.098913
70
192
0
VERTEX
8
Form4
10
-20.308578
20
-26.267839
30
6.128170
70
192
0
VERTEX
8
Form4
10
-20.713430
20
-31.352695
30
3.718631
70
192
0
VERTEX
8
Form4
10
-23.024387
20
-29.738842
30
3.765213
70
192
0
VERTEX
8
Form4
10
-23.367128
20
-22.266237
30
5.746414
70
192
0
VERTEX
8
Form4
10
-24.353252
20
-19.660437
30
5.308983
70
192
0
VERTEX
8
Form4
10
-26.648533
20
-24.993069
30
3.242574
70
192
0
VERTEX
8
Form4
10
-27.749069
20
-22.031473
30
2.656053
70
192
0
VERTEX
8
Form4
10
-25.318693
20
-13.589615
30
4.656767
70
192
0
VERTEX
8
Form4
10
-25.227934
20
-9.979356
30
4.430907
70
192
0
VERTEX
8
Form4
10
-28.896782
20
-14.808524
30
1.951999
70
192
0
VERTEX
8
Form4
10
-28.809269
20
-10.681928
30
1.825544
70
192
0
VERTEX
8
Form4
10
-23.832037
20
-2.745844
30
4.344228
70
192
0
VERTEX
8
Form4
10
-22.470947
20
1.016255
30
4.531126
70
192
0
VERTEX
8
Form4
10
-27.150192
20
-2.037038
30
1.959871
70
192
0
VERTEX
8
Form4
10
-25.552359
20
2.322856
30
2.195589
70
192
0
VERTEX
8
Form4
10
-18.760567
20
10.993782
30
4.878483
70
192
0
VERTEX
8
Form4
10
-16.281445
20
17.201906
30
4.969724
70
192
0
VERTEX
8
Form4
10
-21.474432
20
12.331523
30
2.534404
70
192
0
VERTEX
8
Form4
10
-18.879345
20
17.961592
30
2.489944
70
192
0
VERTEX
8
Form4
10
-9.230565
20
23.518524
30
5.249343
70
192
0
VERTEX
8
Form4
10
-4.271908
20
23.518524
30
5.249344
70
192
0
VERTEX
8
Form4
10
-9.942779
20
23.570286
30
2.624671
70
192
0
VERTEX
8
Form4
10
-3.698222
20
23.570288
30
2.624672
70
192
0
VERTEX
8
Form4
10
8.412121
20
18.854773
30
-2.870763
70
192
0
VERTEX
8
Form4
10
11.839043
20
14.195965
30
-3.108585
70
192
0
VERTEX
8
Form4
10
8.406033
20
18.849806
30
-5.509630
70
192
0
VERTEX
8
Form4
10
11.821648
20
14.181770
30
-5.773815
70
192
0
VERTEX
8
Form4
10
17.225842
20
4.957300
30
-3.654360
70
192
0
VERTEX
8
Form4
10
19.400606
20
0.391169
30
-3.948266
70
192
0
VERTEX
8
Form4
10
17.201546
20
4.944010
30
-6.336668
70
192
0
VERTEX
8
Form4
10
19.374804
20
0.388785
30
-6.635929
70
192
0
VERTEX
8
Form4
10
23.164335
20
-7.787446
30
-5.094169
70
192
0
VERTEX
8
Form4
10
24.133045
20
-11.871666
30
-5.292101
70
192
0
VERTEX
8
Form4
10
22.428545
20
-7.843770
30
-7.244414
70
192
0
VERTEX
8
Form4
10
23.164692
20
-11.764715
30
-7.341104
70
192
0
VERTEX
8
Form4
10
23.636150
20
-19.564466
30
-3.681448
70
192
0
VERTEX
8
Form4
10
23.927189
20
-23.694101
30
-3.038274
70
192
0
VERTEX
8
Form4
10
23.613846
20
-19.544416
30
-6.399102
70
192
0
VERTEX
8
Form4
10
23.900698
20
-23.661669
30
-5.766500
70
192
0
VERTEX
8
Form4
10
21.782822
20
-29.732317
30
-2.471820
70
192
0
VERTEX
8
Form4
10
19.926352
20
-31.376787
30
-2.515337
70
192
0
VERTEX
8
Form4
10
21.757425
20
-29.693762
30
-5.203419
70
192
0
VERTEX
8
Form4
10
19.907173
20
-31.339249
30
-5.242634
70
192
0
VERTEX
8
Form4
10
15.621779
20
-32.205307
30
-2.561043
70
192
0
VERTEX
8
Form4
10
13.697243
20
-31.392416
30
-2.568833
70
192
0
VERTEX
8
Form4
10
15.607526
20
-32.168606
30
-5.279476
70
192
0
VERTEX
8
Form4
10
13.685922
20
-31.356251
30
-5.275107
70
192
0
VERTEX
8
Form4
10
10.258660
20
-28.298443
30
-2.584116
70
192
0
VERTEX
8
Form4
10
8.931250
20
-25.890625
30
-2.604709
70
192
0
VERTEX
8
Form4
10
10.247676
20
-28.268581
30
-5.267474
70
192
0
VERTEX
8
Form4
10
8.917956
20
-25.871933
30
-5.257669
70
192
0
VERTEX
8
Form4
10
4.952863
20
-27.100542
30
-2.609442
70
192
0
VERTEX
8
Form4
10
2.257461
20
-30.687393
30
-2.597641
70
192
0
VERTEX
8
Form4
10
4.941734
20
-27.083998
30
-5.255826
70
192
0
VERTEX
8
Form4
10
2.252660
20
-30.663666
30
-5.262210
70
192
0
VERTEX
8
Form4
10
-4.063636
20
-35.366024
30
-2.589081
70
192
0
VERTEX
8
Form4
10
-7.506565
20
-36.539848
30
-2.584988
70
192
0
VERTEX
8
Form4
10
-4.063174
20
-35.338760
30
-5.267348
70
192
0
VERTEX
8
Form4
10
-7.502655
20
-36.513199
30
-5.270510
70
192
0
VERTEX
8
Form4
10
-14.087328
20
-37.325497
30
-2.582117
70
192
0
VERTEX
8
Form4
10
-17.157213
20
-37.005760
30
-2.580880
70
192
0
VERTEX
8
Form4
10
-14.079842
20
-37.299934
30
-5.272784
70
192
0
VERTEX
8
Form4
10
-17.146534
20
-36.981602
30
-5.273848
70
192
0
VERTEX
8
Form4
10
-22.975592
20
-34.831863
30
-2.525523
70
192
0
VERTEX
8
Form4
10
-25.627186
20
-32.983349
30
-2.470802
70
192
0
VERTEX
8
Form4
10
-22.961634
20
-34.809597
30
-5.219790
70
192
0
VERTEX
8
Form4
10
-25.610336
20
-32.963200
30
-5.165186
70
192
0
VERTEX
8
Form4
10
-29.704021
20
-27.624422
30
-3.056513
70
192
0
VERTEX
8
Form4
10
-30.947990
20
-24.212029
30
-3.698375
70
192
0
VERTEX
8
Form4
10
-29.690386
20
-27.610342
30
-5.749226
70
192
0
VERTEX
8
Form4
10
-30.943220
20
-24.207100
30
-6.387868
70
192
0
VERTEX
8
Form4
10
-32.251900
20
-16.036924
30
-4.348444
70
192
0
VERTEX
8
Form4
10
-32.192131
20
-11.275352
30
-4.294214
70
192
0
VERTEX
8
Form4
10
-32.244766
20
-16.036863
30
-7.034108
70
192
0
VERTEX
8
Form4
10
-32.171734
20
-11.275172
30
-6.975983
70
192
0
VERTEX
8
Form4
10
-30.335785
20
-1.443222
30
-3.953899
70
192
0
VERTEX
8
Form4
10
-28.478764
20
3.674177
30
-3.657561
70
192
0
VERTEX
8
Form4
10
-30.311611
20
-1.447288
30
-6.634045
70
192
0
VERTEX
8
Form4
10
-28.456116
20
3.660362
30
-6.338670
70
192
0
VERTEX
8
Form4
10
-24.076929
20
13.713057
30
-3.112663
70
192
0
VERTEX
8
Form4
10
-21.345356
20
18.618126
30
-2.873437
70
192
0
VERTEX
8
Form4
10
-24.014080
20
13.701611
30
-5.779375
70
192
0
VERTEX
8
Form4
10
-21.258774
20
18.615095
30
-5.512771
70
192
0
VERTEX
8
Form4
10
-10.802738
20
23.622044
30
-2.624672
70
192
0
VERTEX
8
Form4
10
-2.845555
20
23.622046
30
-2.624672
70
192
0
VERTEX
8
Form4
10
-10.719569
20
23.622046
30
-5.249343
70
192
0
VERTEX
8
Form4
10
-2.797489
20
23.622047
30
-5.249344
70
192
0
VERTEX
8
Form4
10
6.175919
20
18.226442
30
-10.974857
70
192
0
VERTEX
8
Form4
10
9.550970
20
12.905052
30
-11.615061
70
192
0
VERTEX
8
Form4
10
3.930556
20
17.492014
30
-13.610350
70
192
0
VERTEX
8
Form4
10
7.244892
20
11.660897
30
-14.224385
70
192
0
VERTEX
8
Form4
10
14.360778
20
3.901524
30
-12.645829
70
192
0
VERTEX
8
Form4
10
16.006447
20
0.351203
30
-13.175464
70
192
0
VERTEX
8
Form4
10
11.275928
20
2.908378
30
-15.537283
70
192
0
VERTEX
8
Form4
10
12.447109
20
0.178972
30
-16.129366
70
192
0
VERTEX
8
Form4
10
18.112555
20
-6.284749
30
-13.720769
70
192
0
VERTEX
8
Form4
10
18.644480
20
-9.186674
30
-13.920507
70
192
0
VERTEX
8
Form4
10
13.823785
20
-4.500795
30
-16.662769
70
192
0
VERTEX
8
Form4
10
14.300342
20
-6.613000
30
-16.712896
70
192
0
VERTEX
8
Form4
10
19.525337
20
-15.258653
30
-13.758951
70
192
0
VERTEX
8
Form4
10
19.939217
20
-18.278454
30
-13.634578
70
192
0
VERTEX
8
Form4
10
14.960020
20
-10.492302
30
-16.613247
70
192
0
VERTEX
8
Form4
10
15.379898
20
-12.526075
30
-16.529400
70
192
0
VERTEX
8
Form4
10
18.543285
20
-23.197775
30
-13.366107
70
192
0
VERTEX
8
Form4
10
17.319012
20
-24.813683
30
-13.320480
70
192
0
VERTEX
8
Form4
10
14.918080
20
-15.957447
30
-16.434710
70
192
0
VERTEX
8
Form4
10
14.243452
20
-17.540941
30
-16.441481
70
192
0
VERTEX
8
Form4
10
14.122208
20
-26.219059
30
-13.046572
70
192
0
VERTEX
8
Form4
10
12.613812
20
-26.142563
30
-12.620030
70
192
0
VERTEX
8
Form4
10
12.541279
20
-19.673449
30
-16.161240
70
192
0
VERTEX
8
Form4
10
11.385204
20
-20.304752
30
-15.800719
70
192
0
VERTEX
8
Form4
10
9.567408
20
-24.935240
30
-12.027509
70
192
0
VERTEX
8
Form4
10
8.048889
20
-23.976137
30
-11.494633
70
192
0
VERTEX
8
Form4
10
8.996586
20
-21.549564
30
-15.172168
70
192
0
VERTEX
8
Form4
10
7.412662
20
-21.987679
30
-14.768181
70
192
0
VERTEX
8
Form4
10
4.197170
20
-25.676155
30
-11.311804
70
192
0
VERTEX
8
Form4
10
1.806607
20
-28.379143
30
-11.565784
70
192
0
VERTEX
8
Form4
10
3.672767
20
-24.299002
30
-14.551473
70
192
0
VERTEX
8
Form4
10
1.329631
20
-26.098742
30
-14.726254
70
192
0
VERTEX
8
Form4
10
-3.925737
20
-32.066811
30
-11.764762
70
192
0
VERTEX
8
Form4
10
-7.048061
20
-32.986588
30
-11.872946
70
192
0
VERTEX
8
Form4
10
-3.769799
20
-28.484425
30
-14.863755
70
192
0
VERTEX
8
Form4
10
-6.633197
20
-29.194004
30
-14.923265
70
192
0
VERTEX
8
Form4
10
-12.961655
20
-33.598816
30
-11.953576
70
192
0
VERTEX
8
Form4
10
-15.636051
20
-33.320816
30
-11.995136
70
192
0
VERTEX
8
Form4
10
-11.710416
20
-29.601551
30
-14.969047
70
192
0
VERTEX
8
Form4
10
-14.061636
20
-29.357443
30
-14.994558
70
192
0
VERTEX
8
Form4
10
-20.791973
20
-31.395836
30
-11.971572
70
192
0
VERTEX
8
Form4
10
-23.099844
20
-29.780689
30
-11.927045
70
192
0
VERTEX
8
Form4
10
-18.400290
20
-27.738764
30
-14.975500
70
192
0
VERTEX
8
Form4
10
-20.425535
20
-26.310961
30
-14.944145
70
192
0
VERTEX
8
Form4
10
-26.706646
20
-25.024212
30
-12.395554
70
192
0
VERTEX
8
Form4
10
-27.778061
20
-22.044041
30
-12.879495
70
192
0
VERTEX
8
Form4
10
-23.455849
20
-22.300125
30
-15.299210
70
192
0
VERTEX
8
Form4
10
-24.401608
20
-19.675627
30
-15.689172
70
192
0
VERTEX
8
Form4
10
-28.937241
20
-14.801804
30
-13.467554
70
192
0
VERTEX
8
Form4
10
-28.900122
20
-10.657626
30
-13.475370
70
192
0
VERTEX
8
Form4
10
-25.389687
20
-13.576425
30
-16.299955
70
192
0
VERTEX
8
Form4
10
-25.381275
20
-9.931184
30
-16.479776
70
192
0
VERTEX
8
Form4
10
-27.242260
20
-1.955092
30
-13.201953
70
192
0
VERTEX
8
Form4
10
-25.589804
20
2.484620
30
-12.885405
70
192
0
VERTEX
8
Form4
10
-23.960564
20
-2.593673
30
-16.374126
70
192
0
VERTEX
8
Form4
10
-22.470737
20
1.305706
30
-16.043869
70
192
0
VERTEX
8
Form4
10
-21.393209
20
12.486011
30
-11.955120
70
192
0
VERTEX
8
Form4
10
-18.712221
20
18.017063
30
-11.129157
70
192
0
VERTEX
8
Form4
10
-18.669210
20
11.260700
30
-14.921247
70
192
0
VERTEX
8
Form4
10
-16.175413
20
17.295582
30
-13.952882
70
192
0
VERTEX
8
Form4
10
-9.728376
20
23.570284
30
-10.498686
70
192
0
VERTEX
8
Form4
10
-3.518923
20
23.570286
30
-10.498687
70
192
0
VERTEX
8
Form4
10
-9.051268
20
23.518526
30
-13.123358
70
192
0
VERTEX
8
Form4
10
-4.057507
20
23.518526
30
-13.123360
70
192
0
VERTEX
8
Form4
10
0.895476
20
6.290229
30
-18.604048
70
192
0
VERTEX
8
Form4
10
4.256580
20
-2.279204
30
-19.740723
70
192
0
VERTEX
8
Form4
10
4.825179
20
-5.296400
30
-20.113314
70
192
0
VERTEX
8
Form4
10
5.081439
20
-7.324902
30
-20.009611
70
192
0
VERTEX
8
Form4
10
5.211768
20
-9.434457
30
-20.014778
70
192
0
VERTEX
8
Form4
10
4.937011
20
-11.956452
30
-19.822655
70
192
0
VERTEX
8
Form4
10
3.343572
20
-15.190182
30
-19.540550
70
192
0
VERTEX
8
Form4
10
-0.017148
20
-18.023468
30
-19.369080
70
192
0
VERTEX
8
Form4
10
-4.468650
20
-19.326557
30
-19.247942
70
192
0
VERTEX
8
Form4
10
-8.787398
20
-19.572479
30
-19.264481
70
192
0
VERTEX
8
Form4
10
-12.332666
20
-18.230076
30
-19.289358
70
192
0
VERTEX
8
Form4
10
-14.772161
20
-14.940433
30
-19.554680
70
192
0
VERTEX
8
Form4
10
-15.515325
20
-9.907364
30
-20.137167
70
192
0
VERTEX
8
Form4
10
-14.325577
20
-3.860177
30
-20.211376
70
192
0
VERTEX
8
Form4
10
-11.022007
20
6.110161
30
-19.054138
70
192
0
VERTEX
8
Form4
10
-5.535633
20
12.983711
30
-18.116142
70
192
0
VERTEX
8
Form4
10
-1.885027
20
23.466768
30
7.874016
70
192
0
VERTEX
8
Form4
10
-11.478924
20
23.466768
30
7.874016
70
192
0
VERTEX
8
Form4
10
5.118110
20
23.622047
30
0.000000
70
192
0
VERTEX
8
Form4
10
5.118110
20
23.622047
30
0.000000
70
192
0
VERTEX
8
Form4
10
-18.897638
20
23.622047
30
0.000000
70
192
0
VERTEX
8
Form4
10
-18.897638
20
23.622047
30
0.000000
70
192
0
VERTEX
8
Form4
10
5.118110
20
23.622047
30
-7.874016
70
192
0
VERTEX
8
Form4
10
5.118110
20
23.622047
30
-7.874016
70
192
0
VERTEX
8
Form4
10
-18.503937
20
23.622047
30
-7.874016
70
192
0
VERTEX
8
Form4
10
-18.503937
20
23.622047
30
-7.874016
70
192
0
VERTEX
8
Form4
10
-1.491326
20
23.466768
30
-15.748032
70
192
0
VERTEX
8
Form4
10
-11.478924
20
23.466768
30
-15.748032
70
192
0
VERTEX
8
Form4
10
2.783731
20
23.570286
30
2.624672
70
192
0
VERTEX
8
Form4
10
0.449352
20
23.518528
30
5.249344
70
192
0
VERTEX
8
Form4
10
-13.951828
20
23.518526
30
5.249344
70
192
0
VERTEX
8
Form4
10
-16.424734
20
23.570288
30
2.624672
70
192
0
VERTEX
8
Form4
10
-8.280957
20
23.466766
30
7.874015
70
192
0
VERTEX
8
Form4
10
-5.082992
20
23.466766
30
7.874016
70
192
0
VERTEX
8
Form4
10
-2.887139
20
23.622046
30
0.000000
70
192
0
VERTEX
8
Form4
10
-10.892389
20
23.622047
30
0.000000
70
192
0
VERTEX
8
Form4
10
5.118110
20
23.622046
30
-5.249344
70
192
0
VERTEX
8
Form4
10
5.118110
20
23.622047
30
-2.624672
70
192
0
VERTEX
8
Form4
10
7.595835
20
-23.623886
30
-2.615797
70
192
0
VERTEX
8
Form4
10
7.581300
20
-23.611210
30
-5.252389
70
192
0
VERTEX
8
Form4
10
-18.766405
20
23.622046
30
-2.624672
70
192
0
VERTEX
8
Form4
10
-18.635170
20
23.622047
30
-5.249344
70
192
0
VERTEX
8
Form4
10
-2.755906
20
23.622046
30
-7.874015
70
192
0
VERTEX
8
Form4
10
-10.629921
20
23.622047
30
-7.874016
70
192
0
VERTEX
8
Form4
10
0.711819
20
23.518526
30
-13.123358
70
192
0
VERTEX
8
Form4
10
2.914965
20
23.570288
30
-10.498688
70
192
0
VERTEX
8
Form4
10
-16.162266
20
23.570286
30
-10.498687
70
192
0
VERTEX
8
Form4
10
-13.820595
20
23.518528
30
-13.123360
70
192
0
VERTEX
8
Form4
10
-4.820525
20
23.466766
30
-15.748030
70
192
0
VERTEX
8
Form4
10
-8.149725
20
23.466766
30
-15.748032
70
192
0
VERTEX
8
Form4
10
0.000000
20
0.000000
30
0.000000
70
128
71
1
72
67
73
327
74
74
0
VERTEX
8
Form4
10
0.000000
20
0.000000
30
0.000000
70
128
71
67
72
68
73
328
74
327
0
VERTEX
8
Form4
10
0.000000
20
0.000000
30
0.000000
70
128
71
68
72
2
73
69
74
328
0
VERTEX
8
Form4
10
0.000000
20
0.000000
30
0.000000
70
128
71
74
72
327
73
329
74
73
0
VERTEX
8
Form4
10
0.000000
20
0.000000
30
0.000000
70
128
71
327
72
328
73
330
74
329
0
VERTEX
8
Form4
10
0.000000
20
0.000000
30
0.000000
70
128
71
328
72
69
73
70
74
330
0
VERTEX
8
Form4
10
0.000000
20
0.000000
30
0.000000
70
128
71
73
72
329
73
72
74
17
0
VERTEX
8
Form4
10
0.000000
20
0.000000
30
0.000000
70
128
71
329
72
330
73
71
74
72
0
VERTEX
8
Form4
10
0.000000
20
0.000000
30
0.000000
70
128
71
330
72
70
73
18
74
71
0
VERTEX
8
Form4
10
0.000000
20
0.000000
30
0.000000
70
128
71
2
72
75
73
331
74
69
0
VERTEX
8
Form4
10
0.000000
20
0.000000
30
0.000000
70
128
71
75
72
76
73
332
74
331
0
VERTEX
8
Form4
10
0.000000
20
0.000000
30
0.000000
70
128
71
76
72
3
73
77
74
332
0
VERTEX
8
Form4
10
0.000000
20
0.000000
30
0.000000
70
128
71
69
72
331
73
333
74
70
0
VERTEX
8
Form4
10
0.000000
20
0.000000
30
0.000000
70
128
71
331
72
332
73
334
74
333
0
VERTEX
8
Form4
10
0.000000
20
0.000000
30
0.000000
70
128
71
332
72
77
73
78
74
334
0
VERTEX
8
Form4
10
0.000000
20
0.000000
30
0.000000
70
128
71
70
72
333
73
80
74
18
0
VERTEX
8
Form4
10
0.000000
20
0.000000
30
0.000000
70
128
71
333
72
334
73
79
74
80
0
VERTEX
8
Form4
10
0.000000
20
0.000000
30
0.000000
70
128
71
334
72
78
73
19
74
79
0
VERTEX
8
Form4
10
0.000000
20
0.000000
30
0.000000
70
128
71
4
72
89
73
335
74
85
0
VERTEX
8
Form4
10
0.000000
20
0.000000
30
0.000000
70
128
71
89
72
90
73
336
74
335
0
VERTEX
8
Form4
10
0.000000
20
0.000000
30
0.000000
70
128
71
90
72
5
73
91
74
336
0
VERTEX
8
Form4
10
0.000000
20
0.000000
30
0.000000
70
128
71
85
72
335
73
337
74
86
0
VERTEX
8
Form4
10
0.000000
20
0.000000
30
0.000000
70
128
71
335
72
336
73
338
74
337
0
VERTEX
8
Form4
10
0.000000
20
0.000000
30
0.000000
70
128
71
336
72
91
73
92
74
338
0
VERTEX
8
Form4
10
0.000000
20
0.000000
30
0.000000
70
128
71
86
72
337
73
94
74
20
0
VERTEX
8
Form4
10
0.000000
20
0.000000
30
0.000000
70
128
71
337
72
338
73
93
74
94
0
VERTEX
8
Form4
10
0.000000
20
0.000000
30
0.000000
70
128
71
338
72
92
73
21
74
93
0
VERTEX
8
Form4
10
0.000000
20
0.000000
30
0.000000
70
128
71
5
72
95
73
339
74
91
0
VERTEX
8
Form4
10
0.000000
20
0.000000
30
0.000000
70
128
71
95
72
96
73
340
74
339
0
VERTEX
8
Form4
10
0.000000
20
0.000000
30
0.000000
70
128
71
96
72
6
73
97
74
340
0
VERTEX
8
Form4
10
0.000000
20
0.000000
30
0.000000
70
128
71
91
72
339
73
341
74
92
0
VERTEX
8
Form4
10
0.000000
20
0.000000
30
0.000000
70
128
71
339
72
340
73
342
74
341
0
VERTEX
8
Form4
10
0.000000
20
0.000000
30
0.000000
70
128
71
340
72
97
73
98
74
342
0
VERTEX
8
Form4
10
0.000000
20
0.000000
30
0.000000
70
128
71
92
72
341
73
100
74
21
0
VERTEX
8
Form4
10
0.000000
20
0.000000
30
0.000000
70
128
71
341
72
342
73
99
74
100
0
VERTEX
8
Form4
10
0.000000
20
0.000000
30
0.000000
70
128
71
342
72
98
73
22
74
99
0
VERTEX
8
Form4
10
0.000000
20
0.000000
30
0.000000
70
128
71
6
72
101
73
343
74
97
0
VERTEX
8
Form4
10
0.000000
20
0.000000
30
0.000000
70
128
71
101
72
102
73
344
74
343
0
VERTEX
8
Form4
10
0.000000
20
0.000000
30
0.000000
70
128
71
102
72
7
73
103
74
344
0
VERTEX
8
Form4
10
0.000000
20
0.000000
30
0.000000
70
128
71
97
72
343
73
345
74
98
0
VERTEX
8
Form4
10
0.000000
20
0.000000
30
0.000000
70
128
71
343
72
344
73
346
74
345
0
VERTEX
8
Form4
10
0.000000
20
0.000000
30
0.000000
70
128
71
344
72
103
73
104
74
346
0
VERTEX
8
Form4
10
0.000000
20
0.000000
30
0.000000
70
128
71
98
72
345
73
106
74
22
0
VERTEX
8
Form4
10
0.000000
20
0.000000
30
0.000000
70
128
71
345
72
346
73
105
74
106
0
VERTEX
8
Form4
10
0.000000
20
0.000000
30
0.000000
70
128
71
346
72
104
73
23
74
105
0
VERTEX
8
Form4
10
0.000000
20
0.000000
30
0.000000
70
128
71
7
72
107
73
347
74
103
0
VERTEX
8
Form4
10
0.000000
20
0.000000
30
0.000000
70
128
71
107
72
108
73
348
74
347
0
VERTEX
8
Form4
10
0.000000
20
0.000000
30
0.000000
70
128
71
108
72
8
73
109
74
348
0
VERTEX
8
Form4
10
0.000000
20
0.000000
30
0.000000
70
128
71
103
72
347
73
349
74
104
0
VERTEX
8
Form4
10
0.000000
20
0.000000
30
0.000000
70
128
71
347
72
348
73
350
74
349
0
VERTEX
8
Form4
10
0.000000
20
0.000000
30
0.000000
70
128
71
348
72
109
73
110
74
350
0
VERTEX
8
Form4
10
0.000000
20
0.000000
30
0.000000
70
128
71
104
72
349
73
112
74
23
0
VERTEX
8
Form4
10
0.000000
20
0.000000
30
0.000000
70
128
71
349
72
350
73
111
74
112
0
VERTEX
8
Form4
10
0.000000
20
0.000000
30
0.000000
70
128
71
350
72
110
73
24
74
111
0
VERTEX
8
Form4
10
0.000000
20
0.000000
30
0.000000
70
128
71
8
72
113
73
351
74
109
0
VERTEX
8
Form4
10
0.000000
20
0.000000
30
0.000000
70
128
71
113
72
114
73
352
74
351
0
VERTEX
8
Form4
10
0.000000
20
0.000000
30
0.000000
70
128
71
114
72
9
73
115
74
352
0
VERTEX
8
Form4
10
0.000000
20
0.000000
30
0.000000
70
128
71
109
72
351
73
353
74
110
0
VERTEX
8
Form4
10
0.000000
20
0.000000
30
0.000000
70
128
71
351
72
352
73
354
74
353
0
VERTEX
8
Form4
10
0.000000
20
0.000000
30
0.000000
70
128
71
352
72
115
73
116
74
354
0
VERTEX
8
Form4
10
0.000000
20
0.000000
30
0.000000
70
128
71
110
72
353
73
118
74
24
0
VERTEX
8
Form4
10
0.000000
20
0.000000
30
0.000000
70
128
71
353
72
354
73
117
74
118
0
VERTEX
8
Form4
10
0.000000
20
0.000000
30
0.000000
70
128
71
354
72
116
73
25
74
117
0
VERTEX
8
Form4
10
0.000000
20
0.000000
30
0.000000
70
128
71
9
72
119
73
355
74
115
0
VERTEX
8
Form4
10
0.000000
20
0.000000
30
0.000000
70
128
71
119
72
120
73
356
74
355
0
VERTEX
8
Form4
10
0.000000
20
0.000000
30
0.000000
70
128
71
120
72
10
73
121
74
356
0
VERTEX
8
Form4
10
0.000000
20
0.000000
30
0.000000
70
128
71
115
72
355
73
357
74
116
0
VERTEX
8
Form4
10
0.000000
20
0.000000
30
0.000000
70
128
71
355
72
356
73
358
74
357
0
VERTEX
8
Form4
10
0.000000
20
0.000000
30
0.000000
70
128
71
356
72
121
73
122
74
358
0
VERTEX
8
Form4
10
0.000000
20
0.000000
30
0.000000
70
128
71
116
72
357
73
124
74
25
0
VERTEX
8
Form4
10
0.000000
20
0.000000
30
0.000000
70
128
71
357
72
358
73
123
74
124
0
VERTEX
8
Form4
10
0.000000
20
0.000000
30
0.000000
70
128
71
358
72
122
73
26
74
123
0
VERTEX
8
Form4
10
0.000000
20
0.000000
30
0.000000
70
128
71
10
72
125
73
359
74
121
0
VERTEX
8
Form4
10
0.000000
20
0.000000
30
0.000000
70
128
71
125
72
126
73
360
74
359
0
VERTEX
8
Form4
10
0.000000
20
0.000000
30
0.000000
70
128
71
126
72
11
73
127
74
360
0
VERTEX
8
Form4
10
0.000000
20
0.000000
30
0.000000
70
128
71
121
72
359
73
361
74
122
0
VERTEX
8
Form4
10
0.000000
20
0.000000
30
0.000000
70
128
71
359
72
360
73
362
74
361
0
VERTEX
8
Form4
10
0.000000
20
0.000000
30
0.000000
70
128
71
360
72
127
73
128
74
362
0
VERTEX
8
Form4
10
0.000000
20
0.000000
30
0.000000
70
128
71
122
72
361
73
130
74
26
0
VERTEX
8
Form4
10
0.000000
20
0.000000
30
0.000000
70
128
71
361
72
362
73
129
74
130
0
VERTEX
8
Form4
10
0.000000
20
0.000000
30
0.000000
70
128
71
362
72
128
73
27
74
129
0
VERTEX
8
Form4
10
0.000000
20
0.000000
30
0.000000
70
128
71
11
72
131
73
363
74
127
0
VERTEX
8
Form4
10
0.000000
20
0.000000
30
0.000000
70
128
71
131
72
132
73
364
74
363
0
VERTEX
8
Form4
10
0.000000
20
0.000000
30
0.000000
70
128
71
132
72
12
73
133
74
364
0
VERTEX
8
Form4
10
0.000000
20
0.000000
30
0.000000
70
128
71
127
72
363
73
365
74
128
0
VERTEX
8
Form4
10
0.000000
20
0.000000
30
0.000000
70
128
71
363
72
364
73
366
74
365
0
VERTEX
8
Form4
10
0.000000
20
0.000000
30
0.000000
70
128
71
364
72
133
73
134
74
366
0
VERTEX
8
Form4
10
0.000000
20
0.000000
30
0.000000
70
128
71
128
72
365
73
136
74
27
0
VERTEX
8
Form4
10
0.000000
20
0.000000
30
0.000000
70
128
71
365
72
366
73
135
74
136
0
VERTEX
8
Form4
10
0.000000
20
0.000000
30
0.000000
70
128
71
366
72
134
73
28
74
135
0
VERTEX
8
Form4
10
0.000000
20
0.000000
30
0.000000
70
128
71
12
72
137
73
367
74
133
0
VERTEX
8
Form4
10
0.000000
20
0.000000
30
0.000000
70
128
71
137
72
138
73
368
74
367
0
VERTEX
8
Form4
10
0.000000
20
0.000000
30
0.000000
70
128
71
138
72
13
73
139
74
368
0
VERTEX
8
Form4
10
0.000000
20
0.000000
30
0.000000
70
128
71
133
72
367
73
369
74
134
0
VERTEX
8
Form4
10
0.000000
20
0.000000
30
0.000000
70
128
71
367
72
368
73
370
74
369
0
VERTEX
8
Form4
10
0.000000
20
0.000000
30
0.000000
70
128
71
368
72
139
73
140
74
370
0
VERTEX
8
Form4
10
0.000000
20
0.000000
30
0.000000
70
128
71
134
72
369
73
142
74
28
0
VERTEX
8
Form4
10
0.000000
20
0.000000
30
0.000000
70
128
71
369
72
370
73
141
74
142
0
VERTEX
8
Form4
10
0.000000
20
0.000000
30
0.000000
70
128
71
370
72
140
73
29
74
141
0
VERTEX
8
Form4
10
0.000000
20
0.000000
30
0.000000
70
128
71
13
72
143
73
371
74
139
0
VERTEX
8
Form4
10
0.000000
20
0.000000
30
0.000000
70
128
71
143
72
144
73
372
74
371
0
VERTEX
8
Form4
10
0.000000
20
0.000000
30
0.000000
70
128
71
144
72
14
73
145
74
372
0
VERTEX
8
Form4
10
0.000000
20
0.000000
30
0.000000
70
128
71
139
72
371
73
373
74
140
0
VERTEX
8
Form4
10
0.000000
20
0.000000
30
0.000000
70
128
71
371
72
372
73
374
74
373
0
VERTEX
8
Form4
10
0.000000
20
0.000000
30
0.000000
70
128
71
372
72
145
73
146
74
374
0
VERTEX
8
Form4
10
0.000000
20
0.000000
30
0.000000
70
128
71
140
72
373
73
148
74
29
0
VERTEX
8
Form4
10
0.000000
20
0.000000
30
0.000000
70
128
71
373
72
374
73
147
74
148
0
VERTEX
8
Form4
10
0.000000
20
0.000000
30
0.000000
70
128
71
374
72
146
73
30
74
147
0
VERTEX
8
Form4
10
0.000000
20
0.000000
30
0.000000
70
128
71
14
72
149
73
375
74
145
0
VERTEX
8
Form4
10
0.000000
20
0.000000
30
0.000000
70
128
71
149
72
150
73
376
74
375
0
VERTEX
8
Form4
10
0.000000
20
0.000000
30
0.000000
70
128
71
150
72
15
73
151
74
376
0
VERTEX
8
Form4
10
0.000000
20
0.000000
30
0.000000
70
128
71
145
72
375
73
377
74
146
0
VERTEX
8
Form4
10
0.000000
20
0.000000
30
0.000000
70
128
71
375
72
376
73
378
74
377
0
VERTEX
8
Form4
10
0.000000
20
0.000000
30
0.000000
70
128
71
376
72
151
73
152
74
378
0
VERTEX
8
Form4
10
0.000000
20
0.000000
30
0.000000
70
128
71
146
72
377
73
154
74
30
0
VERTEX
8
Form4
10
0.000000
20
0.000000
30
0.000000
70
128
71
377
72
378
73
153
74
154
0
VERTEX
8
Form4
10
0.000000
20
0.000000
30
0.000000
70
128
71
378
72
152
73
31
74
153
0
VERTEX
8
Form4
10
0.000000
20
0.000000
30
0.000000
70
128
71
15
72
155
73
379
74
151
0
VERTEX
8
Form4
10
0.000000
20
0.000000
30
0.000000
70
128
71
155
72
156
73
380
74
379
0
VERTEX
8
Form4
10
0.000000
20
0.000000
30
0.000000
70
128
71
156
72
16
73
157
74
380
0
VERTEX
8
Form4
10
0.000000
20
0.000000
30
0.000000
70
128
71
151
72
379
73
381
74
152
0
VERTEX
8
Form4
10
0.000000
20
0.000000
30
0.000000
70
128
71
379
72
380
73
382
74
381
0
VERTEX
8
Form4
10
0.000000
20
0.000000
30
0.000000
70
128
71
380
72
157
73
158
74
382
0
VERTEX
8
Form4
10
0.000000
20
0.000000
30
0.000000
70
128
71
152
72
381
73
160
74
31
0
VERTEX
8
Form4
10
0.000000
20
0.000000
30
0.000000
70
128
71
381
72
382
73
159
74
160
0
VERTEX
8
Form4
10
0.000000
20
0.000000
30
0.000000
70
128
71
382
72
158
73
32
74
159
0
VERTEX
8
Form4
10
0.000000
20
0.000000
30
0.000000
70
128
71
532
72
161
73
383
74
545
0
VERTEX
8
Form4
10
0.000000
20
0.000000
30
0.000000
70
128
71
161
72
162
73
384
74
383
0
VERTEX
8
Form4
10
0.000000
20
0.000000
30
0.000000
70
128
71
162
72
531
73
544
74
384
0
VERTEX
8
Form4
10
0.000000
20
0.000000
30
0.000000
70
128
71
545
72
383
73
385
74
546
0
VERTEX
8
Form4
10
0.000000
20
0.000000
30
0.000000
70
128
71
383
72
384
73
386
74
385
0
VERTEX
8
Form4
10
0.000000
20
0.000000
30
0.000000
70
128
71
384
72
544
73
543
74
386
0
VERTEX
8
Form4
10
0.000000
20
0.000000
30
0.000000
70
128
71
546
72
385
73
164
74
536
0
VERTEX
8
Form4
10
0.000000
20
0.000000
30
0.000000
70
128
71
385
72
386
73
163
74
164
0
VERTEX
8
Form4
10
0.000000
20
0.000000
30
0.000000
70
128
71
386
72
543
73
534
74
163
0
VERTEX
8
Form4
10
0.000000
20
0.000000
30
0.000000
70
128
71
17
72
72
73
387
74
170
0
VERTEX
8
Form4
10
0.000000
20
0.000000
30
0.000000
70
128
71
72
72
71
73
388
74
387
0
VERTEX
8
Form4
10
0.000000
20
0.000000
30
0.000000
70
128
71
71
72
18
73
165
74
388
0
VERTEX
8
Form4
10
0.000000
20
0.000000
30
0.000000
70
128
71
170
72
387
73
389
74
169
0
VERTEX
8
Form4
10
0.000000
20
0.000000
30
0.000000
70
128
71
387
72
388
73
390
74
389
0
VERTEX
8
Form4
10
0.000000
20
0.000000
30
0.000000
70
128
71
388
72
165
73
166
74
390
0
VERTEX
8
Form4
10
0.000000
20
0.000000
30
0.000000
70
128
71
169
72
389
73
168
74
33
0
VERTEX
8
Form4
10
0.000000
20
0.000000
30
0.000000
70
128
71
389
72
390
73
167
74
168
0
VERTEX
8
Form4
10
0.000000
20
0.000000
30
0.000000
70
128
71
390
72
166
73
34
74
167
0
VERTEX
8
Form4
10
0.000000
20
0.000000
30
0.000000
70
128
71
18
72
80
73
391
74
165
0
VERTEX
8
Form4
10
0.000000
20
0.000000
30
0.000000
70
128
71
80
72
79
73
392
74
391
0
VERTEX
8
Form4
10
0.000000
20
0.000000
30
0.000000
70
128
71
79
72
19
73
171
74
392
0
VERTEX
8
Form4
10
0.000000
20
0.000000
30
0.000000
70
128
71
165
72
391
73
393
74
166
0
VERTEX
8
Form4
10
0.000000
20
0.000000
30
0.000000
70
128
71
391
72
392
73
394
74
393
0
VERTEX
8
Form4
10
0.000000
20
0.000000
30
0.000000
70
128
71
392
72
171
73
172
74
394
0
VERTEX
8
Form4
10
0.000000
20
0.000000
30
0.000000
70
128
71
166
72
393
73
174
74
34
0
VERTEX
8
Form4
10
0.000000
20
0.000000
30
0.000000
70
128
71
393
72
394
73
173
74
174
0
VERTEX
8
Form4
10
0.000000
20
0.000000
30
0.000000
70
128
71
394
72
172
73
35
74
173
0
VERTEX
8
Form4
10
0.000000
20
0.000000
30
0.000000
70
128
71
19
72
88
73
395
74
171
0
VERTEX
8
Form4
10
0.000000
20
0.000000
30
0.000000
70
128
71
88
72
87
73
396
74
395
0
VERTEX
8
Form4
10
0.000000
20
0.000000
30
0.000000
70
128
71
87
72
20
73
175
74
396
0
VERTEX
8
Form4
10
0.000000
20
0.000000
30
0.000000
70
128
71
171
72
395
73
397
74
172
0
VERTEX
8
Form4
10
0.000000
20
0.000000
30
0.000000
70
128
71
395
72
396
73
398
74
397
0
VERTEX
8
Form4
10
0.000000
20
0.000000
30
0.000000
70
128
71
396
72
175
73
176
74
398
0
VERTEX
8
Form4
10
0.000000
20
0.000000
30
0.000000
70
128
71
172
72
397
73
178
74
35
0
VERTEX
8
Form4
10
0.000000
20
0.000000
30
0.000000
70
128
71
397
72
398
73
177
74
178
0
VERTEX
8
Form4
10
0.000000
20
0.000000
30
0.000000
70
128
71
398
72
176
73
36
74
177
0
VERTEX
8
Form4
10
0.000000
20
0.000000
30
0.000000
70
128
71
20
72
94
73
399
74
175
0
VERTEX
8
Form4
10
0.000000
20
0.000000
30
0.000000
70
128
71
94
72
93
73
400
74
399
0
VERTEX
8
Form4
10
0.000000
20
0.000000
30
0.000000
70
128
71
93
72
21
73
179
74
400
0
VERTEX
8
Form4
10
0.000000
20
0.000000
30
0.000000
70
128
71
175
72
399
73
401
74
176
0
VERTEX
8
Form4
10
0.000000
20
0.000000
30
0.000000
70
128
71
399
72
400
73
402
74
401
0
VERTEX
8
Form4
10
0.000000
20
0.000000
30
0.000000
70
128
71
400
72
179
73
180
74
402
0
VERTEX
8
Form4
10
0.000000
20
0.000000
30
0.000000
70
128
71
176
72
401
73
182
74
36
0
VERTEX
8
Form4
10
0.000000
20
0.000000
30
0.000000
70
128
71
401
72
402
73
181
74
182
0
VERTEX
8
Form4
10
0.000000
20
0.000000
30
0.000000
70
128
71
402
72
180
73
37
74
181
0
VERTEX
8
Form4
10
0.000000
20
0.000000
30
0.000000
70
128
71
21
72
100
73
403
74
179
0
VERTEX
8
Form4
10
0.000000
20
0.000000
30
0.000000
70
128
71
100
72
99
73
404
74
403
0
VERTEX
8
Form4
10
0.000000
20
0.000000
30
0.000000
70
128
71
99
72
22
73
183
74
404
0
VERTEX
8
Form4
10
0.000000
20
0.000000
30
0.000000
70
128
71
179
72
403
73
405
74
180
0
VERTEX
8
Form4
10
0.000000
20
0.000000
30
0.000000
70
128
71
403
72
404
73
406
74
405
0
VERTEX
8
Form4
10
0.000000
20
0.000000
30
0.000000
70
128
71
404
72
183
73
184
74
406
0
VERTEX
8
Form4
10
0.000000
20
0.000000
30
0.000000
70
128
71
180
72
405
73
186
74
37
0
VERTEX
8
Form4
10
0.000000
20
0.000000
30
0.000000
70
128
71
405
72
406
73
185
74
186
0
VERTEX
8
Form4
10
0.000000
20
0.000000
30
0.000000
70
128
71
406
72
184
73
38
74
185
0
VERTEX
8
Form4
10
0.000000
20
0.000000
30
0.000000
70
128
71
22
72
106
73
407
74
183
0
VERTEX
8
Form4
10
0.000000
20
0.000000
30
0.000000
70
128
71
106
72
105
73
408
74
407
0
VERTEX
8
Form4
10
0.000000
20
0.000000
30
0.000000
70
128
71
105
72
23
73
187
74
408
0
VERTEX
8
Form4
10
0.000000
20
0.000000
30
0.000000
70
128
71
183
72
407
73
409
74
184
0
VERTEX
8
Form4
10
0.000000
20
0.000000
30
0.000000
70
128
71
407
72
408
73
410
74
409
0
VERTEX
8
Form4
10
0.000000
20
0.000000
30
0.000000
70
128
71
408
72
187
73
188
74
410
0
VERTEX
8
Form4
10
0.000000
20
0.000000
30
0.000000
70
128
71
184
72
409
73
190
74
38
0
VERTEX
8
Form4
10
0.000000
20
0.000000
30
0.000000
70
128
71
409
72
410
73
189
74
190
0
VERTEX
8
Form4
10
0.000000
20
0.000000
30
0.000000
70
128
71
410
72
188
73
39
74
189
0
VERTEX
8
Form4
10
0.000000
20
0.000000
30
0.000000
70
128
71
23
72
112
73
411
74
187
0
VERTEX
8
Form4
10
0.000000
20
0.000000
30
0.000000
70
128
71
112
72
111
73
412
74
411
0
VERTEX
8
Form4
10
0.000000
20
0.000000
30
0.000000
70
128
71
111
72
24
73
191
74
412
0
VERTEX
8
Form4
10
0.000000
20
0.000000
30
0.000000
70
128
71
187
72
411
73
413
74
188
0
VERTEX
8
Form4
10
0.000000
20
0.000000
30
0.000000
70
128
71
411
72
412
73
414
74
413
0
VERTEX
8
Form4
10
0.000000
20
0.000000
30
0.000000
70
128
71
412
72
191
73
192
74
414
0
VERTEX
8
Form4
10
0.000000
20
0.000000
30
0.000000
70
128
71
188
72
413
73
194
74
39
0
VERTEX
8
Form4
10
0.000000
20
0.000000
30
0.000000
70
128
71
413
72
414
73
193
74
194
0
VERTEX
8
Form4
10
0.000000
20
0.000000
30
0.000000
70
128
71
414
72
192
73
40
74
193
0
VERTEX
8
Form4
10
0.000000
20
0.000000
30
0.000000
70
128
71
24
72
118
73
415
74
553
0
VERTEX
8
Form4
10
0.000000
20
0.000000
30
0.000000
70
128
71
118
72
117
73
416
74
415
0
VERTEX
8
Form4
10
0.000000
20
0.000000
30
0.000000
70
128
71
117
72
25
73
195
74
416
0
VERTEX
8
Form4
10
0.000000
20
0.000000
30
0.000000
70
128
71
553
72
415
73
417
74
554
0
VERTEX
8
Form4
10
0.000000
20
0.000000
30
0.000000
70
128
71
415
72
416
73
418
74
417
0
VERTEX
8
Form4
10
0.000000
20
0.000000
30
0.000000
70
128
71
416
72
195
73
196
74
418
0
VERTEX
8
Form4
10
0.000000
20
0.000000
30
0.000000
70
128
71
554
72
417
73
198
74
40
0
VERTEX
8
Form4
10
0.000000
20
0.000000
30
0.000000
70
128
71
417
72
418
73
197
74
198
0
VERTEX
8
Form4
10
0.000000
20
0.000000
30
0.000000
70
128
71
418
72
196
73
41
74
197
0
VERTEX
8
Form4
10
0.000000
20
0.000000
30
0.000000
70
128
71
25
72
124
73
419
74
195
0
VERTEX
8
Form4
10
0.000000
20
0.000000
30
0.000000
70
128
71
124
72
123
73
420
74
419
0
VERTEX
8
Form4
10
0.000000
20
0.000000
30
0.000000
70
128
71
123
72
26
73
199
74
420
0
VERTEX
8
Form4
10
0.000000
20
0.000000
30
0.000000
70
128
71
195
72
419
73
421
74
196
0
VERTEX
8
Form4
10
0.000000
20
0.000000
30
0.000000
70
128
71
419
72
420
73
422
74
421
0
VERTEX
8
Form4
10
0.000000
20
0.000000
30
0.000000
70
128
71
420
72
199
73
200
74
422
0
VERTEX
8
Form4
10
0.000000
20
0.000000
30
0.000000
70
128
71
196
72
421
73
202
74
41
0
VERTEX
8
Form4
10
0.000000
20
0.000000
30
0.000000
70
128
71
421
72
422
73
201
74
202
0
VERTEX
8
Form4
10
0.000000
20
0.000000
30
0.000000
70
128
71
422
72
200
73
42
74
201
0
VERTEX
8
Form4
10
0.000000
20
0.000000
30
0.000000
70
128
71
26
72
130
73
423
74
199
0
VERTEX
8
Form4
10
0.000000
20
0.000000
30
0.000000
70
128
71
130
72
129
73
424
74
423
0
VERTEX
8
Form4
10
0.000000
20
0.000000
30
0.000000
70
128
71
129
72
27
73
203
74
424
0
VERTEX
8
Form4
10
0.000000
20
0.000000
30
0.000000
70
128
71
199
72
423
73
425
74
200
0
VERTEX
8
Form4
10
0.000000
20
0.000000
30
0.000000
70
128
71
423
72
424
73
426
74
425
0
VERTEX
8
Form4
10
0.000000
20
0.000000
30
0.000000
70
128
71
424
72
203
73
204
74
426
0
VERTEX
8
Form4
10
0.000000
20
0.000000
30
0.000000
70
128
71
200
72
425
73
206
74
42
0
VERTEX
8
Form4
10
0.000000
20
0.000000
30
0.000000
70
128
71
425
72
426
73
205
74
206
0
VERTEX
8
Form4
10
0.000000
20
0.000000
30
0.000000
70
128
71
426
72
204
73
43
74
205
0
VERTEX
8
Form4
10
0.000000
20
0.000000
30
0.000000
70
128
71
27
72
136
73
427
74
203
0
VERTEX
8
Form4
10
0.000000
20
0.000000
30
0.000000
70
128
71
136
72
135
73
428
74
427
0
VERTEX
8
Form4
10
0.000000
20
0.000000
30
0.000000
70
128
71
135
72
28
73
207
74
428
0
VERTEX
8
Form4
10
0.000000
20
0.000000
30
0.000000
70
128
71
203
72
427
73
429
74
204
0
VERTEX
8
Form4
10
0.000000
20
0.000000
30
0.000000
70
128
71
427
72
428
73
430
74
429
0
VERTEX
8
Form4
10
0.000000
20
0.000000
30
0.000000
70
128
71
428
72
207
73
208
74
430
0
VERTEX
8
Form4
10
0.000000
20
0.000000
30
0.000000
70
128
71
204
72
429
73
210
74
43
0
VERTEX
8
Form4
10
0.000000
20
0.000000
30
0.000000
70
128
71
429
72
430
73
209
74
210
0
VERTEX
8
Form4
10
0.000000
20
0.000000
30
0.000000
70
128
71
430
72
208
73
44
74
209
0
VERTEX
8
Form4
10
0.000000
20
0.000000
30
0.000000
70
128
71
28
72
142
73
431
74
207
0
VERTEX
8
Form4
10
0.000000
20
0.000000
30
0.000000
70
128
71
142
72
141
73
432
74
431
0
VERTEX
8
Form4
10
0.000000
20
0.000000
30
0.000000
70
128
71
141
72
29
73
211
74
432
0
VERTEX
8
Form4
10
0.000000
20
0.000000
30
0.000000
70
128
71
207
72
431
73
433
74
208
0
VERTEX
8
Form4
10
0.000000
20
0.000000
30
0.000000
70
128
71
431
72
432
73
434
74
433
0
VERTEX
8
Form4
10
0.000000
20
0.000000
30
0.000000
70
128
71
432
72
211
73
212
74
434
0
VERTEX
8
Form4
10
0.000000
20
0.000000
30
0.000000
70
128
71
208
72
433
73
214
74
44
0
VERTEX
8
Form4
10
0.000000
20
0.000000
30
0.000000
70
128
71
433
72
434
73
213
74
214
0
VERTEX
8
Form4
10
0.000000
20
0.000000
30
0.000000
70
128
71
434
72
212
73
45
74
213
0
VERTEX
8
Form4
10
0.000000
20
0.000000
30
0.000000
70
128
71
29
72
148
73
435
74
211
0
VERTEX
8
Form4
10
0.000000
20
0.000000
30
0.000000
70
128
71
148
72
147
73
436
74
435
0
VERTEX
8
Form4
10
0.000000
20
0.000000
30
0.000000
70
128
71
147
72
30
73
215
74
436
0
VERTEX
8
Form4
10
0.000000
20
0.000000
30
0.000000
70
128
71
211
72
435
73
437
74
212
0
VERTEX
8
Form4
10
0.000000
20
0.000000
30
0.000000
70
128
71
435
72
436
73
438
74
437
0
VERTEX
8
Form4
10
0.000000
20
0.000000
30
0.000000
70
128
71
436
72
215
73
216
74
438
0
VERTEX
8
Form4
10
0.000000
20
0.000000
30
0.000000
70
128
71
212
72
437
73
218
74
45
0
VERTEX
8
Form4
10
0.000000
20
0.000000
30
0.000000
70
128
71
437
72
438
73
217
74
218
0
VERTEX
8
Form4
10
0.000000
20
0.000000
30
0.000000
70
128
71
438
72
216
73
46
74
217
0
VERTEX
8
Form4
10
0.000000
20
0.000000
30
0.000000
70
128
71
30
72
154
73
439
74
215
0
VERTEX
8
Form4
10
0.000000
20
0.000000
30
0.000000
70
128
71
154
72
153
73
440
74
439
0
VERTEX
8
Form4
10
0.000000
20
0.000000
30
0.000000
70
128
71
153
72
31
73
219
74
440
0
VERTEX
8
Form4
10
0.000000
20
0.000000
30
0.000000
70
128
71
215
72
439
73
441
74
216
0
VERTEX
8
Form4
10
0.000000
20
0.000000
30
0.000000
70
128
71
439
72
440
73
442
74
441
0
VERTEX
8
Form4
10
0.000000
20
0.000000
30
0.000000
70
128
71
440
72
219
73
220
74
442
0
VERTEX
8
Form4
10
0.000000
20
0.000000
30
0.000000
70
128
71
216
72
441
73
222
74
46
0
VERTEX
8
Form4
10
0.000000
20
0.000000
30
0.000000
70
128
71
441
72
442
73
221
74
222
0
VERTEX
8
Form4
10
0.000000
20
0.000000
30
0.000000
70
128
71
442
72
220
73
47
74
221
0
VERTEX
8
Form4
10
0.000000
20
0.000000
30
0.000000
70
128
71
31
72
160
73
443
74
219
0
VERTEX
8
Form4
10
0.000000
20
0.000000
30
0.000000
70
128
71
160
72
159
73
444
74
443
0
VERTEX
8
Form4
10
0.000000
20
0.000000
30
0.000000
70
128
71
159
72
32
73
223
74
444
0
VERTEX
8
Form4
10
0.000000
20
0.000000
30
0.000000
70
128
71
219
72
443
73
445
74
220
0
VERTEX
8
Form4
10
0.000000
20
0.000000
30
0.000000
70
128
71
443
72
444
73
446
74
445
0
VERTEX
8
Form4
10
0.000000
20
0.000000
30
0.000000
70
128
71
444
72
223
73
224
74
446
0
VERTEX
8
Form4
10
0.000000
20
0.000000
30
0.000000
70
128
71
220
72
445
73
226
74
47
0
VERTEX
8
Form4
10
0.000000
20
0.000000
30
0.000000
70
128
71
445
72
446
73
225
74
226
0
VERTEX
8
Form4
10
0.000000
20
0.000000
30
0.000000
70
128
71
446
72
224
73
48
74
225
0
VERTEX
8
Form4
10
0.000000
20
0.000000
30
0.000000
70
128
71
535
72
550
73
447
74
555
0
VERTEX
8
Form4
10
0.000000
20
0.000000
30
0.000000
70
128
71
550
72
549
73
448
74
447
0
VERTEX
8
Form4
10
0.000000
20
0.000000
30
0.000000
70
128
71
549
72
533
73
552
74
448
0
VERTEX
8
Form4
10
0.000000
20
0.000000
30
0.000000
70
128
71
555
72
447
73
449
74
556
0
VERTEX
8
Form4
10
0.000000
20
0.000000
30
0.000000
70
128
71
447
72
448
73
450
74
449
0
VERTEX
8
Form4
10
0.000000
20
0.000000
30
0.000000
70
128
71
448
72
552
73
551
74
450
0
VERTEX
8
Form4
10
0.000000
20
0.000000
30
0.000000
70
128
71
556
72
449
73
228
74
540
0
VERTEX
8
Form4
10
0.000000
20
0.000000
30
0.000000
70
128
71
449
72
450
73
227
74
228
0
VERTEX
8
Form4
10
0.000000
20
0.000000
30
0.000000
70
128
71
450
72
551
73
538
74
227
0
VERTEX
8
Form4
10
0.000000
20
0.000000
30
0.000000
70
128
71
33
72
168
73
451
74
234
0
VERTEX
8
Form4
10
0.000000
20
0.000000
30
0.000000
70
128
71
168
72
167
73
452
74
451
0
VERTEX
8
Form4
10
0.000000
20
0.000000
30
0.000000
70
128
71
167
72
34
73
229
74
452
0
VERTEX
8
Form4
10
0.000000
20
0.000000
30
0.000000
70
128
71
234
72
451
73
453
74
233
0
VERTEX
8
Form4
10
0.000000
20
0.000000
30
0.000000
70
128
71
451
72
452
73
454
74
453
0
VERTEX
8
Form4
10
0.000000
20
0.000000
30
0.000000
70
128
71
452
72
229
73
230
74
454
0
VERTEX
8
Form4
10
0.000000
20
0.000000
30
0.000000
70
128
71
233
72
453
73
232
74
49
0
VERTEX
8
Form4
10
0.000000
20
0.000000
30
0.000000
70
128
71
453
72
454
73
231
74
232
0
VERTEX
8
Form4
10
0.000000
20
0.000000
30
0.000000
70
128
71
454
72
230
73
50
74
231
0
VERTEX
8
Form4
10
0.000000
20
0.000000
30
0.000000
70
128
71
34
72
174
73
455
74
229
0
VERTEX
8
Form4
10
0.000000
20
0.000000
30
0.000000
70
128
71
174
72
173
73
456
74
455
0
VERTEX
8
Form4
10
0.000000
20
0.000000
30
0.000000
70
128
71
173
72
35
73
235
74
456
0
VERTEX
8
Form4
10
0.000000
20
0.000000
30
0.000000
70
128
71
229
72
455
73
457
74
230
0
VERTEX
8
Form4
10
0.000000
20
0.000000
30
0.000000
70
128
71
455
72
456
73
458
74
457
0
VERTEX
8
Form4
10
0.000000
20
0.000000
30
0.000000
70
128
71
456
72
235
73
236
74
458
0
VERTEX
8
Form4
10
0.000000
20
0.000000
30
0.000000
70
128
71
230
72
457
73
238
74
50
0
VERTEX
8
Form4
10
0.000000
20
0.000000
30
0.000000
70
128
71
457
72
458
73
237
74
238
0
VERTEX
8
Form4
10
0.000000
20
0.000000
30
0.000000
70
128
71
458
72
236
73
51
74
237
0
VERTEX
8
Form4
10
0.000000
20
0.000000
30
0.000000
70
128
71
35
72
178
73
459
74
235
0
VERTEX
8
Form4
10
0.000000
20
0.000000
30
0.000000
70
128
71
178
72
177
73
460
74
459
0
VERTEX
8
Form4
10
0.000000
20
0.000000
30
0.000000
70
128
71
177
72
36
73
239
74
460
0
VERTEX
8
Form4
10
0.000000
20
0.000000
30
0.000000
70
128
71
235
72
459
73
461
74
236
0
VERTEX
8
Form4
10
0.000000
20
0.000000
30
0.000000
70
128
71
459
72
460
73
462
74
461
0
VERTEX
8
Form4
10
0.000000
20
0.000000
30
0.000000
70
128
71
460
72
239
73
240
74
462
0
VERTEX
8
Form4
10
0.000000
20
0.000000
30
0.000000
70
128
71
236
72
461
73
242
74
51
0
VERTEX
8
Form4
10
0.000000
20
0.000000
30
0.000000
70
128
71
461
72
462
73
241
74
242
0
VERTEX
8
Form4
10
0.000000
20
0.000000
30
0.000000
70
128
71
462
72
240
73
52
74
241
0
VERTEX
8
Form4
10
0.000000
20
0.000000
30
0.000000
70
128
71
36
72
182
73
463
74
239
0
VERTEX
8
Form4
10
0.000000
20
0.000000
30
0.000000
70
128
71
182
72
181
73
464
74
463
0
VERTEX
8
Form4
10
0.000000
20
0.000000
30
0.000000
70
128
71
181
72
37
73
243
74
464
0
VERTEX
8
Form4
10
0.000000
20
0.000000
30
0.000000
70
128
71
239
72
463
73
465
74
240
0
VERTEX
8
Form4
10
0.000000
20
0.000000
30
0.000000
70
128
71
463
72
464
73
466
74
465
0
VERTEX
8
Form4
10
0.000000
20
0.000000
30
0.000000
70
128
71
464
72
243
73
244
74
466
0
VERTEX
8
Form4
10
0.000000
20
0.000000
30
0.000000
70
128
71
240
72
465
73
246
74
52
0
VERTEX
8
Form4
10
0.000000
20
0.000000
30
0.000000
70
128
71
465
72
466
73
245
74
246
0
VERTEX
8
Form4
10
0.000000
20
0.000000
30
0.000000
70
128
71
466
72
244
73
53
74
245
0
VERTEX
8
Form4
10
0.000000
20
0.000000
30
0.000000
70
128
71
37
72
186
73
467
74
243
0
VERTEX
8
Form4
10
0.000000
20
0.000000
30
0.000000
70
128
71
186
72
185
73
468
74
467
0
VERTEX
8
Form4
10
0.000000
20
0.000000
30
0.000000
70
128
71
185
72
38
73
247
74
468
0
VERTEX
8
Form4
10
0.000000
20
0.000000
30
0.000000
70
128
71
243
72
467
73
469
74
244
0
VERTEX
8
Form4
10
0.000000
20
0.000000
30
0.000000
70
128
71
467
72
468
73
470
74
469
0
VERTEX
8
Form4
10
0.000000
20
0.000000
30
0.000000
70
128
71
468
72
247
73
248
74
470
0
VERTEX
8
Form4
10
0.000000
20
0.000000
30
0.000000
70
128
71
244
72
469
73
250
74
53
0
VERTEX
8
Form4
10
0.000000
20
0.000000
30
0.000000
70
128
71
469
72
470
73
249
74
250
0
VERTEX
8
Form4
10
0.000000
20
0.000000
30
0.000000
70
128
71
470
72
248
73
54
74
249
0
VERTEX
8
Form4
10
0.000000
20
0.000000
30
0.000000
70
128
71
38
72
190
73
471
74
247
0
VERTEX
8
Form4
10
0.000000
20
0.000000
30
0.000000
70
128
71
190
72
189
73
472
74
471
0
VERTEX
8
Form4
10
0.000000
20
0.000000
30
0.000000
70
128
71
189
72
39
73
251
74
472
0
VERTEX
8
Form4
10
0.000000
20
0.000000
30
0.000000
70
128
71
247
72
471
73
473
74
248
0
VERTEX
8
Form4
10
0.000000
20
0.000000
30
0.000000
70
128
71
471
72
472
73
474
74
473
0
VERTEX
8
Form4
10
0.000000
20
0.000000
30
0.000000
70
128
71
472
72
251
73
252
74
474
0
VERTEX
8
Form4
10
0.000000
20
0.000000
30
0.000000
70
128
71
248
72
473
73
254
74
54
0
VERTEX
8
Form4
10
0.000000
20
0.000000
30
0.000000
70
128
71
473
72
474
73
253
74
254
0
VERTEX
8
Form4
10
0.000000
20
0.000000
30
0.000000
70
128
71
474
72
252
73
55
74
253
0
VERTEX
8
Form4
10
0.000000
20
0.000000
30
0.000000
70
128
71
39
72
194
73
475
74
251
0
VERTEX
8
Form4
10
0.000000
20
0.000000
30
0.000000
70
128
71
194
72
193
73
476
74
475
0
VERTEX
8
Form4
10
0.000000
20
0.000000
30
0.000000
70
128
71
193
72
40
73
255
74
476
0
VERTEX
8
Form4
10
0.000000
20
0.000000
30
0.000000
70
128
71
251
72
475
73
477
74
252
0
VERTEX
8
Form4
10
0.000000
20
0.000000
30
0.000000
70
128
71
475
72
476
73
478
74
477
0
VERTEX
8
Form4
10
0.000000
20
0.000000
30
0.000000
70
128
71
476
72
255
73
256
74
478
0
VERTEX
8
Form4
10
0.000000
20
0.000000
30
0.000000
70
128
71
252
72
477
73
258
74
55
0
VERTEX
8
Form4
10
0.000000
20
0.000000
30
0.000000
70
128
71
477
72
478
73
257
74
258
0
VERTEX
8
Form4
10
0.000000
20
0.000000
30
0.000000
70
128
71
478
72
256
73
56
74
257
0
VERTEX
8
Form4
10
0.000000
20
0.000000
30
0.000000
70
128
71
40
72
198
73
479
74
255
0
VERTEX
8
Form4
10
0.000000
20
0.000000
30
0.000000
70
128
71
198
72
197
73
480
74
479
0
VERTEX
8
Form4
10
0.000000
20
0.000000
30
0.000000
70
128
71
197
72
41
73
259
74
480
0
VERTEX
8
Form4
10
0.000000
20
0.000000
30
0.000000
70
128
71
255
72
479
73
481
74
256
0
VERTEX
8
Form4
10
0.000000
20
0.000000
30
0.000000
70
128
71
479
72
480
73
482
74
481
0
VERTEX
8
Form4
10
0.000000
20
0.000000
30
0.000000
70
128
71
480
72
259
73
260
74
482
0
VERTEX
8
Form4
10
0.000000
20
0.000000
30
0.000000
70
128
71
256
72
481
73
262
74
56
0
VERTEX
8
Form4
10
0.000000
20
0.000000
30
0.000000
70
128
71
481
72
482
73
261
74
262
0
VERTEX
8
Form4
10
0.000000
20
0.000000
30
0.000000
70
128
71
482
72
260
73
57
74
261
0
VERTEX
8
Form4
10
0.000000
20
0.000000
30
0.000000
70
128
71
41
72
202
73
483
74
259
0
VERTEX
8
Form4
10
0.000000
20
0.000000
30
0.000000
70
128
71
202
72
201
73
484
74
483
0
VERTEX
8
Form4
10
0.000000
20
0.000000
30
0.000000
70
128
71
201
72
42
73
263
74
484
0
VERTEX
8
Form4
10
0.000000
20
0.000000
30
0.000000
70
128
71
259
72
483
73
485
74
260
0
VERTEX
8
Form4
10
0.000000
20
0.000000
30
0.000000
70
128
71
483
72
484
73
486
74
485
0
VERTEX
8
Form4
10
0.000000
20
0.000000
30
0.000000
70
128
71
484
72
263
73
264
74
486
0
VERTEX
8
Form4
10
0.000000
20
0.000000
30
0.000000
70
128
71
260
72
485
73
266
74
57
0
VERTEX
8
Form4
10
0.000000
20
0.000000
30
0.000000
70
128
71
485
72
486
73
265
74
266
0
VERTEX
8
Form4
10
0.000000
20
0.000000
30
0.000000
70
128
71
486
72
264
73
58
74
265
0
VERTEX
8
Form4
10
0.000000
20
0.000000
30
0.000000
70
128
71
42
72
206
73
487
74
263
0
VERTEX
8
Form4
10
0.000000
20
0.000000
30
0.000000
70
128
71
206
72
205
73
488
74
487
0
VERTEX
8
Form4
10
0.000000
20
0.000000
30
0.000000
70
128
71
205
72
43
73
267
74
488
0
VERTEX
8
Form4
10
0.000000
20
0.000000
30
0.000000
70
128
71
263
72
487
73
489
74
264
0
VERTEX
8
Form4
10
0.000000
20
0.000000
30
0.000000
70
128
71
487
72
488
73
490
74
489
0
VERTEX
8
Form4
10
0.000000
20
0.000000
30
0.000000
70
128
71
488
72
267
73
268
74
490
0
VERTEX
8
Form4
10
0.000000
20
0.000000
30
0.000000
70
128
71
264
72
489
73
270
74
58
0
VERTEX
8
Form4
10
0.000000
20
0.000000
30
0.000000
70
128
71
489
72
490
73
269
74
270
0
VERTEX
8
Form4
10
0.000000
20
0.000000
30
0.000000
70
128
71
490
72
268
73
59
74
269
0
VERTEX
8
Form4
10
0.000000
20
0.000000
30
0.000000
70
128
71
43
72
210
73
491
74
267
0
VERTEX
8
Form4
10
0.000000
20
0.000000
30
0.000000
70
128
71
210
72
209
73
492
74
491
0
VERTEX
8
Form4
10
0.000000
20
0.000000
30
0.000000
70
128
71
209
72
44
73
271
74
492
0
VERTEX
8
Form4
10
0.000000
20
0.000000
30
0.000000
70
128
71
267
72
491
73
493
74
268
0
VERTEX
8
Form4
10
0.000000
20
0.000000
30
0.000000
70
128
71
491
72
492
73
494
74
493
0
VERTEX
8
Form4
10
0.000000
20
0.000000
30
0.000000
70
128
71
492
72
271
73
272
74
494
0
VERTEX
8
Form4
10
0.000000
20
0.000000
30
0.000000
70
128
71
268
72
493
73
274
74
59
0
VERTEX
8
Form4
10
0.000000
20
0.000000
30
0.000000
70
128
71
493
72
494
73
273
74
274
0
VERTEX
8
Form4
10
0.000000
20
0.000000
30
0.000000
70
128
71
494
72
272
73
60
74
273
0
VERTEX
8
Form4
10
0.000000
20
0.000000
30
0.000000
70
128
71
44
72
214
73
495
74
271
0
VERTEX
8
Form4
10
0.000000
20
0.000000
30
0.000000
70
128
71
214
72
213
73
496
74
495
0
VERTEX
8
Form4
10
0.000000
20
0.000000
30
0.000000
70
128
71
213
72
45
73
275
74
496
0
VERTEX
8
Form4
10
0.000000
20
0.000000
30
0.000000
70
128
71
271
72
495
73
497
74
272
0
VERTEX
8
Form4
10
0.000000
20
0.000000
30
0.000000
70
128
71
495
72
496
73
498
74
497
0
VERTEX
8
Form4
10
0.000000
20
0.000000
30
0.000000
70
128
71
496
72
275
73
276
74
498
0
VERTEX
8
Form4
10
0.000000
20
0.000000
30
0.000000
70
128
71
272
72
497
73
278
74
60
0
VERTEX
8
Form4
10
0.000000
20
0.000000
30
0.000000
70
128
71
497
72
498
73
277
74
278
0
VERTEX
8
Form4
10
0.000000
20
0.000000
30
0.000000
70
128
71
498
72
276
73
61
74
277
0
VERTEX
8
Form4
10
0.000000
20
0.000000
30
0.000000
70
128
71
45
72
218
73
499
74
275
0
VERTEX
8
Form4
10
0.000000
20
0.000000
30
0.000000
70
128
71
218
72
217
73
500
74
499
0
VERTEX
8
Form4
10
0.000000
20
0.000000
30
0.000000
70
128
71
217
72
46
73
279
74
500
0
VERTEX
8
Form4
10
0.000000
20
0.000000
30
0.000000
70
128
71
275
72
499
73
501
74
276
0
VERTEX
8
Form4
10
0.000000
20
0.000000
30
0.000000
70
128
71
499
72
500
73
502
74
501
0
VERTEX
8
Form4
10
0.000000
20
0.000000
30
0.000000
70
128
71
500
72
279
73
280
74
502
0
VERTEX
8
Form4
10
0.000000
20
0.000000
30
0.000000
70
128
71
276
72
501
73
282
74
61
0
VERTEX
8
Form4
10
0.000000
20
0.000000
30
0.000000
70
128
71
501
72
502
73
281
74
282
0
VERTEX
8
Form4
10
0.000000
20
0.000000
30
0.000000
70
128
71
502
72
280
73
62
74
281
0
VERTEX
8
Form4
10
0.000000
20
0.000000
30
0.000000
70
128
71
46
72
222
73
503
74
279
0
VERTEX
8
Form4
10
0.000000
20
0.000000
30
0.000000
70
128
71
222
72
221
73
504
74
503
0
VERTEX
8
Form4
10
0.000000
20
0.000000
30
0.000000
70
128
71
221
72
47
73
283
74
504
0
VERTEX
8
Form4
10
0.000000
20
0.000000
30
0.000000
70
128
71
279
72
503
73
505
74
280
0
VERTEX
8
Form4
10
0.000000
20
0.000000
30
0.000000
70
128
71
503
72
504
73
506
74
505
0
VERTEX
8
Form4
10
0.000000
20
0.000000
30
0.000000
70
128
71
504
72
283
73
284
74
506
0
VERTEX
8
Form4
10
0.000000
20
0.000000
30
0.000000
70
128
71
280
72
505
73
286
74
62
0
VERTEX
8
Form4
10
0.000000
20
0.000000
30
0.000000
70
128
71
505
72
506
73
285
74
286
0
VERTEX
8
Form4
10
0.000000
20
0.000000
30
0.000000
70
128
71
506
72
284
73
63
74
285
0
VERTEX
8
Form4
10
0.000000
20
0.000000
30
0.000000
70
128
71
47
72
226
73
507
74
283
0
VERTEX
8
Form4
10
0.000000
20
0.000000
30
0.000000
70
128
71
226
72
225
73
508
74
507
0
VERTEX
8
Form4
10
0.000000
20
0.000000
30
0.000000
70
128
71
225
72
48
73
287
74
508
0
VERTEX
8
Form4
10
0.000000
20
0.000000
30
0.000000
70
128
71
283
72
507
73
509
74
284
0
VERTEX
8
Form4
10
0.000000
20
0.000000
30
0.000000
70
128
71
507
72
508
73
510
74
509
0
VERTEX
8
Form4
10
0.000000
20
0.000000
30
0.000000
70
128
71
508
72
287
73
288
74
510
0
VERTEX
8
Form4
10
0.000000
20
0.000000
30
0.000000
70
128
71
284
72
509
73
290
74
63
0
VERTEX
8
Form4
10
0.000000
20
0.000000
30
0.000000
70
128
71
509
72
510
73
289
74
290
0
VERTEX
8
Form4
10
0.000000
20
0.000000
30
0.000000
70
128
71
510
72
288
73
64
74
289
0
VERTEX
8
Form4
10
0.000000
20
0.000000
30
0.000000
70
128
71
539
72
558
73
511
74
561
0
VERTEX
8
Form4
10
0.000000
20
0.000000
30
0.000000
70
128
71
558
72
557
73
512
74
511
0
VERTEX
8
Form4
10
0.000000
20
0.000000
30
0.000000
70
128
71
557
72
537
73
560
74
512
0
VERTEX
8
Form4
10
0.000000
20
0.000000
30
0.000000
70
128
71
561
72
511
73
513
74
562
0
VERTEX
8
Form4
10
0.000000
20
0.000000
30
0.000000
70
128
71
511
72
512
73
514
74
513
0
VERTEX
8
Form4
10
0.000000
20
0.000000
30
0.000000
70
128
71
512
72
560
73
559
74
514
0
VERTEX
8
Form4
10
0.000000
20
0.000000
30
0.000000
70
128
71
562
72
513
73
292
74
542
0
VERTEX
8
Form4
10
0.000000
20
0.000000
30
0.000000
70
128
71
513
72
514
73
291
74
292
0
VERTEX
8
Form4
10
0.000000
20
0.000000
30
0.000000
70
128
71
514
72
559
73
541
74
291
0
VERTEX
8
Form4
10
0.000000
20
0.000000
30
0.000000
70
128
71
296
72
66
73
293
74
293
0
VERTEX
8
Form4
10
0.000000
20
0.000000
30
0.000000
70
128
71
515
72
293
73
294
74
294
0
VERTEX
8
Form4
10
0.000000
20
0.000000
30
0.000000
70
128
71
232
72
294
73
49
74
49
0
VERTEX
8
Form4
10
0.000000
20
0.000000
30
0.000000
70
128
71
296
72
293
73
515
74
515
0
VERTEX
8
Form4
10
0.000000
20
0.000000
30
0.000000
70
128
71
515
72
294
73
232
74
232
0
VERTEX
8
Form4
10
0.000000
20
0.000000
30
0.000000
70
128
71
295
72
296
73
515
74
515
0
VERTEX
8
Form4
10
0.000000
20
0.000000
30
0.000000
70
128
71
231
72
515
73
232
74
232
0
VERTEX
8
Form4
10
0.000000
20
0.000000
30
0.000000
70
128
71
295
72
515
73
231
74
231
0
VERTEX
8
Form4
10
0.000000
20
0.000000
30
0.000000
70
128
71
50
72
295
73
231
74
231
0
VERTEX
8
Form4
10
0.000000
20
0.000000
30
0.000000
70
128
71
298
72
66
73
296
74
296
0
VERTEX
8
Form4
10
0.000000
20
0.000000
30
0.000000
70
128
71
516
72
296
73
295
74
295
0
VERTEX
8
Form4
10
0.000000
20
0.000000
30
0.000000
70
128
71
238
72
295
73
50
74
50
0
VERTEX
8
Form4
10
0.000000
20
0.000000
30
0.000000
70
128
71
298
72
296
73
516
74
516
0
VERTEX
8
Form4
10
0.000000
20
0.000000
30
0.000000
70
128
71
516
72
295
73
238
74
238
0
VERTEX
8
Form4
10
0.000000
20
0.000000
30
0.000000
70
128
71
297
72
298
73
516
74
516
0
VERTEX
8
Form4
10
0.000000
20
0.000000
30
0.000000
70
128
71
237
72
516
73
238
74
238
0
VERTEX
8
Form4
10
0.000000
20
0.000000
30
0.000000
70
128
71
297
72
516
73
237
74
237
0
VERTEX
8
Form4
10
0.000000
20
0.000000
30
0.000000
70
128
71
51
72
297
73
237
74
237
0
VERTEX
8
Form4
10
0.000000
20
0.000000
30
0.000000
70
128
71
300
72
66
73
298
74
298
0
VERTEX
8
Form4
10
0.000000
20
0.000000
30
0.000000
70
128
71
517
72
298
73
297
74
297
0
VERTEX
8
Form4
10
0.000000
20
0.000000
30
0.000000
70
128
71
242
72
297
73
51
74
51
0
VERTEX
8
Form4
10
0.000000
20
0.000000
30
0.000000
70
128
71
300
72
298
73
517
74
517
0
VERTEX
8
Form4
10
0.000000
20
0.000000
30
0.000000
70
128
71
517
72
297
73
242
74
242
0
VERTEX
8
Form4
10
0.000000
20
0.000000
30
0.000000
70
128
71
299
72
300
73
517
74
517
0
VERTEX
8
Form4
10
0.000000
20
0.000000
30
0.000000
70
128
71
241
72
517
73
242
74
242
0
VERTEX
8
Form4
10
0.000000
20
0.000000
30
0.000000
70
128
71
299
72
517
73
241
74
241
0
VERTEX
8
Form4
10
0.000000
20
0.000000
30
0.000000
70
128
71
52
72
299
73
241
74
241
0
VERTEX
8
Form4
10
0.000000
20
0.000000
30
0.000000
70
128
71
302
72
66
73
300
74
300
0
VERTEX
8
Form4
10
0.000000
20
0.000000
30
0.000000
70
128
71
518
72
300
73
299
74
299
0
VERTEX
8
Form4
10
0.000000
20
0.000000
30
0.000000
70
128
71
246
72
299
73
52
74
52
0
VERTEX
8
Form4
10
0.000000
20
0.000000
30
0.000000
70
128
71
302
72
300
73
518
74
518
0
VERTEX
8
Form4
10
0.000000
20
0.000000
30
0.000000
70
128
71
518
72
299
73
246
74
246
0
VERTEX
8
Form4
10
0.000000
20
0.000000
30
0.000000
70
128
71
301
72
302
73
518
74
518
0
VERTEX
8
Form4
10
0.000000
20
0.000000
30
0.000000
70
128
71
245
72
518
73
246
74
246
0
VERTEX
8
Form4
10
0.000000
20
0.000000
30
0.000000
70
128
71
301
72
518
73
245
74
245
0
VERTEX
8
Form4
10
0.000000
20
0.000000
30
0.000000
70
128
71
53
72
301
73
245
74
245
0
VERTEX
8
Form4
10
0.000000
20
0.000000
30
0.000000
70
128
71
304
72
66
73
302
74
302
0
VERTEX
8
Form4
10
0.000000
20
0.000000
30
0.000000
70
128
71
519
72
302
73
301
74
301
0
VERTEX
8
Form4
10
0.000000
20
0.000000
30
0.000000
70
128
71
250
72
301
73
53
74
53
0
VERTEX
8
Form4
10
0.000000
20
0.000000
30
0.000000
70
128
71
304
72
302
73
519
74
519
0
VERTEX
8
Form4
10
0.000000
20
0.000000
30
0.000000
70
128
71
519
72
301
73
250
74
250
0
VERTEX
8
Form4
10
0.000000
20
0.000000
30
0.000000
70
128
71
303
72
304
73
519
74
519
0
VERTEX
8
Form4
10
0.000000
20
0.000000
30
0.000000
70
128
71
249
72
519
73
250
74
250
0
VERTEX
8
Form4
10
0.000000
20
0.000000
30
0.000000
70
128
71
303
72
519
73
249
74
249
0
VERTEX
8
Form4
10
0.000000
20
0.000000
30
0.000000
70
128
71
54
72
303
73
249
74
249
0
VERTEX
8
Form4
10
0.000000
20
0.000000
30
0.000000
70
128
71
306
72
66
73
304
74
304
0
VERTEX
8
Form4
10
0.000000
20
0.000000
30
0.000000
70
128
71
520
72
304
73
303
74
303
0
VERTEX
8
Form4
10
0.000000
20
0.000000
30
0.000000
70
128
71
254
72
303
73
54
74
54
0
VERTEX
8
Form4
10
0.000000
20
0.000000
30
0.000000
70
128
71
306
72
304
73
520
74
520
0
VERTEX
8
Form4
10
0.000000
20
0.000000
30
0.000000
70
128
71
520
72
303
73
254
74
254
0
VERTEX
8
Form4
10
0.000000
20
0.000000
30
0.000000
70
128
71
305
72
306
73
520
74
520
0
VERTEX
8
Form4
10
0.000000
20
0.000000
30
0.000000
70
128
71
253
72
520
73
254
74
254
0
VERTEX
8
Form4
10
0.000000
20
0.000000
30
0.000000
70
128
71
305
72
520
73
253
74
253
0
VERTEX
8
Form4
10
0.000000
20
0.000000
30
0.000000
70
128
71
55
72
305
73
253
74
253
0
VERTEX
8
Form4
10
0.000000
20
0.000000
30
0.000000
70
128
71
308
72
66
73
306
74
306
0
VERTEX
8
Form4
10
0.000000
20
0.000000
30
0.000000
70
128
71
521
72
306
73
305
74
305
0
VERTEX
8
Form4
10
0.000000
20
0.000000
30
0.000000
70
128
71
258
72
305
73
55
74
55
0
VERTEX
8
Form4
10
0.000000
20
0.000000
30
0.000000
70
128
71
308
72
306
73
521
74
521
0
VERTEX
8
Form4
10
0.000000
20
0.000000
30
0.000000
70
128
71
521
72
305
73
258
74
258
0
VERTEX
8
Form4
10
0.000000
20
0.000000
30
0.000000
70
128
71
307
72
308
73
521
74
521
0
VERTEX
8
Form4
10
0.000000
20
0.000000
30
0.000000
70
128
71
257
72
521
73
258
74
258
0
VERTEX
8
Form4
10
0.000000
20
0.000000
30
0.000000
70
128
71
307
72
521
73
257
74
257
0
VERTEX
8
Form4
10
0.000000
20
0.000000
30
0.000000
70
128
71
56
72
307
73
257
74
257
0
VERTEX
8
Form4
10
0.000000
20
0.000000
30
0.000000
70
128
71
310
72
66
73
308
74
308
0
VERTEX
8
Form4
10
0.000000
20
0.000000
30
0.000000
70
128
71
522
72
308
73
307
74
307
0
VERTEX
8
Form4
10
0.000000
20
0.000000
30
0.000000
70
128
71
262
72
307
73
56
74
56
0
VERTEX
8
Form4
10
0.000000
20
0.000000
30
0.000000
70
128
71
310
72
308
73
522
74
522
0
VERTEX
8
Form4
10
0.000000
20
0.000000
30
0.000000
70
128
71
522
72
307
73
262
74
262
0
VERTEX
8
Form4
10
0.000000
20
0.000000
30
0.000000
70
128
71
309
72
310
73
522
74
522
0
VERTEX
8
Form4
10
0.000000
20
0.000000
30
0.000000
70
128
71
261
72
522
73
262
74
262
0
VERTEX
8
Form4
10
0.000000
20
0.000000
30
0.000000
70
128
71
309
72
522
73
261
74
261
0
VERTEX
8
Form4
10
0.000000
20
0.000000
30
0.000000
70
128
71
57
72
309
73
261
74
261
0
VERTEX
8
Form4
10
0.000000
20
0.000000
30
0.000000
70
128
71
312
72
66
73
310
74
310
0
VERTEX
8
Form4
10
0.000000
20
0.000000
30
0.000000
70
128
71
523
72
310
73
309
74
309
0
VERTEX
8
Form4
10
0.000000
20
0.000000
30
0.000000
70
128
71
266
72
309
73
57
74
57
0
VERTEX
8
Form4
10
0.000000
20
0.000000
30
0.000000
70
128
71
312
72
310
73
523
74
523
0
VERTEX
8
Form4
10
0.000000
20
0.000000
30
0.000000
70
128
71
523
72
309
73
266
74
266
0
VERTEX
8
Form4
10
0.000000
20
0.000000
30
0.000000
70
128
71
311
72
312
73
523
74
523
0
VERTEX
8
Form4
10
0.000000
20
0.000000
30
0.000000
70
128
71
265
72
523
73
266
74
266
0
VERTEX
8
Form4
10
0.000000
20
0.000000
30
0.000000
70
128
71
311
72
523
73
265
74
265
0
VERTEX
8
Form4
10
0.000000
20
0.000000
30
0.000000
70
128
71
58
72
311
73
265
74
265
0
VERTEX
8
Form4
10
0.000000
20
0.000000
30
0.000000
70
128
71
314
72
66
73
312
74
312
0
VERTEX
8
Form4
10
0.000000
20
0.000000
30
0.000000
70
128
71
524
72
312
73
311
74
311
0
VERTEX
8
Form4
10
0.000000
20
0.000000
30
0.000000
70
128
71
270
72
311
73
58
74
58
0
VERTEX
8
Form4
10
0.000000
20
0.000000
30
0.000000
70
128
71
314
72
312
73
524
74
524
0
VERTEX
8
Form4
10
0.000000
20
0.000000
30
0.000000
70
128
71
524
72
311
73
270
74
270
0
VERTEX
8
Form4
10
0.000000
20
0.000000
30
0.000000
70
128
71
313
72
314
73
524
74
524
0
VERTEX
8
Form4
10
0.000000
20
0.000000
30
0.000000
70
128
71
269
72
524
73
270
74
270
0
VERTEX
8
Form4
10
0.000000
20
0.000000
30
0.000000
70
128
71
313
72
524
73
269
74
269
0
VERTEX
8
Form4
10
0.000000
20
0.000000
30
0.000000
70
128
71
59
72
313
73
269
74
269
0
VERTEX
8
Form4
10
0.000000
20
0.000000
30
0.000000
70
128
71
316
72
66
73
314
74
314
0
VERTEX
8
Form4
10
0.000000
20
0.000000
30
0.000000
70
128
71
525
72
314
73
313
74
313
0
VERTEX
8
Form4
10
0.000000
20
0.000000
30
0.000000
70
128
71
274
72
313
73
59
74
59
0
VERTEX
8
Form4
10
0.000000
20
0.000000
30
0.000000
70
128
71
316
72
314
73
525
74
525
0
VERTEX
8
Form4
10
0.000000
20
0.000000
30
0.000000
70
128
71
525
72
313
73
274
74
274
0
VERTEX
8
Form4
10
0.000000
20
0.000000
30
0.000000
70
128
71
315
72
316
73
525
74
525
0
VERTEX
8
Form4
10
0.000000
20
0.000000
30
0.000000
70
128
71
273
72
525
73
274
74
274
0
VERTEX
8
Form4
10
0.000000
20
0.000000
30
0.000000
70
128
71
315
72
525
73
273
74
273
0
VERTEX
8
Form4
10
0.000000
20
0.000000
30
0.000000
70
128
71
60
72
315
73
273
74
273
0
VERTEX
8
Form4
10
0.000000
20
0.000000
30
0.000000
70
128
71
318
72
66
73
316
74
316
0
VERTEX
8
Form4
10
0.000000
20
0.000000
30
0.000000
70
128
71
526
72
316
73
315
74
315
0
VERTEX
8
Form4
10
0.000000
20
0.000000
30
0.000000
70
128
71
278
72
315
73
60
74
60
0
VERTEX
8
Form4
10
0.000000
20
0.000000
30
0.000000
70
128
71
318
72
316
73
526
74
526
0
VERTEX
8
Form4
10
0.000000
20
0.000000
30
0.000000
70
128
71
526
72
315
73
278
74
278
0
VERTEX
8
Form4
10
0.000000
20
0.000000
30
0.000000
70
128
71
317
72
318
73
526
74
526
0
VERTEX
8
Form4
10
0.000000
20
0.000000
30
0.000000
70
128
71
277
72
526
73
278
74
278
0
VERTEX
8
Form4
10
0.000000
20
0.000000
30
0.000000
70
128
71
317
72
526
73
277
74
277
0
VERTEX
8
Form4
10
0.000000
20
0.000000
30
0.000000
70
128
71
61
72
317
73
277
74
277
0
VERTEX
8
Form4
10
0.000000
20
0.000000
30
0.000000
70
128
71
320
72
66
73
318
74
318
0
VERTEX
8
Form4
10
0.000000
20
0.000000
30
0.000000
70
128
71
527
72
318
73
317
74
317
0
VERTEX
8
Form4
10
0.000000
20
0.000000
30
0.000000
70
128
71
282
72
317
73
61
74
61
0
VERTEX
8
Form4
10
0.000000
20
0.000000
30
0.000000
70
128
71
320
72
318
73
527
74
527
0
VERTEX
8
Form4
10
0.000000
20
0.000000
30
0.000000
70
128
71
527
72
317
73
282
74
282
0
VERTEX
8
Form4
10
0.000000
20
0.000000
30
0.000000
70
128
71
319
72
320
73
527
74
527
0
VERTEX
8
Form4
10
0.000000
20
0.000000
30
0.000000
70
128
71
281
72
527
73
282
74
282
0
VERTEX
8
Form4
10
0.000000
20
0.000000
30
0.000000
70
128
71
319
72
527
73
281
74
281
0
VERTEX
8
Form4
10
0.000000
20
0.000000
30
0.000000
70
128
71
62
72
319
73
281
74
281
0
VERTEX
8
Form4
10
0.000000
20
0.000000
30
0.000000
70
128
71
322
72
66
73
320
74
320
0
VERTEX
8
Form4
10
0.000000
20
0.000000
30
0.000000
70
128
71
528
72
320
73
319
74
319
0
VERTEX
8
Form4
10
0.000000
20
0.000000
30
0.000000
70
128
71
286
72
319
73
62
74
62
0
VERTEX
8
Form4
10
0.000000
20
0.000000
30
0.000000
70
128
71
322
72
320
73
528
74
528
0
VERTEX
8
Form4
10
0.000000
20
0.000000
30
0.000000
70
128
71
528
72
319
73
286
74
286
0
VERTEX
8
Form4
10
0.000000
20
0.000000
30
0.000000
70
128
71
321
72
322
73
528
74
528
0
VERTEX
8
Form4
10
0.000000
20
0.000000
30
0.000000
70
128
71
285
72
528
73
286
74
286
0
VERTEX
8
Form4
10
0.000000
20
0.000000
30
0.000000
70
128
71
321
72
528
73
285
74
285
0
VERTEX
8
Form4
10
0.000000
20
0.000000
30
0.000000
70
128
71
63
72
321
73
285
74
285
0
VERTEX
8
Form4
10
0.000000
20
0.000000
30
0.000000
70
128
71
324
72
66
73
322
74
322
0
VERTEX
8
Form4
10
0.000000
20
0.000000
30
0.000000
70
128
71
529
72
322
73
321
74
321
0
VERTEX
8
Form4
10
0.000000
20
0.000000
30
0.000000
70
128
71
290
72
321
73
63
74
63
0
VERTEX
8
Form4
10
0.000000
20
0.000000
30
0.000000
70
128
71
324
72
322
73
529
74
529
0
VERTEX
8
Form4
10
0.000000
20
0.000000
30
0.000000
70
128
71
529
72
321
73
290
74
290
0
VERTEX
8
Form4
10
0.000000
20
0.000000
30
0.000000
70
128
71
323
72
324
73
529
74
529
0
VERTEX
8
Form4
10
0.000000
20
0.000000
30
0.000000
70
128
71
289
72
529
73
290
74
290
0
VERTEX
8
Form4
10
0.000000
20
0.000000
30
0.000000
70
128
71
323
72
529
73
289
74
289
0
VERTEX
8
Form4
10
0.000000
20
0.000000
30
0.000000
70
128
71
64
72
323
73
289
74
289
0
VERTEX
8
Form4
10
0.000000
20
0.000000
30
0.000000
70
128
71
293
72
66
73
324
74
324
0
VERTEX
8
Form4
10
0.000000
20
0.000000
30
0.000000
70
128
71
530
72
324
73
323
74
323
0
VERTEX
8
Form4
10
0.000000
20
0.000000
30
0.000000
70
128
71
564
72
323
73
64
74
64
0
VERTEX
8
Form4
10
0.000000
20
0.000000
30
0.000000
70
128
71
293
72
324
73
530
74
530
0
VERTEX
8
Form4
10
0.000000
20
0.000000
30
0.000000
70
128
71
530
72
323
73
564
74
564
0
VERTEX
8
Form4
10
0.000000
20
0.000000
30
0.000000
70
128
71
294
72
293
73
530
74
530
0
VERTEX
8
Form4
10
0.000000
20
0.000000
30
0.000000
70
128
71
563
72
530
73
564
74
564
0
VERTEX
8
Form4
10
0.000000
20
0.000000
30
0.000000
70
128
71
294
72
530
73
563
74
563
0
VERTEX
8
Form4
10
0.000000
20
0.000000
30
0.000000
70
128
71
49
72
294
73
563
74
563
0
VERTEX
8
Form4
10
0.000000
20
0.000000
30
0.000000
70
128
71
84
72
4
73
77
74
77
0
VERTEX
8
Form4
10
0.000000
20
0.000000
30
0.000000
70
128
71
65
72
83
73
77
74
77
0
VERTEX
8
Form4
10
0.000000
20
0.000000
30
0.000000
70
128
71
3
72
81
73
77
74
77
0
VERTEX
8
Form4
10
0.000000
20
0.000000
30
0.000000
70
128
71
81
72
82
73
77
74
77
0
VERTEX
8
Form4
10
0.000000
20
0.000000
30
0.000000
70
128
71
77
72
82
73
65
74
65
0
VERTEX
8
Form4
10
0.000000
20
0.000000
30
0.000000
70
128
71
83
72
84
73
77
74
77
0
VERTEX
8
Form4
10
0.000000
20
0.000000
30
0.000000
70
128
71
19
72
85
73
86
74
86
0
VERTEX
8
Form4
10
0.000000
20
0.000000
30
0.000000
70
128
71
86
72
20
73
88
74
88
0
VERTEX
8
Form4
10
0.000000
20
0.000000
30
0.000000
70
128
71
87
72
88
73
20
74
20
0
VERTEX
8
Form4
10
0.000000
20
0.000000
30
0.000000
70
128
71
4
72
78
73
77
74
77
0
VERTEX
8
Form4
10
0.000000
20
0.000000
30
0.000000
70
128
71
19
72
78
73
85
74
85
0
VERTEX
8
Form4
10
0.000000
20
0.000000
30
0.000000
70
128
71
88
72
19
73
86
74
86
0
VERTEX
8
Form4
10
0.000000
20
0.000000
30
0.000000
70
128
71
78
72
4
73
85
74
85
0
VERTEX
8
Form4
10
0.000000
20
0.000000
30
0.000000
70
128
71
155
72
15
73
325
74
325
0
VERTEX
8
Form4
10
0.000000
20
0.000000
30
0.000000
70
128
71
156
72
155
73
67
74
67
0
VERTEX
8
Form4
10
0.000000
20
0.000000
30
0.000000
70
128
71
155
72
325
73
67
74
67
0
VERTEX
8
Form4
10
0.000000
20
0.000000
30
0.000000
70
128
71
16
72
156
73
547
74
547
0
VERTEX
8
Form4
10
0.000000
20
0.000000
30
0.000000
70
128
71
548
72
547
73
156
74
156
0
VERTEX
8
Form4
10
0.000000
20
0.000000
30
0.000000
70
128
71
67
72
1
73
548
74
548
0
VERTEX
8
Form4
10
0.000000
20
0.000000
30
0.000000
70
128
71
67
72
548
73
156
74
156
0
VERTEX
8
Form4
10
0.000000
20
0.000000
30
0.000000
70
128
71
325
72
326
73
68
74
68
0
VERTEX
8
Form4
10
0.000000
20
0.000000
30
0.000000
70
128
71
3
72
76
73
326
74
326
0
VERTEX
8
Form4
10
0.000000
20
0.000000
30
0.000000
70
128
71
326
72
82
73
81
74
81
0
VERTEX
8
Form4
10
0.000000
20
0.000000
30
0.000000
70
128
71
81
72
3
73
326
74
326
0
VERTEX
8
Form4
10
0.000000
20
0.000000
30
0.000000
70
128
71
325
72
68
73
67
74
67
0
VERTEX
8
Form4
10
0.000000
20
0.000000
30
0.000000
70
128
71
326
72
75
73
2
74
2
0
VERTEX
8
Form4
10
0.000000
20
0.000000
30
0.000000
70
128
71
68
72
326
73
2
74
2
0
VERTEX
8
Form4
10
0.000000
20
0.000000
30
0.000000
70
128
71
326
72
76
73
75
74
75
0
VERTEX
8
Form4
10
0.000000
20
0.000000
30
0.000000
70
128
71
326
72
65
73
82
74
82
0
VERTEX
8
Form4
10
0.000000
20
0.000000
30
0.000000
70
128
71
131
72
137
73
132
74
132
0
VERTEX
8
Form4
10
0.000000
20
0.000000
30
0.000000
70
128
71
137
72
12
73
132
74
132
0
VERTEX
8
Form4
10
0.000000
20
0.000000
30
0.000000
70
128
71
131
72
11
73
126
74
126
0
VERTEX
8
Form4
10
0.000000
20
0.000000
30
0.000000
70
128
71
138
72
126
73
125
74
125
0
VERTEX
8
Form4
10
0.000000
20
0.000000
30
0.000000
70
128
71
325
72
10
73
120
74
120
0
VERTEX
8
Form4
10
0.000000
20
0.000000
30
0.000000
70
128
71
10
72
13
73
125
74
125
0
VERTEX
8
Form4
10
0.000000
20
0.000000
30
0.000000
70
128
71
131
72
126
73
138
74
138
0
VERTEX
8
Form4
10
0.000000
20
0.000000
30
0.000000
70
128
71
326
72
325
73
120
74
120
0
VERTEX
8
Form4
10
0.000000
20
0.000000
30
0.000000
70
128
71
325
72
143
73
13
74
13
0
VERTEX
8
Form4
10
0.000000
20
0.000000
30
0.000000
70
128
71
143
72
325
73
144
74
144
0
VERTEX
8
Form4
10
0.000000
20
0.000000
30
0.000000
70
128
71
14
72
144
73
325
74
325
0
VERTEX
8
Form4
10
0.000000
20
0.000000
30
0.000000
70
128
71
13
72
138
73
125
74
125
0
VERTEX
8
Form4
10
0.000000
20
0.000000
30
0.000000
70
128
71
14
72
325
73
149
74
149
0
VERTEX
8
Form4
10
0.000000
20
0.000000
30
0.000000
70
128
71
138
72
137
73
131
74
131
0
VERTEX
8
Form4
10
0.000000
20
0.000000
30
0.000000
70
128
71
150
72
325
73
15
74
15
0
VERTEX
8
Form4
10
0.000000
20
0.000000
30
0.000000
70
128
71
325
72
150
73
149
74
149
0
VERTEX
8
Form4
10
0.000000
20
0.000000
30
0.000000
70
128
71
325
72
13
73
10
74
10
0
VERTEX
8
Form4
10
0.000000
20
0.000000
30
0.000000
70
128
71
120
72
119
73
326
74
326
0
VERTEX
8
Form4
10
0.000000
20
0.000000
30
0.000000
70
128
71
114
72
326
73
9
74
9
0
VERTEX
8
Form4
10
0.000000
20
0.000000
30
0.000000
70
128
71
113
72
8
73
108
74
108
0
VERTEX
8
Form4
10
0.000000
20
0.000000
30
0.000000
70
128
71
326
72
114
73
113
74
113
0
VERTEX
8
Form4
10
0.000000
20
0.000000
30
0.000000
70
128
71
113
72
108
73
326
74
326
0
VERTEX
8
Form4
10
0.000000
20
0.000000
30
0.000000
70
128
71
326
72
107
73
7
74
7
0
VERTEX
8
Form4
10
0.000000
20
0.000000
30
0.000000
70
128
71
326
72
102
73
101
74
101
0
VERTEX
8
Form4
10
0.000000
20
0.000000
30
0.000000
70
128
71
102
72
326
73
7
74
7
0
VERTEX
8
Form4
10
0.000000
20
0.000000
30
0.000000
70
128
71
326
72
108
73
107
74
107
0
VERTEX
8
Form4
10
0.000000
20
0.000000
30
0.000000
70
128
71
101
72
6
73
326
74
326
0
VERTEX
8
Form4
10
0.000000
20
0.000000
30
0.000000
70
128
71
4
72
84
73
326
74
326
0
VERTEX
8
Form4
10
0.000000
20
0.000000
30
0.000000
70
128
71
326
72
83
73
65
74
65
0
VERTEX
8
Form4
10
0.000000
20
0.000000
30
0.000000
70
128
71
83
72
326
73
84
74
84
0
VERTEX
8
Form4
10
0.000000
20
0.000000
30
0.000000
70
128
71
4
72
326
73
89
74
89
0
VERTEX
8
Form4
10
0.000000
20
0.000000
30
0.000000
70
128
71
95
72
5
73
326
74
326
0
VERTEX
8
Form4
10
0.000000
20
0.000000
30
0.000000
70
128
71
326
72
90
73
89
74
89
0
VERTEX
8
Form4
10
0.000000
20
0.000000
30
0.000000
70
128
71
326
72
5
73
90
74
90
0
VERTEX
8
Form4
10
0.000000
20
0.000000
30
0.000000
70
128
71
326
72
96
73
95
74
95
0
VERTEX
8
Form4
10
0.000000
20
0.000000
30
0.000000
70
128
71
326
72
6
73
96
74
96
0
VERTEX
8
Form4
10
0.000000
20
0.000000
30
0.000000
70
128
71
9
72
326
73
119
74
119
0
SEQEND
8
Form4
0
ENDSEC
0
EOF
