999
***** Fichier AutoCAD DXF créé parAmapi
0
SECTION
2
ENTITIES
0
POLYLINE
8
Form0
66
1
10
0.000000
20
0.000000
30
0.000000
70
64
71
202
72
242
0
VERTEX
8
Form0
10
34.235809
20
12.003611
30
-49.188812
70
192
0
VERTEX
8
Form0
10
28.756317
20
12.003611
30
-49.188812
70
192
0
VERTEX
8
Form0
10
28.079655
20
14.968256
30
-42.874344
70
192
0
VERTEX
8
Form0
10
34.912468
20
14.968257
30
-42.874344
70
192
0
VERTEX
8
Form0
10
34.912468
20
14.968255
30
-35.865814
70
192
0
VERTEX
8
Form0
10
28.079657
20
14.968255
30
-35.865814
70
192
0
VERTEX
8
Form0
10
28.756317
20
12.003607
30
-29.551346
70
192
0
VERTEX
8
Form0
10
34.235809
20
12.003607
30
-29.551346
70
192
0
VERTEX
8
Form0
10
39.172661
20
9.626148
30
-49.188812
70
192
0
VERTEX
8
Form0
10
41.068623
20
12.003611
30
-42.874344
70
192
0
VERTEX
8
Form0
10
41.068623
20
12.003609
30
-35.865814
70
192
0
VERTEX
8
Form0
10
39.172657
20
9.626145
30
-29.551346
70
192
0
VERTEX
8
Form0
10
42.589066
20
5.342109
30
-49.188812
70
192
0
VERTEX
8
Form0
10
45.328812
20
6.661502
30
-42.874344
70
192
0
VERTEX
8
Form0
10
45.328812
20
6.661500
30
-35.865814
70
192
0
VERTEX
8
Form0
10
42.589066
20
5.342108
30
-29.551346
70
192
0
VERTEX
8
Form0
10
43.808369
20
0.000000
30
-49.188812
70
192
0
VERTEX
8
Form0
10
46.849255
20
0.000000
30
-42.874344
70
192
0
VERTEX
8
Form0
10
46.849255
20
0.000000
30
-35.865814
70
192
0
VERTEX
8
Form0
10
43.808365
20
0.000000
30
-29.551346
70
192
0
VERTEX
8
Form0
10
42.589066
20
-5.342109
30
-49.188812
70
192
0
VERTEX
8
Form0
10
45.328812
20
-6.661500
30
-42.874344
70
192
0
VERTEX
8
Form0
10
45.328812
20
-6.661500
30
-35.865814
70
192
0
VERTEX
8
Form0
10
42.589066
20
-5.342108
30
-29.551346
70
192
0
VERTEX
8
Form0
10
39.172661
20
-9.626148
30
-49.188812
70
192
0
VERTEX
8
Form0
10
41.068623
20
-12.003609
30
-42.874344
70
192
0
VERTEX
8
Form0
10
41.068623
20
-12.003609
30
-35.865814
70
192
0
VERTEX
8
Form0
10
39.172661
20
-9.626146
30
-29.551346
70
192
0
VERTEX
8
Form0
10
34.235809
20
-12.003611
30
-49.188812
70
192
0
VERTEX
8
Form0
10
34.912472
20
-14.968256
30
-42.874344
70
192
0
VERTEX
8
Form0
10
34.912468
20
-14.968255
30
-35.865814
70
192
0
VERTEX
8
Form0
10
34.235809
20
-12.003608
30
-29.551346
70
192
0
VERTEX
8
Form0
10
31.496063
20
0.000000
30
-55.118111
70
192
0
VERTEX
8
Form0
10
33.016506
20
-6.661502
30
-53.558563
70
192
0
VERTEX
8
Form0
10
29.975618
20
-6.661502
30
-53.558563
70
192
0
VERTEX
8
Form0
10
35.756252
20
-5.342110
30
-53.558563
70
192
0
VERTEX
8
Form0
10
29.975618
20
6.661502
30
-53.558563
70
192
0
VERTEX
8
Form0
10
27.235872
20
5.342110
30
-53.558563
70
192
0
VERTEX
8
Form0
10
23.819466
20
9.626148
30
-49.188812
70
192
0
VERTEX
8
Form0
10
33.016506
20
6.661502
30
-53.558563
70
192
0
VERTEX
8
Form0
10
35.756256
20
5.342110
30
-53.558563
70
192
0
VERTEX
8
Form0
10
37.652218
20
2.964647
30
-53.558563
70
192
0
VERTEX
8
Form0
10
38.328876
20
0.000000
30
-53.558563
70
192
0
VERTEX
8
Form0
10
37.652218
20
-2.964647
30
-53.558563
70
192
0
VERTEX
8
Form0
10
25.339909
20
2.964648
30
-53.558563
70
192
0
VERTEX
8
Form0
10
24.663248
20
0.000000
30
-53.558563
70
192
0
VERTEX
8
Form0
10
25.339909
20
-2.964647
30
-53.558563
70
192
0
VERTEX
8
Form0
10
27.235872
20
-5.342110
30
-53.558563
70
192
0
VERTEX
8
Form0
10
28.756317
20
-12.003611
30
-49.188812
70
192
0
VERTEX
8
Form0
10
23.819466
20
-9.626148
30
-49.188812
70
192
0
VERTEX
8
Form0
10
28.079657
20
-14.968256
30
-42.874344
70
192
0
VERTEX
8
Form0
10
35.756252
20
-5.342109
30
-25.181595
70
192
0
VERTEX
8
Form0
10
33.016506
20
-6.661500
30
-25.181595
70
192
0
VERTEX
8
Form0
10
37.652214
20
-2.964647
30
-25.181595
70
192
0
VERTEX
8
Form0
10
38.328876
20
0.000000
30
-25.181595
70
192
0
VERTEX
8
Form0
10
37.652214
20
2.964647
30
-25.181595
70
192
0
VERTEX
8
Form0
10
35.756252
20
5.342108
30
-25.181595
70
192
0
VERTEX
8
Form0
10
33.016506
20
6.661500
30
-25.181595
70
192
0
VERTEX
8
Form0
10
29.975620
20
6.661500
30
-25.181595
70
192
0
VERTEX
8
Form0
10
31.496063
20
0.000000
30
-23.622051
70
192
0
VERTEX
8
Form0
10
29.975618
20
-6.661500
30
-25.181595
70
192
0
VERTEX
8
Form0
10
28.756319
20
-12.003608
30
-29.551346
70
192
0
VERTEX
8
Form0
10
28.079657
20
-14.968255
30
-35.865814
70
192
0
VERTEX
8
Form0
10
24.936478
20
13.454582
30
-42.874344
70
192
0
VERTEX
8
Form0
10
26.832439
20
14.367629
30
-38.504597
70
192
0
VERTEX
8
Form0
10
26.832439
20
14.367629
30
-35.865814
70
192
0
VERTEX
8
Form0
10
23.622963
20
9.872554
30
-48.534363
70
192
0
VERTEX
8
Form0
10
24.565731
20
11.830234
30
-45.648838
70
192
0
VERTEX
8
Form0
10
27.665501
20
13.323004
30
-33.091324
70
192
0
VERTEX
8
Form0
10
28.044847
20
11.660980
30
-29.551346
70
192
0
VERTEX
8
Form0
10
23.465380
20
9.182139
30
-49.188812
70
192
0
VERTEX
8
Form0
10
29.264149
20
6.318873
30
-25.181595
70
192
0
VERTEX
8
Form0
10
23.123487
20
4.032020
30
-51.596745
70
192
0
VERTEX
8
Form0
10
23.413910
20
5.304439
30
-51.133537
70
192
0
VERTEX
8
Form0
10
23.123487
20
0.000000
30
-52.330647
70
192
0
VERTEX
8
Form0
10
29.940813
20
3.354215
30
-24.487530
70
192
0
VERTEX
8
Form0
10
30.140612
20
1.699683
30
-24.118246
70
192
0
VERTEX
8
Form0
10
30.303999
20
0.574068
30
-23.924038
70
192
0
VERTEX
8
Form0
10
30.409075
20
0.000000
30
-23.870150
70
192
0
VERTEX
8
Form0
10
30.303999
20
-0.574067
30
-23.924038
70
192
0
VERTEX
8
Form0
10
30.140612
20
-1.699683
30
-24.118246
70
192
0
VERTEX
8
Form0
10
23.123487
20
-4.032019
30
-51.596745
70
192
0
VERTEX
8
Form0
10
29.940813
20
-3.354215
30
-24.487530
70
192
0
VERTEX
8
Form0
10
29.264149
20
-6.318875
30
-25.181595
70
192
0
VERTEX
8
Form0
10
23.465380
20
-9.182139
30
-49.188812
70
192
0
VERTEX
8
Form0
10
23.413910
20
-5.304439
30
-51.133537
70
192
0
VERTEX
8
Form0
10
28.044847
20
-11.660982
30
-29.551346
70
192
0
VERTEX
8
Form0
10
23.622963
20
-9.872555
30
-48.534363
70
192
0
VERTEX
8
Form0
10
27.665503
20
-13.323004
30
-33.091324
70
192
0
VERTEX
8
Form0
10
26.832443
20
-14.367628
30
-35.865814
70
192
0
VERTEX
8
Form0
10
24.936480
20
-13.454582
30
-42.874344
70
192
0
VERTEX
8
Form0
10
24.565731
20
-11.830233
30
-45.648838
70
192
0
VERTEX
8
Form0
10
26.832441
20
-14.367629
30
-38.504597
70
192
0
VERTEX
8
Form0
10
15.353195
20
-19.252298
30
-11.858589
70
192
0
VERTEX
8
Form0
10
22.186010
20
-10.684219
30
-11.858589
70
192
0
VERTEX
8
Form0
10
12.312305
20
-5.929294
30
-3.119091
70
192
0
VERTEX
8
Form0
10
8.520380
20
-10.684218
30
-3.119091
70
192
0
VERTEX
8
Form0
10
6.832816
20
-29.936518
30
-38.504597
70
192
0
VERTEX
8
Form0
10
19.145123
20
-24.007223
30
-38.504597
70
192
0
VERTEX
8
Form0
10
19.145123
20
-24.007223
30
-24.487530
70
192
0
VERTEX
8
Form0
10
6.832816
20
-29.936518
30
-24.487530
70
192
0
VERTEX
8
Form0
10
5.479492
20
-24.007223
30
-11.858589
70
192
0
VERTEX
8
Form0
10
3.040889
20
-13.323003
30
-3.119091
70
192
0
VERTEX
8
Form0
10
-6.832814
20
-29.936518
30
-38.504597
70
192
0
VERTEX
8
Form0
10
-6.832814
20
-29.936518
30
-24.487530
70
192
0
VERTEX
8
Form0
10
-5.479492
20
-24.007223
30
-11.858589
70
192
0
VERTEX
8
Form0
10
-3.040888
20
-13.323003
30
-3.119091
70
192
0
VERTEX
8
Form0
10
-19.145121
20
-24.007223
30
-38.504597
70
192
0
VERTEX
8
Form0
10
-19.145121
20
-24.007223
30
-24.487530
70
192
0
VERTEX
8
Form0
10
-15.353195
20
-19.252298
30
-11.858589
70
192
0
VERTEX
8
Form0
10
-8.520380
20
-10.684218
30
-3.119091
70
192
0
VERTEX
8
Form0
10
-27.665501
20
-13.323004
30
-38.504597
70
192
0
VERTEX
8
Form0
10
-27.665501
20
-13.323004
30
-24.487530
70
192
0
VERTEX
8
Form0
10
-22.186010
20
-10.684219
30
-11.858589
70
192
0
VERTEX
8
Form0
10
-12.312305
20
-5.929294
30
-3.119091
70
192
0
VERTEX
8
Form0
10
-30.706390
20
-0.000001
30
-38.504597
70
192
0
VERTEX
8
Form0
10
-30.706390
20
-0.000001
30
-24.487530
70
192
0
VERTEX
8
Form0
10
-24.624613
20
0.000000
30
-11.858589
70
192
0
VERTEX
8
Form0
10
-13.665628
20
0.000000
30
-3.119091
70
192
0
VERTEX
8
Form0
10
-27.665503
20
13.323003
30
-38.504597
70
192
0
VERTEX
8
Form0
10
-27.665503
20
13.323003
30
-24.487530
70
192
0
VERTEX
8
Form0
10
-22.186010
20
10.684219
30
-11.858589
70
192
0
VERTEX
8
Form0
10
-12.312305
20
5.929294
30
-3.119091
70
192
0
VERTEX
8
Form0
10
-19.145123
20
24.007223
30
-38.504597
70
192
0
VERTEX
8
Form0
10
-19.145123
20
24.007223
30
-24.487530
70
192
0
VERTEX
8
Form0
10
-15.353195
20
19.252298
30
-11.858589
70
192
0
VERTEX
8
Form0
10
-8.520380
20
10.684218
30
-3.119091
70
192
0
VERTEX
8
Form0
10
-6.832816
20
29.936518
30
-38.504597
70
192
0
VERTEX
8
Form0
10
-6.832816
20
29.936518
30
-24.487530
70
192
0
VERTEX
8
Form0
10
-5.479492
20
24.007223
30
-11.858589
70
192
0
VERTEX
8
Form0
10
-3.040889
20
13.323003
30
-3.119091
70
192
0
VERTEX
8
Form0
10
6.832814
20
29.936518
30
-38.504597
70
192
0
VERTEX
8
Form0
10
6.832814
20
29.936518
30
-24.487530
70
192
0
VERTEX
8
Form0
10
5.479492
20
24.007223
30
-11.858589
70
192
0
VERTEX
8
Form0
10
3.040888
20
13.323003
30
-3.119091
70
192
0
VERTEX
8
Form0
10
8.520382
20
10.684220
30
-59.873035
70
192
0
VERTEX
8
Form0
10
3.040889
20
13.323005
30
-59.873035
70
192
0
VERTEX
8
Form0
10
5.479492
20
24.007223
30
-51.133537
70
192
0
VERTEX
8
Form0
10
15.353195
20
19.252298
30
-51.133537
70
192
0
VERTEX
8
Form0
10
-3.040889
20
13.323005
30
-59.873035
70
192
0
VERTEX
8
Form0
10
-5.479492
20
24.007223
30
-51.133537
70
192
0
VERTEX
8
Form0
10
-8.520381
20
10.684220
30
-59.873035
70
192
0
VERTEX
8
Form0
10
-15.353195
20
19.252298
30
-51.133537
70
192
0
VERTEX
8
Form0
10
-12.312307
20
5.929295
30
-59.873035
70
192
0
VERTEX
8
Form0
10
-22.186010
20
10.684219
30
-51.133537
70
192
0
VERTEX
8
Form0
10
-13.665630
20
0.000001
30
-59.873035
70
192
0
VERTEX
8
Form0
10
-24.624613
20
0.000000
30
-51.133537
70
192
0
VERTEX
8
Form0
10
-12.312307
20
-5.929294
30
-59.873035
70
192
0
VERTEX
8
Form0
10
-22.186010
20
-10.684219
30
-51.133537
70
192
0
VERTEX
8
Form0
10
-8.520381
20
-10.684219
30
-59.873035
70
192
0
VERTEX
8
Form0
10
-15.353195
20
-19.252298
30
-51.133537
70
192
0
VERTEX
8
Form0
10
-3.040889
20
-13.323004
30
-59.873035
70
192
0
VERTEX
8
Form0
10
-5.479492
20
-24.007223
30
-51.133537
70
192
0
VERTEX
8
Form0
10
3.040888
20
-13.323004
30
-59.873035
70
192
0
VERTEX
8
Form0
10
5.479492
20
-24.007223
30
-51.133537
70
192
0
VERTEX
8
Form0
10
0.000000
20
0.000000
30
-62.992126
70
192
0
VERTEX
8
Form0
10
8.520380
20
-10.684219
30
-59.873035
70
192
0
VERTEX
8
Form0
10
12.312308
20
5.929295
30
-59.873035
70
192
0
VERTEX
8
Form0
10
22.186010
20
10.684219
30
-51.133537
70
192
0
VERTEX
8
Form0
10
13.665629
20
0.000000
30
-59.873035
70
192
0
VERTEX
8
Form0
10
12.312306
20
-5.929295
30
-59.873035
70
192
0
VERTEX
8
Form0
10
22.186010
20
-10.684219
30
-51.133537
70
192
0
VERTEX
8
Form0
10
15.353195
20
-19.252298
30
-51.133537
70
192
0
VERTEX
8
Form0
10
19.145121
20
24.007223
30
-38.504597
70
192
0
VERTEX
8
Form0
10
19.145121
20
24.007223
30
-24.487530
70
192
0
VERTEX
8
Form0
10
15.353195
20
19.252298
30
-11.858589
70
192
0
VERTEX
8
Form0
10
8.520380
20
10.684218
30
-3.119091
70
192
0
VERTEX
8
Form0
10
12.312305
20
5.929294
30
-3.119091
70
192
0
VERTEX
8
Form0
10
-0.000001
20
0.000000
30
-0.000001
70
192
0
VERTEX
8
Form0
10
13.665628
20
0.000000
30
-3.119091
70
192
0
VERTEX
8
Form0
10
24.624613
20
0.000000
30
-11.858589
70
192
0
VERTEX
8
Form0
10
22.186010
20
10.684219
30
-11.858589
70
192
0
VERTEX
8
Form0
10
27.665501
20
13.323004
30
-24.487530
70
192
0
VERTEX
8
Form0
10
27.665503
20
-13.323004
30
-24.487530
70
192
0
VERTEX
8
Form0
10
28.079657
20
14.968255
30
-38.820557
70
192
0
VERTEX
8
Form0
10
28.547293
20
12.919404
30
-47.238243
70
192
0
VERTEX
8
Form0
10
28.376972
20
13.665629
30
-33.091324
70
192
0
VERTEX
8
Form0
10
26.913832
20
5.745937
30
-53.146656
70
192
0
VERTEX
8
Form0
10
30.697975
20
3.496655
30
-24.440664
70
192
0
VERTEX
8
Form0
10
30.697973
20
-3.496656
30
-24.440664
70
192
0
VERTEX
8
Form0
10
26.913832
20
-5.745937
30
-53.146656
70
192
0
VERTEX
8
Form0
10
28.376972
20
-13.665629
30
-33.091324
70
192
0
VERTEX
8
Form0
10
28.547293
20
-12.919403
30
-47.238243
70
192
0
VERTEX
8
Form0
10
28.079657
20
-14.968255
30
-38.820557
70
192
0
VERTEX
8
Form0
10
29.189774
20
-6.644739
30
-24.487530
70
192
0
VERTEX
8
Form0
10
27.665503
20
-13.323004
30
-28.191843
70
192
0
VERTEX
8
Form0
10
27.665501
20
13.323004
30
-28.191841
70
192
0
VERTEX
8
Form0
10
29.189772
20
6.644737
30
-24.487530
70
192
0
VERTEX
8
Form0
10
22.186327
20
10.682829
30
-51.133537
70
192
0
VERTEX
8
Form0
10
22.959118
20
11.056529
30
-49.351704
70
192
0
VERTEX
8
Form0
10
24.350035
20
-1.203007
30
-11.858589
70
192
0
VERTEX
8
Form0
10
23.873476
20
-3.290947
30
-11.858589
70
192
0
VERTEX
8
Form0
10
22.959118
20
-11.056529
30
-49.351704
70
192
0
VERTEX
8
Form0
10
22.186329
20
-10.682828
30
-51.133537
70
192
0
VERTEX
8
Form0
10
23.873476
20
3.290948
30
-11.858589
70
192
0
VERTEX
8
Form0
10
24.350035
20
1.203007
30
-11.858589
70
192
0
VERTEX
8
Form0
10
19.145123
20
-24.007223
30
-33.051682
70
192
0
VERTEX
8
Form0
10
19.145121
20
24.007223
30
-33.051682
70
192
0
VERTEX
8
Form0
10
17.479254
20
-21.918291
30
-44.052742
70
192
0
VERTEX
8
Form0
10
17.479252
20
21.918289
30
-44.052742
70
192
0
VERTEX
8
Form0
10
14.151991
20
6.815239
30
-58.244678
70
192
0
VERTEX
8
Form0
10
14.151989
20
-6.815239
30
-58.244678
70
192
0
VERTEX
8
Form0
10
0.000000
20
0.000000
30
0.000000
70
128
71
1
72
4
73
3
74
2
0
VERTEX
8
Form0
10
0.000000
20
0.000000
30
0.000000
70
128
71
5
72
8
73
7
74
6
0
VERTEX
8
Form0
10
0.000000
20
0.000000
30
0.000000
70
128
71
9
72
10
73
4
74
1
0
VERTEX
8
Form0
10
0.000000
20
0.000000
30
0.000000
70
128
71
11
72
12
73
8
74
5
0
VERTEX
8
Form0
10
0.000000
20
0.000000
30
0.000000
70
128
71
13
72
14
73
10
74
9
0
VERTEX
8
Form0
10
0.000000
20
0.000000
30
0.000000
70
128
71
15
72
16
73
12
74
11
0
VERTEX
8
Form0
10
0.000000
20
0.000000
30
0.000000
70
128
71
17
72
18
73
14
74
13
0
VERTEX
8
Form0
10
0.000000
20
0.000000
30
0.000000
70
128
71
19
72
20
73
16
74
15
0
VERTEX
8
Form0
10
0.000000
20
0.000000
30
0.000000
70
128
71
21
72
22
73
18
74
17
0
VERTEX
8
Form0
10
0.000000
20
0.000000
30
0.000000
70
128
71
23
72
24
73
20
74
19
0
VERTEX
8
Form0
10
0.000000
20
0.000000
30
0.000000
70
128
71
25
72
26
73
22
74
21
0
VERTEX
8
Form0
10
0.000000
20
0.000000
30
0.000000
70
128
71
27
72
28
73
24
74
23
0
VERTEX
8
Form0
10
0.000000
20
0.000000
30
0.000000
70
128
71
29
72
30
73
26
74
25
0
VERTEX
8
Form0
10
0.000000
20
0.000000
30
0.000000
70
128
71
31
72
32
73
28
74
27
0
VERTEX
8
Form0
10
0.000000
20
0.000000
30
0.000000
70
128
71
33
72
35
73
34
74
34
0
VERTEX
8
Form0
10
0.000000
20
0.000000
30
0.000000
70
128
71
34
72
29
73
25
74
36
0
VERTEX
8
Form0
10
0.000000
20
0.000000
30
0.000000
70
128
71
37
72
2
73
39
74
38
0
VERTEX
8
Form0
10
0.000000
20
0.000000
30
0.000000
70
128
71
40
72
1
73
2
74
37
0
VERTEX
8
Form0
10
0.000000
20
0.000000
30
0.000000
70
128
71
41
72
9
73
1
74
40
0
VERTEX
8
Form0
10
0.000000
20
0.000000
30
0.000000
70
128
71
42
72
13
73
9
74
41
0
VERTEX
8
Form0
10
0.000000
20
0.000000
30
0.000000
70
128
71
43
72
17
73
13
74
42
0
VERTEX
8
Form0
10
0.000000
20
0.000000
30
0.000000
70
128
71
44
72
21
73
17
74
43
0
VERTEX
8
Form0
10
0.000000
20
0.000000
30
0.000000
70
128
71
36
72
25
73
21
74
44
0
VERTEX
8
Form0
10
0.000000
20
0.000000
30
0.000000
70
128
71
33
72
34
73
36
74
36
0
VERTEX
8
Form0
10
0.000000
20
0.000000
30
0.000000
70
128
71
33
72
36
73
44
74
44
0
VERTEX
8
Form0
10
0.000000
20
0.000000
30
0.000000
70
128
71
33
72
44
73
43
74
43
0
VERTEX
8
Form0
10
0.000000
20
0.000000
30
0.000000
70
128
71
33
72
43
73
42
74
42
0
VERTEX
8
Form0
10
0.000000
20
0.000000
30
0.000000
70
128
71
33
72
42
73
41
74
41
0
VERTEX
8
Form0
10
0.000000
20
0.000000
30
0.000000
70
128
71
33
72
41
73
40
74
40
0
VERTEX
8
Form0
10
0.000000
20
0.000000
30
0.000000
70
128
71
33
72
40
73
37
74
37
0
VERTEX
8
Form0
10
0.000000
20
0.000000
30
0.000000
70
128
71
33
72
37
73
38
74
38
0
VERTEX
8
Form0
10
0.000000
20
0.000000
30
0.000000
70
128
71
33
72
38
73
45
74
45
0
VERTEX
8
Form0
10
0.000000
20
0.000000
30
0.000000
70
128
71
33
72
45
73
46
74
46
0
VERTEX
8
Form0
10
0.000000
20
0.000000
30
0.000000
70
128
71
33
72
46
73
47
74
47
0
VERTEX
8
Form0
10
0.000000
20
0.000000
30
0.000000
70
128
71
33
72
47
73
48
74
48
0
VERTEX
8
Form0
10
0.000000
20
0.000000
30
0.000000
70
128
71
33
72
48
73
35
74
35
0
VERTEX
8
Form0
10
0.000000
20
0.000000
30
0.000000
70
128
71
48
72
50
73
49
74
35
0
VERTEX
8
Form0
10
0.000000
20
0.000000
30
0.000000
70
128
71
35
72
49
73
29
74
34
0
VERTEX
8
Form0
10
0.000000
20
0.000000
30
0.000000
70
128
71
49
72
51
73
30
74
29
0
VERTEX
8
Form0
10
0.000000
20
0.000000
30
0.000000
70
128
71
32
72
53
73
52
74
28
0
VERTEX
8
Form0
10
0.000000
20
0.000000
30
0.000000
70
128
71
28
72
52
73
54
74
24
0
VERTEX
8
Form0
10
0.000000
20
0.000000
30
0.000000
70
128
71
24
72
54
73
55
74
20
0
VERTEX
8
Form0
10
0.000000
20
0.000000
30
0.000000
70
128
71
20
72
55
73
56
74
16
0
VERTEX
8
Form0
10
0.000000
20
0.000000
30
0.000000
70
128
71
16
72
56
73
57
74
12
0
VERTEX
8
Form0
10
0.000000
20
0.000000
30
0.000000
70
128
71
12
72
57
73
58
74
8
0
VERTEX
8
Form0
10
0.000000
20
0.000000
30
0.000000
70
128
71
8
72
58
73
59
74
7
0
VERTEX
8
Form0
10
0.000000
20
0.000000
30
0.000000
70
128
71
58
72
60
73
59
74
59
0
VERTEX
8
Form0
10
0.000000
20
0.000000
30
0.000000
70
128
71
57
72
60
73
58
74
58
0
VERTEX
8
Form0
10
0.000000
20
0.000000
30
0.000000
70
128
71
56
72
60
73
57
74
57
0
VERTEX
8
Form0
10
0.000000
20
0.000000
30
0.000000
70
128
71
55
72
60
73
56
74
56
0
VERTEX
8
Form0
10
0.000000
20
0.000000
30
0.000000
70
128
71
54
72
60
73
55
74
55
0
VERTEX
8
Form0
10
0.000000
20
0.000000
30
0.000000
70
128
71
52
72
60
73
54
74
54
0
VERTEX
8
Form0
10
0.000000
20
0.000000
30
0.000000
70
128
71
53
72
60
73
52
74
52
0
VERTEX
8
Form0
10
0.000000
20
0.000000
30
0.000000
70
128
71
61
72
60
73
53
74
53
0
VERTEX
8
Form0
10
0.000000
20
0.000000
30
0.000000
70
128
71
62
72
61
73
53
74
32
0
VERTEX
8
Form0
10
0.000000
20
0.000000
30
0.000000
70
128
71
63
72
62
73
32
74
31
0
VERTEX
8
Form0
10
0.000000
20
0.000000
30
0.000000
70
128
71
51
72
63
73
31
74
30
0
VERTEX
8
Form0
10
0.000000
20
0.000000
30
0.000000
70
128
71
30
72
31
73
27
74
26
0
VERTEX
8
Form0
10
0.000000
20
0.000000
30
0.000000
70
128
71
26
72
27
73
23
74
22
0
VERTEX
8
Form0
10
0.000000
20
0.000000
30
0.000000
70
128
71
22
72
23
73
19
74
18
0
VERTEX
8
Form0
10
0.000000
20
0.000000
30
0.000000
70
128
71
18
72
19
73
15
74
14
0
VERTEX
8
Form0
10
0.000000
20
0.000000
30
0.000000
70
128
71
14
72
15
73
11
74
10
0
VERTEX
8
Form0
10
0.000000
20
0.000000
30
0.000000
70
128
71
10
72
11
73
5
74
4
0
VERTEX
8
Form0
10
0.000000
20
0.000000
30
0.000000
70
128
71
4
72
5
73
6
74
3
0
VERTEX
8
Form0
10
0.000000
20
0.000000
30
0.000000
70
128
71
39
72
67
73
71
74
71
0
VERTEX
8
Form0
10
0.000000
20
0.000000
30
0.000000
70
128
71
7
72
59
73
72
74
70
0
VERTEX
8
Form0
10
0.000000
20
0.000000
30
0.000000
70
128
71
46
72
45
73
73
74
75
0
VERTEX
8
Form0
10
0.000000
20
0.000000
30
0.000000
70
128
71
60
72
78
73
77
74
77
0
VERTEX
8
Form0
10
0.000000
20
0.000000
30
0.000000
70
128
71
60
72
79
73
78
74
78
0
VERTEX
8
Form0
10
0.000000
20
0.000000
30
0.000000
70
128
71
60
72
80
73
79
74
79
0
VERTEX
8
Form0
10
0.000000
20
0.000000
30
0.000000
70
128
71
60
72
81
73
80
74
80
0
VERTEX
8
Form0
10
0.000000
20
0.000000
30
0.000000
70
128
71
47
72
46
73
75
74
82
0
VERTEX
8
Form0
10
0.000000
20
0.000000
30
0.000000
70
128
71
62
72
87
73
84
74
61
0
VERTEX
8
Form0
10
0.000000
20
0.000000
30
0.000000
70
128
71
50
72
85
73
88
74
88
0
VERTEX
8
Form0
10
0.000000
20
0.000000
30
0.000000
70
128
71
94
72
97
73
96
74
95
0
VERTEX
8
Form0
10
0.000000
20
0.000000
30
0.000000
70
128
71
98
72
101
73
100
74
99
0
VERTEX
8
Form0
10
0.000000
20
0.000000
30
0.000000
70
128
71
102
72
103
73
97
74
94
0
VERTEX
8
Form0
10
0.000000
20
0.000000
30
0.000000
70
128
71
104
72
105
73
101
74
98
0
VERTEX
8
Form0
10
0.000000
20
0.000000
30
0.000000
70
128
71
106
72
107
73
103
74
102
0
VERTEX
8
Form0
10
0.000000
20
0.000000
30
0.000000
70
128
71
108
72
109
73
105
74
104
0
VERTEX
8
Form0
10
0.000000
20
0.000000
30
0.000000
70
128
71
110
72
111
73
107
74
106
0
VERTEX
8
Form0
10
0.000000
20
0.000000
30
0.000000
70
128
71
112
72
113
73
109
74
108
0
VERTEX
8
Form0
10
0.000000
20
0.000000
30
0.000000
70
128
71
114
72
115
73
111
74
110
0
VERTEX
8
Form0
10
0.000000
20
0.000000
30
0.000000
70
128
71
116
72
117
73
113
74
112
0
VERTEX
8
Form0
10
0.000000
20
0.000000
30
0.000000
70
128
71
118
72
119
73
115
74
114
0
VERTEX
8
Form0
10
0.000000
20
0.000000
30
0.000000
70
128
71
120
72
121
73
117
74
116
0
VERTEX
8
Form0
10
0.000000
20
0.000000
30
0.000000
70
128
71
122
72
123
73
119
74
118
0
VERTEX
8
Form0
10
0.000000
20
0.000000
30
0.000000
70
128
71
124
72
125
73
121
74
120
0
VERTEX
8
Form0
10
0.000000
20
0.000000
30
0.000000
70
128
71
126
72
127
73
123
74
122
0
VERTEX
8
Form0
10
0.000000
20
0.000000
30
0.000000
70
128
71
128
72
129
73
125
74
124
0
VERTEX
8
Form0
10
0.000000
20
0.000000
30
0.000000
70
128
71
130
72
131
73
127
74
126
0
VERTEX
8
Form0
10
0.000000
20
0.000000
30
0.000000
70
128
71
132
72
133
73
129
74
128
0
VERTEX
8
Form0
10
0.000000
20
0.000000
30
0.000000
70
128
71
134
72
135
73
131
74
130
0
VERTEX
8
Form0
10
0.000000
20
0.000000
30
0.000000
70
128
71
136
72
139
73
138
74
137
0
VERTEX
8
Form0
10
0.000000
20
0.000000
30
0.000000
70
128
71
137
72
138
73
141
74
140
0
VERTEX
8
Form0
10
0.000000
20
0.000000
30
0.000000
70
128
71
140
72
141
73
143
74
142
0
VERTEX
8
Form0
10
0.000000
20
0.000000
30
0.000000
70
128
71
142
72
143
73
145
74
144
0
VERTEX
8
Form0
10
0.000000
20
0.000000
30
0.000000
70
128
71
144
72
145
73
147
74
146
0
VERTEX
8
Form0
10
0.000000
20
0.000000
30
0.000000
70
128
71
146
72
147
73
149
74
148
0
VERTEX
8
Form0
10
0.000000
20
0.000000
30
0.000000
70
128
71
148
72
149
73
151
74
150
0
VERTEX
8
Form0
10
0.000000
20
0.000000
30
0.000000
70
128
71
150
72
151
73
153
74
152
0
VERTEX
8
Form0
10
0.000000
20
0.000000
30
0.000000
70
128
71
152
72
153
73
155
74
154
0
VERTEX
8
Form0
10
0.000000
20
0.000000
30
0.000000
70
128
71
156
72
154
73
157
74
157
0
VERTEX
8
Form0
10
0.000000
20
0.000000
30
0.000000
70
128
71
156
72
152
73
154
74
154
0
VERTEX
8
Form0
10
0.000000
20
0.000000
30
0.000000
70
128
71
156
72
150
73
152
74
152
0
VERTEX
8
Form0
10
0.000000
20
0.000000
30
0.000000
70
128
71
156
72
148
73
150
74
150
0
VERTEX
8
Form0
10
0.000000
20
0.000000
30
0.000000
70
128
71
156
72
146
73
148
74
148
0
VERTEX
8
Form0
10
0.000000
20
0.000000
30
0.000000
70
128
71
156
72
144
73
146
74
146
0
VERTEX
8
Form0
10
0.000000
20
0.000000
30
0.000000
70
128
71
156
72
142
73
144
74
144
0
VERTEX
8
Form0
10
0.000000
20
0.000000
30
0.000000
70
128
71
156
72
140
73
142
74
142
0
VERTEX
8
Form0
10
0.000000
20
0.000000
30
0.000000
70
128
71
156
72
137
73
140
74
140
0
VERTEX
8
Form0
10
0.000000
20
0.000000
30
0.000000
70
128
71
156
72
136
73
137
74
137
0
VERTEX
8
Form0
10
0.000000
20
0.000000
30
0.000000
70
128
71
158
72
159
73
139
74
136
0
VERTEX
8
Form0
10
0.000000
20
0.000000
30
0.000000
70
128
71
156
72
158
73
136
74
136
0
VERTEX
8
Form0
10
0.000000
20
0.000000
30
0.000000
70
128
71
156
72
160
73
158
74
158
0
VERTEX
8
Form0
10
0.000000
20
0.000000
30
0.000000
70
128
71
156
72
161
73
160
74
160
0
VERTEX
8
Form0
10
0.000000
20
0.000000
30
0.000000
70
128
71
156
72
157
73
161
74
161
0
VERTEX
8
Form0
10
0.000000
20
0.000000
30
0.000000
70
128
71
157
72
163
73
162
74
161
0
VERTEX
8
Form0
10
0.000000
20
0.000000
30
0.000000
70
128
71
154
72
155
73
163
74
157
0
VERTEX
8
Form0
10
0.000000
20
0.000000
30
0.000000
70
128
71
155
72
98
73
99
74
163
0
VERTEX
8
Form0
10
0.000000
20
0.000000
30
0.000000
70
128
71
153
72
104
73
98
74
155
0
VERTEX
8
Form0
10
0.000000
20
0.000000
30
0.000000
70
128
71
151
72
108
73
104
74
153
0
VERTEX
8
Form0
10
0.000000
20
0.000000
30
0.000000
70
128
71
149
72
112
73
108
74
151
0
VERTEX
8
Form0
10
0.000000
20
0.000000
30
0.000000
70
128
71
147
72
116
73
112
74
149
0
VERTEX
8
Form0
10
0.000000
20
0.000000
30
0.000000
70
128
71
145
72
120
73
116
74
147
0
VERTEX
8
Form0
10
0.000000
20
0.000000
30
0.000000
70
128
71
143
72
124
73
120
74
145
0
VERTEX
8
Form0
10
0.000000
20
0.000000
30
0.000000
70
128
71
141
72
128
73
124
74
143
0
VERTEX
8
Form0
10
0.000000
20
0.000000
30
0.000000
70
128
71
138
72
132
73
128
74
141
0
VERTEX
8
Form0
10
0.000000
20
0.000000
30
0.000000
70
128
71
139
72
164
73
132
74
138
0
VERTEX
8
Form0
10
0.000000
20
0.000000
30
0.000000
70
128
71
164
72
165
73
133
74
132
0
VERTEX
8
Form0
10
0.000000
20
0.000000
30
0.000000
70
128
71
166
72
167
73
135
74
134
0
VERTEX
8
Form0
10
0.000000
20
0.000000
30
0.000000
70
128
71
168
72
169
73
167
74
167
0
VERTEX
8
Form0
10
0.000000
20
0.000000
30
0.000000
70
128
71
170
72
169
73
168
74
168
0
VERTEX
8
Form0
10
0.000000
20
0.000000
30
0.000000
70
128
71
167
72
169
73
135
74
135
0
VERTEX
8
Form0
10
0.000000
20
0.000000
30
0.000000
70
128
71
135
72
169
73
131
74
131
0
VERTEX
8
Form0
10
0.000000
20
0.000000
30
0.000000
70
128
71
131
72
169
73
127
74
127
0
VERTEX
8
Form0
10
0.000000
20
0.000000
30
0.000000
70
128
71
127
72
169
73
123
74
123
0
VERTEX
8
Form0
10
0.000000
20
0.000000
30
0.000000
70
128
71
123
72
169
73
119
74
119
0
VERTEX
8
Form0
10
0.000000
20
0.000000
30
0.000000
70
128
71
119
72
169
73
115
74
115
0
VERTEX
8
Form0
10
0.000000
20
0.000000
30
0.000000
70
128
71
115
72
169
73
111
74
111
0
VERTEX
8
Form0
10
0.000000
20
0.000000
30
0.000000
70
128
71
111
72
169
73
107
74
107
0
VERTEX
8
Form0
10
0.000000
20
0.000000
30
0.000000
70
128
71
107
72
169
73
103
74
103
0
VERTEX
8
Form0
10
0.000000
20
0.000000
30
0.000000
70
128
71
103
72
169
73
97
74
97
0
VERTEX
8
Form0
10
0.000000
20
0.000000
30
0.000000
70
128
71
97
72
169
73
96
74
96
0
VERTEX
8
Form0
10
0.000000
20
0.000000
30
0.000000
70
128
71
96
72
169
73
170
74
170
0
VERTEX
8
Form0
10
0.000000
20
0.000000
30
0.000000
70
128
71
95
72
96
73
170
74
171
0
VERTEX
8
Form0
10
0.000000
20
0.000000
30
0.000000
70
128
71
171
72
170
73
168
74
172
0
VERTEX
8
Form0
10
0.000000
20
0.000000
30
0.000000
70
128
71
172
72
168
73
167
74
166
0
VERTEX
8
Form0
10
0.000000
20
0.000000
30
0.000000
70
128
71
173
72
172
73
166
74
165
0
VERTEX
8
Form0
10
0.000000
20
0.000000
30
0.000000
70
128
71
165
72
166
73
134
74
133
0
VERTEX
8
Form0
10
0.000000
20
0.000000
30
0.000000
70
128
71
133
72
134
73
130
74
129
0
VERTEX
8
Form0
10
0.000000
20
0.000000
30
0.000000
70
128
71
129
72
130
73
126
74
125
0
VERTEX
8
Form0
10
0.000000
20
0.000000
30
0.000000
70
128
71
125
72
126
73
122
74
121
0
VERTEX
8
Form0
10
0.000000
20
0.000000
30
0.000000
70
128
71
121
72
122
73
118
74
117
0
VERTEX
8
Form0
10
0.000000
20
0.000000
30
0.000000
70
128
71
117
72
118
73
114
74
113
0
VERTEX
8
Form0
10
0.000000
20
0.000000
30
0.000000
70
128
71
113
72
114
73
110
74
109
0
VERTEX
8
Form0
10
0.000000
20
0.000000
30
0.000000
70
128
71
109
72
110
73
106
74
105
0
VERTEX
8
Form0
10
0.000000
20
0.000000
30
0.000000
70
128
71
105
72
106
73
102
74
101
0
VERTEX
8
Form0
10
0.000000
20
0.000000
30
0.000000
70
128
71
101
72
102
73
94
74
100
0
VERTEX
8
Form0
10
0.000000
20
0.000000
30
0.000000
70
128
71
100
72
94
73
95
74
174
0
VERTEX
8
Form0
10
0.000000
20
0.000000
30
0.000000
70
128
71
175
72
6
73
66
74
65
0
VERTEX
8
Form0
10
0.000000
20
0.000000
30
0.000000
70
128
71
65
72
64
73
3
74
175
0
VERTEX
8
Form0
10
0.000000
20
0.000000
30
0.000000
70
128
71
176
72
3
73
64
74
68
0
VERTEX
8
Form0
10
0.000000
20
0.000000
30
0.000000
70
128
71
68
72
67
73
2
74
2
0
VERTEX
8
Form0
10
0.000000
20
0.000000
30
0.000000
70
128
71
2
72
176
73
68
74
68
0
VERTEX
8
Form0
10
0.000000
20
0.000000
30
0.000000
70
128
71
2
72
67
73
39
74
39
0
VERTEX
8
Form0
10
0.000000
20
0.000000
30
0.000000
70
128
71
177
72
7
73
70
74
69
0
VERTEX
8
Form0
10
0.000000
20
0.000000
30
0.000000
70
128
71
69
72
66
73
6
74
177
0
VERTEX
8
Form0
10
0.000000
20
0.000000
30
0.000000
70
128
71
178
72
39
73
71
74
74
0
VERTEX
8
Form0
10
0.000000
20
0.000000
30
0.000000
70
128
71
74
72
73
73
45
74
45
0
VERTEX
8
Form0
10
0.000000
20
0.000000
30
0.000000
70
128
71
45
72
38
73
178
74
178
0
VERTEX
8
Form0
10
0.000000
20
0.000000
30
0.000000
70
128
71
45
72
178
73
74
74
74
0
VERTEX
8
Form0
10
0.000000
20
0.000000
30
0.000000
70
128
71
179
72
60
73
77
74
76
0
VERTEX
8
Form0
10
0.000000
20
0.000000
30
0.000000
70
128
71
76
72
72
73
59
74
179
0
VERTEX
8
Form0
10
0.000000
20
0.000000
30
0.000000
70
128
71
180
72
61
73
84
74
83
0
VERTEX
8
Form0
10
0.000000
20
0.000000
30
0.000000
70
128
71
83
72
81
73
60
74
180
0
VERTEX
8
Form0
10
0.000000
20
0.000000
30
0.000000
70
128
71
82
72
86
73
47
74
47
0
VERTEX
8
Form0
10
0.000000
20
0.000000
30
0.000000
70
128
71
47
72
181
73
48
74
48
0
VERTEX
8
Form0
10
0.000000
20
0.000000
30
0.000000
70
128
71
181
72
47
73
86
74
86
0
VERTEX
8
Form0
10
0.000000
20
0.000000
30
0.000000
70
128
71
86
72
85
73
50
74
181
0
VERTEX
8
Form0
10
0.000000
20
0.000000
30
0.000000
70
128
71
182
72
63
73
90
74
89
0
VERTEX
8
Form0
10
0.000000
20
0.000000
30
0.000000
70
128
71
89
72
87
73
62
74
182
0
VERTEX
8
Form0
10
0.000000
20
0.000000
30
0.000000
70
128
71
88
72
92
73
49
74
49
0
VERTEX
8
Form0
10
0.000000
20
0.000000
30
0.000000
70
128
71
88
72
49
73
50
74
50
0
VERTEX
8
Form0
10
0.000000
20
0.000000
30
0.000000
70
128
71
49
72
92
73
183
74
183
0
VERTEX
8
Form0
10
0.000000
20
0.000000
30
0.000000
70
128
71
92
72
91
73
51
74
183
0
VERTEX
8
Form0
10
0.000000
20
0.000000
30
0.000000
70
128
71
184
72
51
73
91
74
93
0
VERTEX
8
Form0
10
0.000000
20
0.000000
30
0.000000
70
128
71
93
72
90
73
63
74
184
0
VERTEX
8
Form0
10
0.000000
20
0.000000
30
0.000000
70
128
71
185
72
83
73
84
74
84
0
VERTEX
8
Form0
10
0.000000
20
0.000000
30
0.000000
70
128
71
87
72
186
73
174
74
174
0
VERTEX
8
Form0
10
0.000000
20
0.000000
30
0.000000
70
128
71
185
72
84
73
87
74
87
0
VERTEX
8
Form0
10
0.000000
20
0.000000
30
0.000000
70
128
71
185
72
87
73
174
74
174
0
VERTEX
8
Form0
10
0.000000
20
0.000000
30
0.000000
70
128
71
87
72
89
73
186
74
186
0
VERTEX
8
Form0
10
0.000000
20
0.000000
30
0.000000
70
128
71
187
72
69
73
70
74
70
0
VERTEX
8
Form0
10
0.000000
20
0.000000
30
0.000000
70
128
71
187
72
70
73
173
74
173
0
VERTEX
8
Form0
10
0.000000
20
0.000000
30
0.000000
70
128
71
70
72
188
73
173
74
173
0
VERTEX
8
Form0
10
0.000000
20
0.000000
30
0.000000
70
128
71
188
72
70
73
72
74
72
0
VERTEX
8
Form0
10
0.000000
20
0.000000
30
0.000000
70
128
71
72
72
76
73
188
74
188
0
VERTEX
8
Form0
10
0.000000
20
0.000000
30
0.000000
70
128
71
189
72
74
73
71
74
71
0
VERTEX
8
Form0
10
0.000000
20
0.000000
30
0.000000
70
128
71
159
72
189
73
190
74
190
0
VERTEX
8
Form0
10
0.000000
20
0.000000
30
0.000000
70
128
71
190
72
71
73
67
74
67
0
VERTEX
8
Form0
10
0.000000
20
0.000000
30
0.000000
70
128
71
71
72
190
73
189
74
189
0
VERTEX
8
Form0
10
0.000000
20
0.000000
30
0.000000
70
128
71
67
72
68
73
190
74
190
0
VERTEX
8
Form0
10
0.000000
20
0.000000
30
0.000000
70
128
71
191
72
171
73
79
74
80
0
VERTEX
8
Form0
10
0.000000
20
0.000000
30
0.000000
70
128
71
192
72
191
73
80
74
81
0
VERTEX
8
Form0
10
0.000000
20
0.000000
30
0.000000
70
128
71
83
72
174
73
95
74
95
0
VERTEX
8
Form0
10
0.000000
20
0.000000
30
0.000000
70
128
71
83
72
192
73
81
74
81
0
VERTEX
8
Form0
10
0.000000
20
0.000000
30
0.000000
70
128
71
192
72
83
73
95
74
95
0
VERTEX
8
Form0
10
0.000000
20
0.000000
30
0.000000
70
128
71
193
72
92
73
88
74
88
0
VERTEX
8
Form0
10
0.000000
20
0.000000
30
0.000000
70
128
71
194
72
162
73
193
74
193
0
VERTEX
8
Form0
10
0.000000
20
0.000000
30
0.000000
70
128
71
193
72
88
73
85
74
85
0
VERTEX
8
Form0
10
0.000000
20
0.000000
30
0.000000
70
128
71
193
72
85
73
194
74
194
0
VERTEX
8
Form0
10
0.000000
20
0.000000
30
0.000000
70
128
71
85
72
86
73
194
74
194
0
VERTEX
8
Form0
10
0.000000
20
0.000000
30
0.000000
70
128
71
173
72
76
73
172
74
172
0
VERTEX
8
Form0
10
0.000000
20
0.000000
30
0.000000
70
128
71
195
72
172
73
76
74
76
0
VERTEX
8
Form0
10
0.000000
20
0.000000
30
0.000000
70
128
71
195
72
76
73
77
74
77
0
VERTEX
8
Form0
10
0.000000
20
0.000000
30
0.000000
70
128
71
196
72
195
73
77
74
78
0
VERTEX
8
Form0
10
0.000000
20
0.000000
30
0.000000
70
128
71
78
72
79
73
171
74
196
0
VERTEX
8
Form0
10
0.000000
20
0.000000
30
0.000000
70
128
71
90
72
197
73
89
74
89
0
VERTEX
8
Form0
10
0.000000
20
0.000000
30
0.000000
70
128
71
174
72
89
73
197
74
197
0
VERTEX
8
Form0
10
0.000000
20
0.000000
30
0.000000
70
128
71
174
72
197
73
100
74
100
0
VERTEX
8
Form0
10
0.000000
20
0.000000
30
0.000000
70
128
71
90
72
93
73
99
74
197
0
VERTEX
8
Form0
10
0.000000
20
0.000000
30
0.000000
70
128
71
198
72
164
73
65
74
66
0
VERTEX
8
Form0
10
0.000000
20
0.000000
30
0.000000
70
128
71
198
72
66
73
69
74
69
0
VERTEX
8
Form0
10
0.000000
20
0.000000
30
0.000000
70
128
71
198
72
173
73
165
74
165
0
VERTEX
8
Form0
10
0.000000
20
0.000000
30
0.000000
70
128
71
173
72
198
73
69
74
69
0
VERTEX
8
Form0
10
0.000000
20
0.000000
30
0.000000
70
128
71
199
72
99
73
93
74
91
0
VERTEX
8
Form0
10
0.000000
20
0.000000
30
0.000000
70
128
71
163
72
199
73
92
74
92
0
VERTEX
8
Form0
10
0.000000
20
0.000000
30
0.000000
70
128
71
163
72
92
73
162
74
162
0
VERTEX
8
Form0
10
0.000000
20
0.000000
30
0.000000
70
128
71
92
72
199
73
91
74
91
0
VERTEX
8
Form0
10
0.000000
20
0.000000
30
0.000000
70
128
71
200
72
139
73
68
74
68
0
VERTEX
8
Form0
10
0.000000
20
0.000000
30
0.000000
70
128
71
68
72
64
73
200
74
200
0
VERTEX
8
Form0
10
0.000000
20
0.000000
30
0.000000
70
128
71
68
72
139
73
159
74
159
0
VERTEX
8
Form0
10
0.000000
20
0.000000
30
0.000000
70
128
71
64
72
65
73
164
74
200
0
VERTEX
8
Form0
10
0.000000
20
0.000000
30
0.000000
70
128
71
158
72
160
73
201
74
201
0
VERTEX
8
Form0
10
0.000000
20
0.000000
30
0.000000
70
128
71
201
72
75
73
73
74
73
0
VERTEX
8
Form0
10
0.000000
20
0.000000
30
0.000000
70
128
71
75
72
201
73
160
74
160
0
VERTEX
8
Form0
10
0.000000
20
0.000000
30
0.000000
70
128
71
73
72
74
73
159
74
201
0
VERTEX
8
Form0
10
0.000000
20
0.000000
30
0.000000
70
128
71
202
72
162
73
86
74
82
0
VERTEX
8
Form0
10
0.000000
20
0.000000
30
0.000000
70
128
71
160
72
161
73
202
74
202
0
VERTEX
8
Form0
10
0.000000
20
0.000000
30
0.000000
70
128
71
202
72
82
73
75
74
75
0
VERTEX
8
Form0
10
0.000000
20
0.000000
30
0.000000
70
128
71
202
72
75
73
160
74
160
0
SEQEND
8
Form0
0
ENDSEC
0
EOF
